<?xml version="1.0" encoding="UTF-8"?>
<svg id="b" data-name="圖層 2" xmlns="http://www.w3.org/2000/svg" viewBox="0 0 1440 100">
  <defs>
    <style>
      .d {
        fill: #88cdf6;
      }
    </style>
  </defs>
  <g id="c" data-name="圖層 50">
    <path class="d" d="M1440,69.89c0,13.23-20.63,24.49-49.45,28.69-4.42.65-9.02,1.13-13.77,1.42H30.56c-16.88,0-30.56-8.41-30.56-18.78,0-5.18,3.42-9.88,8.95-13.28.1-.06.2-.12.31-.18,2.73-11.17,66.93-20.78,159.29-25.43-1.33-1.46-2.01-2.95-2.01-4.46C166.54,17.24,294.11.51,451.48.51c62.74,0,120.75,2.66,167.81,7.16,38.19-4.82,85.94-7.68,137.76-7.68,87.32,0,163.13,8.13,201.06,20.03,41.35-6.79,98.58-10.99,161.81-10.99,113.96,0,208.44,13.65,225.62,31.5,6.36-.72,13.06-1.11,19.98-1.11,41.14,0,74.48,13.63,74.48,30.46Z"/>
  </g>
</svg>