<svg width="1442" height="102" viewBox="0 0 1442 102" fill="none" xmlns="http://www.w3.org/2000/svg">
<path d="M1441 77.0148C1441 90.262 1396.5 101 1341.61 101H92.6854V100.86C89.5265 100.952 86.3136 101 83.0546 101C37.7358 101 1 91.9151 1 80.7048C1 71.1993 27.4193 63.2177 63.0918 61.0148C61.782 59.8708 61.0963 58.6827 61.0963 57.4576C61.0963 50.3911 84.0177 44.428 115.368 42.5646C119.567 34.9926 161.788 29.0443 213.263 29.0443C222.879 29.0443 232.163 29.2509 240.946 29.6421C234.782 27.1402 231.369 24.3801 231.369 21.4797C231.369 10.1697 283.283 1 347.324 1C388.282 1 424.286 4.75277 444.911 10.417C449.557 10.048 454.419 9.85609 459.427 9.85609C492.195 9.85609 518.753 18.1181 518.753 28.3063V28.369C522.428 28.3284 526.157 28.3063 529.925 28.3063C551.683 28.3063 572.03 29.0221 589.389 30.2657C584.558 28.3875 581.931 26.3616 581.931 24.2472C581.931 14.4649 638.329 6.53506 707.902 6.53506C777.475 6.53506 833.873 14.4649 833.873 24.2472V24.2546C835.283 24.2472 836.693 24.2472 838.111 24.2472C885.533 24.2472 929.85 26.1808 967.51 29.5387C967.279 28.8266 967.164 28.1107 967.164 27.3838C967.164 12.8118 1014.59 1 1073.1 1C1105.25 1 1134.04 4.56458 1153.47 10.1919C1158.02 9.97048 1162.71 9.85609 1167.48 9.85609C1211.56 9.85609 1247.48 19.6384 1249.09 31.8745C1261.53 29.1808 1277.37 27.5683 1294.61 27.5683C1334.61 27.5683 1367.04 36.2435 1367.04 46.941C1367.04 49.2694 1365.5 51.5055 1362.68 53.572C1407.45 55.9041 1441 65.5129 1441 77.0148Z" fill="#88CDF6" stroke="white" stroke-miterlimit="10"/>
</svg>
