<svg width="1263" height="670" viewBox="0 0 1263 670" fill="none" xmlns="http://www.w3.org/2000/svg">
<g clip-path="url(#clip0_560_424)">
<path d="M1262.37 295.143C1257.7 139.627 1139.19 -92.7674 838.788 38.8497C838.788 38.8497 641.807 156.609 662.499 267.438C662.499 267.438 590.097 530.661 993.465 502.956C993.465 502.956 1267.64 470.249 1262.37 295.143Z" fill="#DDF3FB"/>
<path d="M1199.71 287.359C1207.78 320.386 1198.75 354.983 1172.59 385.081C1166.7 391.853 1185.02 397.792 1190.93 390.997C1219.81 357.759 1229.09 320.667 1220.19 284.243C1218.36 276.803 1197.9 279.978 1199.71 287.359Z" fill="white"/>
<path d="M1210.36 272.817C1228.09 273.21 1227.55 251.691 1209.77 251.296C1192 250.901 1192.59 272.422 1210.36 272.817Z" fill="white"/>
</g>
<g clip-path="url(#clip1_560_424)">
<path d="M692.673 602.635C696.519 553.172 659.903 474.478 541.111 503.147C541.111 503.147 462.075 531.909 465.939 567.899C465.939 567.899 428.95 648.121 583.094 656.784C583.094 656.784 688.372 658.29 692.694 602.61L692.673 602.635Z" fill="#DDF3FB"/>
<path d="M662.048 568.797C667.632 577.992 668.015 589.303 662.628 600.899C661.416 603.508 667.691 603.544 668.908 600.926C674.854 588.121 674.319 576.033 668.162 565.891C666.901 563.82 660.8 566.742 662.048 568.797Z" fill="white"/>
</g>
<g clip-path="url(#clip2_560_424)">
<path d="M245.269 230.901C250.055 172.735 213.605 80.901 90.6492 116.548C90.6492 116.548 8.68278 151.644 12.0694 193.857C12.0694 193.857 -27.3978 288.705 131.389 296.325C131.389 296.325 239.911 296.349 245.291 230.871L245.269 230.901Z" fill="#DDF3FB"/>
<path d="M201.527 166.414C213.86 179.112 219.299 195.276 216.205 212.336C215.508 216.174 224.938 215.696 225.638 211.844C229.051 193.007 223.05 175.741 209.449 161.737C206.668 158.879 198.77 163.577 201.527 166.414Z" fill="white"/>
<path d="M191.318 155.307C200.097 155.502 199.831 144.842 191.024 144.646C182.218 144.451 182.511 155.112 191.318 155.307Z" fill="white"/>
</g>
<defs>
<clipPath id="clip0_560_424">
<rect width="605" height="505" fill="white" transform="translate(657.439)"/>
</clipPath>
<clipPath id="clip1_560_424">
<rect width="231.183" height="160.958" fill="white" transform="matrix(-0.993571 -0.113211 -0.113211 0.993571 703.358 509.172)"/>
</clipPath>
<clipPath id="clip2_560_424">
<rect width="237.925" height="189.377" fill="white" transform="matrix(-0.993571 -0.113211 -0.113211 0.993571 257.835 120.936)"/>
</clipPath>
</defs>
</svg>
