<?xml version="1.0" encoding="UTF-8"?>
<svg id="a" data-name="圖層 1" xmlns="http://www.w3.org/2000/svg" viewBox="0 0 1891.75 325">
  <defs>
    <style>
      .ak {
        fill: #88cdf6;
        stroke: #fff;
        stroke-miterlimit: 10;
      }
    </style>
  </defs>
  <path class="ak" d="M1876.75,247.5c0,35.9-57.76,65-129,65H126.75v-.38c-4.1.25-8.27.38-12.5.38-58.82,0-106.5-24.62-106.5-55,0-25.76,34.29-47.39,80.59-53.36-1.7-3.1-2.59-6.32-2.59-9.64,0-19.15,29.75-35.31,70.44-40.36,5.45-20.52,60.25-36.64,127.06-36.64,12.48,0,24.53.56,35.93,1.62-8-6.78-12.43-14.26-12.43-22.12,0-30.65,67.38-55.5,150.5-55.5,53.16,0,99.89,10.17,126.66,25.52,6.03-1,12.34-1.52,18.84-1.52,42.53,0,77,22.39,77,50v.17c4.77-.11,9.61-.17,14.5-.17,28.24,0,54.65,1.94,77.18,5.31-6.27-5.09-9.68-10.58-9.68-16.31,0-26.51,73.2-48,163.5-48s163.5,21.49,163.5,48v.02c1.83-.02,3.66-.02,5.5-.02,61.55,0,119.07,5.24,167.95,14.34-.3-1.93-.45-3.87-.45-5.84,0-39.49,61.56-71.5,137.5-71.5,41.72,0,79.09,9.66,104.31,24.91,5.91-.6,11.99-.91,18.19-.91,57.21,0,103.83,26.51,105.92,59.67,16.14-7.3,36.7-11.67,59.08-11.67,51.91,0,94,23.51,94,52.5,0,6.31-1.99,12.37-5.65,17.97,58.11,6.32,101.65,32.36,101.65,63.53Z"/>
</svg>