<?xml version="1.0" encoding="UTF-8"?>
<svg id="b" data-name="圖層 2" xmlns="http://www.w3.org/2000/svg" viewBox="0 0 115 115">
  <defs>
    <style>
      .d {
        fill: #ead6b9;
      }

      .e {
        fill: #a8522f;
      }

      .f {
        fill: #f7ebd7;
      }

      .g {
        fill: #eae1ff;
      }
    </style>
  </defs>
  <g id="c" data-name="圖層 46">
    <circle class="g" cx="57.5" cy="57.5" r="57.5"/>
    <g>
      <path class="e" d="M57.61,82.81c-11.11-5.2-23.49-5.83-33.93-1.89-2.28.89-4.79-.74-5.84-3.99l-.58-1.81c11.82-5.91,26.97-5.91,40.55,0l-.19,7.68Z"/>
      <path class="e" d="M91.64,80.93c-10.25-3.94-22.65-3.31-34.02,1.89.06-2.56.13-5.12.19-7.68,13.87-5.91,29.02-5.91,40.55,0l-.67,1.81c-1.21,3.25-3.81,4.88-6.04,3.99Z"/>
    </g>
    <g>
      <path class="f" d="M57.68,75.05c-12.65-4.87-26.63-4.87-40.01,0,1.54-10.49,3.08-20.98,4.63-31.46.78-5.28,5.16-11.26,9.77-12.25,8.72-1.93,17.53-1.04,25.74,2.66-.04,13.68-.09,27.37-.13,41.05Z"/>
      <path class="f" d="M97.69,75.05c-13.35-4.87-27.33-4.87-40.01,0,.04-13.68.09-27.37.13-41.05,8.24-3.7,17.05-4.59,25.76-2.66,4.61.99,8.95,6.97,9.7,12.25,1.47,10.49,2.95,20.98,4.43,31.46Z"/>
    </g>
    <path class="d" d="M57.61,37.61c.15,9.47.17,18.95.07,28.42,0,.97,1.49.97,1.5,0,.1-9.47.07-18.95-.07-28.42-.01-.96-1.51-.97-1.5,0h0Z"/>
  </g>
</svg>