<?xml version="1.0" encoding="UTF-8"?>
<svg id="b" data-name="圖層 2" xmlns="http://www.w3.org/2000/svg" viewBox="0 0 40.36 44.34">
  <defs>
    <style>
      .d {
        fill: #eb6135;
      }

      .e {
        fill: #3faf73;
      }

      .f {
        fill: #87d256;
      }

      .g {
        fill: #96371e;
      }
    </style>
  </defs>
  <g id="c" data-name="圖層 64">
    <g>
      <path class="e" d="M19.62,16.1l-2.47-.98c-.36-.14-.5-.58-.32-1L21.3.51c.11-.47.61-.65,1.12-.39l3.48,1.76c.53.27.85.85.69,1.29l-5.88,12.54c-.23.38-.73.56-1.11.4Z"/>
      <path class="f" d="M21.91,16.03l-2.02-1.57c-.3-.24-.35-.73-.1-1.11L27.45,1.64c.25-.38.84-.39,1.32-.01l3.2,2.48c.48.37.63.95.33,1.29l-9.29,10.45c-.3.34-.79.42-1.1.19Z"/>
      <path class="e" d="M23.57,19.24l-1.77-1.91c-.27-.29-.27-.81.01-1.16l9.3-10.26c.32-.32.94-.23,1.38.19l2.88,2.77c.43.41.47.97.1,1.25l-10.84,9.07c-.33.31-.81.34-1.07.05Z"/>
      <path class="f" d="M27.11,21.53l-1.57-2.16c-.25-.33-.2-.86.1-1.19l10.48-8.97c.38-.26,1.01-.11,1.41.35l2.58,2.94c.38.44.34.97-.08,1.2l-11.87,7.89c-.35.29-.81.26-1.04-.06Z"/>
      <path class="d" d="M3.7,42.92l-1.01-.78c-2.64-2.04-3.47-5.93-1.87-8.69L13.93,10.91c.67-1.15,2.67-.95,4.46.44l10.77,8.35c1.8,1.39,2.5,3.29,1.57,4.23l-18.24,18.58c-2.23,2.27-6.17,2.46-8.81.41Z"/>
      <path class="g" d="M12.23,16.11c.46.37.97.58,1.52.84.14.07.29.14.43.22.06.03.12.06.18.1.02.01.24.14.14.08.13.08.26.17.38.26.07.05.13.11.2.16.06.05.06.06.02.01.03.03.06.06.08.09.2.22.66.42,1.1.4.41,0,.66-.22.35-.54-.68-.68-1.55-1.25-2.42-1.74-.37-.21-.73-.39-1.08-.59-.08-.04-.16-.09-.23-.14-.02-.01-.27-.17-.16-.09-.17-.11-.34-.24-.51-.37-.33-.26-.6-.16-.53.24.06.41.29.87.53,1.07h0Z"/>
      <path class="g" d="M13.45,20.12c.38.11.78.3,1.21.55-.12-.07.03.02.05.03.06.04.11.07.17.11.1.07.21.14.31.21.22.16.42.33.62.5.24.21.83.32,1.15.23.35-.1.31-.39-.06-.71-1.17-.98-2.48-1.84-3.61-2.33-.31-.12-.51.05-.39.51.09.39.33.85.57.9h0Z"/>
      <path class="g" d="M11.98,34.73c1.29.71,2.61,1.82,3.44,2.89.28.43,2.2.64,1.68.04-1.52-1.67-3.66-3.39-5.72-4.66-.34-.2-.36.21-.16.68.22.54.52.92.76,1.05h0Z"/>
      <path class="g" d="M8.43,40.22c.84.58,1.67,1.25,2.4,1.92.2.18.82.32,1.21.28.43-.05.43-.29.08-.59-1.21-1.04-2.52-2.07-3.83-3.02-.36-.26-.63-.2-.51.26.11.43.4.98.64,1.15h0Z"/>
    </g>
  </g>
</svg>