<svg width="695" height="430" viewBox="0 0 695 430" fill="none" xmlns="http://www.w3.org/2000/svg">
<g clip-path="url(#clip0_345_377)">
<path d="M583.647 238.61C608.316 238.61 628.35 258.813 628.35 283.688V325.212C628.35 347.078 610.746 364.83 589.062 364.83H578.239C556.555 364.83 538.951 347.078 538.951 325.212V283.688C538.951 258.813 558.985 238.61 583.654 238.61H583.647Z" fill="#9DB3F8"/>
<path d="M585.858 243.026C634.003 243.026 673.032 212.052 673.032 173.844C673.032 135.636 634.003 104.663 585.858 104.663C537.714 104.663 498.685 135.636 498.685 173.844C498.685 212.052 537.714 243.026 585.858 243.026Z" fill="#9DB3F8"/>
<path d="M564.284 43.7756L565.029 48.0884L571.539 113.097C571.743 121.804 566.233 130.032 559.511 131.474C552.103 133.101 544.622 126.462 542.44 116.644L522.128 49.531L526.047 48.9863" fill="#9DB3F8"/>
<path d="M489.533 86.7125L488.314 83.4227C484.066 72.0151 487.19 57.6415 495.547 51.9377L543.089 26.9441C550.555 24.037 558.664 27.5034 561.029 34.2817L564.51 44.394C565.977 48.6995 563.175 54.1972 558.328 56.8614L508.319 92.6224C501.451 98.8855 493.131 96.4494 489.533 86.7125Z" fill="#9DB3F8"/>
<path d="M605.411 124.725C597.127 123.621 590.522 115.724 590.807 107.114L599.769 11.805C601.083 3.41489 612.848 -1.64125 625.905 0.478354C638.875 2.57588 647.253 10.8556 644.779 18.9955L622.76 111.522C621.307 119.883 613.615 125.807 605.418 124.718L605.411 124.725Z" fill="#9DB3F8"/>
<path d="M586.019 233.458C620.886 233.458 649.151 210.887 649.151 183.044C649.151 155.201 620.886 132.63 586.019 132.63C551.152 132.63 522.887 155.201 522.887 183.044C522.887 210.887 551.152 233.458 586.019 233.458Z" fill="#F9E8E8"/>
<path d="M600.017 241.87L641.896 304.862C645.479 310.257 653.428 312.104 659.639 308.991L662.39 307.607C668.601 304.494 670.732 297.591 667.141 292.196L638.064 248.465C630.992 237.83 615.329 234.179 603.082 240.325L600.01 241.863L600.017 241.87Z" fill="#9DB3F8"/>
<path d="M694.934 289.768C694.226 297.429 688.395 304.553 681.972 305.657L653.596 310.485C649.837 311.118 646.618 308.012 646.385 303.552L645.823 293.344C645.56 288.745 648.749 284.41 652.975 283.659L683.534 278.198C690.497 276.94 695.628 282.121 694.942 289.775L694.934 289.768Z" fill="#9DB3F8"/>
<path d="M567.407 241.87L525.529 304.862C521.945 310.257 513.997 312.104 507.786 308.991L505.034 307.607C498.823 304.494 496.692 297.591 500.283 292.196L529.36 248.465C536.433 237.83 552.095 234.179 564.342 240.325L567.415 241.863L567.407 241.87Z" fill="#9DB3F8"/>
<path d="M491.934 335.751C498.874 338.511 507.005 336.127 510.238 330.349L525.711 303.95C527.915 300.336 526.083 296.141 521.58 294.61L511.136 291.151C506.363 289.613 500.743 291.357 498.634 295.015L484.467 320.649C481.497 326.301 484.905 333.028 491.941 335.751H491.934Z" fill="#9DB3F8"/>
<path d="M569.459 337.23H557.766C553.82 337.23 550.621 340.456 550.621 344.436V413.926C550.621 417.906 553.82 421.131 557.766 421.131H569.459C573.405 421.131 576.604 417.906 576.604 413.926V344.436C576.604 340.456 573.405 337.23 569.459 337.23Z" fill="#9DB3F8"/>
<path d="M542.673 397.58H574.699V415.096C574.699 418.423 572.02 421.131 568.714 421.131H530.82C527.645 421.131 525.069 418.533 525.069 415.332C525.069 405.536 532.959 397.58 542.673 397.58Z" fill="#9DB3F8"/>
<path d="M601.849 421.132H613.541C617.488 421.132 620.687 417.906 620.687 413.926V344.436C620.687 340.456 617.488 337.231 613.541 337.231H601.849C597.903 337.231 594.704 340.456 594.704 344.436V413.926C594.704 417.906 597.903 421.132 601.849 421.132Z" fill="#9DB3F8"/>
<path d="M639.013 421.131H601.12C597.821 421.131 595.135 418.43 595.135 415.096V397.58H627.161C636.875 397.58 644.765 405.536 644.765 415.332C644.765 418.533 642.188 421.131 639.013 421.131Z" fill="#9DB3F8"/>
<path d="M580.224 136.891C583.289 137.524 586.792 136.67 588.478 133.807C589.244 132.505 589.544 130.922 589.237 129.436C588.931 127.949 587.902 126.396 586.311 126.33C584.719 126.264 583.588 127.647 583.362 129.112C583.136 130.576 583.216 132.608 584.632 133.388C585.851 134.065 587.719 134.197 589.077 134.065C590.806 133.896 592.12 132.968 593.011 131.482C595.054 128.067 595.762 123.673 595.456 119.743C595.346 118.337 593.156 118.322 593.266 119.743C593.456 122.172 593.229 124.578 592.543 126.919C591.967 128.876 591.127 131.791 588.704 131.886C588.201 131.909 587.697 131.864 587.194 131.798C586.799 131.747 586.099 131.739 585.756 131.504C585.464 131.298 585.515 130.775 585.493 130.444C585.464 129.951 585.42 129.362 585.69 128.921C586.281 127.949 586.916 129.193 587.07 129.804C587.288 130.665 587.135 131.599 586.748 132.387C585.668 134.58 583.019 135.22 580.8 134.764C579.428 134.477 578.837 136.611 580.216 136.891H580.224Z" fill="black"/>
<path d="M346.154 239.773C370.822 239.773 390.857 259.975 390.857 284.851V326.375C390.857 348.241 373.253 365.992 351.569 365.992H340.745C319.062 365.992 301.458 348.241 301.458 326.375V284.851C301.458 259.975 321.492 239.773 346.161 239.773H346.154Z" fill="#F09A9A"/>
<path d="M348.372 244.189C396.517 244.189 435.545 213.215 435.545 175.007C435.545 136.799 396.517 105.826 348.372 105.826C300.228 105.826 261.199 136.799 261.199 175.007C261.199 213.215 300.228 244.189 348.372 244.189Z" fill="#F09A9A"/>
<path d="M362.035 39.7866L361.458 44.0921L357.422 108.872C357.546 117.535 363.371 125.807 370.151 127.36C377.625 129.119 384.85 122.598 386.66 112.788L404.417 45.5714L400.476 45.0194" fill="#F09A9A"/>
<path d="M435.451 64.1474L436.626 61.4611C440.727 52.5484 437.443 43.9081 429.021 41.553L381.164 23.1389C373.647 19.5547 365.597 24.0883 363.356 33.6486L360.057 48.9422C358.67 55.875 361.568 63.0949 366.443 64.8907L416.803 77.8806C423.722 78.7565 431.984 72.3977 435.451 64.1474Z" fill="#F09A9A"/>
<path d="M318.616 131.783C326.9 130.716 333.534 123.165 333.279 114.893L324.637 20.8723C323.353 12.3791 311.602 5.51249 298.545 5.56401C285.576 5.63761 277.168 12.806 279.613 21.5494L301.311 118.345C302.735 126.867 310.405 132.873 318.609 131.783H318.616Z" fill="#F09A9A"/>
<path d="M362.531 243.033L404.41 306.025C407.994 311.42 415.942 313.267 422.153 310.154L424.904 308.77C431.115 305.657 433.246 298.754 429.656 293.359L400.578 249.627C393.506 238.993 377.844 235.342 365.597 241.488L362.524 243.026L362.531 243.033Z" fill="#F09A9A"/>
<path d="M434.268 336.473C427.284 339.188 419.547 336.708 416.84 331.012L403.746 305.819C401.863 302.478 403.972 298.342 408.497 296.561L418.985 292.425C423.766 290.533 429.137 291.843 430.918 295.368L442.757 320.899C445.202 326.721 441.348 333.72 434.276 336.473H434.268Z" fill="#F09A9A"/>
<path d="M329.922 243.033L288.043 306.025C284.459 311.42 276.511 313.267 270.3 310.154L267.549 308.77C261.338 305.657 259.206 298.754 262.797 293.359L291.875 249.627C298.947 238.993 314.609 235.342 326.856 241.488L329.929 243.026L329.922 243.033Z" fill="#F09A9A"/>
<path d="M254.448 336.914C261.389 339.674 269.519 337.289 272.752 331.512L288.225 305.113C290.429 301.499 288.597 297.304 284.094 295.773L273.65 292.314C268.877 290.776 263.257 292.52 261.148 296.178L246.981 321.812C244.011 327.464 247.419 334.191 254.455 336.914H254.448Z" fill="#F09A9A"/>
<path d="M331.972 338.393H320.28C316.334 338.393 313.135 341.619 313.135 345.598V415.089C313.135 419.068 316.334 422.294 320.28 422.294H331.972C335.918 422.294 339.117 419.068 339.117 415.089V345.598C339.117 341.619 335.918 338.393 331.972 338.393Z" fill="#F09A9A"/>
<path d="M305.187 398.743H337.213V416.259C337.213 419.586 334.534 422.294 331.228 422.294H293.334C290.159 422.294 287.583 419.696 287.583 416.495C287.583 406.699 295.473 398.743 305.187 398.743Z" fill="#F09A9A"/>
<path d="M364.356 422.294H376.048C379.994 422.294 383.193 419.069 383.193 415.089V345.599C383.193 341.619 379.994 338.393 376.048 338.393H364.356C360.41 338.393 357.211 341.619 357.211 345.599V415.089C357.211 419.069 360.41 422.294 364.356 422.294Z" fill="#F09A9A"/>
<path d="M401.527 422.294H363.633C360.334 422.294 357.649 419.593 357.649 416.259V398.743H389.674C399.389 398.743 407.278 406.699 407.278 416.495C407.278 419.696 404.702 422.294 401.527 422.294Z" fill="#F09A9A"/>
<path d="M359.502 342.213C359.502 342.544 358.554 342.824 358.532 343.148C358.51 343.472 359.393 343.913 359.342 344.23C359.291 344.546 358.313 344.679 358.232 344.988C358.152 345.297 358.955 345.886 358.853 346.187C358.751 346.489 357.758 346.452 357.634 346.754C357.51 347.056 358.203 347.755 358.05 348.042C357.897 348.329 356.926 348.123 356.751 348.395C356.576 348.668 357.145 349.477 356.948 349.735C356.751 349.992 355.831 349.632 355.612 349.867C355.393 350.103 355.824 351.001 355.59 351.221C355.357 351.442 354.503 350.934 354.247 351.133C353.992 351.332 354.277 352.289 354.007 352.465C353.737 352.642 352.985 352.002 352.7 352.156C352.415 352.311 352.54 353.297 352.248 353.429C351.956 353.562 351.313 352.804 351.007 352.907C350.7 353.01 350.664 354.003 350.35 354.084C350.036 354.165 349.533 353.312 349.211 353.363C348.89 353.415 348.693 354.394 348.365 354.416C348.036 354.438 347.686 353.518 347.365 353.518C347.044 353.518 346.679 354.445 346.365 354.416C346.051 354.386 345.84 353.415 345.518 353.363C345.197 353.312 344.694 354.165 344.38 354.084C344.066 354.003 344.022 353.01 343.723 352.907C343.424 352.804 342.781 353.562 342.482 353.429C342.183 353.297 342.307 352.311 342.022 352.156C341.738 352.002 340.986 352.642 340.716 352.465C340.446 352.289 340.731 351.332 340.475 351.133C340.22 350.934 339.373 351.442 339.132 351.221C338.891 351.001 339.329 350.103 339.11 349.867C338.891 349.632 337.972 349.992 337.775 349.735C337.578 349.477 338.147 348.668 337.972 348.395C337.797 348.123 336.826 348.329 336.673 348.042C336.519 347.755 337.213 347.056 337.089 346.754C336.965 346.452 335.972 346.497 335.87 346.187C335.768 345.878 336.57 345.304 336.49 344.988C336.41 344.671 335.432 344.554 335.381 344.23C335.33 343.906 336.213 343.472 336.191 343.148C336.169 342.824 335.22 342.544 335.22 342.213C335.22 341.882 336.169 341.602 336.191 341.278C336.213 340.955 335.33 340.513 335.381 340.197C335.432 339.88 336.41 339.748 336.49 339.439C336.57 339.129 335.768 338.541 335.87 338.239C335.972 337.937 336.965 337.974 337.089 337.672C337.213 337.37 336.519 336.671 336.673 336.384C336.826 336.097 337.797 336.303 337.972 336.031C338.147 335.759 337.578 334.949 337.775 334.692C337.972 334.434 338.891 334.795 339.11 334.559C339.329 334.323 338.899 333.426 339.132 333.205C339.366 332.984 340.22 333.492 340.475 333.293C340.731 333.094 340.446 332.138 340.716 331.961C340.986 331.784 341.738 332.425 342.022 332.27C342.307 332.116 342.183 331.129 342.475 330.997C342.767 330.864 343.409 331.622 343.716 331.519C344.022 331.416 344.059 330.423 344.373 330.342C344.686 330.261 345.19 331.115 345.511 331.063C345.832 331.012 346.029 330.033 346.358 330.011C346.686 329.989 347.036 330.909 347.358 330.909C347.679 330.909 348.044 329.981 348.358 330.011C348.671 330.04 348.883 331.012 349.204 331.063C349.525 331.115 350.029 330.261 350.343 330.342C350.657 330.423 350.7 331.416 351 331.519C351.299 331.622 351.941 330.864 352.24 330.997C352.54 331.129 352.415 332.116 352.7 332.27C352.985 332.425 353.737 331.784 354.007 331.961C354.277 332.138 353.992 333.094 354.247 333.293C354.503 333.492 355.349 332.984 355.59 333.205C355.831 333.426 355.393 334.323 355.612 334.559C355.831 334.795 356.751 334.434 356.948 334.692C357.145 334.949 356.576 335.759 356.751 336.031C356.926 336.303 357.897 336.097 358.05 336.384C358.203 336.671 357.51 337.37 357.634 337.672C357.758 337.974 358.751 337.93 358.853 338.239C358.955 338.548 358.152 339.122 358.232 339.439C358.313 339.755 359.291 339.873 359.342 340.197C359.393 340.52 358.51 340.955 358.532 341.278C358.554 341.602 359.502 341.882 359.502 342.213Z" fill="#E8A6A6"/>
<path d="M109.025 373.691H98.2015C76.5176 373.691 58.9136 355.939 58.9136 334.073L58.9136 292.55C58.9136 267.674 78.948 247.471 103.617 247.471C128.286 247.471 148.32 267.674 148.32 292.55V334.073C148.32 355.939 130.716 373.691 109.032 373.691H109.025Z" fill="#FDD646"/>
<path d="M101.405 251.894C149.55 251.894 188.579 220.921 188.579 182.713C188.579 144.505 149.55 113.531 101.405 113.531C53.2608 113.531 14.2319 144.505 14.2319 182.713C14.2319 220.921 53.2608 251.894 101.405 251.894Z" fill="#FDD646"/>
<path d="M117.141 52.6443L116.557 56.9497L112.404 121.73C112.514 130.393 118.323 138.665 125.104 140.218C132.57 141.977 139.81 135.456 141.642 125.646L158.443 61.6673C159.034 59.8789 157.757 58.1788 155.582 57.8771" fill="#FDD646"/>
<path d="M192.761 72.994L193.797 70.6904C197.388 63.0142 193.622 55.2938 185.126 52.9019L136.613 34.1272C128.957 30.4694 121.089 33.9211 119.199 42.2008L116.411 55.3821C115.236 61.3362 118.396 67.8716 123.388 69.8146L174.704 84.2249C181.718 85.2774 189.71 80.0667 192.761 73.0013V72.994Z" fill="#FDD646"/>
<path d="M81.8525 133.594C90.1363 132.527 96.7707 124.976 96.5152 116.703L87.8738 22.6828C86.5893 14.1897 74.8387 7.32304 61.7817 7.37456C48.8122 7.44815 40.4043 14.6165 42.8493 23.3599L64.5478 120.155C65.971 128.678 73.6417 134.683 81.8452 133.594H81.8525Z" fill="#FDD646"/>
<path d="M87.239 250.731L45.3602 313.723C41.7767 319.118 33.8286 320.965 27.6176 317.852L24.866 316.469C18.655 313.355 16.5238 306.452 20.1147 301.057L49.192 257.326C56.2642 246.691 71.9268 243.04 84.1737 249.186L87.2463 250.724L87.239 250.731Z" fill="#FDD646"/>
<path d="M6.503 340.631C12.714 344.399 20.8883 343.317 24.939 338.136L44.2946 314.349C47.0462 311.081 46.1485 306.614 42.2292 304.391L33.0914 299.372C28.8948 297.135 23.2093 298.055 20.465 301.381L1.96333 324.682C-1.93407 329.797 0.182494 336.907 6.503 340.631Z" fill="#FDD646"/>
<path d="M119.856 250.731L161.735 313.723C165.318 319.118 173.266 320.965 179.477 317.852L182.229 316.469C188.44 313.355 190.571 306.452 186.98 301.057L157.903 257.326C150.831 246.691 135.168 243.04 122.921 249.186L119.849 250.724L119.856 250.731Z" fill="#FDD646"/>
<path d="M199.366 342.059C192.834 345.959 184.791 344.907 181.215 339.784L163.983 317.227C161.516 314.246 162.793 309.889 166.902 307.46L176.463 301.838C180.85 299.269 186.455 299.696 188.907 302.816L205.329 325.47C208.759 330.651 206.008 338.114 199.366 342.059Z" fill="#FDD646"/>
<path d="M121.455 429.993H133.147C137.093 429.993 140.292 426.767 140.292 422.788V353.297C140.292 349.318 137.093 346.092 133.147 346.092H121.455C117.508 346.092 114.309 349.318 114.309 353.297L114.309 422.788C114.309 426.767 117.508 429.993 121.455 429.993Z" fill="#FDD646"/>
<path d="M160.078 429.993H122.184C118.885 429.993 116.199 427.292 116.199 423.958V406.442H148.225C157.939 406.442 165.829 414.397 165.829 424.193C165.829 427.395 163.253 429.993 160.078 429.993Z" fill="#FDD646"/>
<path d="M89.0635 346.099H77.3713C73.4251 346.099 70.2261 349.325 70.2261 353.304V422.795C70.2261 426.774 73.4251 430 77.3713 430H89.0635C93.0097 430 96.2088 426.774 96.2088 422.795V353.304C96.2088 349.325 93.0097 346.099 89.0635 346.099Z" fill="#FDD646"/>
<path d="M63.7451 406.449H95.7709V423.965C95.7709 427.291 93.0924 430 89.7862 430H51.8923C48.7175 430 46.1411 427.402 46.1411 424.2C46.1411 414.405 54.0308 406.449 63.7451 406.449Z" fill="#FDD646"/>
<path d="M114.856 343.118C114.856 343.449 113.908 343.729 113.886 344.053C113.864 344.377 114.747 344.818 114.696 345.135C114.645 345.451 113.667 345.584 113.586 345.893C113.506 346.202 114.309 346.791 114.207 347.092C114.105 347.394 113.112 347.357 112.988 347.659C112.864 347.961 113.557 348.66 113.404 348.947C113.251 349.234 112.28 349.028 112.105 349.3C111.93 349.573 112.499 350.382 112.302 350.64C112.105 350.897 111.185 350.537 110.966 350.772C110.747 351.008 111.178 351.906 110.944 352.126C110.711 352.347 109.857 351.839 109.601 352.038C109.346 352.237 109.631 353.194 109.361 353.37C109.091 353.547 108.339 352.907 108.054 353.061C107.769 353.216 107.894 354.202 107.602 354.334C107.31 354.467 106.667 353.709 106.361 353.812C106.054 353.915 106.018 354.908 105.704 354.989C105.39 355.07 104.887 354.217 104.565 354.268C104.244 354.32 104.047 355.299 103.719 355.321C103.39 355.343 103.04 354.423 102.719 354.423C102.398 354.423 102.033 355.35 101.719 355.321C101.405 355.291 101.194 354.32 100.872 354.268C100.551 354.217 100.048 355.07 99.7338 354.989C99.42 354.908 99.3762 353.915 99.077 353.812C98.7777 353.709 98.1355 354.467 97.8362 354.334C97.537 354.202 97.6611 353.216 97.3764 353.061C97.0918 352.907 96.34 353.547 96.07 353.37C95.8 353.194 96.0846 352.237 95.8291 352.038C95.5737 351.839 94.7271 352.347 94.4862 352.126C94.2454 351.906 94.6833 351.008 94.4643 350.772C94.2454 350.537 93.3258 350.897 93.1287 350.64C92.9316 350.382 93.5009 349.573 93.3258 349.3C93.1506 349.028 92.1799 349.234 92.0266 348.947C91.8734 348.66 92.5667 347.961 92.4426 347.659C92.3186 347.357 91.326 347.402 91.2238 347.092C91.1216 346.783 91.9244 346.209 91.8442 345.893C91.7639 345.576 90.7859 345.459 90.7348 345.135C90.6837 344.811 91.5668 344.377 91.5449 344.053C91.523 343.729 90.5742 343.449 90.5742 343.118C90.5742 342.787 91.523 342.507 91.5449 342.183C91.5668 341.86 90.6837 341.418 90.7348 341.102C90.7859 340.785 91.7639 340.653 91.8442 340.344C91.9244 340.034 91.1216 339.446 91.2238 339.144C91.326 338.842 92.3186 338.879 92.4426 338.577C92.5667 338.275 91.8734 337.576 92.0266 337.289C92.1799 337.002 93.1506 337.208 93.3258 336.936C93.5009 336.664 92.9316 335.854 93.1287 335.597C93.3258 335.339 94.2454 335.7 94.4643 335.464C94.6833 335.229 94.2527 334.331 94.4862 334.11C94.7198 333.889 95.5737 334.397 95.8291 334.198C96.0846 333.999 95.8 333.043 96.07 332.866C96.34 332.689 97.0918 333.33 97.3764 333.175C97.6611 333.021 97.537 332.034 97.8289 331.902C98.1209 331.769 98.7631 332.527 99.0697 332.424C99.3762 332.321 99.4127 331.328 99.7265 331.247C100.04 331.166 100.544 332.02 100.865 331.968C101.186 331.917 101.383 330.938 101.712 330.916C102.04 330.894 102.39 331.814 102.712 331.814C103.033 331.814 103.398 330.886 103.712 330.916C104.025 330.945 104.237 331.917 104.558 331.968C104.879 332.02 105.383 331.166 105.697 331.247C106.011 331.328 106.054 332.321 106.354 332.424C106.653 332.527 107.295 331.769 107.594 331.902C107.894 332.034 107.769 333.021 108.054 333.175C108.339 333.33 109.091 332.689 109.361 332.866C109.631 333.043 109.346 333.999 109.601 334.198C109.857 334.397 110.703 333.889 110.944 334.11C111.185 334.331 110.747 335.229 110.966 335.464C111.185 335.7 112.105 335.339 112.302 335.597C112.499 335.854 111.93 336.664 112.105 336.936C112.28 337.208 113.251 337.002 113.404 337.289C113.557 337.576 112.864 338.275 112.988 338.577C113.112 338.879 114.105 338.835 114.207 339.144C114.309 339.453 113.506 340.027 113.586 340.344C113.667 340.66 114.645 340.778 114.696 341.102C114.747 341.425 113.864 341.86 113.886 342.183C113.908 342.507 114.856 342.787 114.856 343.118Z" fill="#E2B544"/>
<path d="M563.32 195.865C568.157 195.865 572.078 191.911 572.078 187.033C572.078 182.155 568.157 178.201 563.32 178.201C558.483 178.201 554.562 182.155 554.562 187.033C554.562 191.911 558.483 195.865 563.32 195.865Z" fill="black"/>
<path d="M608.571 195.865C613.408 195.865 617.329 191.911 617.329 187.033C617.329 182.155 613.408 178.201 608.571 178.201C603.734 178.201 599.813 182.155 599.813 187.033C599.813 191.911 603.734 195.865 608.571 195.865Z" fill="black"/>
</g>
<defs>
<clipPath id="clip0_345_377">
<rect width="695" height="430" fill="white"/>
</clipPath>
</defs>
</svg>
