<svg width="695" height="430" viewBox="0 0 695 430" fill="none" xmlns="http://www.w3.org/2000/svg">
<g clip-path="url(#clip0_345_328)">
<path d="M349.169 241.364C374.027 241.364 394.215 261.627 394.215 286.578V328.226C394.215 350.158 376.476 367.963 354.626 367.963H343.72C321.87 367.963 304.131 350.158 304.131 328.226V286.578C304.131 261.627 324.319 241.364 349.177 241.364H349.169Z" fill="#F09A9A"/>
<path d="M351.398 245.793C399.911 245.793 439.238 214.727 439.238 176.404C439.238 138.081 399.911 107.015 351.398 107.015C302.885 107.015 263.558 138.081 263.558 176.404C263.558 214.727 302.885 245.793 351.398 245.793Z" fill="#F09A9A"/>
<path d="M365.165 40.7773L364.584 45.0957L360.517 110.071C360.642 118.759 366.511 127.056 373.343 128.614C380.874 130.378 388.155 123.838 389.979 113.998L407.872 46.5795L403.9 46.0258" fill="#F09A9A"/>
<path d="M439.142 65.2113L440.326 62.5169C444.46 53.5775 441.15 44.9112 432.663 42.549L384.441 24.0796C376.866 20.4847 368.754 25.0319 366.496 34.6209L363.172 49.9604C361.775 56.9141 364.694 64.1557 369.607 65.9568L420.352 78.9858C427.324 79.8642 435.649 73.4863 439.142 65.2113Z" fill="#F09A9A"/>
<path d="M321.414 133.05C329.761 131.98 336.446 124.406 336.189 116.109L327.481 21.8059C326.187 13.2873 314.346 6.40003 301.19 6.4517C288.121 6.52552 279.649 13.7154 282.112 22.4851L303.977 119.571C305.411 128.119 313.14 134.143 321.407 133.05H321.414Z" fill="#F09A9A"/>
<path d="M365.665 244.634L407.864 307.816C411.475 313.227 419.484 315.079 425.743 311.957L428.515 310.569C434.774 307.447 436.921 300.522 433.303 295.112L404.003 251.249C396.877 240.582 381.094 236.92 368.754 243.084L365.658 244.627L365.665 244.634Z" fill="#F09A9A"/>
<path d="M437.951 338.354C430.913 341.078 423.117 338.591 420.389 332.877L407.195 307.609C405.298 304.258 407.423 300.109 411.983 298.323L422.551 294.174C427.368 292.277 432.781 293.591 434.575 297.127L446.504 322.734C448.968 328.573 445.085 335.593 437.958 338.354H437.951Z" fill="#F09A9A"/>
<path d="M332.806 244.634L290.607 307.816C286.996 313.227 278.987 315.079 272.728 311.957L269.956 310.569C263.697 307.447 261.55 300.522 265.168 295.112L294.468 251.249C301.594 240.582 317.377 236.92 329.717 243.084L332.813 244.627L332.806 244.634Z" fill="#F09A9A"/>
<path d="M256.755 338.797C263.749 341.565 271.941 339.174 275.199 333.379L290.791 306.9C293.012 303.276 291.166 299.068 286.628 297.533L276.104 294.063C271.294 292.52 265.631 294.27 263.506 297.939L249.231 323.65C246.238 329.319 249.673 336.066 256.762 338.797H256.755Z" fill="#F09A9A"/>
<path d="M334.873 340.281H323.091C319.115 340.281 315.891 343.517 315.891 347.508V417.207C315.891 421.199 319.115 424.434 323.091 424.434H334.873C338.849 424.434 342.073 421.199 342.073 417.207V347.508C342.073 343.517 338.849 340.281 334.873 340.281Z" fill="#F09A9A"/>
<path d="M307.882 400.812H340.153V418.381C340.153 421.718 337.454 424.434 334.123 424.434H295.939C292.74 424.434 290.144 421.828 290.144 418.617C290.144 408.792 298.094 400.812 307.882 400.812Z" fill="#F09A9A"/>
<path d="M367.511 424.434H379.293C383.269 424.434 386.493 421.199 386.493 417.207V347.508C386.493 343.517 383.269 340.281 379.293 340.281H367.511C363.535 340.281 360.311 343.517 360.311 347.508V417.207C360.311 421.199 363.535 424.434 367.511 424.434Z" fill="#F09A9A"/>
<path d="M404.96 424.434H366.776C363.452 424.434 360.745 421.725 360.745 418.381V400.812H393.016C402.805 400.812 410.755 408.792 410.755 418.617C410.755 421.828 408.159 424.434 404.96 424.434Z" fill="#F09A9A"/>
<path d="M107.417 239.327C132.275 239.327 152.463 259.59 152.463 284.541V326.189C152.463 348.121 134.724 365.926 112.874 365.926H101.968C80.1181 365.926 62.3794 348.121 62.3794 326.189V284.541C62.3794 259.59 82.5671 239.327 107.425 239.327H107.417Z" fill="#FDD646"/>
<path d="M109.646 243.756C158.159 243.756 197.486 212.689 197.486 174.367C197.486 136.044 158.159 104.977 109.646 104.977C61.1331 104.977 21.8057 136.044 21.8057 174.367C21.8057 212.689 61.1331 243.756 109.646 243.756Z" fill="#FDD646"/>
<path d="M87.9137 43.9072L88.6639 48.233L95.2239 113.437C95.4299 122.17 89.8773 130.422 83.104 131.869C75.6393 133.501 68.1011 126.842 65.9022 116.995L45.4351 49.6798L49.3843 49.1336" fill="#FDD646"/>
<path d="M12.5833 86.9729L11.3551 83.6732C7.07486 72.2314 10.2225 57.8146 18.6432 52.0937L66.5494 27.0249C74.0729 24.1091 82.2436 27.586 84.6264 34.3846L88.1344 44.5273C89.6126 48.8457 86.7886 54.3599 81.9053 57.0322L31.5133 92.9005C24.5929 99.1825 16.209 96.7391 12.5833 86.9729Z" fill="#FDD646"/>
<path d="M129.355 125.1C121.008 123.993 114.352 116.072 114.639 107.435L123.67 11.8405C124.994 3.42516 136.849 -1.64617 150.006 0.479804C163.075 2.58363 171.518 10.8882 169.025 19.0525L146.837 111.857C145.373 120.243 137.622 126.185 129.363 125.093L129.355 125.1Z" fill="#FDD646"/>
<path d="M109.807 234.16C144.941 234.16 173.422 211.521 173.422 183.594C173.422 155.667 144.941 133.028 109.807 133.028C74.6738 133.028 46.1924 155.667 46.1924 183.594C46.1924 211.521 74.6738 234.16 109.807 234.16Z" fill="#F9E8E8"/>
<path d="M123.92 242.597L166.12 305.778C169.731 311.189 177.74 313.042 183.998 309.92L186.771 308.532C193.029 305.409 195.177 298.485 191.558 293.074L162.259 249.211C155.132 238.544 139.35 234.883 127.009 241.047L123.913 242.59L123.92 242.597Z" fill="#FDD646"/>
<path d="M196.206 336.317C189.168 339.041 181.373 336.553 178.644 330.84L165.45 305.572C163.553 302.22 165.678 298.072 170.238 296.285L180.806 292.137C185.623 290.239 191.036 291.553 192.831 295.089L204.759 320.697C207.223 326.536 203.34 333.556 196.214 336.317H196.206Z" fill="#FDD646"/>
<path d="M91.054 242.597L48.8548 305.778C45.2438 311.189 37.2349 313.042 30.9764 309.92L28.2038 308.532C21.9453 305.409 19.7978 298.485 23.4161 293.074L52.7158 249.211C59.8422 238.544 75.6246 234.883 87.9652 241.047L91.0614 242.59L91.054 242.597Z" fill="#FDD646"/>
<path d="M0.132239 288.889C-0.831179 296.455 3.5373 303.726 9.79584 305.151L37.279 311.765C40.8974 312.68 44.7657 309.565 45.9498 304.796L48.7224 293.849C50.002 288.903 47.7737 284.186 43.7214 283.337L14.2452 277.447C7.49394 276.17 1.13243 281.307 0.132239 288.889Z" fill="#FDD646"/>
<path d="M93.1207 338.244H81.3391C77.3627 338.244 74.1392 341.479 74.1392 345.47V415.17C74.1392 419.161 77.3627 422.397 81.3391 422.397H93.1207C97.0971 422.397 100.321 419.161 100.321 415.17V345.47C100.321 341.479 97.0971 338.244 93.1207 338.244Z" fill="#FDD646"/>
<path d="M66.1376 398.775H98.4084V416.344C98.4084 419.68 95.7094 422.397 92.3779 422.397H54.1942C50.995 422.397 48.3989 419.791 48.3989 416.58C48.3989 406.755 56.349 398.775 66.1376 398.775Z" fill="#FDD646"/>
<path d="M125.759 422.397H137.541C141.517 422.397 144.741 419.161 144.741 415.17V345.471C144.741 341.479 141.517 338.244 137.541 338.244H125.759C121.783 338.244 118.559 341.479 118.559 345.471L118.559 415.17C118.559 419.161 121.783 422.397 125.759 422.397Z" fill="#FDD646"/>
<path d="M163.215 422.397H125.031C121.707 422.397 119.001 419.688 119.001 416.344V398.775H151.272C161.06 398.775 169.01 406.755 169.01 416.58C169.01 419.791 166.414 422.397 163.215 422.397Z" fill="#FDD646"/>
<path d="M87.1709 199.288C92.0449 199.288 95.9961 195.322 95.9961 190.43C95.9961 185.537 92.0449 181.571 87.1709 181.571C82.2969 181.571 78.3457 185.537 78.3457 190.43C78.3457 195.322 82.2969 199.288 87.1709 199.288Z" fill="black"/>
<path d="M132.768 199.288C137.642 199.288 141.593 195.322 141.593 190.43C141.593 185.537 137.642 181.571 132.768 181.571C127.894 181.571 123.942 185.537 123.942 190.43C123.942 195.322 127.894 199.288 132.768 199.288Z" fill="black"/>
<path d="M599.651 373.529H588.744C566.895 373.529 549.156 355.724 549.156 333.792V292.144C549.156 267.193 569.344 246.93 594.201 246.93C619.059 246.93 639.247 267.193 639.247 292.144V333.792C639.247 355.724 621.508 373.529 599.658 373.529H599.651Z" fill="#9DB3F8"/>
<path d="M591.966 251.359C640.479 251.359 679.806 220.293 679.806 181.97C679.806 143.647 640.479 112.581 591.966 112.581C543.453 112.581 504.125 143.647 504.125 181.97C504.125 220.293 543.453 251.359 591.966 251.359Z" fill="#9DB3F8"/>
<path d="M607.711 51.5105L607.13 55.8289L603.063 120.804C603.189 129.492 609.057 137.79 615.889 139.347C623.42 141.111 630.701 134.571 632.525 124.731L650.418 57.3126L646.447 56.759" fill="#9DB3F8"/>
<path d="M682.424 75.2136L683.608 72.5192C687.741 63.5798 684.432 54.9135 675.945 52.5513L627.723 34.0819C620.148 30.487 612.036 35.0342 609.778 44.6232L606.454 59.9627C605.056 66.9164 607.976 74.158 612.889 75.9592L663.634 88.9881C670.606 89.8666 678.931 83.4886 682.424 75.2136Z" fill="#9DB3F8"/>
<path d="M572.264 132.711C580.611 131.641 587.296 124.067 587.038 115.77L578.331 21.4665C577.037 12.9478 565.196 6.06055 552.039 6.11223C538.97 6.18605 530.498 13.376 532.962 22.1456L554.826 119.232C556.26 127.78 563.99 133.803 572.256 132.711H572.264Z" fill="#9DB3F8"/>
<path d="M577.698 250.2L535.499 313.382C531.888 318.792 523.879 320.645 517.62 317.523L514.848 316.135C508.589 313.012 506.442 306.088 510.06 300.677L539.36 256.814C546.486 246.148 562.269 242.486 574.609 248.65L577.705 250.193L577.698 250.2Z" fill="#9DB3F8"/>
<path d="M502.566 343.212C509.361 345.891 517.385 343.418 520.621 337.623L536.131 311.115C538.338 307.491 536.587 303.327 532.175 301.836L521.945 298.492C517.275 297.009 511.73 298.802 509.612 302.471L495.388 328.212C492.41 333.888 495.682 340.569 502.566 343.204V343.212Z" fill="#9DB3F8"/>
<path d="M610.558 250.2L652.757 313.382C656.368 318.792 664.377 320.645 670.635 317.523L673.408 316.135C679.666 313.012 681.814 306.088 678.196 300.677L648.896 256.814C641.769 246.148 625.987 242.486 613.646 248.65L610.55 250.193L610.558 250.2Z" fill="#9DB3F8"/>
<path d="M687.212 342.85C680.674 346.164 672.871 344.422 669.613 339.026L653.889 315.242C651.639 312.097 653.139 307.86 657.309 305.764L666.987 300.892C671.415 298.67 676.849 299.518 679.056 302.826L693.794 326.794C696.861 332.272 693.838 339.491 687.204 342.85H687.212Z" fill="#9DB3F8"/>
<path d="M612.903 430H624.685C628.661 430 631.885 426.764 631.885 422.773V353.074C631.885 349.083 628.661 345.847 624.685 345.847H612.903C608.927 345.847 605.703 349.083 605.703 353.074V422.773C605.703 426.764 608.927 430 612.903 430Z" fill="#9DB3F8"/>
<path d="M651.83 430H613.646C610.322 430 607.615 427.291 607.615 423.947V406.378H639.886C649.675 406.378 657.625 414.358 657.625 424.183C657.625 427.394 655.029 430 651.83 430Z" fill="#9DB3F8"/>
<path d="M575.852 345.847H564.07C560.094 345.847 556.871 349.082 556.871 353.074V422.773C556.871 426.764 560.094 430 564.07 430H575.852C579.829 430 583.052 426.764 583.052 422.773V353.074C583.052 349.082 579.829 345.847 575.852 345.847Z" fill="#9DB3F8"/>
<path d="M550.34 406.378H582.611V423.947C582.611 427.283 579.912 430 576.581 430H538.397C535.198 430 532.602 427.394 532.602 424.183C532.602 414.358 540.552 406.378 550.34 406.378Z" fill="#9DB3F8"/>
<path d="M606.843 345.788C606.843 346.12 605.887 346.401 605.865 346.725C605.843 347.05 606.733 347.493 606.682 347.811C606.63 348.128 605.645 348.261 605.564 348.571C605.483 348.881 606.292 349.471 606.189 349.774C606.086 350.077 605.086 350.04 604.961 350.342C604.836 350.645 605.534 351.346 605.38 351.634C605.225 351.922 604.247 351.715 604.071 351.989C603.894 352.262 604.468 353.074 604.269 353.332C604.071 353.59 603.144 353.229 602.924 353.465C602.703 353.701 603.137 354.602 602.901 354.823C602.666 355.045 601.806 354.535 601.548 354.735C601.291 354.934 601.578 355.894 601.306 356.071C601.033 356.248 600.276 355.606 599.989 355.761C599.702 355.916 599.827 356.905 599.533 357.038C599.239 357.171 598.592 356.41 598.283 356.514C597.974 356.617 597.937 357.614 597.621 357.695C597.305 357.776 596.797 356.92 596.474 356.971C596.15 357.023 595.952 358.005 595.621 358.027C595.29 358.049 594.937 357.126 594.613 357.126C594.29 357.126 593.922 358.057 593.606 358.027C593.289 357.997 593.076 357.023 592.752 356.971C592.429 356.92 591.921 357.776 591.605 357.695C591.289 357.614 591.245 356.617 590.943 356.514C590.642 356.41 589.995 357.171 589.693 357.038C589.392 356.905 589.517 355.916 589.23 355.761C588.943 355.606 588.185 356.248 587.913 356.071C587.641 355.894 587.928 354.934 587.671 354.735C587.413 354.535 586.56 355.045 586.317 354.823C586.075 354.602 586.516 353.701 586.295 353.465C586.075 353.229 585.148 353.59 584.95 353.332C584.751 353.074 585.325 352.262 585.148 351.989C584.972 351.715 583.993 351.922 583.839 351.634C583.685 351.346 584.383 350.645 584.258 350.342C584.133 350.04 583.133 350.084 583.03 349.774C582.927 349.464 583.736 348.888 583.655 348.571C583.574 348.253 582.589 348.135 582.537 347.811C582.486 347.486 583.376 347.05 583.354 346.725C583.332 346.401 582.375 346.12 582.375 345.788C582.375 345.456 583.332 345.175 583.354 344.85C583.376 344.526 582.486 344.083 582.537 343.765C582.589 343.448 583.574 343.315 583.655 343.005C583.736 342.695 582.927 342.104 583.03 341.802C583.133 341.499 584.133 341.536 584.258 341.233C584.383 340.931 583.685 340.229 583.839 339.941C583.993 339.654 584.972 339.86 585.148 339.587C585.325 339.314 584.751 338.502 584.95 338.244C585.148 337.985 586.075 338.347 586.295 338.111C586.516 337.875 586.082 336.974 586.317 336.753C586.553 336.531 587.413 337.04 587.671 336.841C587.928 336.642 587.641 335.682 587.913 335.505C588.185 335.328 588.943 335.97 589.23 335.815C589.517 335.66 589.392 334.671 589.686 334.538C589.98 334.405 590.627 335.165 590.936 335.062C591.245 334.959 591.282 333.962 591.598 333.881C591.914 333.8 592.422 334.656 592.745 334.604C593.069 334.553 593.267 333.571 593.598 333.549C593.929 333.527 594.282 334.449 594.606 334.449C594.929 334.449 595.297 333.519 595.613 333.549C595.93 333.578 596.143 334.553 596.466 334.604C596.79 334.656 597.297 333.8 597.614 333.881C597.93 333.962 597.974 334.959 598.276 335.062C598.577 335.165 599.224 334.405 599.526 334.538C599.827 334.671 599.702 335.66 599.989 335.815C600.276 335.97 601.033 335.328 601.306 335.505C601.578 335.682 601.291 336.642 601.548 336.841C601.806 337.04 602.659 336.531 602.901 336.753C603.144 336.974 602.703 337.875 602.924 338.111C603.144 338.347 604.071 337.985 604.269 338.244C604.468 338.502 603.894 339.314 604.071 339.587C604.247 339.86 605.225 339.654 605.38 339.941C605.534 340.229 604.836 340.931 604.961 341.233C605.086 341.536 606.086 341.492 606.189 341.802C606.292 342.112 605.483 342.688 605.564 343.005C605.645 343.322 606.63 343.44 606.682 343.765C606.733 344.09 605.843 344.526 605.865 344.85C605.887 345.175 606.843 345.456 606.843 345.788Z" fill="#7F95D3"/>
<path d="M362.613 344.112C362.613 344.444 361.657 344.725 361.635 345.05C361.613 345.374 362.503 345.817 362.452 346.135C362.4 346.452 361.415 346.585 361.334 346.895C361.253 347.205 362.062 347.796 361.959 348.098C361.856 348.401 360.856 348.364 360.731 348.667C360.606 348.969 361.304 349.671 361.15 349.959C360.995 350.246 360.017 350.04 359.841 350.313C359.664 350.586 360.238 351.398 360.039 351.656C359.841 351.915 358.914 351.553 358.694 351.789C358.473 352.025 358.907 352.926 358.671 353.147C358.436 353.369 357.576 352.86 357.318 353.059C357.061 353.258 357.348 354.218 357.076 354.395C356.803 354.572 356.046 353.93 355.759 354.085C355.472 354.24 355.597 355.229 355.303 355.362C355.009 355.495 354.362 354.735 354.053 354.838C353.744 354.941 353.707 355.938 353.391 356.019C353.075 356.1 352.567 355.244 352.244 355.296C351.92 355.347 351.722 356.329 351.391 356.351C351.06 356.373 350.707 355.451 350.383 355.451C350.06 355.451 349.692 356.381 349.376 356.351C349.059 356.322 348.846 355.347 348.522 355.296C348.199 355.244 347.691 356.1 347.375 356.019C347.059 355.938 347.015 354.941 346.713 354.838C346.412 354.735 345.765 355.495 345.463 355.362C345.162 355.229 345.287 354.24 345 354.085C344.713 353.93 343.955 354.572 343.683 354.395C343.411 354.218 343.698 353.258 343.441 353.059C343.183 352.86 342.33 353.369 342.087 353.147C341.845 352.926 342.286 352.025 342.065 351.789C341.845 351.553 340.918 351.915 340.72 351.656C340.521 351.398 341.095 350.586 340.918 350.313C340.742 350.04 339.763 350.246 339.609 349.959C339.455 349.671 340.153 348.969 340.028 348.667C339.903 348.364 338.903 348.408 338.8 348.098C338.697 347.788 339.506 347.212 339.425 346.895C339.344 346.578 338.359 346.46 338.307 346.135C338.256 345.81 339.146 345.374 339.124 345.05C339.102 344.725 338.146 344.444 338.146 344.112C338.146 343.78 339.102 343.499 339.124 343.175C339.146 342.85 338.256 342.407 338.307 342.089C338.359 341.772 339.344 341.639 339.425 341.329C339.506 341.019 338.697 340.429 338.8 340.126C338.903 339.823 339.903 339.86 340.028 339.558C340.153 339.255 339.455 338.554 339.609 338.266C339.763 337.978 340.742 338.184 340.918 337.911C341.095 337.638 340.521 336.826 340.72 336.568C340.918 336.31 341.845 336.671 342.065 336.435C342.286 336.199 341.852 335.298 342.087 335.077C342.323 334.855 343.183 335.365 343.441 335.165C343.698 334.966 343.411 334.006 343.683 333.829C343.955 333.652 344.713 334.294 345 334.139C345.287 333.984 345.162 332.995 345.456 332.862C345.75 332.729 346.397 333.49 346.706 333.386C347.015 333.283 347.052 332.286 347.368 332.205C347.684 332.124 348.192 332.98 348.515 332.929C348.839 332.877 349.037 331.895 349.368 331.873C349.699 331.851 350.052 332.774 350.376 332.774C350.699 332.774 351.067 331.843 351.383 331.873C351.7 331.903 351.913 332.877 352.236 332.929C352.56 332.98 353.067 332.124 353.384 332.205C353.7 332.286 353.744 333.283 354.046 333.386C354.347 333.49 354.994 332.729 355.296 332.862C355.597 332.995 355.472 333.984 355.759 334.139C356.046 334.294 356.803 333.652 357.076 333.829C357.348 334.006 357.061 334.966 357.318 335.165C357.576 335.365 358.429 334.855 358.671 335.077C358.914 335.298 358.473 336.199 358.694 336.435C358.914 336.671 359.841 336.31 360.039 336.568C360.238 336.826 359.664 337.638 359.841 337.911C360.017 338.184 360.995 337.978 361.15 338.266C361.304 338.554 360.606 339.255 360.731 339.558C360.856 339.86 361.856 339.816 361.959 340.126C362.062 340.436 361.253 341.012 361.334 341.329C361.415 341.647 362.4 341.765 362.452 342.089C362.503 342.414 361.613 342.85 361.635 343.175C361.657 343.499 362.613 343.78 362.613 344.112Z" fill="#E8A6A6"/>
<path d="M128.752 132.962C116.154 157.507 86.4943 172.757 59.4303 171.938C54.9589 171.731 50.6566 171.274 46.1631 169.93C48.1635 165.678 50.7007 162.157 53.5395 158.68C71.0208 137.922 102.144 125.964 128.752 132.962Z" fill="#1E1B1B"/>
<path d="M116.507 134.468C136.776 127.883 159.67 138.336 167.944 158.016C169.341 161.345 170.415 164.593 170.929 168.424C167.282 169.664 163.899 170.129 160.31 170.344C139.07 171.606 119.596 155.624 116.507 134.468Z" fill="#1E1B1B"/>
</g>
<defs>
<clipPath id="clip0_345_328">
<rect width="695" height="430" fill="white"/>
</clipPath>
</defs>
</svg>
