<svg width="695" height="430" viewBox="0 0 695 430" fill="none" xmlns="http://www.w3.org/2000/svg">
<g clip-path="url(#clip0_345_425)">
<path d="M357.211 245.179C382.518 245.179 403.071 265.636 403.071 290.825V332.872C403.071 355.013 385.011 372.989 362.767 372.989H351.663C329.418 372.989 311.359 355.013 311.359 332.872V290.825C311.359 265.636 331.911 245.179 357.219 245.179H357.211Z" fill="#F09A9A"/>
<path d="M359.479 249.65C408.869 249.65 448.908 218.286 448.908 179.597C448.908 140.908 408.869 109.544 359.479 109.544C310.09 109.544 270.051 140.908 270.051 179.597C270.051 218.286 310.09 249.65 359.479 249.65Z" fill="#F09A9A"/>
<path d="M337.347 47.8895L338.111 52.2567L344.79 118.084C344.999 126.901 339.346 135.232 332.45 136.693C324.851 138.34 317.176 131.618 314.938 121.676L294.101 53.7174L298.121 53.1659" fill="#F09A9A"/>
<path d="M260.662 91.3747L259.412 88.0435C255.054 76.4921 258.259 61.9375 266.832 56.1618L315.604 30.8532C323.264 27.9095 331.582 31.4196 334.008 38.2833L337.579 48.523C339.084 52.8827 336.209 58.4497 331.238 61.1475L279.935 97.3591C272.889 103.701 264.354 101.234 260.662 91.3747Z" fill="#F09A9A"/>
<path d="M379.538 129.867C371.04 128.749 364.264 120.752 364.556 112.033L373.75 15.5235C375.098 7.02767 387.168 1.90783 400.562 4.05414C413.867 6.17809 422.463 14.5621 419.924 22.8046L397.335 116.497C395.845 124.963 387.954 130.962 379.546 129.859L379.538 129.867Z" fill="#F09A9A"/>
<path d="M359.644 239.962C395.413 239.962 424.409 217.107 424.409 188.913C424.409 160.719 395.413 137.863 359.644 137.863C323.876 137.863 294.879 160.719 294.879 188.913C294.879 217.107 323.876 239.962 359.644 239.962Z" fill="#F9E8E8"/>
<path d="M374.005 248.48L416.967 312.266C420.643 317.729 428.797 319.599 435.169 316.447L437.991 315.046C444.363 311.893 446.549 304.903 442.866 299.44L413.036 255.158C405.781 244.389 389.713 240.692 377.15 246.915L373.998 248.473L374.005 248.48Z" fill="#F09A9A"/>
<path d="M468.659 283.939C470.838 291.086 467.417 299.544 461.187 302.771L434.263 316.901C430.774 318.757 426.656 316.827 425.016 312.609L421.115 303.01C419.288 298.702 420.831 293.62 424.619 291.637L452.607 277.157C459.121 273.826 466.383 276.837 468.659 283.939Z" fill="#F09A9A"/>
<path d="M340.552 248.48L297.59 312.266C293.913 317.729 285.76 319.599 279.388 316.447L276.565 315.046C270.194 311.893 268.007 304.903 271.691 299.44L301.52 255.158C308.776 244.389 324.843 240.692 337.407 246.915L340.559 248.473L340.552 248.48Z" fill="#F09A9A"/>
<path d="M263.126 343.544C270.246 346.339 278.587 343.924 281.904 338.074L297.777 311.342C300.038 307.683 298.159 303.435 293.539 301.885L282.825 298.382C277.928 296.824 272.163 298.591 269.999 302.294L255.466 328.251C252.419 333.975 255.915 340.786 263.133 343.544H263.126Z" fill="#F09A9A"/>
<path d="M341.907 345.042H329.913C325.864 345.042 322.583 348.308 322.583 352.338V422.704C322.583 426.734 325.864 430 329.913 430H341.907C345.955 430 349.237 426.734 349.237 422.704V352.338C349.237 348.308 345.955 345.042 341.907 345.042Z" fill="#F09A9A"/>
<path d="M314.428 406.152H347.283V423.889C347.283 427.257 344.535 430 341.143 430H302.269C299.012 430 296.369 427.369 296.369 424.127C296.369 414.208 304.463 406.152 314.428 406.152Z" fill="#F09A9A"/>
<path d="M375.136 430H387.13C391.179 430 394.46 426.733 394.46 422.704V352.338C394.46 348.308 391.179 345.042 387.13 345.042H375.136C371.087 345.042 367.806 348.308 367.806 352.338V422.704C367.806 426.733 371.087 430 375.136 430Z" fill="#F09A9A"/>
<path d="M413.261 430H374.387C371.002 430 368.247 427.265 368.247 423.889V406.152H401.101C411.067 406.152 419.161 414.208 419.161 424.127C419.161 427.369 416.518 430 413.261 430Z" fill="#F09A9A"/>
<path d="M111.845 371.939H100.742C78.4968 371.939 60.4375 353.964 60.4375 331.823L60.4375 289.776C60.4375 264.586 80.9901 244.129 106.297 244.129C131.604 244.129 152.157 264.586 152.157 289.776V331.823C152.157 353.964 134.097 371.939 111.853 371.939H111.845Z" fill="#FDD646"/>
<path d="M104.028 248.593C153.418 248.593 193.456 217.229 193.456 178.54C193.456 139.851 153.418 108.487 104.028 108.487C54.6385 108.487 14.6001 139.851 14.6001 178.54C14.6001 217.229 54.6385 248.593 104.028 248.593Z" fill="#FDD646"/>
<path d="M120.171 46.8326L119.572 51.1923L115.312 116.789C115.424 125.561 121.384 133.937 128.339 135.51C135.999 137.291 143.426 130.688 145.306 120.754L162.541 55.9694C163.148 54.1584 161.838 52.4369 159.606 52.1313" fill="#FDD646"/>
<path d="M197.747 67.4462L198.81 65.1136C202.494 57.3407 198.63 49.523 189.915 47.101L140.147 28.0897C132.293 24.3859 124.222 27.8811 122.282 36.2651L119.422 49.6125C118.217 55.6415 121.459 62.2593 126.58 64.2267L179.223 78.8187C186.419 79.8844 194.617 74.608 197.747 67.4537V67.4462Z" fill="#FDD646"/>
<path d="M83.97 128.81C92.4681 127.729 99.274 120.083 99.012 111.706L90.147 16.5012C88.8292 7.90103 76.7747 0.94788 63.38 1.00005C50.075 1.07457 41.4497 8.33328 43.9579 17.1868L66.2176 115.202C67.6777 123.832 75.5468 129.913 83.9625 128.81H83.97Z" fill="#FDD646"/>
<path d="M89.4955 247.423L46.5335 311.209C42.8572 316.672 34.7035 318.542 28.3319 315.39L25.5092 313.989C19.1375 310.836 16.9512 303.846 20.6349 298.383L50.4643 254.101C57.7195 243.332 73.7872 239.636 86.3509 245.858L89.503 247.416L89.4955 247.423Z" fill="#FDD646"/>
<path d="M6.67114 338.448C13.0428 342.263 21.4286 341.168 25.584 335.921L45.4403 311.835C48.263 308.526 47.3421 304.002 43.3214 301.752L33.9473 296.669C29.6421 294.404 23.8095 295.335 20.9943 298.704L2.01405 322.298C-1.98416 327.478 0.187151 334.677 6.67114 338.448Z" fill="#FDD646"/>
<path d="M122.956 247.423L165.918 311.209C169.595 316.672 177.748 318.542 184.12 315.39L186.943 313.989C193.314 310.836 195.501 303.846 191.817 298.383L161.987 254.101C154.732 243.332 138.665 239.636 126.101 245.858L122.949 247.416L122.956 247.423Z" fill="#FDD646"/>
<path d="M204.523 339.894C197.821 343.843 189.57 342.778 185.902 337.591L168.224 314.749C165.693 311.731 167.004 307.319 171.219 304.86L181.027 299.166C185.527 296.565 191.278 296.997 193.793 300.157L210.64 323.096C214.159 328.342 211.336 335.899 204.523 339.894Z" fill="#FDD646"/>
<path d="M124.596 428.951H136.59C140.639 428.951 143.92 425.684 143.92 421.655V351.288C143.92 347.259 140.639 343.992 136.59 343.992H124.596C120.547 343.992 117.266 347.259 117.266 351.288L117.266 421.655C117.266 425.684 120.547 428.951 124.596 428.951Z" fill="#FDD646"/>
<path d="M164.219 428.951H125.345C121.96 428.951 119.205 426.215 119.205 422.84V405.103H152.059C162.025 405.103 170.119 413.159 170.119 423.078C170.119 426.32 167.476 428.951 164.219 428.951Z" fill="#FDD646"/>
<path d="M91.3672 343.985H79.3725C75.3243 343.985 72.0425 347.251 72.0425 351.281V421.647C72.0425 425.677 75.3243 428.943 79.3725 428.943H91.3672C95.4154 428.943 98.6972 425.677 98.6972 421.647V351.281C98.6972 347.251 95.4154 343.985 91.3672 343.985Z" fill="#FDD646"/>
<path d="M65.3938 405.095H98.248V422.832C98.248 426.201 95.5002 428.943 92.1085 428.943H53.2345C49.9775 428.943 47.3345 426.312 47.3345 423.071C47.3345 413.151 55.4282 405.095 65.3938 405.095Z" fill="#FDD646"/>
<path d="M597.927 372.962H586.824C564.579 372.962 546.519 354.986 546.519 332.845V290.798C546.519 265.609 567.072 245.152 592.379 245.152C617.686 245.152 638.239 265.609 638.239 290.798V332.845C638.239 354.986 620.179 372.962 597.935 372.962H597.927Z" fill="#9DB3F8"/>
<path d="M590.103 249.616C639.493 249.616 679.531 218.252 679.531 179.562C679.531 140.873 639.493 109.509 590.103 109.509C540.713 109.509 500.675 140.873 500.675 179.562C500.675 218.252 540.713 249.616 590.103 249.616Z" fill="#9DB3F8"/>
<path d="M606.133 47.855L605.542 52.2147L601.401 117.811C601.529 126.583 607.504 134.959 614.459 136.532C622.126 138.313 629.539 131.71 631.395 121.776L649.612 53.7126L645.569 53.1537" fill="#9DB3F8"/>
<path d="M682.197 71.785L683.402 69.0648C687.61 60.0399 684.241 51.2907 675.601 48.9059L626.506 30.2598C618.794 26.6304 610.536 31.2212 608.237 40.9019L604.853 56.3882C603.431 63.4084 606.403 70.7193 611.405 72.5377L663.067 85.6913C670.165 86.5781 678.64 80.1392 682.197 71.785Z" fill="#9DB3F8"/>
<path d="M570.045 129.832C578.543 128.752 585.349 121.105 585.087 112.729L576.222 17.5235C574.904 8.92337 562.857 1.97022 549.462 2.02239C536.157 2.09691 527.532 9.35562 530.04 18.2091L552.3 116.224C553.76 124.854 561.629 130.935 570.045 129.832Z" fill="#9DB3F8"/>
<path d="M575.578 248.446L532.615 312.231C528.939 317.694 520.786 319.565 514.414 316.412L511.591 315.011C505.22 311.859 503.033 304.868 506.717 299.406L536.546 255.123C543.801 244.354 559.869 240.658 572.433 246.881L575.585 248.438L575.578 248.446Z" fill="#9DB3F8"/>
<path d="M499.088 342.347C506.006 345.052 514.175 342.555 517.469 336.705L533.26 309.943C535.506 306.284 533.724 302.081 529.232 300.576L518.817 297.2C514.062 295.702 508.417 297.513 506.261 301.217L491.78 327.203C488.748 332.934 492.08 339.679 499.088 342.339V342.347Z" fill="#9DB3F8"/>
<path d="M609.031 248.446L651.993 312.231C655.669 317.694 663.823 319.565 670.195 316.412L673.017 315.011C679.389 311.859 681.575 304.868 677.892 299.406L648.062 255.123C640.807 244.354 624.739 240.658 612.176 246.881L609.023 248.438L609.031 248.446Z" fill="#9DB3F8"/>
<path d="M687.071 341.982C680.415 345.328 672.47 343.569 669.154 338.121L653.146 314.109C650.855 310.935 652.382 306.657 656.627 304.54L666.481 299.622C670.988 297.379 676.521 298.236 678.767 301.574L693.772 325.773C696.894 331.302 693.817 338.591 687.063 341.982H687.071Z" fill="#9DB3F8"/>
<path d="M611.419 429.973H623.414C627.462 429.973 630.744 426.706 630.744 422.677V352.311C630.744 348.281 627.462 345.015 623.414 345.015H611.419C607.371 345.015 604.089 348.281 604.089 352.311V422.677C604.089 426.706 607.371 429.973 611.419 429.973Z" fill="#9DB3F8"/>
<path d="M651.05 429.973H612.176C608.791 429.973 606.036 427.238 606.036 423.862V406.125H638.89C648.856 406.125 656.95 414.181 656.95 424.1C656.95 427.342 654.307 429.973 651.05 429.973Z" fill="#9DB3F8"/>
<path d="M573.699 345.007H561.704C557.656 345.007 554.374 348.274 554.374 352.303V422.669C554.374 426.699 557.656 429.965 561.704 429.965H573.699C577.747 429.965 581.029 426.699 581.029 422.669V352.303C581.029 348.274 577.747 345.007 573.699 345.007Z" fill="#9DB3F8"/>
<path d="M547.725 406.118H580.579V423.854C580.579 427.223 577.831 429.965 574.44 429.965H535.566C532.309 429.965 529.666 427.335 529.666 424.093C529.666 414.174 537.759 406.118 547.725 406.118Z" fill="#9DB3F8"/>
<path d="M333.731 203.586C338.693 203.586 342.716 199.583 342.716 194.644C342.716 189.704 338.693 185.701 333.731 185.701C328.769 185.701 324.746 189.704 324.746 194.644C324.746 199.583 328.769 203.586 333.731 203.586Z" fill="black"/>
<path d="M380.152 203.586C385.114 203.586 389.137 199.583 389.137 194.644C389.137 189.704 385.114 185.701 380.152 185.701C375.19 185.701 371.167 189.704 371.167 194.644C371.167 199.583 375.19 203.586 380.152 203.586Z" fill="black"/>
<path d="M341.083 142.066C338.53 142.797 336.097 144.682 335.303 147.276C334.584 149.631 334.831 153.506 336.344 155.518C336.875 156.226 337.841 157.009 338.59 157.009" stroke="#333333" stroke-width="5" stroke-miterlimit="10" stroke-linecap="round"/>
<path d="M354.56 139.085C352.007 139.905 349.574 142.029 348.78 144.943C348.061 147.589 348.308 151.948 349.821 154.214C350.352 155.011 351.318 155.891 352.067 155.891" stroke="#333333" stroke-width="5" stroke-miterlimit="10" stroke-linecap="round"/>
<path d="M365.791 139.831C363.238 140.613 360.805 142.648 360.011 145.435C359.292 147.969 359.539 152.135 361.052 154.296C361.583 155.056 362.549 155.898 363.298 155.898" stroke="#333333" stroke-width="5" stroke-miterlimit="10" stroke-linecap="round"/>
<path d="M378.52 142.066C375.967 142.774 373.533 144.623 372.739 147.149C372.021 149.444 372.268 153.223 373.78 155.183C374.312 155.876 375.278 156.636 376.026 156.636" stroke="#333333" stroke-width="5" stroke-miterlimit="10" stroke-linecap="round"/>
<path d="M117.828 340.967C117.828 341.302 116.854 341.585 116.832 341.913C116.809 342.241 117.715 342.688 117.663 343.009C117.611 343.329 116.607 343.463 116.525 343.776C116.443 344.089 117.266 344.686 117.161 344.991C117.056 345.297 116.038 345.259 115.911 345.565C115.784 345.87 116.495 346.578 116.338 346.869C116.18 347.16 115.185 346.951 115.005 347.227C114.825 347.503 115.409 348.322 115.207 348.583C115.005 348.844 114.062 348.479 113.837 348.717C113.612 348.956 114.054 349.865 113.814 350.089C113.575 350.312 112.699 349.798 112.437 349.999C112.175 350.2 112.467 351.169 112.19 351.348C111.913 351.527 111.142 350.879 110.85 351.035C110.558 351.192 110.685 352.19 110.385 352.324C110.086 352.458 109.427 351.691 109.112 351.795C108.798 351.9 108.761 352.906 108.439 352.988C108.117 353.07 107.6 352.205 107.271 352.257C106.941 352.309 106.739 353.301 106.402 353.323C106.065 353.345 105.706 352.414 105.376 352.414C105.047 352.414 104.673 353.353 104.351 353.323C104.029 353.293 103.811 352.309 103.482 352.257C103.153 352.205 102.636 353.07 102.314 352.988C101.992 352.906 101.947 351.9 101.64 351.795C101.333 351.691 100.674 352.458 100.367 352.324C100.06 352.19 100.188 351.192 99.8956 351.035C99.6036 350.879 98.8324 351.527 98.5554 351.348C98.2784 351.169 98.5704 350.2 98.3083 349.999C98.0463 349.798 97.1778 350.312 96.9307 350.089C96.6836 349.865 97.1328 348.956 96.9082 348.717C96.6836 348.479 95.7402 348.844 95.538 348.583C95.3359 348.322 95.9199 347.503 95.7402 347.227C95.5605 346.951 94.5647 347.16 94.4074 346.869C94.2502 346.578 94.9615 345.87 94.8342 345.565C94.7069 345.259 93.6887 345.304 93.5838 344.991C93.479 344.678 94.3026 344.097 94.2203 343.776C94.1379 343.456 93.1346 343.337 93.0822 343.009C93.0298 342.681 93.9358 342.241 93.9133 341.913C93.8908 341.585 92.9175 341.302 92.9175 340.967C92.9175 340.631 93.8908 340.348 93.9133 340.02C93.9358 339.692 93.0298 339.245 93.0822 338.925C93.1346 338.604 94.1379 338.47 94.2203 338.157C94.3026 337.844 93.479 337.248 93.5838 336.942C93.6887 336.637 94.7069 336.674 94.8342 336.369C94.9615 336.063 94.2502 335.355 94.4074 335.064C94.5647 334.774 95.5605 334.982 95.7402 334.707C95.9199 334.431 95.3359 333.611 95.538 333.35C95.7402 333.089 96.6836 333.455 96.9082 333.216C97.1328 332.978 96.6911 332.069 96.9307 331.845C97.1703 331.621 98.0463 332.136 98.3083 331.934C98.5704 331.733 98.2784 330.764 98.5554 330.585C98.8324 330.407 99.6036 331.055 99.8956 330.898C100.188 330.742 100.06 329.743 100.36 329.609C100.659 329.475 101.318 330.243 101.633 330.138C101.947 330.034 101.985 329.028 102.307 328.946C102.628 328.864 103.145 329.728 103.475 329.676C103.804 329.624 104.006 328.633 104.343 328.611C104.68 328.588 105.039 329.52 105.369 329.52C105.698 329.52 106.073 328.581 106.395 328.611C106.717 328.64 106.934 329.624 107.263 329.676C107.593 329.728 108.109 328.864 108.431 328.946C108.753 329.028 108.798 330.034 109.105 330.138C109.412 330.243 110.071 329.475 110.378 329.609C110.685 329.743 110.558 330.742 110.85 330.898C111.142 331.055 111.913 330.407 112.19 330.585C112.467 330.764 112.175 331.733 112.437 331.934C112.699 332.136 113.567 331.621 113.814 331.845C114.062 332.069 113.612 332.978 113.837 333.216C114.062 333.455 115.005 333.089 115.207 333.35C115.409 333.611 114.825 334.431 115.005 334.707C115.185 334.982 116.18 334.774 116.338 335.064C116.495 335.355 115.784 336.063 115.911 336.369C116.038 336.674 117.056 336.629 117.161 336.942C117.266 337.255 116.443 337.837 116.525 338.157C116.607 338.478 117.611 338.597 117.663 338.925C117.715 339.253 116.809 339.692 116.832 340.02C116.854 340.348 117.828 340.631 117.828 340.967Z" fill="#E2B544"/>
<path d="M605.25 344.948C605.25 345.283 604.277 345.566 604.254 345.894C604.232 346.222 605.138 346.669 605.085 346.99C605.033 347.31 604.03 347.444 603.947 347.757C603.865 348.07 604.689 348.666 604.584 348.972C604.479 349.278 603.461 349.24 603.333 349.546C603.206 349.851 603.917 350.559 603.76 350.85C603.603 351.141 602.607 350.932 602.427 351.208C602.248 351.484 602.832 352.303 602.63 352.564C602.427 352.825 601.484 352.46 601.259 352.698C601.035 352.937 601.476 353.846 601.237 354.07C600.997 354.293 600.121 353.779 599.859 353.98C599.597 354.181 599.889 355.15 599.612 355.329C599.335 355.508 598.564 354.859 598.272 355.016C597.98 355.172 598.107 356.171 597.808 356.305C597.508 356.439 596.849 355.672 596.535 355.776C596.22 355.88 596.183 356.887 595.861 356.969C595.539 357.051 595.022 356.186 594.693 356.238C594.364 356.29 594.161 357.282 593.824 357.304C593.488 357.326 593.128 356.395 592.799 356.395C592.469 356.395 592.095 357.334 591.773 357.304C591.451 357.274 591.234 356.29 590.904 356.238C590.575 356.186 590.058 357.051 589.736 356.969C589.414 356.887 589.37 355.88 589.063 355.776C588.756 355.672 588.097 356.439 587.79 356.305C587.483 356.171 587.61 355.172 587.318 355.016C587.026 354.859 586.255 355.508 585.978 355.329C585.701 355.15 585.993 354.181 585.731 353.98C585.469 353.779 584.6 354.293 584.353 354.07C584.106 353.846 584.555 352.937 584.331 352.698C584.106 352.46 583.163 352.825 582.96 352.564C582.758 352.303 583.342 351.484 583.163 351.208C582.983 350.932 581.987 351.141 581.83 350.85C581.673 350.559 582.384 349.851 582.257 349.546C582.129 349.24 581.111 349.285 581.006 348.972C580.901 348.659 581.725 348.078 581.643 347.757C581.56 347.437 580.557 347.318 580.505 346.99C580.452 346.662 581.358 346.222 581.336 345.894C581.313 345.566 580.34 345.283 580.34 344.948C580.34 344.612 581.313 344.329 581.336 344.001C581.358 343.673 580.452 343.226 580.505 342.906C580.557 342.585 581.56 342.451 581.643 342.138C581.725 341.825 580.901 341.229 581.006 340.923C581.111 340.618 582.129 340.655 582.257 340.35C582.384 340.044 581.673 339.336 581.83 339.045C581.987 338.755 582.983 338.963 583.163 338.688C583.342 338.412 582.758 337.592 582.96 337.331C583.163 337.07 584.106 337.436 584.331 337.197C584.555 336.959 584.113 336.049 584.353 335.826C584.593 335.602 585.469 336.117 585.731 335.915C585.993 335.714 585.701 334.745 585.978 334.566C586.255 334.388 587.026 335.036 587.318 334.879C587.61 334.723 587.483 333.724 587.782 333.59C588.082 333.456 588.741 334.224 589.055 334.119C589.37 334.015 589.407 333.009 589.729 332.927C590.051 332.845 590.568 333.709 590.897 333.657C591.226 333.605 591.429 332.614 591.765 332.592C592.102 332.569 592.462 333.501 592.791 333.501C593.121 333.501 593.495 332.562 593.817 332.592C594.139 332.621 594.356 333.605 594.686 333.657C595.015 333.709 595.532 332.845 595.854 332.927C596.175 333.009 596.22 334.015 596.527 334.119C596.834 334.224 597.493 333.456 597.8 333.59C598.107 333.724 597.98 334.723 598.272 334.879C598.564 335.036 599.335 334.388 599.612 334.566C599.889 334.745 599.597 335.714 599.859 335.915C600.121 336.117 600.99 335.602 601.237 335.826C601.484 336.049 601.035 336.959 601.259 337.197C601.484 337.436 602.427 337.07 602.63 337.331C602.832 337.592 602.248 338.412 602.427 338.688C602.607 338.963 603.603 338.755 603.76 339.045C603.917 339.336 603.206 340.044 603.333 340.35C603.461 340.655 604.479 340.61 604.584 340.923C604.689 341.236 603.865 341.818 603.947 342.138C604.03 342.459 605.033 342.578 605.085 342.906C605.138 343.234 604.232 343.673 604.254 344.001C604.277 344.329 605.25 344.612 605.25 344.948Z" fill="#7F95D3"/>
</g>
<defs>
<clipPath id="clip0_345_425">
<rect width="695" height="430" fill="white"/>
</clipPath>
</defs>
</svg>
