<?xml version="1.0" encoding="UTF-8"?>
<svg xmlns="http://www.w3.org/2000/svg" xmlns:xlink="http://www.w3.org/1999/xlink" viewBox="0 0 1440 700">
  <defs>
    <style>
      .q {
        font-size: 43.4px;
      }

      .q, .r {
        font-family: FranklinGothic-DemiCond, 'Franklin Gothic Demi Cond';
        font-weight: 300;
      }

      .q, .r, .s {
        fill: #fff;
      }

      .t {
        fill: #b2b3b0;
      }

      .u {
        fill: #e73061;
      }

      .r {
        font-size: 36.8px;
      }

      .v {
        fill: url(#p);
      }

      .v, .w, .x, .y, .z, .aa, .ab, .ac, .ad, .ae, .af, .ag, .ah, .ai {
        mix-blend-mode: screen;
      }

      .w {
        opacity: .03;
        stroke: #fff;
        stroke-width: 2px;
      }

      .w, .aj {
        stroke-miterlimit: 10;
      }

      .w, .ak {
        fill: none;
      }

      .al {
        fill: #f1f0f2;
        font-family: SweiGothicCJKtc-Bold, 'Swei Gothic CJK TC';
        font-size: 60px;
        font-weight: 700;
      }

      .am {
        fill: #ccdeff;
      }

      .aj {
        fill: #fcfcfc;
        stroke: #d9d9d9;
        stroke-width: 4px;
      }

      .an {
        fill: #f9e8e8;
      }

      .ao {
        fill: #157f0d;
      }

      .x {
        fill: url(#h);
        opacity: .15;
      }

      .y {
        fill: url(#i);
      }

      .y, .ae {
        opacity: .5;
      }

      .z {
        fill: url(#o);
      }

      .ap {
        isolation: isolate;
      }

      .aq {
        fill: #f2d800;
      }

      .aa {
        fill: url(#e);
      }

      .ar {
        fill: #1e1b1b;
      }

      .as {
        fill: #9db3f8;
      }

      .at {
        fill: #218e19;
      }

      .ab {
        fill: url(#l);
      }

      .au {
        fill: #9a9c9e;
      }

      .ac {
        fill: url(#n);
      }

      .ad {
        fill: url(#g);
        opacity: .2;
      }

      .av {
        fill: #96d7ff;
      }

      .ae {
        fill: url(#k);
      }

      .af {
        fill: url(#j);
      }

      .ag {
        fill: url(#m);
      }

      .aw {
        fill: #5778b8;
      }

      .ah {
        fill: url(#d);
        opacity: .25;
      }

      .ax {
        fill: #ffd766;
      }

      .ay {
        fill: #cac8c6;
      }

      .az {
        fill: #7d5736;
      }

      .ai {
        fill: url(#f);
      }
    </style>
    <radialGradient id="d" cx="561.77" cy="520.95" fx="561.77" fy="520.95" r="266.69" gradientTransform="translate(-51.44 -116.38) scale(1.09 1.01)" gradientUnits="userSpaceOnUse">
      <stop offset=".1" stop-color="#000"/>
      <stop offset=".12" stop-color="#240d00"/>
      <stop offset=".15" stop-color="#4d1c01"/>
      <stop offset=".19" stop-color="#722901"/>
      <stop offset=".23" stop-color="#933502"/>
      <stop offset=".27" stop-color="#ae3f02"/>
      <stop offset=".32" stop-color="#c44703"/>
      <stop offset=".37" stop-color="#d54d03"/>
      <stop offset=".44" stop-color="#e15103"/>
      <stop offset=".53" stop-color="#e85403"/>
      <stop offset=".8" stop-color="#ea5504"/>
      <stop offset="1" stop-color="#000"/>
    </radialGradient>
    <radialGradient id="e" cx="562.69" cy="520.03" fx="562.69" fy="520.03" r="8.89" gradientTransform="translate(-51.44 -116.38) scale(1.09 1.01)" gradientUnits="userSpaceOnUse">
      <stop offset="0" stop-color="#eef3cc"/>
      <stop offset="0" stop-color="#e7ecc6"/>
      <stop offset=".08" stop-color="#b7bb9d"/>
      <stop offset=".16" stop-color="#8b8e77"/>
      <stop offset=".24" stop-color="#666857"/>
      <stop offset=".32" stop-color="#46473c"/>
      <stop offset=".42" stop-color="#2c2d26"/>
      <stop offset=".52" stop-color="#181915"/>
      <stop offset=".63" stop-color="#0a0a09"/>
      <stop offset=".77" stop-color="#020202"/>
      <stop offset="1" stop-color="#000"/>
    </radialGradient>
    <radialGradient id="f" cx="563.04" cy="519.68" fx="563.04" fy="519.68" r="8.89" xlink:href="#e"/>
    <radialGradient id="g" cx="562.99" cy="519.73" fx="562.99" fy="519.73" r="66.67" gradientTransform="translate(-51.44 -116.38) scale(1.09 1.01)" gradientUnits="userSpaceOnUse">
      <stop offset=".05" stop-color="#000"/>
      <stop offset=".22" stop-color="#1a3531"/>
      <stop offset=".39" stop-color="#306059"/>
      <stop offset=".54" stop-color="#407f76"/>
      <stop offset=".66" stop-color="#499287"/>
      <stop offset=".75" stop-color="#4d998e"/>
      <stop offset=".78" stop-color="#878d6d"/>
      <stop offset=".82" stop-color="#be824e"/>
      <stop offset=".85" stop-color="#e07b3b"/>
      <stop offset=".86" stop-color="#ee7934"/>
      <stop offset=".88" stop-color="#ea7733"/>
      <stop offset=".9" stop-color="#df7130"/>
      <stop offset=".92" stop-color="#cd682c"/>
      <stop offset=".93" stop-color="#b35b27"/>
      <stop offset=".95" stop-color="#924a20"/>
      <stop offset=".97" stop-color="#693517"/>
      <stop offset=".98" stop-color="#391d0c"/>
      <stop offset="1" stop-color="#030100"/>
      <stop offset="1" stop-color="#000"/>
    </radialGradient>
    <radialGradient id="h" cx="562.02" cy="520.7" fx="562.02" fy="520.7" r="177.79" gradientTransform="translate(-51.44 -116.38) scale(1.09 1.01)" gradientUnits="userSpaceOnUse">
      <stop offset="0" stop-color="#af3e92"/>
      <stop offset=".73" stop-color="#ea5504"/>
      <stop offset="1" stop-color="#af3e92"/>
    </radialGradient>
    <radialGradient id="i" cx="562.02" cy="520.7" fx="562.02" fy="520.7" r="88.9" gradientTransform="translate(-51.44 -116.38) scale(1.09 1.01)" gradientUnits="userSpaceOnUse">
      <stop offset=".15" stop-color="#fff"/>
      <stop offset=".24" stop-color="#ebd4e5"/>
      <stop offset=".33" stop-color="#d9adce"/>
      <stop offset=".4" stop-color="#ce94c0"/>
      <stop offset=".45" stop-color="#ca8cbb"/>
      <stop offset=".47" stop-color="#c886b8"/>
      <stop offset=".64" stop-color="#ba5fa3"/>
      <stop offset=".77" stop-color="#b24696"/>
      <stop offset=".85" stop-color="#af3e92"/>
      <stop offset=".86" stop-color="#b1408d"/>
      <stop offset=".87" stop-color="#b94781"/>
      <stop offset=".88" stop-color="#c6526c"/>
      <stop offset=".89" stop-color="#d9624f"/>
      <stop offset=".9" stop-color="#ee752f"/>
      <stop offset=".91" stop-color="#e46c3d"/>
      <stop offset=".92" stop-color="#d15b5c"/>
      <stop offset=".94" stop-color="#c24e73"/>
      <stop offset=".96" stop-color="#b74584"/>
      <stop offset=".98" stop-color="#b13f8e"/>
      <stop offset="1" stop-color="#af3e92"/>
    </radialGradient>
    <radialGradient id="j" cx="562.02" cy="520.7" fx="562.02" fy="520.7" r="74.08" gradientTransform="translate(-51.44 -116.38) scale(1.09 1.01)" gradientUnits="userSpaceOnUse">
      <stop offset=".15" stop-color="#fff"/>
      <stop offset=".28" stop-color="#c2c2c2"/>
      <stop offset=".43" stop-color="#878787"/>
      <stop offset=".56" stop-color="#575757"/>
      <stop offset=".69" stop-color="#313131"/>
      <stop offset=".81" stop-color="#161616"/>
      <stop offset=".92" stop-color="#050505"/>
      <stop offset="1" stop-color="#000"/>
    </radialGradient>
    <radialGradient id="k" cx="563.04" cy="519.68" fx="563.04" fy="519.68" r="133.34" gradientTransform="translate(-51.44 -116.38) scale(1.09 1.01)" gradientUnits="userSpaceOnUse">
      <stop offset=".64" stop-color="#000"/>
      <stop offset=".71" stop-color="#000101"/>
      <stop offset=".73" stop-color="#000807"/>
      <stop offset=".75" stop-color="#001412"/>
      <stop offset=".76" stop-color="#002521"/>
      <stop offset=".78" stop-color="#003b35"/>
      <stop offset=".79" stop-color="#00564d"/>
      <stop offset=".8" stop-color="#007669"/>
      <stop offset=".8" stop-color="#00887a"/>
      <stop offset=".8" stop-color="#10817c"/>
      <stop offset=".81" stop-color="#416f83"/>
      <stop offset=".82" stop-color="#69608a"/>
      <stop offset=".83" stop-color="#88548e"/>
      <stop offset=".84" stop-color="#9f4b92"/>
      <stop offset=".85" stop-color="#ac4694"/>
      <stop offset=".86" stop-color="#b14595"/>
      <stop offset=".86" stop-color="#9b3c82"/>
      <stop offset=".87" stop-color="#762e64"/>
      <stop offset=".88" stop-color="#562148"/>
      <stop offset=".89" stop-color="#3b1731"/>
      <stop offset=".9" stop-color="#250e1f"/>
      <stop offset=".91" stop-color="#140711"/>
      <stop offset=".92" stop-color="#080307"/>
      <stop offset=".94" stop-color="#010001"/>
      <stop offset="1" stop-color="#000"/>
    </radialGradient>
    <radialGradient id="l" cx="562.41" cy="520.31" fx="562.41" fy="520.31" r="28.03" gradientTransform="translate(-51.44 -116.38) scale(1.09 1.01)" gradientUnits="userSpaceOnUse">
      <stop offset=".1" stop-color="#000"/>
      <stop offset=".11" stop-color="#030302"/>
      <stop offset=".21" stop-color="#3c2f26"/>
      <stop offset=".32" stop-color="#6e5745"/>
      <stop offset=".43" stop-color="#987860"/>
      <stop offset=".54" stop-color="#bb9376"/>
      <stop offset=".65" stop-color="#d5a987"/>
      <stop offset=".76" stop-color="#e8b893"/>
      <stop offset=".88" stop-color="#f4c19a"/>
      <stop offset="1" stop-color="#f8c49d"/>
    </radialGradient>
    <radialGradient id="m" cx="562.75" cy="519.97" fx="562.75" fy="519.97" r="34.28" gradientTransform="translate(-51.44 -116.38) scale(1.09 1.01)" gradientUnits="userSpaceOnUse">
      <stop offset=".1" stop-color="#2f9185"/>
      <stop offset=".12" stop-color="#2c887d"/>
      <stop offset=".26" stop-color="#1e5f57"/>
      <stop offset=".4" stop-color="#133c37"/>
      <stop offset=".55" stop-color="#0b221f"/>
      <stop offset=".69" stop-color="#040f0d"/>
      <stop offset=".84" stop-color="#010303"/>
      <stop offset="1" stop-color="#000"/>
    </radialGradient>
    <radialGradient id="n" cx="562.75" cy="519.97" fx="562.75" fy="519.97" r="13.49" gradientTransform="translate(-51.44 -116.38) scale(1.09 1.01)" gradientUnits="userSpaceOnUse">
      <stop offset=".1" stop-color="#b8d200"/>
      <stop offset=".15" stop-color="#a3ba00"/>
      <stop offset=".26" stop-color="#788900"/>
      <stop offset=".38" stop-color="#535f00"/>
      <stop offset=".5" stop-color="#353c00"/>
      <stop offset=".62" stop-color="#1d2200"/>
      <stop offset=".74" stop-color="#0d0f00"/>
      <stop offset=".87" stop-color="#030300"/>
      <stop offset="1" stop-color="#000"/>
    </radialGradient>
    <radialGradient id="o" cx="562.3" cy="520.42" fx="562.3" fy="520.42" r="5.23" xlink:href="#m"/>
    <radialGradient id="p" cx="561.81" cy="520.91" fx="561.81" fy="520.91" r=".05" xlink:href="#m"/>
  </defs>
  <g class="ap">
    <g id="b" data-name="圖層 2">
      <g id="c" data-name="圖層 58">
        <rect class="as" width="1440" height="700"/>
        <text class="al" transform="translate(109.9 159.38)"><tspan x="0" y="0">兔兔醫療指引</tspan></text>
        <path class="ax" d="M1229.12,542.17l-14.27,111.41-17.49-35.02c-13.35-26.72-5.33-58.53,17.56-75.99,2.2-.26,4.42-.39,6.66-.39h7.54Z"/>
        <ellipse class="ax" cx="1199.17" cy="391.44" rx="191.55" ry="150.76" transform="translate(-48.54 577.03) rotate(-26.54)"/>
        <path class="ax" d="M1030.12,159.05l5.66,7.68,76.09,120.35c8.89,16.77,6.06,38.23-5.75,47.64h0c-12.98,10.44-34.15,4.84-47.99-12.15l-105.27-110.89,7.17-4.92"/>
        <path class="ax" d="M924.97,316.15l-5.61-5.22c-19.46-18.07-27.31-49.15-16.43-68.49l69.13-95.4c11.86-12.99,31.17-14.21,42.41-3.31l16.68,16.29c7.07,6.95,6.92,20.43-.01,30.37l-63.49,118.82c-7.41,18.95-26.13,22.37-42.69,6.93Z"/>
        <path class="ax" d="M1189.79,313.48h0c-17.35,5.98-38.03-2.94-45.85-20l-75.17-194.6c-5.59-17.64,12.63-39.06,40.35-47.74h0c27.54-8.64,52.07-.73,55.13,17.58l46.79,202.01c5.29,17.72-4.07,36.83-21.25,42.76Z"/>
        <ellipse class="an" cx="1208.44" cy="409.21" rx="138.73" ry="109.86" transform="translate(-55.51 583.04) rotate(-26.54)"/>
        <path class="ax" d="M1229.12,542.17l-14.27,111.41-17.49-35.02c-13.35-26.72-5.33-58.53,17.56-75.99,2.2-.26,4.42-.39,6.66-.39h7.54Z"/>
        <path class="ar" d="M1191.24,289.47c-.75,59.98-43.81,118.51-97.42,143.3-8.93,3.96-17.76,7.26-27.84,9.02-.22-10.22,1.31-19.54,3.47-29.06,13.96-57.37,63.07-110.94,121.78-123.27h0Z"/>
        <path class="ar" d="M1168.8,304.33c33.15-32.55,87.96-34.53,123.21-4.35,5.96,5.11,11.21,10.37,15.93,17.32-5.92,5.96-12.06,10.16-18.86,14.08-40.21,23.14-93.73,11.06-120.28-27.06h0Z"/>
        <path class="aq" d="M95.76,395.67l-9.39-6.08c-.88-.57-1.96-.73-2.96-.43l-10.73,3.17c-3.19.94-5.83-2.59-4.02-5.39l6.08-9.39c.57-.88.73-1.96.43-2.96l-3.17-10.73c-.94-3.19,2.59-5.83,5.39-4.02l9.39,6.08c.88.57,1.96.73,2.96.43l10.73-3.17c3.19-.94,5.83,2.59,4.02,5.39l-6.08,9.39c-.57.88-.73,1.96-.43,2.96l3.17,10.73c.94,3.19-2.59,5.83-5.39,4.02Z"/>
        <path class="aq" d="M876.76,106.67l-9.39-6.08c-.88-.57-1.96-.73-2.96-.43l-10.73,3.17c-3.19.94-5.83-2.59-4.02-5.39l6.08-9.39c.57-.88.73-1.96.43-2.96l-3.17-10.73c-.94-3.19,2.59-5.83,5.39-4.02l9.39,6.08c.88.57,1.96.73,2.96.43l10.73-3.17c3.19-.94,5.83,2.59,4.02,5.39l-6.08,9.39c-.57.88-.73,1.96-.43,2.96l3.17,10.73c.94,3.19-2.59,5.83-5.39,4.02Z"/>
        <path class="aq" d="M942.76,667.67l-9.39-6.08c-.88-.57-1.96-.73-2.96-.43l-10.73,3.17c-3.19.94-5.83-2.59-4.02-5.39l6.08-9.39c.57-.88.73-1.96.43-2.96l-3.17-10.73c-.94-3.19,2.59-5.83,5.39-4.02l9.39,6.08c.88.57,1.96.73,2.96.43l10.73-3.17c3.19-.94,5.83,2.59,4.02,5.39l-6.08,9.39c-.57.88-.73,1.96-.43,2.96l3.17,10.73c.94,3.19-2.59,5.83-5.39,4.02Z"/>
        <path class="aq" d="M200.76,618.67l-9.39-6.08c-.88-.57-1.96-.73-2.96-.43l-10.73,3.17c-3.19.94-5.83-2.59-4.02-5.39l6.08-9.39c.57-.88.73-1.96.43-2.96l-3.17-10.73c-.94-3.19,2.59-5.83,5.39-4.02l9.39,6.08c.88.57,1.96.73,2.96.43l10.73-3.17c3.19-.94,5.83,2.59,4.02,5.39l-6.08,9.39c-.57.88-.73,1.96-.43,2.96l3.17,10.73c.94,3.19-2.59,5.83-5.39,4.02Z"/>
        <path class="aq" d="M319.76,68.67l-9.39-6.08c-.88-.57-1.96-.73-2.96-.43l-10.73,3.17c-3.19.94-5.83-2.59-4.02-5.39l6.08-9.39c.57-.88.73-1.96.43-2.96l-3.17-10.73c-.94-3.19,2.59-5.83,5.39-4.02l9.39,6.08c.88.57,1.96.73,2.96.43l10.73-3.17c3.19-.94,5.83,2.59,4.02,5.39l-6.08,9.39c-.57.88-.73,1.96-.43,2.96l3.17,10.73c.94,3.19-2.59,5.83-5.39,4.02Z"/>
        <path class="aq" d="M1347.76,113.67l-9.39-6.08c-.88-.57-1.96-.73-2.96-.43l-10.73,3.17c-3.19.94-5.83-2.59-4.02-5.39l6.08-9.39c.57-.88.73-1.96.43-2.96l-3.17-10.73c-.94-3.19,2.59-5.83,5.39-4.02l9.39,6.08c.88.57,1.96.73,2.96.43l10.73-3.17c3.19-.94,5.83,2.59,4.02,5.39l-6.08,9.39c-.57.88-.73,1.96-.43,2.96l3.17,10.73c.94,3.19-2.59,5.83-5.39,4.02Z"/>
        <path class="aq" d="M707.76,182.67l-9.39-6.08c-.88-.57-1.96-.73-2.96-.43l-10.73,3.17c-3.19.94-5.83-2.59-4.02-5.39l6.08-9.39c.57-.88.73-1.96.43-2.96l-3.17-10.73c-.94-3.19,2.59-5.83,5.39-4.02l9.39,6.08c.88.57,1.96.73,2.96.43l10.73-3.17c3.19-.94,5.83,2.59,4.02,5.39l-6.08,9.39c-.57.88-.73,1.96-.43,2.96l3.17,10.73c.94,3.19-2.59,5.83-5.39,4.02Z"/>
        <g>
          <ellipse class="ah" cx="563.22" cy="408.66" rx="291.8" ry="268.78"/>
          <ellipse class="aa" cx="564.23" cy="407.73" rx="9.73" ry="8.96"/>
          <ellipse class="ai" cx="564.62" cy="407.38" rx="9.73" ry="8.96"/>
          <ellipse class="ad" cx="564.56" cy="407.43" rx="72.95" ry="67.2"/>
          <line class="ak" x1="563.5" y1="408.41" x2="564.62" y2="407.38"/>
          <ellipse class="x" cx="563.5" cy="408.41" rx="194.53" ry="179.19"/>
          <ellipse class="y" cx="563.5" cy="408.41" rx="97.27" ry="89.59"/>
          <ellipse class="af" cx="563.5" cy="408.41" rx="81.05" ry="74.66"/>
          <polyline class="w" points="563.5 408.41 811.41 356.14 563.5 408.41 315.59 460.67 563.5 408.41 620.24 636.76 563.5 408.41 506.76 180.05 563.5 408.41 690.37 150.47 563.5 408.41 436.63 666.34 563.5 408.41 843.52 525.27 563.5 408.41 283.48 291.54 563.5 408.41 932.07 393.5 563.5 408.41 194.93 423.31 563.5 408.41 589.32 671.32 563.5 408.41 547.32 68.9 563.5 408.41 1004 313.17 563.5 408.41 123 503.64 563.5 408.41 636.37 692.52 563.5 408.41 460.11 2.65 563.5 408.41 883.69 155.53 563.5 408.41 243.31 661.28 563.5 408.41 835.08 691 563.5 408.41 288.97 113.47 563.5 408.41 904.65 398.94 563.5 408.41 222.35 417.87 563.5 408.41 563.06 676.9 563.5 408.41 553.22 94.16 563.5 408.41 804.89 121.14 563.5 408.41 322.11 695.67 563.5 408.41 875.36 630.76 563.5 408.41 251.64 186.05 563.5 408.41 576.94 377.17 563.5 408.41 550.06 439.64 563.5 408.41 597.41 420.79 563.5 408.41 529.59 396.02 563.5 408.41 704.65 230.21 563.5 408.41 422.35 586.6 563.5 408.41 756.96 538.42 563.5 408.41 370.05 278.39 563.5 408.41 918.27 376.91 563.5 408.41 208.73 439.9 563.5 408.41 594.08 689 563.5 408.41 529.31 81.61 563.5 408.41 848.46 384.83 563.5 408.41 278.54 431.98 563.5 408.41 589.09 670.89 563.5 408.41 537.91 145.92 563.5 408.41 780.41 441.42 563.5 408.41 346.59 375.39 563.5 408.41 527.66 608.21 563.5 408.41 599.34 208.6 563.5 408.41 693.38 337.61 563.5 408.41 433.62 479.2 563.5 408.41 640.35 528.04 563.5 408.41 486.65 288.77 563.5 408.41 829.78 349.47 563.5 408.41 297.22 467.34 563.5 408.41 627.48 653.69 563.5 408.41 499.52 163.12 563.5 408.41 566.79 406.85 563.5 408.41 560.21 409.96 563.5 408.41 565.19 411.43 563.5 408.41 561.81 405.38"/>
          <ellipse class="ae" cx="564.62" cy="407.38" rx="145.9" ry="134.39"/>
          <ellipse class="ab" cx="563.92" cy="408.02" rx="30.67" ry="28.25"/>
          <ellipse class="ag" cx="564.29" cy="407.67" rx="37.51" ry="34.55"/>
          <ellipse class="ac" cx="564.29" cy="407.68" rx="14.76" ry="13.6"/>
          <ellipse class="z" cx="563.81" cy="408.12" rx="5.72" ry="5.27"/>
          <ellipse class="v" cx="563.26" cy="408.62" rx=".05" ry=".05"/>
        </g>
        <g>
          <rect class="aj" x="340.59" y="244.65" width="383.34" height="346.76"/>
          <rect class="aw" x="359.61" y="383.64" width="345.29" height="62.91"/>
          <text class="q" transform="translate(491.29 431.92)"><tspan x="0" y="0">pet clinic</tspan></text>
          <g>
            <ellipse class="s" cx="413.14" cy="427.84" rx="17.18" ry="12.74"/>
            <ellipse class="s" cx="421.42" cy="410.05" rx="14.73" ry="3.7" transform="translate(-48.27 763.78) rotate(-81.2)"/>
            <ellipse class="s" cx="404.54" cy="410.05" rx="3.7" ry="14.73" transform="translate(-57.97 66.71) rotate(-8.8)"/>
          </g>
          <rect class="aw" x="645.25" y="349.94" width="232.06" height="56.2" transform="translate(1139.33 -383.24) rotate(90)"/>
          <g>
            <ellipse class="s" cx="760.95" cy="310.55" rx="17.18" ry="12.74"/>
            <ellipse class="s" cx="769.23" cy="292.76" rx="14.73" ry="3.7" transform="translate(362.24 1008.15) rotate(-81.2)"/>
            <ellipse class="s" cx="752.34" cy="292.76" rx="3.7" ry="14.73" transform="translate(-35.93 118.54) rotate(-8.8)"/>
          </g>
          <text class="r" transform="translate(752.34 338.66) rotate(90)"><tspan x="0" y="0">pet clinic</tspan></text>
          <rect class="av" x="400.07" y="292.76" width="45.8" height="64.68"/>
          <rect class="av" x="450.45" y="292.76" width="45.8" height="64.68"/>
          <rect class="av" x="571.66" y="292.76" width="45.8" height="64.68"/>
          <rect class="av" x="622.04" y="292.76" width="45.8" height="64.68"/>
          <rect class="av" x="551.24" y="474.05" width="65.11" height="38.53"/>
          <rect class="av" x="622.86" y="474.05" width="65.11" height="38.53"/>
          <rect class="au" x="395.97" y="470.41" width="104.1" height="106.11"/>
          <rect class="am" x="400.07" y="475.77" width="45.8" height="95.13"/>
          <rect class="am" x="450.45" y="475.77" width="45.8" height="95.13"/>
          <rect class="ay" x="375.42" y="568.6" width="148.12" height="15.84"/>
          <rect class="t" x="359.61" y="580.12" width="174.65" height="19.67"/>
          <path class="ao" d="M696.74,567.97c0,.84-1.33,1.57-1.45,2.38s.9,1.93.65,2.71-1.74,1.08-2.12,1.81.26,2.11-.22,2.78-1.99.48-2.58,1.07-.4,2.09-1.07,2.58-2.04-.15-2.78.22-1.02,1.86-1.81,2.12-1.88-.78-2.71-.65-1.54,1.45-2.38,1.45-1.57-1.33-2.38-1.45-1.93.9-2.71.65-1.08-1.74-1.81-2.12-2.11.26-2.78-.22-.48-1.99-1.07-2.58-2.09-.4-2.58-1.07.15-2.04-.22-2.78-1.86-1.02-2.12-1.81.78-1.88.65-2.71-1.45-1.54-1.45-2.38,1.33-1.57,1.45-2.38-.9-1.93-.65-2.71,1.74-1.08,2.12-1.81-.26-2.11.22-2.78,1.99-.48,2.58-1.07.4-2.09,1.07-2.58,2.04.15,2.78-.22,1.02-1.86,1.81-2.12,1.88.78,2.71.65,1.54-1.45,2.38-1.45,1.57,1.33,2.38,1.45,1.93-.9,2.71-.65,1.08,1.74,1.81,2.12,2.11-.26,2.78.22.48,1.99,1.07,2.58,2.09.4,2.58,1.07-.15,2.04.22,2.78,1.86,1.02,2.12,1.81-.78,1.88-.65,2.71,1.45,1.54,1.45,2.38Z"/>
          <path class="at" d="M714.56,567.97c0,.84-1.33,1.57-1.45,2.38s.9,1.93.65,2.71-1.74,1.08-2.12,1.81.26,2.11-.22,2.78-1.99.48-2.58,1.07-.4,2.09-1.07,2.58-2.04-.15-2.78.22-1.02,1.86-1.81,2.12-1.88-.78-2.71-.65-1.54,1.45-2.38,1.45-1.57-1.33-2.38-1.45-1.93.9-2.71.65-1.08-1.74-1.81-2.12-2.11.26-2.78-.22-.48-1.99-1.07-2.58-2.09-.4-2.58-1.07.15-2.04-.22-2.78-1.86-1.02-2.12-1.81.78-1.88.65-2.71-1.45-1.54-1.45-2.38,1.33-1.57,1.45-2.38-.9-1.93-.65-2.71,1.74-1.08,2.12-1.81-.26-2.11.22-2.78,1.99-.48,2.58-1.07.4-2.09,1.07-2.58,2.04.15,2.78-.22,1.02-1.86,1.81-2.12,1.88.78,2.71.65,1.54-1.45,2.38-1.45,1.57,1.33,2.38,1.45,1.93-.9,2.71-.65,1.08,1.74,1.81,2.12,2.11-.26,2.78.22.48,1.99,1.07,2.58,2.09.4,2.58,1.07-.15,2.04.22,2.78,1.86,1.02,2.12,1.81-.78,1.88-.65,2.71,1.45,1.54,1.45,2.38Z"/>
          <path class="ao" d="M737.22,564.01c0,.84-1.33,1.57-1.45,2.38s.9,1.93.65,2.71-1.74,1.08-2.12,1.81.26,2.11-.22,2.78-1.99.48-2.58,1.07-.4,2.09-1.07,2.58-2.04-.15-2.78.22-1.02,1.86-1.81,2.12-1.88-.78-2.71-.65-1.54,1.45-2.38,1.45-1.57-1.33-2.38-1.45-1.93.9-2.71.65-1.08-1.74-1.81-2.12-2.11.26-2.78-.22-.48-1.99-1.07-2.58-2.09-.4-2.58-1.07.15-2.04-.22-2.78-1.86-1.02-2.12-1.81.78-1.88.65-2.71-1.45-1.54-1.45-2.38,1.33-1.57,1.45-2.38-.9-1.93-.65-2.71,1.74-1.08,2.12-1.81-.26-2.11.22-2.78,1.99-.48,2.58-1.07.4-2.09,1.07-2.58,2.04.15,2.78-.22,1.02-1.86,1.81-2.12,1.88.78,2.71.65,1.54-1.45,2.38-1.45,1.57,1.33,2.38,1.45,1.93-.9,2.71-.65,1.08,1.74,1.81,2.12,2.11-.26,2.78.22.48,1.99,1.07,2.58,2.09.4,2.58,1.07-.15,2.04.22,2.78,1.86,1.02,2.12,1.81-.78,1.88-.65,2.71,1.45,1.54,1.45,2.38Z"/>
          <path class="at" d="M753.06,567.97c0,.84-1.33,1.57-1.45,2.38s.9,1.93.65,2.71-1.74,1.08-2.12,1.81.26,2.11-.22,2.78-1.99.48-2.58,1.07-.4,2.09-1.07,2.58-2.04-.15-2.78.22-1.02,1.86-1.81,2.12-1.88-.78-2.71-.65-1.54,1.45-2.38,1.45-1.57-1.33-2.38-1.45-1.93.9-2.71.65-1.08-1.74-1.81-2.12-2.11.26-2.78-.22-.48-1.99-1.07-2.58-2.09-.4-2.58-1.07.15-2.04-.22-2.78-1.86-1.02-2.12-1.81.78-1.88.65-2.71-1.45-1.54-1.45-2.38,1.33-1.57,1.45-2.38-.9-1.93-.65-2.71,1.74-1.08,2.12-1.81-.26-2.11.22-2.78,1.99-.48,2.58-1.07.4-2.09,1.07-2.58,2.04.15,2.78-.22,1.02-1.86,1.81-2.12,1.88.78,2.71.65,1.54-1.45,2.38-1.45,1.57,1.33,2.38,1.45,1.93-.9,2.71-.65,1.08,1.74,1.81,2.12,2.11-.26,2.78.22.48,1.99,1.07,2.58,2.09.4,2.58,1.07-.15,2.04.22,2.78,1.86,1.02,2.12,1.81-.78,1.88-.65,2.71,1.45,1.54,1.45,2.38Z"/>
          <path class="ao" d="M776.03,564.01c0,.84-1.33,1.57-1.45,2.38s.9,1.93.65,2.71-1.74,1.08-2.12,1.81.26,2.11-.22,2.78-1.99.48-2.58,1.07-.4,2.09-1.07,2.58-2.04-.15-2.78.22-1.02,1.86-1.81,2.12-1.88-.78-2.71-.65-1.54,1.45-2.38,1.45-1.57-1.33-2.38-1.45-1.93.9-2.71.65-1.08-1.74-1.81-2.12-2.11.26-2.78-.22-.48-1.99-1.07-2.58-2.09-.4-2.58-1.07.15-2.04-.22-2.78-1.86-1.02-2.12-1.81.78-1.88.65-2.71-1.45-1.54-1.45-2.38,1.33-1.57,1.45-2.38-.9-1.93-.65-2.71,1.74-1.08,2.12-1.81-.26-2.11.22-2.78,1.99-.48,2.58-1.07.4-2.09,1.07-2.58,2.04.15,2.78-.22,1.02-1.86,1.81-2.12,1.88.78,2.71.65,1.54-1.45,2.38-1.45,1.57,1.33,2.38,1.45,1.93-.9,2.71-.65,1.08,1.74,1.81,2.12,2.11-.26,2.78.22.48,1.99,1.07,2.58,2.09.4,2.58,1.07-.15,2.04.22,2.78,1.86,1.02,2.12,1.81-.78,1.88-.65,2.71,1.45,1.54,1.45,2.38Z"/>
          <path class="at" d="M790.02,567.97c0,.84-1.33,1.57-1.45,2.38s.9,1.93.65,2.71-1.74,1.08-2.12,1.81.26,2.11-.22,2.78-1.99.48-2.58,1.07-.4,2.09-1.07,2.58-2.04-.15-2.78.22-1.02,1.86-1.81,2.12-1.88-.78-2.71-.65-1.54,1.45-2.38,1.45-1.57-1.33-2.38-1.45-1.93.9-2.71.65-1.08-1.74-1.81-2.12-2.11.26-2.78-.22-.48-1.99-1.07-2.58-2.09-.4-2.58-1.07.15-2.04-.22-2.78-1.86-1.02-2.12-1.81.78-1.88.65-2.71-1.45-1.54-1.45-2.38,1.33-1.57,1.45-2.38-.9-1.93-.65-2.71,1.74-1.08,2.12-1.81-.26-2.11.22-2.78,1.99-.48,2.58-1.07.4-2.09,1.07-2.58,2.04.15,2.78-.22,1.02-1.86,1.81-2.12,1.88.78,2.71.65,1.54-1.45,2.38-1.45,1.57,1.33,2.38,1.45,1.93-.9,2.71-.65,1.08,1.74,1.81,2.12,2.11-.26,2.78.22.48,1.99,1.07,2.58,2.09.4,2.58,1.07-.15,2.04.22,2.78,1.86,1.02,2.12,1.81-.78,1.88-.65,2.71,1.45,1.54,1.45,2.38Z"/>
          <rect class="az" x="659.96" y="569.66" width="133.86" height="4.36"/>
          <rect class="az" x="663.78" y="574.01" width="126.22" height="26.4"/>
        </g>
        <g>
          <path class="u" d="M1161.5,442.18c-1.32,15.26,3.6,29.62,11.01,32.07s14.48-7.92,15.8-23.17-3.6-29.62-11.01-32.07c-7.4-2.46-14.48,7.92-15.8,23.17Z"/>
          <path class="u" d="M1162.25,441.81c12.99,8.11,21.51,20.67,19.03,28.07s-15.03,6.82-28.02-1.29c-12.99-8.11-21.51-20.67-19.03-28.07s15.03-6.82,28.02,1.29Z"/>
        </g>
        <g>
          <path class="u" d="M1253.5,396.18c-1.32,15.26,3.6,29.62,11.01,32.07s14.48-7.92,15.8-23.17-3.6-29.62-11.01-32.07c-7.4-2.46-14.48,7.92-15.8,23.17Z"/>
          <path class="u" d="M1254.25,395.81c12.99,8.11,21.51,20.67,19.03,28.07s-15.03,6.82-28.02-1.29c-12.99-8.11-21.51-20.67-19.03-28.07s15.03-6.82,28.02,1.29Z"/>
        </g>
        <path class="ax" d="M1440,522.9l-65.52-37.26c-24.26-13.79-58.6-5.52-76.7,18.48l-4.54,6.02,134.06,76.23-26.6,5.26c-8.4,1.95-14,12.72-12.52,23.91l3.23,24.53c1.38,10.59,9.02,17.24,17.08,14.98l31.51-7.73v-124.42Z"/>
        <path class="ax" d="M1440,700v-35.3l-66.88-133.92c-15.11-30.26-51.9-42.54-82.16-27.43l-66.17,33.05c-3.54,1.77-6.84,3.83-9.87,6.17,2.2-.26,4.42-.39,6.66-.39h7.54s-14.27,111.4-14.27,111.4l7.89,15.81-11.12,9.34,3.23-25.15-17.49-35.02c-13.35-26.72-5.33-58.53,17.56-75.99-27.33,3.05-50.9,24.21-54.19,49.83l-13.78,107.6h293.05Z"/>
      </g>
    </g>
  </g>
</svg>