<svg width="695" height="430" viewBox="0 0 695 430" fill="none" xmlns="http://www.w3.org/2000/svg">
<g clip-path="url(#clip0_345_425)">
<path d="M357.211 245.179C382.518 245.179 403.071 265.636 403.071 290.825V332.872C403.071 355.013 385.011 372.989 362.767 372.989H351.663C329.418 372.989 311.359 355.013 311.359 332.872V290.825C311.359 265.636 331.911 245.179 357.219 245.179H357.211Z" fill="#F09A9A"/>
<path d="M359.479 249.65C408.869 249.65 448.908 218.286 448.908 179.597C448.908 140.908 408.869 109.544 359.479 109.544C310.09 109.544 270.051 140.908 270.051 179.597C270.051 218.286 310.09 249.65 359.479 249.65Z" fill="#F09A9A"/>
<path d="M337.347 47.8895L338.111 52.2567L344.79 118.084C344.999 126.901 339.346 135.232 332.45 136.693C324.851 138.34 317.176 131.618 314.938 121.676L294.101 53.7174L298.121 53.1659" fill="#F09A9A"/>
<path d="M260.662 91.3747L259.412 88.0435C255.054 76.4921 258.259 61.9375 266.832 56.1618L315.604 30.8532C323.264 27.9095 331.582 31.4196 334.008 38.2833L337.579 48.523C339.084 52.8827 336.209 58.4497 331.238 61.1475L279.935 97.3591C272.889 103.701 264.354 101.234 260.662 91.3747Z" fill="#F09A9A"/>
<path d="M379.538 129.867C371.04 128.749 364.264 120.752 364.556 112.033L373.75 15.5235C375.098 7.02767 387.168 1.90783 400.562 4.05414C413.867 6.17809 422.463 14.5621 419.924 22.8046L397.335 116.497C395.845 124.963 387.954 130.962 379.546 129.859L379.538 129.867Z" fill="#F09A9A"/>
<path d="M359.644 239.962C395.413 239.962 424.409 217.107 424.409 188.913C424.409 160.719 395.413 137.863 359.644 137.863C323.876 137.863 294.879 160.719 294.879 188.913C294.879 217.107 323.876 239.962 359.644 239.962Z" fill="#F9E8E8"/>
<path d="M374.005 248.48L416.967 312.266C420.643 317.728 428.797 319.599 435.169 316.447L437.991 315.046C444.363 311.893 446.549 304.903 442.866 299.44L413.036 255.158C405.781 244.389 389.713 240.692 377.15 246.915L373.998 248.473L374.005 248.48Z" fill="#F09A9A"/>
<path d="M468.659 283.939C470.838 291.086 467.417 299.544 461.187 302.771L434.263 316.901C430.774 318.757 426.656 316.827 425.016 312.609L421.115 303.01C419.288 298.702 420.831 293.62 424.619 291.637L452.607 277.157C459.121 273.826 466.383 276.837 468.659 283.939Z" fill="#F09A9A"/>
<path d="M340.552 248.48L297.59 312.266C293.913 317.728 285.76 319.599 279.388 316.447L276.565 315.046C270.194 311.893 268.007 304.903 271.691 299.44L301.52 255.158C308.776 244.389 324.843 240.692 337.407 246.915L340.559 248.473L340.552 248.48Z" fill="#F09A9A"/>
<path d="M263.126 343.544C270.246 346.339 278.587 343.924 281.904 338.074L297.777 311.342C300.038 307.683 298.159 303.435 293.539 301.885L282.825 298.382C277.928 296.824 272.163 298.591 269.999 302.294L255.466 328.251C252.419 333.975 255.915 340.786 263.133 343.544H263.126Z" fill="#F09A9A"/>
<path d="M341.907 345.042H329.913C325.864 345.042 322.583 348.308 322.583 352.338V422.704C322.583 426.733 325.864 430 329.913 430H341.907C345.955 430 349.237 426.733 349.237 422.704V352.338C349.237 348.308 345.955 345.042 341.907 345.042Z" fill="#F09A9A"/>
<path d="M314.428 406.152H347.283V423.889C347.283 427.257 344.535 430 341.143 430H302.269C299.012 430 296.369 427.369 296.369 424.127C296.369 414.208 304.463 406.152 314.428 406.152Z" fill="#F09A9A"/>
<path d="M375.136 430H387.13C391.179 430 394.46 426.733 394.46 422.704V352.338C394.46 348.308 391.179 345.042 387.13 345.042H375.136C371.087 345.042 367.806 348.308 367.806 352.338V422.704C367.806 426.733 371.087 430 375.136 430Z" fill="#F09A9A"/>
<path d="M413.261 430H374.387C371.002 430 368.247 427.265 368.247 423.889V406.152H401.101C411.067 406.152 419.161 414.208 419.161 424.127C419.161 427.369 416.518 430 413.261 430Z" fill="#F09A9A"/>
<path d="M111.845 370.939H100.742C78.4968 370.939 60.4375 352.964 60.4375 330.823L60.4375 288.776C60.4375 263.586 80.9901 243.129 106.297 243.129C131.604 243.129 152.157 263.586 152.157 288.776V330.823C152.157 352.964 134.097 370.939 111.853 370.939H111.845Z" fill="#FDD646"/>
<path d="M104.028 247.593C153.418 247.593 193.456 216.229 193.456 177.54C193.456 138.851 153.418 107.487 104.028 107.487C54.6385 107.487 14.6001 138.851 14.6001 177.54C14.6001 216.229 54.6385 247.593 104.028 247.593Z" fill="#FDD646"/>
<path d="M120.171 45.8326L119.572 50.1923L115.312 115.789C115.424 124.561 121.384 132.937 128.339 134.51C135.999 136.291 143.426 129.688 145.306 119.754L162.541 54.9694C163.148 53.1584 161.838 51.4369 159.606 51.1313" fill="#FDD646"/>
<path d="M197.747 66.4462L198.81 64.1136C202.494 56.3407 198.63 48.523 189.915 46.101L140.147 27.0897C132.293 23.3859 124.222 26.8811 122.282 35.2651L119.422 48.6125C118.217 54.6415 121.459 61.2593 126.58 63.2267L179.223 77.8187C186.419 78.8844 194.617 73.608 197.747 66.4537V66.4462Z" fill="#FDD646"/>
<path d="M83.97 127.81C92.4681 126.729 99.274 119.083 99.012 110.706L90.147 15.5012C88.8292 6.90103 76.7747 -0.0521198 63.38 4.74964e-05C50.075 0.0745722 41.4497 7.33328 43.9579 16.1868L66.2176 114.202C67.6777 122.832 75.5468 128.913 83.9625 127.81H83.97Z" fill="#FDD646"/>
<path d="M89.4955 246.423L46.5335 310.209C42.8572 315.672 34.7035 317.542 28.3319 314.39L25.5092 312.989C19.1375 309.836 16.9512 302.846 20.6349 297.383L50.4643 253.101C57.7195 242.332 73.7872 238.635 86.3509 244.858L89.503 246.416L89.4955 246.423Z" fill="#FDD646"/>
<path d="M6.67114 337.448C13.0428 341.263 21.4286 340.168 25.584 334.921L45.4403 310.835C48.263 307.526 47.3421 303.002 43.3214 300.752L33.9473 295.669C29.6421 293.404 23.8095 294.335 20.9943 297.704L2.01405 321.298C-1.98416 326.478 0.187151 333.677 6.67114 337.448Z" fill="#FDD646"/>
<path d="M122.956 246.423L165.918 310.209C169.595 315.672 177.748 317.542 184.12 314.39L186.943 312.989C193.314 309.836 195.501 302.846 191.817 297.383L161.987 253.101C154.732 242.332 138.665 238.635 126.101 244.858L122.949 246.416L122.956 246.423Z" fill="#FDD646"/>
<path d="M204.523 338.894C197.821 342.843 189.57 341.778 185.902 336.591L168.224 313.749C165.693 310.731 167.004 306.319 171.219 303.86L181.027 298.166C185.527 295.565 191.278 295.997 193.793 299.157L210.64 322.096C214.159 327.342 211.336 334.899 204.523 338.894Z" fill="#FDD646"/>
<path d="M124.596 427.951H136.59C140.639 427.951 143.92 424.684 143.92 420.655V350.289C143.92 346.259 140.639 342.993 136.59 342.993H124.596C120.547 342.993 117.266 346.259 117.266 350.289L117.266 420.655C117.266 424.684 120.547 427.951 124.596 427.951Z" fill="#FDD646"/>
<path d="M164.219 427.951H125.345C121.96 427.951 119.205 425.216 119.205 421.84V404.103H152.059C162.025 404.103 170.119 412.159 170.119 422.078C170.119 425.32 167.476 427.951 164.219 427.951Z" fill="#FDD646"/>
<path d="M91.3672 342.985H79.3725C75.3243 342.985 72.0425 346.251 72.0425 350.281V420.647C72.0425 424.676 75.3243 427.943 79.3725 427.943H91.3672C95.4154 427.943 98.6972 424.676 98.6972 420.647V350.281C98.6972 346.251 95.4154 342.985 91.3672 342.985Z" fill="#FDD646"/>
<path d="M65.3938 404.095H98.248V421.832C98.248 425.201 95.5002 427.943 92.1085 427.943H53.2345C49.9775 427.943 47.3345 425.312 47.3345 422.071C47.3345 412.151 55.4282 404.095 65.3938 404.095Z" fill="#FDD646"/>
<path d="M597.927 370.961H586.824C564.579 370.961 546.519 352.986 546.519 330.845V288.798C546.519 263.609 567.072 243.152 592.379 243.152C617.686 243.152 638.239 263.609 638.239 288.798V330.845C638.239 352.986 620.179 370.961 597.935 370.961H597.927Z" fill="#9DB3F8"/>
<path d="M590.103 247.616C639.493 247.616 679.531 216.252 679.531 177.562C679.531 138.873 639.493 107.509 590.103 107.509C540.713 107.509 500.675 138.873 500.675 177.562C500.675 216.252 540.713 247.616 590.103 247.616Z" fill="#9DB3F8"/>
<path d="M606.133 45.855L605.542 50.2147L601.401 115.811C601.529 124.583 607.504 132.959 614.459 134.532C622.126 136.313 629.539 129.71 631.395 119.776L649.612 51.7126L645.569 51.1537" fill="#9DB3F8"/>
<path d="M682.197 69.785L683.402 67.0648C687.61 58.0399 684.241 49.2907 675.601 46.9059L626.506 28.2598C618.794 24.6304 610.536 29.2212 608.237 38.9019L604.853 54.3882C603.431 61.4084 606.403 68.7193 611.405 70.5377L663.067 83.6913C670.165 84.5781 678.64 78.1392 682.197 69.785Z" fill="#9DB3F8"/>
<path d="M570.045 127.832C578.543 126.752 585.349 119.105 585.087 110.729L576.222 15.5235C574.904 6.92337 562.857 -0.0297809 549.462 0.0223864C536.157 0.096911 527.532 7.35562 530.04 16.2091L552.3 114.224C553.76 122.854 561.629 128.935 570.045 127.832Z" fill="#9DB3F8"/>
<path d="M575.578 246.446L532.615 310.231C528.939 315.694 520.786 317.565 514.414 314.412L511.591 313.011C505.22 309.859 503.033 302.868 506.717 297.406L536.546 253.123C543.801 242.354 559.869 238.658 572.433 244.881L575.585 246.438L575.578 246.446Z" fill="#9DB3F8"/>
<path d="M499.088 340.347C506.006 343.052 514.175 340.555 517.469 334.705L533.26 307.943C535.506 304.284 533.724 300.081 529.232 298.576L518.817 295.2C514.062 293.702 508.417 295.513 506.261 299.217L491.78 325.203C488.748 330.934 492.08 337.679 499.088 340.339V340.347Z" fill="#9DB3F8"/>
<path d="M609.031 246.446L651.993 310.231C655.669 315.694 663.823 317.565 670.195 314.412L673.017 313.011C679.389 309.859 681.575 302.868 677.892 297.406L648.062 253.123C640.807 242.354 624.739 238.658 612.176 244.881L609.023 246.438L609.031 246.446Z" fill="#9DB3F8"/>
<path d="M687.071 339.982C680.415 343.328 672.47 341.569 669.154 336.121L653.146 312.109C650.855 308.935 652.382 304.657 656.627 302.54L666.481 297.622C670.988 295.379 676.521 296.236 678.767 299.574L693.772 323.773C696.894 329.302 693.817 336.591 687.063 339.982H687.071Z" fill="#9DB3F8"/>
<path d="M611.419 427.973H623.414C627.462 427.973 630.744 424.706 630.744 420.677V350.311C630.744 346.281 627.462 343.015 623.414 343.015H611.419C607.371 343.015 604.089 346.281 604.089 350.311V420.677C604.089 424.706 607.371 427.973 611.419 427.973Z" fill="#9DB3F8"/>
<path d="M651.05 427.973H612.176C608.791 427.973 606.036 425.238 606.036 421.862V404.125H638.89C648.856 404.125 656.95 412.181 656.95 422.1C656.95 425.342 654.307 427.973 651.05 427.973Z" fill="#9DB3F8"/>
<path d="M573.699 343.007H561.704C557.656 343.007 554.374 346.274 554.374 350.303V420.669C554.374 424.699 557.656 427.965 561.704 427.965H573.699C577.747 427.965 581.029 424.699 581.029 420.669V350.303C581.029 346.274 577.747 343.007 573.699 343.007Z" fill="#9DB3F8"/>
<path d="M547.725 404.118H580.579V421.855C580.579 425.223 577.831 427.966 574.44 427.966H535.566C532.309 427.966 529.666 425.335 529.666 422.093C529.666 412.174 537.759 404.118 547.725 404.118Z" fill="#9DB3F8"/>
<path d="M333.731 203.587C338.693 203.587 342.716 199.583 342.716 194.644C342.716 189.705 338.693 185.701 333.731 185.701C328.769 185.701 324.746 189.705 324.746 194.644C324.746 199.583 328.769 203.587 333.731 203.587Z" fill="black"/>
<path d="M380.152 203.587C385.114 203.587 389.137 199.583 389.137 194.644C389.137 189.705 385.114 185.701 380.152 185.701C375.19 185.701 371.167 189.705 371.167 194.644C371.167 199.583 375.19 203.587 380.152 203.587Z" fill="black"/>
<path d="M341.083 142.066C338.53 142.797 336.097 144.682 335.303 147.276C334.584 149.631 334.831 153.506 336.344 155.518C336.875 156.226 337.841 157.009 338.59 157.009" stroke="#333333" stroke-width="5" stroke-miterlimit="10" stroke-linecap="round"/>
<path d="M354.56 139.085C352.007 139.905 349.574 142.029 348.78 144.943C348.061 147.589 348.308 151.948 349.821 154.214C350.352 155.011 351.318 155.891 352.067 155.891" stroke="#333333" stroke-width="5" stroke-miterlimit="10" stroke-linecap="round"/>
<path d="M365.791 139.831C363.238 140.613 360.805 142.648 360.011 145.435C359.292 147.969 359.539 152.135 361.052 154.296C361.583 155.056 362.549 155.898 363.298 155.898" stroke="#333333" stroke-width="5" stroke-miterlimit="10" stroke-linecap="round"/>
<path d="M378.52 142.066C375.967 142.774 373.533 144.623 372.739 147.149C372.021 149.444 372.268 153.223 373.78 155.183C374.312 155.876 375.278 156.636 376.026 156.636" stroke="#333333" stroke-width="5" stroke-miterlimit="10" stroke-linecap="round"/>
<path d="M117.828 339.967C117.828 340.302 116.854 340.585 116.832 340.913C116.809 341.241 117.715 341.688 117.663 342.009C117.611 342.329 116.607 342.463 116.525 342.776C116.443 343.089 117.266 343.686 117.161 343.991C117.056 344.297 116.038 344.259 115.911 344.565C115.784 344.87 116.495 345.578 116.338 345.869C116.18 346.16 115.185 345.951 115.005 346.227C114.825 346.503 115.409 347.322 115.207 347.583C115.005 347.844 114.062 347.479 113.837 347.717C113.612 347.956 114.054 348.865 113.814 349.089C113.575 349.312 112.699 348.798 112.437 348.999C112.175 349.2 112.467 350.169 112.19 350.348C111.913 350.527 111.142 349.879 110.85 350.035C110.558 350.192 110.685 351.19 110.385 351.324C110.086 351.458 109.427 350.691 109.112 350.795C108.798 350.9 108.761 351.906 108.439 351.988C108.117 352.07 107.6 351.205 107.271 351.257C106.941 351.309 106.739 352.301 106.402 352.323C106.065 352.345 105.706 351.414 105.376 351.414C105.047 351.414 104.673 352.353 104.351 352.323C104.029 352.293 103.811 351.309 103.482 351.257C103.153 351.205 102.636 352.07 102.314 351.988C101.992 351.906 101.947 350.9 101.64 350.795C101.333 350.691 100.674 351.458 100.367 351.324C100.06 351.19 100.188 350.192 99.8956 350.035C99.6036 349.879 98.8324 350.527 98.5554 350.348C98.2784 350.169 98.5704 349.2 98.3083 348.999C98.0463 348.798 97.1778 349.312 96.9307 349.089C96.6836 348.865 97.1328 347.956 96.9082 347.717C96.6836 347.479 95.7402 347.844 95.538 347.583C95.3359 347.322 95.9199 346.503 95.7402 346.227C95.5605 345.951 94.5647 346.16 94.4074 345.869C94.2502 345.578 94.9615 344.87 94.8342 344.565C94.7069 344.259 93.6887 344.304 93.5838 343.991C93.479 343.678 94.3026 343.097 94.2203 342.776C94.1379 342.456 93.1346 342.337 93.0822 342.009C93.0298 341.681 93.9358 341.241 93.9133 340.913C93.8908 340.585 92.9175 340.302 92.9175 339.967C92.9175 339.631 93.8908 339.348 93.9133 339.02C93.9358 338.692 93.0298 338.245 93.0822 337.925C93.1346 337.604 94.1379 337.47 94.2203 337.157C94.3026 336.844 93.479 336.248 93.5838 335.942C93.6887 335.637 94.7069 335.674 94.8342 335.369C94.9615 335.063 94.2502 334.355 94.4074 334.064C94.5647 333.774 95.5605 333.982 95.7402 333.707C95.9199 333.431 95.3359 332.611 95.538 332.35C95.7402 332.089 96.6836 332.455 96.9082 332.216C97.1328 331.978 96.6911 331.069 96.9307 330.845C97.1703 330.621 98.0463 331.136 98.3083 330.934C98.5704 330.733 98.2784 329.764 98.5554 329.585C98.8324 329.407 99.6036 330.055 99.8956 329.898C100.188 329.742 100.06 328.743 100.36 328.609C100.659 328.475 101.318 329.243 101.633 329.138C101.947 329.034 101.985 328.028 102.307 327.946C102.628 327.864 103.145 328.728 103.475 328.676C103.804 328.624 104.006 327.633 104.343 327.611C104.68 327.588 105.039 328.52 105.369 328.52C105.698 328.52 106.073 327.581 106.395 327.611C106.717 327.64 106.934 328.624 107.263 328.676C107.593 328.728 108.109 327.864 108.431 327.946C108.753 328.028 108.798 329.034 109.105 329.138C109.412 329.243 110.071 328.475 110.378 328.609C110.685 328.743 110.558 329.742 110.85 329.898C111.142 330.055 111.913 329.407 112.19 329.585C112.467 329.764 112.175 330.733 112.437 330.934C112.699 331.136 113.567 330.621 113.814 330.845C114.062 331.069 113.612 331.978 113.837 332.216C114.062 332.455 115.005 332.089 115.207 332.35C115.409 332.611 114.825 333.431 115.005 333.707C115.185 333.982 116.18 333.774 116.338 334.064C116.495 334.355 115.784 335.063 115.911 335.369C116.038 335.674 117.056 335.629 117.161 335.942C117.266 336.255 116.443 336.837 116.525 337.157C116.607 337.478 117.611 337.597 117.663 337.925C117.715 338.253 116.809 338.692 116.832 339.02C116.854 339.348 117.828 339.631 117.828 339.967Z" fill="#E2B544"/>
<path d="M605.25 342.948C605.25 343.283 604.277 343.566 604.254 343.894C604.232 344.222 605.138 344.669 605.085 344.99C605.033 345.31 604.03 345.444 603.947 345.757C603.865 346.07 604.689 346.666 604.584 346.972C604.479 347.278 603.461 347.24 603.333 347.546C603.206 347.851 603.917 348.559 603.76 348.85C603.603 349.141 602.607 348.932 602.427 349.208C602.248 349.484 602.832 350.303 602.63 350.564C602.427 350.825 601.484 350.46 601.259 350.698C601.035 350.937 601.476 351.846 601.237 352.07C600.997 352.293 600.121 351.779 599.859 351.98C599.597 352.181 599.889 353.15 599.612 353.329C599.335 353.508 598.564 352.859 598.272 353.016C597.98 353.172 598.107 354.171 597.808 354.305C597.508 354.439 596.849 353.672 596.535 353.776C596.22 353.88 596.183 354.887 595.861 354.969C595.539 355.051 595.022 354.186 594.693 354.238C594.364 354.29 594.161 355.282 593.824 355.304C593.488 355.326 593.128 354.395 592.799 354.395C592.469 354.395 592.095 355.334 591.773 355.304C591.451 355.274 591.234 354.29 590.904 354.238C590.575 354.186 590.058 355.051 589.736 354.969C589.414 354.887 589.37 353.88 589.063 353.776C588.756 353.672 588.097 354.439 587.79 354.305C587.483 354.171 587.61 353.172 587.318 353.016C587.026 352.859 586.255 353.508 585.978 353.329C585.701 353.15 585.993 352.181 585.731 351.98C585.469 351.779 584.6 352.293 584.353 352.07C584.106 351.846 584.555 350.937 584.331 350.698C584.106 350.46 583.163 350.825 582.96 350.564C582.758 350.303 583.342 349.484 583.163 349.208C582.983 348.932 581.987 349.141 581.83 348.85C581.673 348.559 582.384 347.851 582.257 347.546C582.129 347.24 581.111 347.285 581.006 346.972C580.901 346.659 581.725 346.078 581.643 345.757C581.56 345.437 580.557 345.318 580.505 344.99C580.452 344.662 581.358 344.222 581.336 343.894C581.313 343.566 580.34 343.283 580.34 342.948C580.34 342.612 581.313 342.329 581.336 342.001C581.358 341.673 580.452 341.226 580.505 340.906C580.557 340.585 581.56 340.451 581.643 340.138C581.725 339.825 580.901 339.229 581.006 338.923C581.111 338.618 582.129 338.655 582.257 338.35C582.384 338.044 581.673 337.336 581.83 337.045C581.987 336.755 582.983 336.963 583.163 336.688C583.342 336.412 582.758 335.592 582.96 335.331C583.163 335.07 584.106 335.436 584.331 335.197C584.555 334.959 584.113 334.049 584.353 333.826C584.593 333.602 585.469 334.117 585.731 333.915C585.993 333.714 585.701 332.745 585.978 332.566C586.255 332.388 587.026 333.036 587.318 332.879C587.61 332.723 587.483 331.724 587.782 331.59C588.082 331.456 588.741 332.224 589.055 332.119C589.37 332.015 589.407 331.009 589.729 330.927C590.051 330.845 590.568 331.709 590.897 331.657C591.226 331.605 591.429 330.614 591.765 330.592C592.102 330.569 592.462 331.501 592.791 331.501C593.121 331.501 593.495 330.562 593.817 330.592C594.139 330.621 594.356 331.605 594.686 331.657C595.015 331.709 595.532 330.845 595.854 330.927C596.175 331.009 596.22 332.015 596.527 332.119C596.834 332.224 597.493 331.456 597.8 331.59C598.107 331.724 597.98 332.723 598.272 332.879C598.564 333.036 599.335 332.388 599.612 332.566C599.889 332.745 599.597 333.714 599.859 333.915C600.121 334.117 600.99 333.602 601.237 333.826C601.484 334.049 601.035 334.959 601.259 335.197C601.484 335.436 602.427 335.07 602.63 335.331C602.832 335.592 602.248 336.412 602.427 336.688C602.607 336.963 603.603 336.755 603.76 337.045C603.917 337.336 603.206 338.044 603.333 338.35C603.461 338.655 604.479 338.61 604.584 338.923C604.689 339.236 603.865 339.818 603.947 340.138C604.03 340.459 605.033 340.578 605.085 340.906C605.138 341.234 604.232 341.673 604.254 342.001C604.277 342.329 605.25 342.612 605.25 342.948Z" fill="#7F95D3"/>
</g>
<defs>
<clipPath id="clip0_345_425">
<rect width="695" height="430" fill="white"/>
</clipPath>
</defs>
</svg>
