<svg width="845" height="693" viewBox="0 0 845 693" fill="none" xmlns="http://www.w3.org/2000/svg">
<path fill-rule="evenodd" clip-rule="evenodd" d="M344.043 108.765C409.525 97.9775 475.141 115.69 530.574 152.18C602.234 199.35 684.841 253.344 693.366 338.711C702.258 427.752 650.725 524.156 571.962 566.629C501.408 604.676 424.201 526.626 344.043 527.085C262.83 527.55 180.731 614.813 113.499 569.255C45.9778 523.501 45.1103 417.539 66.0514 338.711C83.5524 272.831 157.755 248.392 210.279 204.946C254.27 168.558 287.712 118.045 344.043 108.765Z" fill="#A6DAE6"/>
<g clip-path="url(#clip0_616_1471)">
<path d="M386.576 574.044C386.576 574.044 392.819 546.638 416.499 583.859C416.499 583.859 426.566 613.081 389.401 615.025C389.401 615.025 379.249 615.058 374.282 610.899C371.403 608.486 367.584 603.994 375.896 597.393C375.896 597.393 363.752 593.006 370.126 580.978C370.126 580.978 375.219 568.695 386.571 574.048L386.576 574.044Z" fill="#FFD79C"/>
<path d="M393.58 591.014C390.194 598.625 390.065 606.236 394.464 608.363C399.259 610.61 407.375 606.712 411.407 599.293C414.516 591.595 411.662 583.087 406.216 580.643C401.166 578.319 396.037 583.118 393.576 591.008L393.58 591.014Z" fill="#996D1F"/>
<path d="M391.896 576.719C393.494 578.958 396.275 579.902 398.115 578.826C399.956 577.749 400.496 574.861 399.327 572.372C398.158 569.883 395.372 568.942 393.108 570.266C390.845 571.589 390.304 574.476 391.896 576.719Z" fill="#996D1F"/>
<path d="M380.698 609.204C383.443 609.033 385.715 607.162 385.768 605.034C385.821 602.905 383.653 600.922 380.925 600.605C378.197 600.288 375.921 602.153 375.855 604.775C375.789 607.398 377.956 609.38 380.698 609.204Z" fill="#996D1F"/>
<path d="M376.704 592.394C380.952 593.75 386.123 592.162 387.968 588.682C389.688 585.125 387.549 580.238 383.457 577.919C379.528 575.7 375.129 577.735 373.302 582.278C371.284 586.707 372.651 591.147 376.704 592.394Z" fill="#996D1F"/>
</g>
<g clip-path="url(#clip1_616_1471)">
<path d="M49.8975 646.632C49.8975 646.632 77.7563 642.897 51.1663 678.098C51.1663 678.098 27.3095 697.748 12.4913 663.609C12.4913 663.609 8.91055 654.109 11.0698 648.002C12.3237 644.46 15.1966 639.312 24.2878 644.791C24.2878 644.791 24.1513 631.879 37.6483 633.645C37.6483 633.645 50.9371 634.121 49.8921 646.628L49.8975 646.632Z" fill="#D2E5FF"/>
<path d="M36.4478 659.127C28.1334 658.617 20.9579 661.157 20.5031 666.022C20.075 671.3 26.5646 677.54 34.9256 678.724C43.2246 678.944 50.1968 673.295 50.5823 667.339C50.9943 661.795 44.7042 658.668 36.4517 659.121L36.4478 659.127Z" fill="#996D1F"/>
<path d="M49.2512 652.551C47.7122 654.831 47.8001 657.767 49.4526 659.114C51.1051 660.461 53.9996 659.958 55.9227 657.993C57.8457 656.027 57.7523 653.087 55.7212 651.43C53.6901 649.772 50.7956 650.275 49.2512 652.551Z" fill="#996D1F"/>
<path d="M14.9016 653.419C16.0215 655.931 18.5686 657.406 20.5815 656.711C22.5944 656.016 23.6938 653.292 23.0371 650.625C22.3805 647.958 19.8372 646.478 17.3572 647.333C14.8772 648.189 13.7779 650.912 14.9016 653.419Z" fill="#996D1F"/>
<path d="M29.2537 643.799C29.4685 648.253 32.7644 652.543 36.6698 653.054C40.6037 653.421 44.434 649.708 45.1754 645.064C45.8814 640.607 42.4365 637.197 37.541 637.074C32.6856 636.733 29.0043 639.566 29.2537 643.799Z" fill="#996D1F"/>
</g>
<g clip-path="url(#clip2_616_1471)">
<path d="M65.7245 116.831C65.7245 116.831 39.2519 126.278 57.9388 86.3168C57.9388 86.3168 77.1867 62.1344 98.7815 92.4445C98.7815 92.4445 104.26 100.991 103.418 107.415C102.928 111.139 101.189 116.773 91.157 113.304C91.157 113.304 93.9761 125.906 80.4071 126.986C80.4071 126.986 67.3098 129.284 65.7307 116.833L65.7245 116.831Z" fill="#E1E0FF"/>
<path d="M76.2805 101.811C84.5193 100.581 91.0095 96.6035 90.4424 91.7503C89.7634 86.4987 82.1178 81.745 73.6934 82.3261C65.5301 83.8368 59.8853 90.8123 60.7473 96.719C61.4973 102.227 68.3001 103.977 76.2779 101.817L76.2805 101.811Z" fill="#996D1F"/>
<path d="M65.1254 110.906C66.1566 108.356 65.4599 105.503 63.5633 104.529C61.6667 103.555 58.9402 104.649 57.468 106.971C55.9958 109.294 56.6986 112.15 59.0301 113.349C61.3616 114.548 64.0882 113.454 65.1254 110.906Z" fill="#996D1F"/>
<path d="M98.5433 102.913C96.9255 100.689 94.1273 99.7759 92.303 100.874C90.4786 101.973 89.9698 104.866 91.1669 107.338C92.3639 109.81 95.1594 110.729 97.4072 109.376C99.655 108.024 100.164 105.131 98.5433 102.913Z" fill="#996D1F"/>
<path d="M86.5058 115.308C85.3692 110.995 81.2532 107.485 77.3269 107.798C73.4027 108.257 70.4284 112.685 70.6693 117.382C70.9056 121.888 74.9845 124.507 79.7985 123.609C84.6187 122.933 87.6301 119.396 86.5058 115.308Z" fill="#996D1F"/>
</g>
<g clip-path="url(#clip3_616_1471)">
<path d="M617.12 50.3912C617.12 50.3912 619.949 78.3565 585.63 50.6379C585.63 50.6379 566.764 26.156 601.366 12.4537C601.366 12.4537 610.977 9.1831 617.011 11.5394C620.51 12.9077 625.563 15.9462 619.791 24.8547C619.791 24.8547 632.701 25.1374 630.498 38.5699C630.498 38.5699 629.591 51.8363 617.124 50.3859L617.12 50.3912Z" fill="#FFE0E0"/>
<path d="M605.068 36.5432C605.848 28.2497 603.542 20.9955 598.694 20.3831C593.433 19.7839 586.985 26.0676 585.531 34.3857C585.041 42.6732 590.461 49.8251 596.402 50.4037C601.93 50.9955 605.258 44.8102 605.073 36.5473L605.068 36.5432Z" fill="#996D1F"/>
<path d="M611.225 49.5532C608.996 47.9411 606.059 47.9337 604.659 49.5415C603.258 51.1494 603.667 54.0587 605.57 56.0446C607.472 58.0304 610.413 58.0325 612.136 56.0563C613.858 54.08 613.449 51.1707 611.225 49.5532Z" fill="#996D1F"/>
<path d="M611.472 15.1934C608.925 16.2311 607.369 18.7291 607.998 20.7635C608.627 22.7978 611.314 23.985 614.001 23.4153C616.688 22.8455 618.25 20.3516 617.475 17.8452C616.701 15.3388 614.014 14.1516 611.472 15.1934Z" fill="#996D1F"/>
<path d="M620.622 29.8503C616.162 29.9205 611.768 33.0754 611.131 36.9622C610.636 40.882 614.222 44.8308 618.841 45.7226C623.272 46.5729 626.792 43.2404 627.074 38.3516C627.573 33.5098 624.86 29.7385 620.622 29.8503Z" fill="#996D1F"/>
</g>
<g clip-path="url(#clip4_616_1471)">
<path d="M818.142 627.857C818.142 627.857 834.944 605.324 841.531 648.944C841.531 648.944 838.907 679.74 804.136 666.474C804.136 666.474 794.839 662.395 791.981 656.582C790.325 653.209 788.651 647.556 798.924 644.885C798.924 644.885 789.595 635.957 800.292 627.539C800.292 627.539 809.921 618.369 818.135 627.858L818.142 627.857Z" fill="#DCFFD0"/>
<path d="M817.677 646.209C811.5 651.798 808.301 658.706 811.462 662.432C814.938 666.427 823.936 666.148 830.627 660.996C836.585 655.215 837.419 646.281 833.429 641.841C829.752 637.671 823.12 639.984 817.675 646.203L817.677 646.209Z" fill="#996D1F"/>
<path d="M821.923 632.457C822.478 635.151 824.639 637.14 826.757 636.9C828.876 636.66 830.539 634.239 830.478 631.489C830.417 628.74 828.249 626.752 825.644 627.046C823.039 627.34 821.375 629.761 821.923 632.457Z" fill="#996D1F"/>
<path d="M798.534 657.628C801.113 658.583 803.948 657.792 804.858 655.867C805.768 653.942 804.589 651.252 802.223 649.857C799.856 648.463 797.02 649.247 795.898 651.618C794.777 653.99 795.956 656.68 798.534 657.628Z" fill="#996D1F"/>
<path d="M801.686 640.64C805.022 643.6 810.393 644.241 813.489 641.805C816.501 639.249 816.523 633.915 813.72 630.138C811.027 626.518 806.18 626.598 802.67 630.013C799.032 633.246 798.485 637.859 801.686 640.64Z" fill="#996D1F"/>
</g>
<defs>
<clipPath id="clip0_616_1471">
<rect width="47.8834" height="50.7068" fill="white" transform="translate(384.142 626.395) rotate(-124.116)"/>
</clipPath>
<clipPath id="clip1_616_1471">
<rect width="47.8834" height="50.7068" fill="white" transform="translate(0 662.657) rotate(-54.5845)"/>
</clipPath>
<clipPath id="clip2_616_1471">
<rect width="47.8834" height="50.7068" fill="white" transform="translate(111.197 90.7773) rotate(113.411)"/>
</clipPath>
<clipPath id="clip3_616_1471">
<rect width="47.8834" height="50.7068" fill="white" transform="translate(602.723) rotate(37.2755)"/>
</clipPath>
<clipPath id="clip4_616_1471">
<rect width="47.8834" height="50.7068" fill="white" transform="translate(794.724 674.742) rotate(-100.238)"/>
</clipPath>
</defs>
</svg>
