<?xml version="1.0" encoding="UTF-8"?>
<svg id="b" data-name="圖層 2" xmlns="http://www.w3.org/2000/svg" viewBox="0 0 534.15 632.17">
  <defs>
    <style>
      .d {
        fill: #e73061;
      }

      .e {
        fill: #ce9797;
      }

      .f {
        fill: #0a0700;
      }

      .g {
        fill: #f9e8e8;
      }

      .h {
        fill: #fff0cc;
      }

      .i {
        fill: #1e1b1b;
      }

      .j {
        fill: #ffd766;
      }
    </style>
  </defs>
  <g id="c" data-name="圖層 53">
    <path class="j" d="M417.46,340.67h0c17.21,29.12-33.7,96.61-64.96,111.87-22.54,11-63.78,7.37-78.9-18.22l-.74-1.26c-20.9-35.35-9.17-80.95,26.18-101.85l24.74-14.62c32.52-19.22,74.47-8.44,93.69,24.08Z"/>
    <ellipse class="j" cx="389.19" cy="231.25" rx="107.03" ry="94"/>
    <path class="j" d="M335.35,174.87c-.79.34-1.62.5-2.47.5-5.87,0-13.11-7.58-17.51-18.57l-30.89-62.68-18.67,15.4c-5.74,5.71-15.33,4.23-21.75-3.7l-2.19-2.7c-7.63-9.42-8.18-21.82-.81-27.18l42.38-25.64c6.72-3.36,16.1-1.22,20.67,4.46l4.34,5.4,1.97,2.45,1.17,2.78.74,2.19,27.93,82.17c2.95,11.48.62,22.75-4.91,25.12Z"/>
    <path class="j" d="M357.15,168.59h0c-6.35-.26-13.3-9.81-15.39-21.32l-18.92-128.28c-1.28-11.37,5.98-19.83,16.09-18.93h0c10.05.9,18.39,10.69,18.76,21.9l8.62,126.5c1.17,11.35-2.87,20.37-9.16,20.13Z"/>
    <ellipse class="g" cx="420.89" cy="233.9" rx="61.33" ry="68.5" transform="translate(-43.54 106.78) rotate(-13.75)"/>
    <path class="j" d="M390.81,363.17l96.1-37.2c8.23-3.19,13.07-13.25,10.81-22.49l-1-4.09c-2.26-9.23-10.77-14.14-19-10.95l-66.71,25.82c-16.23,6.28-25.77,26.13-21.31,44.34l1.12,4.57Z"/>
    <path class="j" d="M532.55,276.04h0c3.9,9.17.38,20.75-7.61,25.78l-34.44,22.02c-4.45,2.89-10.15.8-12.82-4.64l-6.32-12.38c-2.95-5.55-1.54-12.5,3.24-15.56l35.44-22.34c8.28-5.14,18.48-2,22.53,7.11Z"/>
    <path class="j" d="M458.44,369.26h0c-2.74-9.85-13.98-15.28-24.86-12.21l-47.54,13.47c-6.23,1.77-9.18,7.85-6.68,13.6l5.5,13.23c2.38,6,9.13,9.48,15.17,7.76l44.33-12.63c10.24-2.91,16.66-13.34,14.08-23.23Z"/>
    <rect class="j" x="200.42" y="384.65" width="35.6" height="135.6" rx="9.79" ry="9.79" transform="translate(-67.31 865.73) rotate(-119.61)"/>
    <path class="j" d="M143.48,484.25h51.92c4.52,0,8.2,3.67,8.2,8.2v23.8h-43.88c-13.31,0-24.12-10.81-24.12-24.12h0c0-4.35,3.53-7.88,7.88-7.88Z" transform="translate(-326.76 680.91) rotate(-91.27)"/>
    <rect class="j" x="229.33" y="414.91" width="35.6" height="138.72" rx="9.79" ry="9.79" transform="translate(39.27 986.65) rotate(-130.49)"/>
    <path class="j" d="M176.4,529.48h51.92c4.52,0,8.2,3.67,8.2,8.2v23.8h-43.88c-13.31,0-24.12-10.81-24.12-24.12h0c0-4.35,3.53-7.88,7.88-7.88Z" transform="translate(-343.07 747.7) rotate(-89.97)"/>
    <ellipse cx="448.36" cy="233.62" rx="8.51" ry="12" transform="translate(-42.69 113.31) rotate(-13.75)"/>
    <path class="i" d="M366.3,199.23c12.14-26.51,43.76-40.03,71.26-30.53,4.64,1.61,8.91,3.48,13.26,6.45-2.12,4.81-4.77,8.65-7.87,12.47-18.36,22.57-52.37,27.75-76.65,11.61h0Z"/>
    <path class="d" d="M410.88,323.32s-74.87,14.49-113.45-43.66c0,0-188.59-2.15-215.59,56.85l-14.87,5.18s-11.41,11.12,2.22,62.52c1.02,3.85,6.23,4.45,8.12.95,15.75-29.17,71.42-106.56,197-48.35,0,0,11.61,20.33,136.57-33.48Z"/>
    <path class="e" d="M86.79,334.91c6.38-3.76,13.21-6.58,20.36-8.51,6.36-1.71,12.87-2.74,19.39-3.68.95-.14.55-1.58-.4-1.45-6.65.96-13.3,2.01-19.79,3.79-7.12,1.95-13.95,4.8-20.32,8.55-.83.49-.08,1.79.76,1.3h0Z"/>
    <path class="j" d="M397.74,403.14c-9.74.15-19.49.3-29.23.45-1.93.03-1.93,3.03,0,3,9.74-.15,19.49-.3,29.23-.45,1.93-.03,1.93-3.03,0-3h0Z"/>
    <path class="h" d="M397.9,403.98c-7.33,1.84-14.81,2.91-22.34,3.58-7.05.62-14.25,1.25-21.33,1.12-3.07-.06-6.26-.43-8.97-2-2.21-1.28-3.85-3.3-4.81-5.66-2.04-5.04-1.37-10.87.12-15.96,2.17-7.41,5.71-14.58,5.44-22.48-.07-1.93-3.07-1.93-3,0,.26,7.52-3.17,14.41-5.27,21.46-1.62,5.47-2.32,11.66-.41,17.15,2.07,5.97,7.04,9.42,13.22,10.22,3.36.44,6.75.24,10.12.08,4.01-.18,8.01-.4,12.01-.7,8.75-.67,17.49-1.78,26.01-3.92,1.87-.47,1.08-3.36-.8-2.89h0Z"/>
    <path class="f" d="M314.72,521.24c-11.65,12.19-23.87,23.82-36.62,34.87-1.46,1.27.67,3.38,2.12,2.12,12.74-11.04,24.96-22.68,36.62-34.87,1.33-1.4-.78-3.52-2.12-2.12h0Z"/>
    <path class="f" d="M339.63,536.62c-16.06,12.54-32.26,24.9-48.6,37.06-16.32,12.14-32.77,24.1-49.37,35.86-9.39,6.65-18.82,13.25-28.29,19.78-1.58,1.09-.08,3.69,1.51,2.59,16.88-11.64,33.62-23.47,50.23-35.5,16.6-12.03,33.07-24.25,49.38-36.66,9.13-6.95,18.22-13.95,27.26-21.01,1.52-1.19-.62-3.3-2.12-2.12h0Z"/>
    <path class="f" d="M134.54,280.03c-19.42.3-38.85.41-58.28.31-5.48-.03-10.96-.07-16.44-.13-1.93-.02-1.93,2.98,0,3,19.43.21,38.85.22,58.28.03,5.48-.05,10.96-.12,16.44-.21,1.93-.03,1.93-3.03,0-3h0Z"/>
    <path class="f" d="M126.39,257.14c-16.98.52-33.97,1.04-50.96.75s-33.95-1.38-50.71-4.12c-7.7-1.26-16.21-2.59-22.14-8.12-1.41-1.31-3.54.8-2.12,2.12,5.27,4.9,12.3,6.87,19.21,8.15,8.39,1.55,16.89,2.63,25.39,3.41,17.22,1.58,34.54,1.81,51.82,1.55,9.84-.14,19.67-.45,29.5-.75,1.93-.06,1.93-3.06,0-3h0Z"/>
  </g>
</svg>