<?xml version="1.0" encoding="UTF-8"?>
<svg id="b" data-name="圖層 2" xmlns="http://www.w3.org/2000/svg" viewBox="0 0 369 201.42">
  <defs>
    <style>
      .d {
        fill: #fff;
      }
    </style>
  </defs>
  <g id="c" data-name="圖層 17">
    <path class="d" d="M369,131.04c0,33.91-43.9,61.38-98.04,61.38-19.29,0-37.28-3.49-52.44-9.51-22.17,11.24-57.38,18.51-97.02,18.51C54.4,201.42,0,180.6,0,154.92c0-15.69,20.3-29.56,51.41-37.98-11.47-10.05-18.23-22.36-18.23-35.66,0-33.91,43.9-61.38,98.04-61.38,10.34,0,20.33,1,29.71,2.89C178.91,8.89,206.36,0,237.15,0c54.14,0,98.04,27.47,98.04,61.37,0,7.2-1.98,14.1-5.61,20.51,23.94,11.14,39.42,29.03,39.42,49.16Z"/>
  </g>
</svg>