<?xml version="1.0" encoding="UTF-8"?>
<svg id="b" data-name="圖層 2" xmlns="http://www.w3.org/2000/svg" viewBox="0 0 473.19 572.21">
  <defs>
    <style>
      .d {
        fill: #e73061;
      }

      .e {
        fill: #fff;
      }

      .f {
        fill: #ea3d3d;
      }

      .g {
        fill: #f9e8e8;
      }

      .h {
        fill: #6fbc93;
      }

      .i {
        fill: #1e1b1b;
      }

      .j {
        fill: #ffd766;
      }
    </style>
  </defs>
  <g id="c" data-name="圖層 61">
    <path class="j" d="M137.36,324.21h0c33.8,0,61.25,27.45,61.25,61.25v56.42c0,29.71-24.12,53.83-53.83,53.83h-14.83c-29.71,0-53.83-24.12-53.83-53.83v-56.42c0-33.8,27.45-61.25,61.25-61.25Z"/>
    <ellipse class="j" cx="140.39" cy="236.21" rx="119.44" ry="94"/>
    <path class="j" d="M110.84,59.48l1.02,5.86,8.92,88.33c.28,11.83-7.27,23.01-16.48,24.97h0c-10.15,2.21-20.4-6.81-23.39-20.15l-27.83-91.19,5.37-.74"/>
    <path class="j" d="M8.41,117.82l-1.67-4.47c-5.82-15.5-1.54-35.03,9.91-42.78l65.14-33.96c10.23-3.95,21.34.76,24.58,9.97l4.77,13.74c2.01,5.85-1.83,13.32-8.47,16.94l-68.52,48.59c-9.41,8.51-20.81,5.2-25.74-8.03Z"/>
    <path class="j" d="M167.19,169.47h0c-11.35-1.5-20.4-12.23-20.01-23.93l12.28-129.5c1.8-11.4,17.92-18.27,35.81-15.39h0c17.77,2.85,29.25,14.1,25.86,25.16l-30.17,125.72c-1.99,11.36-12.53,19.41-23.76,17.93Z"/>
    <ellipse class="g" cx="140.61" cy="248.71" rx="86.5" ry="68.5"/>
    <path class="j" d="M135.33,353.55l147.34,14.27c12.62,1.22,25-5.27,27.65-14.51l1.18-4.09c2.65-9.24-5.42-17.71-18.04-18.94l-102.28-9.91c-24.88-2.41-49.29,10.4-54.53,28.61l-1.31,4.57Z"/>
    <path class="j" d="M352.39,326.65h0c1.93,10.24-4.09,21.04-13.39,24.35l-41.48,16.23c-5.54,2.36-11.07-1.05-12.36-7.69l-3-15.37c-1.37-7.01,2.19-14.55,7.99-16.75l41.6-14.39c9.41-2.93,18.67,3.27,20.63,13.63Z"/>
    <path class="j" d="M115.11,328.64l-57.38,85.59c-4.91,7.33-15.8,9.84-24.31,5.61l-3.77-1.88c-8.51-4.23-11.43-13.61-6.51-20.94l39.84-59.42c9.69-14.45,31.15-19.41,47.93-11.06l4.21,2.09Z"/>
    <path class="j" d="M11.71,456.2h0c9.51,3.75,20.65.51,25.08-7.34l21.2-35.87c3.02-4.91.51-10.61-5.66-12.69l-14.31-4.7c-6.54-2.09-14.24.28-17.13,5.25L1.47,435.68c-4.07,7.68.6,16.82,10.24,20.52Z"/>
    <rect class="j" x="92.11" y="458.21" width="35.6" height="114" rx="9.79" ry="9.79"/>
    <path class="j" d="M81.23,540.21h43.88v23.8c0,4.52-3.67,8.2-8.2,8.2h-51.92c-4.35,0-7.88-3.53-7.88-7.88h0c0-13.31,10.81-24.12,24.12-24.12Z"/>
    <rect class="j" x="152.52" y="458.21" width="35.6" height="114" rx="9.79" ry="9.79" transform="translate(340.63 1030.42) rotate(180)"/>
    <path class="j" d="M160.99,540.21h51.92c4.52,0,8.2,3.67,8.2,8.2v23.8h-43.88c-13.31,0-24.12-10.81-24.12-24.12h0c0-4.35,3.53-7.88,7.88-7.88Z" transform="translate(374.22 1112.42) rotate(-180)"/>
    <g>
      <circle cx="107.83" cy="254.97" r="12"/>
      <circle cx="169.83" cy="254.97" r="12"/>
    </g>
    <path class="i" d="M164.37,177.12c-17.13,33.25-57.46,53.91-94.26,52.8-6.08-.28-11.93-.9-18.04-2.72,2.72-5.76,6.17-10.53,10.03-15.24,23.77-28.11,66.09-44.32,102.27-34.84h0Z"/>
    <path class="i" d="M147.72,179.16c27.56-8.92,58.69,5.24,69.94,31.9,1.9,4.51,3.36,8.91,4.06,14.1-4.96,1.68-9.56,2.31-14.44,2.6-28.88,1.71-55.36-19.94-59.56-48.6h0Z"/>
    <g>
      <path class="d" d="M361.96,242.95c-32.85,38.16-38.11,87.97-18.81,109.44,17.07,18.95,52.6,11.12,84.29-15.55,35.24-26.27,55.68-68.04,40.87-97.57-17.15-34.17-68.15-34.92-106.35,3.68Z"/>
      <path class="d" d="M402.94,251.61c14.6,48.19-.74,95.87-27.08,107.69-23.28,10.42-52.6-11.12-70.79-48.32-21.6-38.28-23.39-84.75,2.1-105.76,29.51-24.31,76.45-4.36,95.77,46.39Z"/>
    </g>
    <g>
      <path class="h" d="M455.43,292.61c-.87-.19-1.74-.39-2.61-.58-2.97-.66-5.93-1.32-8.9-1.98-2.41-.54-5.04-1.4-7.39-.22-2.55,1.27-4.33,4.28-6.1,6.42-1.3,1.58-2.61,3.15-3.91,4.73-.74-5.07-1.49-10.15-2.23-15.22-.3-2.03-3.39-2.55-3.81-.28-2.17,11.97-5.89,23.57-11.05,34.55-.92-22.01-1.83-44.03-2.75-66.04-.05-1.17-1.38-2.19-2.53-1.71-8.79,3.7-8.81,14.34-13.66,21.25-1,1.43-2.31,2.62-4.01,3.13-3.1.93-6.53-.66-9.47-1.55-6.06-1.83-13.25-2.87-18.38,1.77-1.4,1.27-2.27,2.82-2.93,4.57-.42,1.11-1.02,3.67-2.59,3.74-1.15.05-.84-2.77-.9-3.56-.18-2.27-.36-4.54-.54-6.81-.14-1.73-2.96-2.67-3.63-.77-3,8.39-6.44,16.61-10.3,24.63,2.09-15.68,3.48-31.44,4.17-47.24.24-5.61.4-11.23.46-16.85.03-2.08-2.71-2.22-3.63-.77-5.4,8.44-10.79,16.88-16.19,25.33-.48.76-.99,1.76-1.71,2.33-.76.59-1.67.49-2.56.33-2.42-.43-4.81-1.08-7.21-1.62-4.93-1.12-9.86-2.24-14.8-3.36-2.42-.55-3.21,3.22-.8,3.77,5.31,1.21,10.62,2.41,15.93,3.62,4.51,1.02,9.92,3.27,13.21-1.24,3.1-4.26,5.75-8.92,8.59-13.36,1.73-2.71,3.47-5.43,5.2-8.14-.42,17.27-1.69,34.52-3.81,51.67-.68,5.48-1.45,10.95-2.3,16.41-.33,2.11,2.53,3.25,3.59,1.28,4.73-8.77,8.92-17.81,12.58-27.07.08,1,.22,1.99.62,2.86,1.34,3,5.07,2.97,7.37,1.11,2.74-2.22,2.45-6.32,5.32-8.46,2.59-1.94,6.01-2.19,9.11-1.7,6.27.99,13.2,5.49,19.3,1.6,3.84-2.45,5.6-7.07,7.18-11.12,1.34-3.44,2.71-7.92,5.62-10.56.97,23.39,1.95,46.78,2.92,70.17.08,1.93,2.75,2.41,3.63.77,5.41-10.09,9.6-20.81,12.46-31.88.44,3.04.89,6.07,1.33,9.11.22,1.52,2.21,2.55,3.35,1.18,1.89-2.28,3.77-4.57,5.66-6.85.94-1.14,1.89-2.28,2.83-3.43.82-.99,1.63-2.3,2.7-3.05.99-.7,2.15-.36,3.25-.13,1.44.31,2.87.64,4.31.96,2.97.66,5.93,1.32,8.9,1.98.1.02.21.05.31.07l.8-3.77Z"/>
      <path class="h" d="M453.62,293.53c-.14.37-.25.76-.32,1.15-.06.2-.07.4-.03.6,0,.2.07.39.18.56.09.17.22.32.39.42.14.13.31.22.51.27l.4.05c.27,0,.52-.07.76-.2l.3-.23c.19-.19.31-.41.39-.66.07-.39.18-.78.32-1.15.06-.2.07-.4.03-.6,0-.2-.07-.39-.18-.56-.09-.17-.22-.32-.39-.42-.14-.13-.31-.22-.51-.27l-.4-.05c-.27,0-.52.07-.76.2l-.3.23c-.19.19-.31.41-.39.66h0Z"/>
    </g>
    <g>
      <path class="e" d="M178.99,154.19c-27.1-7.91-55.9-7.95-83.04-.11-4.26-14.77-8.52-29.54-12.77-44.32-1.91-6.27,3.86-13.57,13.04-15.42,27.32-5.53,55.47-5.48,82.76.13,9.17,1.88,14.9,9.19,12.96,15.45-4.32,14.75-8.64,29.51-12.94,44.27Z"/>
      <g>
        <rect class="f" x="133.42" y="99.16" width="9" height="41" transform="translate(.2 -.23) rotate(.1)"/>
        <rect class="f" x="133.42" y="99.16" width="9" height="41" transform="translate(18.03 257.37) rotate(-89.9)"/>
      </g>
    </g>
  </g>
</svg>