<?xml version="1.0" encoding="UTF-8"?>
<svg id="b" data-name="圖層 2" xmlns="http://www.w3.org/2000/svg" viewBox="0 0 85.75 100.62">
  <defs>
    <style>
      .d, .e {
        fill: #1d61aa;
      }

      .f {
        fill: #fff;
      }

      .g {
        fill: none;
      }

      .e {
        font-family: SweiGothicCJKtc-Bold, 'Swei Gothic CJK TC';
        font-size: 15.07px;
        font-weight: 700;
      }
    </style>
  </defs>
  <g id="c" data-name="圖層 63">
    <g>
      <path class="g" d="M42.62,100.62H0V0h85.75v100.62h-42.79c12.36-.06,27.87-6.26,34.23-19.55,6.99-14.61.29-29.34-10.98-37.06,1.85-5.53,4.14-10.84,5.83-16.44.86-2.84,2.29-6.87,2.5-9.82,1.42-19.66-22.88-24.6-26.68-4.44-1.41,7.5-1.21,16.1-1.56,23.77h-7.02c-.34-7.66-.15-16.27-1.56-23.77C35.43,1.16,23.53-4.07,15.47,4.32c-10.31,10.73.57,27.97,3.9,39.68-11.27,7.71-17.96,22.46-10.98,37.06,6.36,13.3,21.87,19.49,34.23,19.55Z"/>
      <path class="d" d="M42.62,100.62c-12.36-.06-27.87-6.26-34.23-19.55-6.98-14.6-.29-29.35,10.98-37.06-3.33-11.71-14.22-28.95-3.9-39.68,8.06-8.39,19.97-3.16,22.25,8.98,1.41,7.49,1.22,16.1,1.56,23.77h7.02c.35-7.67.15-16.27,1.56-23.77,3.8-20.16,28.11-15.22,26.68,4.44-.21,2.95-1.64,6.97-2.5,9.82-1.7,5.6-3.99,10.91-5.83,16.44,11.26,7.72,17.96,22.45,10.98,37.06-6.36,13.3-21.87,19.49-34.23,19.55-.11,0-.22,0-.33,0ZM32.74,38.22c-.25-5.24-.22-10.53-.65-15.76-.57-6.77-1.85-17.96-10.48-13.67-6.35,3.15-3.4,11.17-1.73,16.61s3.63,10.23,5.62,15.21l7.23-2.39ZM60.16,40.58c1.86-4.98,3.91-9.91,5.49-15.04,1.67-5.42,4.69-13.42-1.57-16.69-8.66-4.53-10.02,6.81-10.59,13.61-.44,5.23-.4,10.52-.65,15.76l7.32,2.36ZM39.25,44.97c-12.5.97-32.17,12.01-25.91,30.28,8.15,23.76,53.58,22.87,59.45-1.71,5.04-21.11-20.12-29.61-33.54-28.57Z"/>
      <path class="f" d="M39.25,44.97c13.42-1.04,38.58,7.46,33.54,28.57-5.87,24.58-51.3,25.47-59.45,1.71-6.26-18.26,13.41-29.31,25.91-30.28Z"/>
      <path class="f" d="M32.74,38.22l-7.23,2.39c-1.99-4.98-4.03-10.02-5.62-15.21-1.67-5.44-4.63-13.46,1.73-16.61,8.63-4.28,9.91,6.9,10.48,13.67.44,5.23.4,10.52.65,15.76Z"/>
      <path class="f" d="M60.16,40.58l-7.32-2.36c.25-5.24.21-10.53.65-15.76.57-6.8,1.94-18.14,10.59-13.61,6.26,3.28,3.24,11.27,1.57,16.69-1.58,5.13-3.63,10.06-5.49,15.04Z"/>
    </g>
    <text class="e" transform="translate(21.31 75.02)"><tspan x="0" y="0">回頂部</tspan></text>
  </g>
</svg>