<?xml version="1.0" encoding="UTF-8"?>
<svg id="b" data-name="圖層 2" xmlns="http://www.w3.org/2000/svg" viewBox="0 0 1120 381.23">
  <defs>
    <style>
      .d {
        fill: #fff;
      }

      .e {
        fill: #f4f2f2;
      }

      .f {
        fill: #eb6135;
      }

      .g {
        fill: #3faf73;
      }

      .h {
        fill: #87d256;
      }

      .i {
        fill: #96371e;
      }
    </style>
  </defs>
  <g id="c" data-name="圖層 16">
    <path class="d" d="M1120,204c0-11.96-13.97-22.78-36.52-30.58,6.76-5.32,10.52-11.22,10.52-17.42,0-18.13-32.1-33.64-77.51-39.96.11-.93.16-1.87.16-2.81,0-17.19-17.43-32.02-42.63-38.9-4.74-18.59-21.61-32.33-41.69-32.33s-37.16,13.92-41.78,32.68c-5.86-2.99-12.5-4.68-19.54-4.68-21.33,0-39.03,15.51-42.43,35.87-28.39,6.05-48.63,21.84-48.63,40.36,0,.72.03,1.43.09,2.14-35.14,3.19-64.18,11.67-79.73,22.86-9.39-.8-19.21-1.23-29.31-1.23-5.8,0-11.5.14-17.08.42-2.04-19.73-42.09-36.06-95.3-40.33-4.93-17.09-27.3-30.77-56.17-34.71-5.9-7.38-17.29-13.95-32.53-19.15.49-1.96.73-3.97.73-6,0-20.53-24.87-37.7-58.14-41.97-6.02-16.49-21.85-28.26-40.43-28.26-13.02,0-24.68,5.77-32.58,14.9-8.05-1.73-16.76-2.67-25.85-2.67-23.02,0-43.6,6.05-57.24,15.55-7.43-6.11-16.95-9.78-27.33-9.78-22.95,0-41.7,17.94-42.96,40.56-5.02,1.75-9.6,3.65-13.69,5.69-.71-.01-1.42-.02-2.13-.02-17.97,0-34.44,3.68-47.29,9.82-7.47-6.28-17.12-10.05-27.64-10.05-23.77,0-43.03,19.25-43.03,43,0,5.59,1.07,10.93,3.02,15.83-12.25,6.69-19.36,14.64-19.36,23.17,0,13.31,17.31,25.22,44.49,33.1-5.74,4.09-9.68,8.55-11.44,13.25C28.16,199.33,0,214.02,0,231s28.7,31.95,70.23,38.85c-14.62,7.07-23.23,15.75-23.23,25.15,0,22.23,48.26,40.52,110.16,42.77,9.28,17.63,37.61,30.46,71.14,30.46,16.08,0,30.97-2.95,43.13-7.97,12.97,12.56,36.72,20.97,63.87,20.97,38.58,0,70.29-16.99,73.99-38.74,5.37-1.06,10.48-2.25,15.31-3.57,21.8,6.89,50.71,11.08,82.4,11.08s61.71-4.35,83.65-11.48c19.18,15.02,62.27,25.48,112.35,25.48,54.38,0,100.51-12.33,116.75-29.44,14.82,2.22,31.13,3.44,48.25,3.44,64.91,0,118.08-17.58,122.67-39.86,56.11-4,98.33-21.34,98.33-42.14,0-6.87-4.6-13.35-12.78-19.11,26.77-7.88,43.78-19.69,43.78-32.89Z"/>
    <g>
      <path class="g" d="M239.86,142.38l-3.26,2.91c-.47.43-1.24.28-1.71-.34l-16.92-17.92c-.62-.55-.52-1.44.24-2.01l5.16-3.79c.79-.58,1.88-.57,2.41.01l14.28,19.13c.39.65.29,1.55-.22,1.99Z"/>
      <path class="h" d="M240.74,139.52l-3.8,1.75c-.57.26-1.34-.08-1.73-.76l-11.73-21.13c-.38-.69.04-1.58.95-2l6.01-2.77c.91-.42,1.87-.16,2.15.57l8.68,22.54c.28.73.05,1.54-.53,1.8Z"/>
      <path class="g" d="M246.71,139.66l-4.13,1.1c-.63.17-1.4-.26-1.72-.97l-8.39-22.41c-.23-.75.35-1.61,1.3-1.92l6.21-2.06c.92-.3,1.78.09,1.92.88l5.5,23.73c.22.75-.09,1.49-.7,1.65Z"/>
      <path class="h" d="M252.71,136.22l-4.36.59c-.67.1-1.43-.4-1.69-1.12l-5.62-23.11c-.11-.78.59-1.61,1.54-1.83l6.26-1.46c.92-.21,1.69.29,1.71,1.11l3,24.32c.17.76-.2,1.43-.84,1.51Z"/>
      <path class="f" d="M267.26,188.98l-1.9.88c-4.96,2.28-11.34.35-14.25-4.32l-23.8-38.24c-1.21-1.95.55-4.78,3.93-6.34l20.27-9.34c3.38-1.56,6.71-1.06,7.43,1.11l14.18,42.67c1.73,5.21-.88,11.29-5.84,13.58Z"/>
      <path class="i" d="M233.76,154.14c.88-.39,1.57-.98,2.36-1.6.21-.16.42-.32.64-.47.09-.06.18-.12.27-.18.03-.02.39-.25.22-.14.22-.13.44-.25.67-.35.13-.06.26-.11.39-.16.12-.04.13-.05.03-.01.06-.02.13-.04.19-.05.47-.12,1.1-.65,1.4-1.33.29-.63.15-1.18-.54-.97-1.51.47-2.98,1.3-4.35,2.2-.58.39-1.12.77-1.66,1.13-.12.08-.25.16-.37.24-.04.02-.44.27-.25.16-.29.17-.6.32-.93.47-.63.28-.67.77-.03,1,.65.24,1.5.29,1.97.08h0Z"/>
      <path class="i" d="M240.6,155.6c.44-.48,1.02-.93,1.7-1.37-.2.13.06-.03.08-.05.09-.05.19-.11.28-.16.18-.1.36-.19.54-.28.39-.2.79-.37,1.19-.52.49-.19,1.09-.98,1.18-1.53.1-.61-.36-.78-1.09-.48-2.31.94-4.54,2.21-6.1,3.52-.4.36-.29.81.47,1,.64.18,1.5.19,1.75-.12h0Z"/>
      <path class="i" d="M261.19,169.81c1.99-1.35,4.62-2.43,6.81-2.79.84-.07,2.57-2.77,1.28-2.5-3.59.91-7.71,2.71-11.09,4.77-.55.34.04.72.89.8.96.12,1.75-.03,2.11-.28h0Z"/>
      <path class="i" d="M266.72,179.64c1.48-.78,3.07-1.48,4.61-2.04.41-.15,1.07-.98,1.3-1.59.25-.69-.11-.89-.82-.61-2.42.96-4.91,2.08-7.28,3.27-.66.33-.76.79.02.98.72.18,1.75.21,2.18-.02h0Z"/>
    </g>
    <g>
      <path class="g" d="M947.56,201.86l-3.7-2.32c-.54-.34-.61-1.11-.15-1.74l12.53-21.22c.35-.75,1.25-.9,2-.32l5.07,3.91c.78.6,1.07,1.65.66,2.32l-14.43,19.02c-.52.56-1.41.71-1.98.34Z"/>
      <path class="h" d="M950.55,201.91l-2.74-3.17c-.41-.48-.3-1.31.26-1.87l17.05-17.13c.55-.56,1.53-.39,2.18.36l4.33,5.01c.65.75.67,1.75.05,2.22l-19.25,14.58c-.62.47-1.46.47-1.88,0Z"/>
      <path class="g" d="M952.07,207.68l-2.2-3.66c-.34-.56-.13-1.42.46-1.92l19.21-14.26c.65-.43,1.64-.11,2.21.72l3.7,5.4c.55.8.41,1.74-.31,2.09l-21.28,11.86c-.66.42-1.45.32-1.78-.22Z"/>
      <path class="h" d="M957.03,212.5l-1.77-4.02c-.28-.62,0-1.49.61-1.93l20.65-11.8c.72-.32,1.7.12,2.19.98l3.14,5.61c.46.83.19,1.7-.59,1.95l-22.54,9.61c-.68.37-1.43.2-1.68-.39Z"/>
      <path class="f" d="M910.37,241.09l-1.37-1.59c-3.57-4.13-3.48-10.8.21-14.89l30.15-33.46c1.53-1.7,4.75-.8,7.18,2.02l14.58,16.89c2.43,2.82,2.87,6.15.99,7.44l-37.08,25.44c-4.53,3.11-11.1,2.28-14.66-1.86Z"/>
      <path class="i" d="M934.57,199.25c.62.74,1.38,1.24,2.19,1.82.21.15.42.31.63.48.08.07.17.14.25.21.03.02.34.31.2.17.19.17.36.36.53.55.09.11.18.22.26.33.07.1.08.11.02.03.04.06.07.11.1.17.24.42.93.88,1.67.97.68.1,1.17-.18.78-.78-.86-1.32-2.08-2.51-3.32-3.57-.53-.45-1.05-.86-1.55-1.28-.11-.1-.22-.19-.34-.29-.03-.03-.38-.35-.22-.2-.24-.23-.48-.49-.71-.76-.44-.52-.92-.43-.97.25-.05.69.14,1.53.47,1.91h0Z"/>
      <path class="i" d="M935.06,206.23c.58.29,1.17.72,1.79,1.25-.18-.16.05.04.07.06.08.07.16.15.23.23.14.14.28.29.42.44.3.33.57.66.83,1,.32.42,1.24.77,1.8.71.62-.07.66-.56.16-1.18-1.55-1.96-3.38-3.75-5.07-4.88-.46-.28-.86-.06-.83.73,0,.67.23,1.49.6,1.65h0Z"/>
      <path class="i" d="M927.11,229.94c1.85,1.54,3.61,3.76,4.57,5.77.3.79,3.37,1.7,2.76.54-1.87-3.19-4.74-6.66-7.65-9.34-.48-.43-.68.24-.53,1.08.15.95.51,1.68.85,1.95h0Z"/>
      <path class="i" d="M919.19,237.98c1.16,1.21,2.28,2.54,3.23,3.86.25.35,1.24.76,1.88.81.73.05.83-.35.36-.96-1.6-2.06-3.36-4.14-5.16-6.09-.5-.54-.97-.51-.93.29.02.74.28,1.74.62,2.09h0Z"/>
    </g>
    <path class="e" d="M320,211.5c0,10.22-19.48,18.5-43.5,18.5-22.66,0-41.28-7.37-43.31-16.79-5.66,1.15-12,1.79-18.69,1.79-24.02,0-43.5-8.28-43.5-18.5s19.48-18.5,43.5-18.5c4.59,0,9.02.3,13.18.87,7.98-4.19,20.16-6.87,33.82-6.87,24.02,0,43.5,8.28,43.5,18.5,0,2.17-.88,4.25-2.49,6.18,10.62,3.36,17.49,8.75,17.49,14.82Z"/>
    <path class="e" d="M960,253.5c0,10.22-19.48,18.5-43.5,18.5-22.66,0-41.28-7.37-43.31-16.79-5.66,1.15-12,1.79-18.69,1.79-24.02,0-43.5-8.28-43.5-18.5s19.48-18.5,43.5-18.5c4.59,0,9.02.3,13.18.87,7.98-4.19,20.16-6.87,33.82-6.87,24.02,0,43.5,8.28,43.5,18.5,0,2.17-.88,4.25-2.49,6.18,10.62,3.36,17.49,8.75,17.49,14.82Z"/>
  </g>
</svg>