<?xml version="1.0" encoding="UTF-8"?>
<svg id="b" data-name="圖層 2" xmlns="http://www.w3.org/2000/svg" viewBox="0 0 115 115">
  <defs>
    <style>
      .d {
        fill: #eb6135;
      }

      .e {
        fill: #ffdac7;
      }

      .f {
        fill: #3faf73;
      }

      .g {
        fill: #87d256;
      }

      .h {
        fill: #96371e;
      }
    </style>
  </defs>
  <g id="c" data-name="圖層 46">
    <circle class="e" cx="57.5" cy="57.5" r="57.5"/>
    <g>
      <path class="f" d="M66.08,44.66l-4.15-3.4c-.61-.49-.57-1.45.08-2.14l18.55-23.9c.55-.86,1.66-.9,2.48-.08l5.57,5.55c.85.85,1.05,2.17.44,2.93l-20.51,20.93c-.72.6-1.82.64-2.46.11Z"/>
      <path class="g" d="M70.64,45.9l-2.84-4.28c-.43-.64-.16-1.65.6-2.24l23.42-18.22c.76-.59,1.92-.24,2.6.78l4.49,6.77c.68,1.02.55,2.23-.28,2.71l-25.7,14.77c-.83.48-1.86.35-2.28-.3Z"/>
      <path class="f" d="M71.59,53.17l-2.11-4.8c-.32-.73.06-1.75.85-2.26l25.6-14.4c.86-.42,2.02.13,2.58,1.21l3.67,7.15c.54,1.06.23,2.18-.7,2.49l-27.75,11.15c-.87.41-1.82.17-2.13-.54Z"/>
      <path class="g" d="M76.89,59.81l-1.53-5.17c-.24-.8.22-1.81,1.04-2.26l26.97-11.18c.93-.28,2.06.41,2.51,1.53l2.95,7.31c.43,1.08-.03,2.1-1.02,2.28l-28.94,8.22c-.88.35-1.77.02-1.99-.74Z"/>
      <path class="d" d="M12.7,82.06c-.8.86.86,2.2,1.52,3.2l1.42,2.14c3.71,5.58,11.57,7.61,17.57,4.53l49.09-25.24c2.5-1.28,2.47-5.41-.05-9.22l-15.15-22.82c-2.53-3.81-6.3-5.4-8.43-3.57L21.39,63.18c-.88.76-1.14,2-.69,3.08.66,1.56,1.03,3.38,1.03,5.31,0,5.88-3.45,10.65-7.71,10.65-.45,0-.89-.06-1.32-.17"/>
      <path class="h" d="M53.06,39.46c.64,1,1.49,1.72,2.39,2.56.23.22.46.45.69.69.09.1.18.19.28.29.03.03.37.43.21.24.2.24.39.49.56.75.1.15.18.29.27.44.07.13.08.15.02.04.03.07.07.15.1.22.23.55,1,1.22,1.88,1.44.81.23,1.46-.04,1.07-.83-.85-1.74-2.14-3.37-3.49-4.86-.58-.63-1.15-1.21-1.69-1.8-.12-.13-.24-.27-.36-.41-.04-.04-.41-.49-.24-.28-.26-.32-.5-.67-.74-1.04-.46-.71-1.06-.67-1.22.16-.17.84-.07,1.88.27,2.4h0Z"/>
      <path class="h" d="M52.58,48.04c.66.44,1.32,1.06,1.98,1.8-.19-.22.05.06.07.09.08.1.17.21.25.31.15.2.3.4.45.6.31.44.6.89.86,1.34.32.56,1.4,1.13,2.08,1.15.77,0,.89-.58.38-1.42-1.58-2.63-3.54-5.09-5.42-6.73-.52-.42-1.04-.2-1.13.76-.1.81.05,1.85.47,2.1h0Z"/>
      <path class="h" d="M39.22,75.68c2.02,2.16,3.82,5.14,4.67,7.73.24,1,3.84,2.59,3.27,1.09-1.78-4.18-4.74-8.84-7.87-12.56-.52-.6-.86.19-.81,1.23.04,1.18.36,2.12.74,2.5h0Z"/>
      <path class="h" d="M28.33,84.24c1.22,1.65,2.38,3.45,3.34,5.2.25.47,1.39,1.12,2.17,1.27.88.17,1.06-.3.59-1.11-1.62-2.76-3.45-5.56-5.34-8.22-.52-.73-1.1-.77-1.18.21-.09.9.07,2.16.43,2.64h0Z"/>
    </g>
  </g>
</svg>