<?xml version="1.0" encoding="UTF-8"?>
<svg id="b" data-name="圖層 2" xmlns="http://www.w3.org/2000/svg" viewBox="0 0 115 115">
  <defs>
    <style>
      .d {
        fill: #fff8d6;
      }

      .e {
        stroke-width: 2px;
      }

      .e, .f {
        fill: #4d4d70;
        stroke: #4d4d70;
        stroke-miterlimit: 10;
      }
    </style>
  </defs>
  <g id="c" data-name="圖層 46">
    <circle class="d" cx="57.5" cy="57.5" r="57.5"/>
    <g>
      <path class="e" d="M66.74,67.31c-10.8,9.61-27.41,8.64-37.02-2.16-9.61-10.8-8.64-27.41,2.16-37.02,10.8-9.61,27.41-8.64,37.02,2.16,9.61,10.8,8.64,27.41-2.16,37.02ZM34.97,31.6c-8.89,7.91-9.69,21.57-1.78,30.46,7.91,8.89,21.57,9.69,30.46,1.78s9.69-21.57,1.78-30.46c-7.91-8.89-21.57-9.69-30.46-1.78Z"/>
      <path class="f" d="M74.05,60.51h8.3v31.7c0,2.29-1.86,4.15-4.15,4.15h0c-2.29,0-4.15-1.86-4.15-4.15v-31.7h0Z" transform="translate(-32.36 71.81) rotate(-41.66)"/>
    </g>
  </g>
</svg>