<?xml version="1.0" encoding="UTF-8"?>
<svg id="b" data-name="圖層 2" xmlns="http://www.w3.org/2000/svg" viewBox="0 0 1440 700">
  <defs>
    <style>
      .d {
        fill: #9cd6ff;
      }

      .e {
        fill: #f09a9a;
      }

      .f {
        fill: #e73061;
      }

      .g {
        fill: #f1f0f2;
        font-family: SweiGothicCJKtc-Bold, 'Swei Gothic CJK TC';
        font-size: 60px;
        font-weight: 700;
      }

      .h {
        fill: #fff;
      }

      .i {
        fill: #bdc6ff;
      }

      .j {
        fill: #f9e8e8;
      }

      .k {
        fill: none;
        stroke: #333;
        stroke-linecap: round;
        stroke-miterlimit: 10;
        stroke-width: 5px;
      }

      .l {
        fill: #eb6135;
      }

      .m {
        fill: #fcb830;
      }

      .n {
        fill: #2d2d2b;
      }

      .o {
        fill: #3faf73;
      }

      .p {
        fill: #87d256;
      }

      .q {
        fill: #2da69d;
      }

      .r {
        fill: #ffd766;
      }

      .s {
        fill: #96371e;
      }
    </style>
  </defs>
  <g id="c" data-name="圖層 58">
    <rect class="r" width="1440" height="700"/>
    <path class="e" d="M906.65,700c23.43-38.45,26.35-92.35,26.35-92.35,0-84.3-58.7-258-143-258l-120-1c-84.3,0-145,170.7-145,255,0,0,1.29,56.65,24.17,96.35h357.48Z"/>
    <text class="g" transform="translate(111.9 138.38)"><tspan x="0" y="0">兔兔的生活夥伴</tspan></text>
    <ellipse class="e" cx="710.7" cy="300.37" rx="170.52" ry="134.21" transform="translate(-11.64 29.18) rotate(-2.33)"/>
    <g>
      <path class="e" d="M729.54,56.25l.83,8.4,5.32,126.4c-.31,16.89-9.38,32.53-19.83,34.94h0c-11.51,2.73-22.54-10.58-25.19-29.72l-26.4-131.26,6.07-.84,59.2-7.92Z"/>
      <path class="e" d="M607.81,85.58l-.85-6.6c-2.95-22.56,6.32-43.24,20.9-45.8l80.03-10.45c12.19-1.07,21.9,8.32,21.59,20.75l-.61,19.05c-.32,8.32-6.78,16.92-14.38,19.32l-81.22,30.17c-11.61,5.02-22.94-6.69-25.45-26.43Z"/>
    </g>
    <path class="e" d="M772.41,240.45h0c-12.51-3.95-20.56-20.58-17.76-37.05l39.98-181.05c4.33-15.82,23.92-22.94,43.53-15.99h0c19.48,6.9,30.18,24.64,24.12,39.73l-59.42,172.84c-4.53,15.74-18.06,25.41-30.44,21.52Z"/>
    <ellipse class="j" cx="711.74" cy="318.19" rx="123.5" ry="97.8" transform="translate(-12.36 29.24) rotate(-2.33)"/>
    <path class="e" d="M637.21,421.66l-118.53,271.41c-11.23,19.62-44.33-7.78-55.17-29.34-6.89-13.72-6.72-41.13,4.51-60.76l60.84-182.01c22.15-38.69,66.94-42.24,100.05-7.91l8.3,8.61Z"/>
    <g>
      <circle cx="662.96" cy="330.89" r="17.13"/>
      <circle cx="751.4" cy="327.29" r="17.13"/>
    </g>
    <g>
      <path class="k" d="M672.87,229.68c-4.81,1.59-9.29,5.4-10.6,10.42-1.19,4.56-.42,11.96,2.63,15.69,1.07,1.31,2.97,2.74,4.4,2.68"/>
      <path class="k" d="M698.32,222.93c-4.81,1.77-9.27,6.02-10.55,11.67-1.17,5.13-.36,13.45,2.71,17.66,1.08,1.48,2.98,3.09,4.41,3.03"/>
      <path class="k" d="M719.77,223.48c-4.81,1.7-9.28,5.77-10.57,11.17-1.17,4.9-.38,12.85,2.68,16.87,1.08,1.41,2.98,2.95,4.4,2.89"/>
      <path class="k" d="M744.2,226.77c-4.82,1.56-9.3,5.27-10.61,10.17-1.19,4.45-.43,11.66,2.61,15.3,1.07,1.28,2.97,2.67,4.39,2.61"/>
    </g>
    <path class="e" d="M797.23,416.85l155.83,254.96c13.91,18.1,42.95-13.23,50.69-36,4.93-14.49.91-41.7-13-59.81l-85.97-173.29c-27.43-35.7-72.43-33.66-100.51,4.56l-7.04,9.58Z"/>
    <g>
      <path class="q" d="M567.13,564.82s-61.59-71.69-31.92-108.22c2.03-2.5,5.41-3.51,8.44-2.43,10.22,3.61,32.01,21.03,38.76,103.11l-15.28,7.54Z"/>
      <path class="q" d="M606.61,564.82s61.59-71.69,31.92-108.22c-2.03-2.5-5.41-3.51-8.44-2.43-10.22,3.61-32.01,21.03-38.76,103.11l15.28,7.54Z"/>
      <path class="h" d="M523.21,631.81c-4.14-19.56-9.7-68.8,30.81-95.35,21.44-14.06,55.47-12.25,72.76,4.46,15.39,14.88,26.4,42.13,13.1,92-23.55,88.29-87.32,34.53-108,14.08-4.55-4.5-7.51-9.7-8.67-15.19Z"/>
      <circle class="n" cx="561.49" cy="573.24" r="6.72"/>
      <circle class="n" cx="600.31" cy="573.24" r="6.72"/>
    </g>
    <g>
      <path class="m" d="M696.67,563.67s-61.59-71.69-31.92-108.22c2.03-2.5,5.41-3.51,8.44-2.43,10.22,3.61,32.01,21.03,38.76,103.11l-15.28,7.54Z"/>
      <path class="m" d="M736.15,563.67s61.59-71.69,31.92-108.22c-2.03-2.5-5.41-3.51-8.44-2.43-10.22,3.61-32.01,21.03-38.76,103.11l15.28,7.54Z"/>
      <path class="h" d="M652.75,630.65c-4.14-19.56-9.7-68.8,30.81-95.35,21.44-14.06,55.47-12.25,72.76,4.46,15.39,14.88,26.4,42.13,13.1,92-23.55,88.29-87.32,34.53-108,14.08-4.55-4.5-7.51-9.7-8.67-15.19Z"/>
      <circle class="n" cx="691.03" cy="572.09" r="6.72"/>
      <circle class="n" cx="729.84" cy="572.09" r="6.72"/>
    </g>
    <g>
      <path class="d" d="M828.52,563.67s-61.59-71.69-31.92-108.22c2.03-2.5,5.41-3.51,8.44-2.43,10.22,3.61,32.01,21.03,38.76,103.11l-15.28,7.54Z"/>
      <path class="d" d="M868,563.67s61.59-71.69,31.92-108.22c-2.03-2.5-5.41-3.51-8.44-2.43-10.22,3.61-32.01,21.03-38.76,103.11l15.28,7.54Z"/>
      <path class="h" d="M784.6,630.65c-4.14-19.56-9.7-68.8,30.81-95.35,21.44-14.06,55.47-12.25,72.76,4.46,15.39,14.88,26.4,42.13,13.1,92-23.55,88.29-87.32,34.53-108,14.08-4.55-4.5-7.51-9.7-8.67-15.19Z"/>
      <circle class="n" cx="822.88" cy="572.09" r="6.72"/>
      <circle class="n" cx="861.7" cy="572.09" r="6.72"/>
    </g>
    <path class="i" d="M416.3,302.43c-7.22-7.81,2.19-42.96-36.96-51.09-27.54-5.72-45.39,11.43-54.05,9.79-8.65-1.64-20.94-21.53-45.34-22.45-25.11-.95-48.08,20.93-55.86,21.34-17.16.91-36.95-24.01-73.59,1.87-22.78,16.09-12.07,40.65-18.71,52.12-9.49,16.39-36.04,11.69-28.43,56.1,9.42,55.01,50.8,32.96,83.37,36.77,8.77,1.03,22.43,16.16,34.1,18.41s22.48-5.38,33.26-2.57c8.62,2.25,12.72,14.57,26.6,17,35.35,6.18,44.1-15.03,57.31-16.9,7.71-1.09,19.7,15.76,47.65,9.78,22.34-4.78,20.86-19.93,32.55-28.57,24.23-17.91,53.03-17.13,47.01-61.52-5.23-38.55-42.5-33.16-48.89-40.07Z"/>
    <path class="i" d="M1320.56,312.23c-6.49-7.43,1.97-40.85-33.23-48.58-24.76-5.44-40.8,10.87-48.59,9.31-7.78-1.56-18.83-20.47-40.76-21.35-22.57-.9-43.22,19.9-50.22,20.29-15.43.87-33.22-22.83-66.16,1.78-20.48,15.3-10.85,38.65-16.82,49.56-8.53,15.58-32.4,11.12-25.56,53.34,8.47,52.3,45.67,31.34,74.95,34.97,7.89.98,20.16,15.37,30.66,17.5,10.76,2.19,20.21-5.12,29.9-2.45,7.75,2.14,11.43,13.86,23.91,16.16,31.78,5.88,39.65-14.3,51.52-16.07,6.93-1.04,17.71,14.98,42.83,9.3,20.08-4.54,18.76-18.95,29.26-27.17,21.78-17.03,47.67-16.29,42.26-58.5-4.7-36.65-38.21-31.53-43.95-38.1Z"/>
    <path class="e" d="M654.3,665.46h0c3.53,19.04-12.74,34.51-35.9,34.49l-104.23-.1c-14.05-.01-29.35-9.06-34.33-20.18l-12.09-25.36c-5.76-11.4,2.42-20.79,18.46-21.01l114.15-1.52c25.58-.34,49.93,14.71,53.95,33.68Z"/>
    <path class="e" d="M806.27,653.21h0c-10.13,22.3.99,39.99,24.35,39.61l105.38-1.77c14.24-.24,20.03,1.59,41.58-20.24l21.52-37.85c9.94-14.63,5.01-26.09-11.22-25.56l-115.24,3.71c-25.77.82-55.7,19.71-66.38,42.11Z"/>
    <ellipse class="i" cx="284.5" cy="486.15" rx="32.5" ry="19.5"/>
    <ellipse class="i" cx="376.5" cy="522.15" rx="24.5" ry="16.5"/>
    <ellipse class="i" cx="466" cy="538.65" rx="28" ry="17"/>
    <ellipse class="i" cx="1162.5" cy="486.15" rx="32.5" ry="19.5"/>
    <ellipse class="i" cx="1070.5" cy="522.15" rx="24.5" ry="16.5"/>
    <ellipse class="i" cx="981" cy="538.65" rx="28" ry="17"/>
    <g>
      <path class="f" d="M282.76,324.58c-15.77,25.73-19.72,55.38-8.84,66.23,10.89,10.85,32.49-1.21,48.26-26.94,15.77-25.73,19.72-55.38,8.84-66.23-10.89-10.85-32.49,1.21-48.26,26.94Z"/>
      <path class="f" d="M284.4,324.58c15.77,25.73,19.72,55.38,8.84,66.23s-32.49-1.21-48.26-26.94c-15.77-25.73-19.72-55.38-8.84-66.23,10.89-10.85,32.49,1.21,48.26,26.94Z"/>
    </g>
    <path class="o" d="M1216.47,319.52l-8.3-4.84c-1.22-.7-1.42-2.4-.46-3.81l26.05-47.54c.73-1.67,2.68-2.06,4.37-.85l11.43,8.23c1.75,1.27,2.47,3.54,1.61,5.06l-30.37,42.85c-1.1,1.26-3.04,1.66-4.32.9Z"/>
    <path class="p" d="M1224.88,320.43l-6.24-6.77c-.94-1.02-.75-2.87.43-4.13l36.28-38.87c1.18-1.26,3.33-.98,4.82.64l9.87,10.71c1.49,1.61,1.6,3.8.27,4.88l-41.3,33.42c-1.34,1.08-3.19,1.14-4.13.12Z"/>
    <path class="o" d="M1228.63,333.02l-5.09-7.9c-.78-1.21-.4-3.11.87-4.25l41.22-32.73c1.41-.99,3.6-.35,4.9,1.42l8.52,11.61c1.26,1.73,1.02,3.79-.54,4.61l-45.95,27.59c-1.42.97-3.17.81-3.92-.36Z"/>
    <path class="p" d="M1239.88,343.26l-4.18-8.72c-.66-1.34-.13-3.27,1.2-4.29l44.57-27.42c1.56-.76,3.76.14,4.88,1.99l7.3,12.11c1.07,1.79.54,3.72-1.16,4.33l-48.88,22.74c-1.47.87-3.13.54-3.73-.74Z"/>
    <path class="l" d="M1139.31,409.44l-3.12-3.39c-8.14-8.83-8.41-23.49-.6-32.75l63.91-75.72c3.25-3.85,10.39-2.1,15.93,3.93l33.27,36.1c5.55,6.02,6.76,13.32,2.7,16.3l-79.72,58.57c-9.74,7.16-24.24,5.8-32.38-3.04Z"/>
    <path class="s" d="M1189.55,315.72c1.42,1.59,3.12,2.63,4.95,3.85.47.32.94.66,1.42,1.02.19.14.38.29.57.44.07.05.78.65.44.36.42.37.83.76,1.2,1.16.21.23.4.47.6.7.17.22.18.24.05.06.08.12.16.24.23.36.56.91,2.12,1.87,3.74,2.02,1.5.18,2.56-.48,1.66-1.78-1.99-2.84-4.74-5.36-7.55-7.62-1.2-.95-2.37-1.82-3.49-2.72-.26-.2-.51-.41-.76-.62-.07-.06-.86-.75-.5-.42-.55-.5-1.08-1.04-1.61-1.62-1.01-1.12-2.06-.88-2.11.62-.06,1.53.42,3.34,1.16,4.18h0Z"/>
    <path class="s" d="M1191.13,331.04c1.29.59,2.63,1.5,4.01,2.62-.4-.33.11.09.15.13.18.16.35.32.53.48.33.31.65.62.96.94.68.69,1.31,1.41,1.9,2.13.73.9,2.79,1.61,4.01,1.44,1.36-.2,1.4-1.27.27-2.62-3.54-4.2-7.7-8-11.49-10.38-1.03-.59-1.9-.06-1.78,1.66.06,1.47.61,3.27,1.43,3.59h0Z"/>
    <path class="s" d="M1175.33,383.75c4.18,3.25,8.22,8.02,10.46,12.36.71,1.71,7.53,3.49,6.1,1-4.34-6.89-10.9-14.3-17.49-19.99-1.09-.92-1.47.58-1.08,2.41.41,2.08,1.24,3.65,2.01,4.22h0Z"/>
    <path class="s" d="M1158.48,401.98c2.63,2.57,5.19,5.43,7.38,8.26.58.76,2.78,1.58,4.2,1.64,1.6.05,1.79-.83.72-2.13-3.66-4.42-7.68-8.87-11.77-13.03-1.13-1.15-2.16-1.06-2.04.71.11,1.62.74,3.8,1.51,4.55h0Z"/>
  </g>
</svg>