<svg width="695" height="430" viewBox="0 0 695 430" fill="none" xmlns="http://www.w3.org/2000/svg">
<g clip-path="url(#clip0_345_328)">
<path d="M349.169 246.364C374.027 246.364 394.215 266.627 394.215 291.578V333.226C394.215 355.158 376.476 372.963 354.626 372.963H343.72C321.87 372.963 304.131 355.158 304.131 333.226V291.578C304.131 266.627 324.319 246.364 349.177 246.364H349.169Z" fill="#F09A9A"/>
<path d="M351.398 250.793C399.911 250.793 439.238 219.727 439.238 181.404C439.238 143.081 399.911 112.015 351.398 112.015C302.885 112.015 263.558 143.081 263.558 181.404C263.558 219.727 302.885 250.793 351.398 250.793Z" fill="#F09A9A"/>
<path d="M365.165 45.7773L364.584 50.0957L360.517 115.071C360.642 123.759 366.511 132.056 373.343 133.614C380.874 135.378 388.155 128.838 389.979 118.998L407.872 51.5795L403.9 51.0258" fill="#F09A9A"/>
<path d="M439.142 70.2113L440.326 67.5169C444.46 58.5775 441.15 49.9112 432.663 47.549L384.441 29.0796C376.866 25.4847 368.754 30.0319 366.496 39.6209L363.172 54.9604C361.775 61.9141 364.694 69.1557 369.607 70.9568L420.352 83.9858C427.324 84.8642 435.649 78.4863 439.142 70.2113Z" fill="#F09A9A"/>
<path d="M321.414 138.05C329.761 136.98 336.446 129.406 336.189 121.109L327.481 26.8059C326.187 18.2873 314.346 11.4 301.19 11.4517C288.121 11.5255 279.649 18.7154 282.112 27.4851L303.977 124.571C305.411 133.119 313.14 139.143 321.407 138.05H321.414Z" fill="#F09A9A"/>
<path d="M365.665 249.634L407.864 312.816C411.475 318.227 419.484 320.079 425.743 316.957L428.515 315.569C434.774 312.447 436.921 305.522 433.303 300.112L404.003 256.249C396.877 245.582 381.094 241.92 368.754 248.084L365.658 249.627L365.665 249.634Z" fill="#F09A9A"/>
<path d="M437.951 343.354C430.913 346.078 423.117 343.591 420.389 337.877L407.195 312.609C405.298 309.258 407.423 305.109 411.983 303.323L422.551 299.174C427.368 297.277 432.781 298.591 434.575 302.127L446.504 327.734C448.968 333.573 445.085 340.593 437.958 343.354H437.951Z" fill="#F09A9A"/>
<path d="M332.806 249.634L290.607 312.816C286.996 318.227 278.987 320.079 272.728 316.957L269.956 315.569C263.697 312.447 261.55 305.522 265.168 300.112L294.468 256.249C301.594 245.582 317.377 241.92 329.717 248.084L332.813 249.627L332.806 249.634Z" fill="#F09A9A"/>
<path d="M256.755 343.797C263.749 346.565 271.941 344.174 275.199 338.379L290.791 311.9C293.012 308.276 291.166 304.068 286.628 302.533L276.104 299.063C271.294 297.52 265.631 299.27 263.506 302.939L249.231 328.65C246.238 334.319 249.673 341.066 256.762 343.797H256.755Z" fill="#F09A9A"/>
<path d="M334.873 345.281H323.091C319.115 345.281 315.891 348.517 315.891 352.508V422.207C315.891 426.199 319.115 429.434 323.091 429.434H334.873C338.849 429.434 342.073 426.199 342.073 422.207V352.508C342.073 348.517 338.849 345.281 334.873 345.281Z" fill="#F09A9A"/>
<path d="M307.882 405.812H340.153V423.381C340.153 426.718 337.454 429.434 334.123 429.434H295.939C292.74 429.434 290.144 426.828 290.144 423.617C290.144 413.792 298.094 405.812 307.882 405.812Z" fill="#F09A9A"/>
<path d="M367.511 429.434H379.293C383.269 429.434 386.493 426.199 386.493 422.207V352.508C386.493 348.517 383.269 345.281 379.293 345.281H367.511C363.535 345.281 360.311 348.517 360.311 352.508V422.207C360.311 426.199 363.535 429.434 367.511 429.434Z" fill="#F09A9A"/>
<path d="M404.96 429.434H366.776C363.452 429.434 360.745 426.725 360.745 423.381V405.812H393.016C402.805 405.812 410.755 413.792 410.755 423.617C410.755 426.828 408.159 429.434 404.96 429.434Z" fill="#F09A9A"/>
<path d="M107.417 246.327C132.275 246.327 152.463 266.59 152.463 291.541V333.189C152.463 355.121 134.724 372.926 112.874 372.926H101.968C80.1181 372.926 62.3794 355.121 62.3794 333.189V291.541C62.3794 266.59 82.5671 246.327 107.425 246.327H107.417Z" fill="#FDD646"/>
<path d="M109.646 250.756C158.159 250.756 197.486 219.689 197.486 181.367C197.486 143.044 158.159 111.977 109.646 111.977C61.1331 111.977 21.8057 143.044 21.8057 181.367C21.8057 219.689 61.1331 250.756 109.646 250.756Z" fill="#FDD646"/>
<path d="M87.9137 50.9072L88.6639 55.233L95.2239 120.437C95.4299 129.17 89.8773 137.422 83.104 138.869C75.6393 140.501 68.1011 133.842 65.9022 123.995L45.4351 56.6798L49.3843 56.1336" fill="#FDD646"/>
<path d="M12.5833 93.9729L11.3551 90.6732C7.07486 79.2314 10.2225 64.8146 18.6432 59.0937L66.5494 34.0249C74.0729 31.1091 82.2436 34.586 84.6264 41.3846L88.1344 51.5273C89.6126 55.8457 86.7886 61.3599 81.9053 64.0322L31.5133 99.9005C24.5929 106.182 16.209 103.739 12.5833 93.9729Z" fill="#FDD646"/>
<path d="M129.355 132.1C121.008 130.993 114.352 123.072 114.639 114.435L123.67 18.8405C124.994 10.4252 136.849 5.35383 150.006 7.4798C163.075 9.58363 171.518 17.8882 169.025 26.0525L146.837 118.857C145.373 127.243 137.622 133.185 129.363 132.093L129.355 132.1Z" fill="#FDD646"/>
<path d="M109.807 241.16C144.941 241.16 173.422 218.521 173.422 190.594C173.422 162.667 144.941 140.028 109.807 140.028C74.6738 140.028 46.1924 162.667 46.1924 190.594C46.1924 218.521 74.6738 241.16 109.807 241.16Z" fill="#F9E8E8"/>
<path d="M123.92 249.597L166.12 312.778C169.731 318.189 177.74 320.042 183.998 316.92L186.771 315.532C193.029 312.409 195.177 305.485 191.558 300.074L162.259 256.211C155.132 245.544 139.35 241.883 127.009 248.047L123.913 249.59L123.92 249.597Z" fill="#FDD646"/>
<path d="M196.206 343.317C189.168 346.041 181.373 343.553 178.644 337.84L165.45 312.572C163.553 309.22 165.678 305.072 170.238 303.285L180.806 299.137C185.623 297.239 191.036 298.553 192.831 302.089L204.759 327.697C207.223 333.536 203.34 340.556 196.214 343.317H196.206Z" fill="#FDD646"/>
<path d="M91.054 249.597L48.8548 312.778C45.2438 318.189 37.2349 320.042 30.9764 316.92L28.2038 315.532C21.9453 312.409 19.7978 305.485 23.4161 300.074L52.7158 256.211C59.8422 245.544 75.6246 241.883 87.9652 248.047L91.0614 249.59L91.054 249.597Z" fill="#FDD646"/>
<path d="M0.132239 295.889C-0.831179 303.455 3.5373 310.726 9.79584 312.151L37.279 318.765C40.8974 319.68 44.7657 316.565 45.9498 311.796L48.7224 300.849C50.002 295.903 47.7737 291.186 43.7214 290.337L14.2452 284.447C7.49394 283.17 1.13243 288.307 0.132239 295.889Z" fill="#FDD646"/>
<path d="M93.1207 345.244H81.3391C77.3627 345.244 74.1392 348.479 74.1392 352.47V422.17C74.1392 426.161 77.3627 429.397 81.3391 429.397H93.1207C97.0971 429.397 100.321 426.161 100.321 422.17V352.47C100.321 348.479 97.0971 345.244 93.1207 345.244Z" fill="#FDD646"/>
<path d="M66.1376 405.775H98.4084V423.344C98.4084 426.68 95.7094 429.397 92.3779 429.397H54.1942C50.995 429.397 48.3989 426.791 48.3989 423.58C48.3989 413.755 56.349 405.775 66.1376 405.775Z" fill="#FDD646"/>
<path d="M125.759 429.397H137.541C141.517 429.397 144.741 426.161 144.741 422.17V352.471C144.741 348.479 141.517 345.244 137.541 345.244H125.759C121.783 345.244 118.559 348.479 118.559 352.471L118.559 422.17C118.559 426.161 121.783 429.397 125.759 429.397Z" fill="#FDD646"/>
<path d="M163.215 429.397H125.031C121.707 429.397 119.001 426.688 119.001 423.344V405.775H151.272C161.06 405.775 169.01 413.755 169.01 423.58C169.01 426.791 166.414 429.397 163.215 429.397Z" fill="#FDD646"/>
<path d="M87.1709 206.288C92.0449 206.288 95.9961 202.322 95.9961 197.43C95.9961 192.537 92.0449 188.571 87.1709 188.571C82.2969 188.571 78.3457 192.537 78.3457 197.43C78.3457 202.322 82.2969 206.288 87.1709 206.288Z" fill="black"/>
<path d="M132.768 206.288C137.642 206.288 141.593 202.322 141.593 197.43C141.593 192.537 137.642 188.571 132.768 188.571C127.894 188.571 123.942 192.537 123.942 197.43C123.942 202.322 127.894 206.288 132.768 206.288Z" fill="black"/>
<path d="M599.651 373.529H588.744C566.895 373.529 549.156 355.724 549.156 333.792V292.144C549.156 267.193 569.344 246.93 594.201 246.93C619.059 246.93 639.247 267.193 639.247 292.144V333.792C639.247 355.724 621.508 373.529 599.658 373.529H599.651Z" fill="#9DB3F8"/>
<path d="M591.966 251.359C640.479 251.359 679.806 220.293 679.806 181.97C679.806 143.647 640.479 112.581 591.966 112.581C543.453 112.581 504.125 143.647 504.125 181.97C504.125 220.293 543.453 251.359 591.966 251.359Z" fill="#9DB3F8"/>
<path d="M607.711 51.5105L607.13 55.8289L603.063 120.804C603.189 129.492 609.057 137.79 615.889 139.347C623.42 141.111 630.701 134.571 632.525 124.731L650.418 57.3126L646.447 56.759" fill="#9DB3F8"/>
<path d="M682.424 75.2136L683.608 72.5192C687.741 63.5798 684.432 54.9135 675.945 52.5513L627.723 34.0819C620.148 30.487 612.036 35.0342 609.778 44.6232L606.454 59.9627C605.056 66.9164 607.976 74.158 612.889 75.9592L663.634 88.9881C670.606 89.8666 678.931 83.4886 682.424 75.2136Z" fill="#9DB3F8"/>
<path d="M572.264 132.711C580.611 131.641 587.296 124.067 587.038 115.77L578.331 21.4665C577.037 12.9478 565.196 6.06055 552.039 6.11223C538.97 6.18605 530.498 13.376 532.962 22.1456L554.826 119.232C556.26 127.78 563.99 133.803 572.256 132.711H572.264Z" fill="#9DB3F8"/>
<path d="M577.698 250.2L535.499 313.382C531.888 318.792 523.879 320.645 517.62 317.523L514.848 316.135C508.589 313.012 506.442 306.088 510.06 300.677L539.36 256.814C546.486 246.148 562.269 242.486 574.609 248.65L577.705 250.193L577.698 250.2Z" fill="#9DB3F8"/>
<path d="M502.566 343.212C509.361 345.891 517.385 343.418 520.621 337.623L536.131 311.115C538.338 307.491 536.587 303.327 532.175 301.836L521.945 298.492C517.275 297.009 511.73 298.802 509.612 302.471L495.388 328.212C492.41 333.888 495.682 340.569 502.566 343.204V343.212Z" fill="#9DB3F8"/>
<path d="M610.558 250.2L652.757 313.382C656.368 318.792 664.377 320.645 670.635 317.523L673.408 316.135C679.666 313.012 681.814 306.088 678.196 300.677L648.896 256.814C641.769 246.148 625.987 242.486 613.646 248.65L610.55 250.193L610.558 250.2Z" fill="#9DB3F8"/>
<path d="M687.212 342.85C680.674 346.164 672.871 344.422 669.613 339.026L653.889 315.242C651.639 312.097 653.139 307.86 657.309 305.764L666.987 300.892C671.415 298.67 676.849 299.518 679.056 302.826L693.794 326.794C696.861 332.272 693.838 339.491 687.204 342.85H687.212Z" fill="#9DB3F8"/>
<path d="M612.903 430H624.685C628.661 430 631.885 426.764 631.885 422.773V353.074C631.885 349.083 628.661 345.847 624.685 345.847H612.903C608.927 345.847 605.703 349.083 605.703 353.074V422.773C605.703 426.764 608.927 430 612.903 430Z" fill="#9DB3F8"/>
<path d="M651.83 430H613.646C610.322 430 607.615 427.291 607.615 423.947V406.378H639.886C649.675 406.378 657.625 414.358 657.625 424.183C657.625 427.394 655.029 430 651.83 430Z" fill="#9DB3F8"/>
<path d="M575.852 345.847H564.07C560.094 345.847 556.871 349.082 556.871 353.074V422.773C556.871 426.764 560.094 430 564.07 430H575.852C579.829 430 583.052 426.764 583.052 422.773V353.074C583.052 349.082 579.829 345.847 575.852 345.847Z" fill="#9DB3F8"/>
<path d="M550.34 406.378H582.611V423.947C582.611 427.283 579.912 430 576.581 430H538.397C535.198 430 532.602 427.394 532.602 424.183C532.602 414.358 540.552 406.378 550.34 406.378Z" fill="#9DB3F8"/>
<path d="M606.843 345.788C606.843 346.12 605.887 346.401 605.865 346.725C605.843 347.05 606.733 347.493 606.682 347.811C606.63 348.128 605.645 348.261 605.564 348.571C605.483 348.881 606.292 349.471 606.189 349.774C606.086 350.077 605.086 350.04 604.961 350.342C604.836 350.645 605.534 351.346 605.38 351.634C605.225 351.922 604.247 351.715 604.071 351.989C603.894 352.262 604.468 353.074 604.269 353.332C604.071 353.59 603.144 353.229 602.924 353.465C602.703 353.701 603.137 354.602 602.901 354.823C602.666 355.045 601.806 354.535 601.548 354.735C601.291 354.934 601.578 355.894 601.306 356.071C601.033 356.248 600.276 355.606 599.989 355.761C599.702 355.916 599.827 356.905 599.533 357.038C599.239 357.171 598.592 356.41 598.283 356.514C597.974 356.617 597.937 357.614 597.621 357.695C597.305 357.776 596.797 356.92 596.474 356.971C596.15 357.023 595.952 358.005 595.621 358.027C595.29 358.049 594.937 357.126 594.613 357.126C594.29 357.126 593.922 358.057 593.606 358.027C593.289 357.997 593.076 357.023 592.752 356.971C592.429 356.92 591.921 357.776 591.605 357.695C591.289 357.614 591.245 356.617 590.943 356.514C590.642 356.41 589.995 357.171 589.693 357.038C589.392 356.905 589.517 355.916 589.23 355.761C588.943 355.606 588.185 356.248 587.913 356.071C587.641 355.894 587.928 354.934 587.671 354.735C587.413 354.535 586.56 355.045 586.317 354.823C586.075 354.602 586.516 353.701 586.295 353.465C586.075 353.229 585.148 353.59 584.95 353.332C584.751 353.074 585.325 352.262 585.148 351.989C584.972 351.715 583.993 351.922 583.839 351.634C583.685 351.346 584.383 350.645 584.258 350.342C584.133 350.04 583.133 350.084 583.03 349.774C582.927 349.464 583.736 348.888 583.655 348.571C583.574 348.253 582.589 348.135 582.537 347.811C582.486 347.486 583.376 347.05 583.354 346.725C583.332 346.401 582.375 346.12 582.375 345.788C582.375 345.456 583.332 345.175 583.354 344.85C583.376 344.526 582.486 344.083 582.537 343.765C582.589 343.448 583.574 343.315 583.655 343.005C583.736 342.695 582.927 342.104 583.03 341.802C583.133 341.499 584.133 341.536 584.258 341.233C584.383 340.931 583.685 340.229 583.839 339.941C583.993 339.654 584.972 339.86 585.148 339.587C585.325 339.314 584.751 338.502 584.95 338.244C585.148 337.985 586.075 338.347 586.295 338.111C586.516 337.875 586.082 336.974 586.317 336.753C586.553 336.531 587.413 337.04 587.671 336.841C587.928 336.642 587.641 335.682 587.913 335.505C588.185 335.328 588.943 335.97 589.23 335.815C589.517 335.66 589.392 334.671 589.686 334.538C589.98 334.405 590.627 335.165 590.936 335.062C591.245 334.959 591.282 333.962 591.598 333.881C591.914 333.8 592.422 334.656 592.745 334.604C593.069 334.553 593.267 333.571 593.598 333.549C593.929 333.527 594.282 334.449 594.606 334.449C594.929 334.449 595.297 333.519 595.613 333.549C595.93 333.578 596.143 334.553 596.466 334.604C596.79 334.656 597.297 333.8 597.614 333.881C597.93 333.962 597.974 334.959 598.276 335.062C598.577 335.165 599.224 334.405 599.526 334.538C599.827 334.671 599.702 335.66 599.989 335.815C600.276 335.97 601.033 335.328 601.306 335.505C601.578 335.682 601.291 336.642 601.548 336.841C601.806 337.04 602.659 336.531 602.901 336.753C603.144 336.974 602.703 337.875 602.924 338.111C603.144 338.347 604.071 337.985 604.269 338.244C604.468 338.502 603.894 339.314 604.071 339.587C604.247 339.86 605.225 339.654 605.38 339.941C605.534 340.229 604.836 340.931 604.961 341.233C605.086 341.536 606.086 341.492 606.189 341.802C606.292 342.112 605.483 342.688 605.564 343.005C605.645 343.322 606.63 343.44 606.682 343.765C606.733 344.09 605.843 344.526 605.865 344.85C605.887 345.175 606.843 345.456 606.843 345.788Z" fill="#7F95D3"/>
<path d="M362.613 349.112C362.613 349.444 361.657 349.725 361.635 350.05C361.613 350.374 362.503 350.817 362.452 351.135C362.4 351.452 361.415 351.585 361.334 351.895C361.253 352.205 362.062 352.796 361.959 353.098C361.856 353.401 360.856 353.364 360.731 353.667C360.606 353.969 361.304 354.671 361.15 354.959C360.995 355.246 360.017 355.04 359.841 355.313C359.664 355.586 360.238 356.398 360.039 356.656C359.841 356.915 358.914 356.553 358.694 356.789C358.473 357.025 358.907 357.926 358.671 358.147C358.436 358.369 357.576 357.86 357.318 358.059C357.061 358.258 357.348 359.218 357.076 359.395C356.803 359.572 356.046 358.93 355.759 359.085C355.472 359.24 355.597 360.229 355.303 360.362C355.009 360.495 354.362 359.735 354.053 359.838C353.744 359.941 353.707 360.938 353.391 361.019C353.075 361.1 352.567 360.244 352.244 360.296C351.92 360.347 351.722 361.329 351.391 361.351C351.06 361.373 350.707 360.451 350.383 360.451C350.06 360.451 349.692 361.381 349.376 361.351C349.059 361.322 348.846 360.347 348.522 360.296C348.199 360.244 347.691 361.1 347.375 361.019C347.059 360.938 347.015 359.941 346.713 359.838C346.412 359.735 345.765 360.495 345.463 360.362C345.162 360.229 345.287 359.24 345 359.085C344.713 358.93 343.955 359.572 343.683 359.395C343.411 359.218 343.698 358.258 343.441 358.059C343.183 357.86 342.33 358.369 342.087 358.147C341.845 357.926 342.286 357.025 342.065 356.789C341.845 356.553 340.918 356.915 340.72 356.656C340.521 356.398 341.095 355.586 340.918 355.313C340.742 355.04 339.763 355.246 339.609 354.959C339.455 354.671 340.153 353.969 340.028 353.667C339.903 353.364 338.903 353.408 338.8 353.098C338.697 352.788 339.506 352.212 339.425 351.895C339.344 351.578 338.359 351.46 338.307 351.135C338.256 350.81 339.146 350.374 339.124 350.05C339.102 349.725 338.146 349.444 338.146 349.112C338.146 348.78 339.102 348.499 339.124 348.175C339.146 347.85 338.256 347.407 338.307 347.089C338.359 346.772 339.344 346.639 339.425 346.329C339.506 346.019 338.697 345.429 338.8 345.126C338.903 344.823 339.903 344.86 340.028 344.558C340.153 344.255 339.455 343.554 339.609 343.266C339.763 342.978 340.742 343.184 340.918 342.911C341.095 342.638 340.521 341.826 340.72 341.568C340.918 341.31 341.845 341.671 342.065 341.435C342.286 341.199 341.852 340.298 342.087 340.077C342.323 339.855 343.183 340.365 343.441 340.165C343.698 339.966 343.411 339.006 343.683 338.829C343.955 338.652 344.713 339.294 345 339.139C345.287 338.984 345.162 337.995 345.456 337.862C345.75 337.729 346.397 338.49 346.706 338.386C347.015 338.283 347.052 337.286 347.368 337.205C347.684 337.124 348.192 337.98 348.515 337.929C348.839 337.877 349.037 336.895 349.368 336.873C349.699 336.851 350.052 337.774 350.376 337.774C350.699 337.774 351.067 336.843 351.383 336.873C351.7 336.903 351.913 337.877 352.236 337.929C352.56 337.98 353.067 337.124 353.384 337.205C353.7 337.286 353.744 338.283 354.046 338.386C354.347 338.49 354.994 337.729 355.296 337.862C355.597 337.995 355.472 338.984 355.759 339.139C356.046 339.294 356.803 338.652 357.076 338.829C357.348 339.006 357.061 339.966 357.318 340.165C357.576 340.365 358.429 339.855 358.671 340.077C358.914 340.298 358.473 341.199 358.694 341.435C358.914 341.671 359.841 341.31 360.039 341.568C360.238 341.826 359.664 342.638 359.841 342.911C360.017 343.184 360.995 342.978 361.15 343.266C361.304 343.554 360.606 344.255 360.731 344.558C360.856 344.86 361.856 344.816 361.959 345.126C362.062 345.436 361.253 346.012 361.334 346.329C361.415 346.647 362.4 346.765 362.452 347.089C362.503 347.414 361.613 347.85 361.635 348.175C361.657 348.499 362.613 348.78 362.613 349.112Z" fill="#CA6969"/>
<path d="M128.752 139.962C116.154 164.507 86.4943 179.757 59.4303 178.938C54.9589 178.731 50.6566 178.274 46.1631 176.93C48.1635 172.678 50.7007 169.157 53.5395 165.68C71.0208 144.922 102.144 132.964 128.752 139.962Z" fill="#1E1B1B"/>
<path d="M116.507 141.468C136.776 134.883 159.67 145.336 167.944 165.016C169.341 168.345 170.415 171.593 170.929 175.424C167.282 176.664 163.899 177.129 160.31 177.344C139.07 178.606 119.596 162.624 116.507 141.468Z" fill="#1E1B1B"/>
</g>
<defs>
<clipPath id="clip0_345_328">
<rect width="695" height="430" fill="white"/>
</clipPath>
</defs>
</svg>
