<?xml version="1.0" encoding="UTF-8"?>
<svg id="b" data-name="圖層 2" xmlns="http://www.w3.org/2000/svg" viewBox="0 0 1440 700">
  <defs>
    <style>
      .d, .e {
        fill: #4d4d70;
      }

      .f {
        fill: #f1f0f2;
        font-family: SweiGothicCJKtc-Bold, 'Swei Gothic CJK TC';
        font-size: 60px;
        font-weight: 700;
      }

      .e {
        stroke: #4d4d70;
      }

      .e, .g, .h, .i {
        stroke-miterlimit: 10;
      }

      .e, .h {
        stroke-width: 2px;
      }

      .j {
        fill: #996d1f;
      }

      .k {
        fill: #f9e8e8;
      }

      .g {
        stroke-linecap: round;
      }

      .g, .h, .i {
        fill: none;
      }

      .g, .i {
        stroke: #030100;
        stroke-width: 3px;
      }

      .l {
        fill: #f9f9f9;
      }

      .m {
        fill: #fdd646;
      }

      .n {
        fill: #9db3f8;
      }

      .o {
        fill: #603813;
      }

      .h {
        stroke: #603813;
      }

      .p {
        fill: #bc4a0c;
      }

      .q {
        fill: #f9c0c0;
      }
    </style>
  </defs>
  <g id="c" data-name="圖層 58">
    <rect class="q" width="1440" height="700"/>
    <path class="m" d="M448.29,185.19c.06-4.22-.24-8.43-.97-12.59-.54-3.07-1.55-6.74-4.69-8.09-.75-.32-1.6-.22-2.05.54-.38.63-.21,1.73.54,2.05,2.61,1.12,3.03,4.52,3.43,6.99.6,3.66.8,7.38.75,11.09-.03,1.93,2.97,1.93,3,0h0Z"/>
    <path class="m" d="M487.47,198.25c5.8-4,12.47-6.62,19.53-7.1,1.92-.13,1.93-3.13,0-3-7.58.52-14.81,3.2-21.05,7.51-1.58,1.09-.08,3.69,1.51,2.59h0Z"/>
    <path class="m" d="M480.07,169.69c-.53,5.41-2.71,10.68-6.17,14.88-.51.63-.61,1.51,0,2.12.53.53,1.6.63,2.12,0,4-4.87,6.43-10.73,7.05-17,.08-.81-.75-1.5-1.5-1.5-.88,0-1.42.69-1.5,1.5h0Z"/>
    <g>
      <path class="l" d="M910.43,433.93c-2.96-23.7,9.51-77.13,35.9-164.84,4.88-16.21,13.23-99.99,55.87-38.23,0,0,24.41-51.02,67.64-22.06,0,0,33.82,17.64,0,60.29,0,0,68.22-10.32-5.88,69.11-30.1,32.26-80.92,113.29-137.38,110.76-8.32-.37-15.12-6.77-16.15-15.03Z"/>
      <path class="j" d="M1003.67,311.73s-57.84-44.99-72.57,93.37c-1.45,13.58,13.52,22.76,24.92,15.25,37.33-24.61,94.54-72.15,47.65-108.62Z"/>
      <path class="j" d="M1055.32,220.65s-35.43-24.21-36.92,47.45c-.2,7.14,9.23,11.37,15.65,7.11,20.74-13.39,50.91-36.77,21.27-54.56Z"/>
      <path class="j" d="M987.51,244.09c-.8,9.74-6.13,17.64-11.91,17.64s-11.05-7.9-11.78-17.64c-.73-9.74,4.6-17.64,11.91-17.64s12.58,7.9,11.78,17.64Z"/>
      <path class="j" d="M1076.16,307.36c-7.82,5.86-17.27,7.11-21.1,2.79s-1.42-13.51,5.39-20.52c6.81-7.01,16.26-8.26,21.1-2.79s2.43,14.66-5.39,20.52Z"/>
    </g>
    <g>
      <path class="l" d="M1038.24,477.19c4.11-10.72,21.5-30.54,52.55-61.74,5.74-5.77,28.25-39.38,32.34-3.55,0,0,21.9-16.1,33.66,5.97,0,0,10.34,15.14-13.65,25.55,0,0,31.25,11.08-18.14,27.96-20.06,6.86-59.96,29.69-83.31,15.84-3.44-2.04-4.88-6.29-3.44-10.03Z"/>
      <path class="j" d="M1105.43,446.51s-14.33-32.17-51.91,23.14c-3.69,5.43.58,12.71,7.11,12.11,21.39-1.98,56.41-9.17,44.8-35.25Z"/>
      <path class="j" d="M1147.95,419.61s-9.54-18.29-26.39,11.75c-1.7,2.98,1.33,6.91,5.02,6.56,11.82-.98,29.91-4.05,21.37-18.31Z"/>
      <path class="j" d="M1113.9,414.19c-2.55,3.95-6.6,6.09-9.04,4.78s-2.9-5.85-1-10.15c1.9-4.3,5.95-6.44,9.04-4.78s3.54,6.2,1,10.15Z"/>
      <path class="j" d="M1137.15,461.08c-4.64.71-8.93-.9-9.58-3.6s2.46-6.05,6.93-7.48,8.76.18,9.58,3.6c.82,3.42-2.29,6.76-6.93,7.48Z"/>
    </g>
    <g>
      <path class="l" d="M1152.01,234.55s-28.73-30.65-31.2,35.24c0,0,9.06,45.3,58.48,19.77,0,0,13.12-7.62,16.39-16.73,1.89-5.28,3.43-13.97-12.27-16.21,0,0,12.35-14.82-4.94-25.53,0,0-15.84-12.01-26.45,3.47Z"/>
      <path class="j" d="M1155.78,261.73c10.11,7.27,16.02,16.98,11.95,23.06-4.49,6.52-17.9,7.61-28.7,1.08-9.82-7.58-12.55-20.72-7.38-27.97,4.76-6.81,15-4.48,24.13,3.84Z"/>
      <path class="j" d="M1147.16,242.01c-.37,4.09-3.25,7.41-6.43,7.41s-6.06-3.32-6.43-7.41,2.51-7.41,6.43-7.41,6.8,3.32,6.43,7.41Z"/>
      <path class="j" d="M1186.13,275.48c-3.67,1.85-8.01,1.15-9.69-1.55s-.38-6.9,2.91-9.37,7.62-1.78,9.69,1.55c2.07,3.33.77,7.53-2.91,9.37Z"/>
      <path class="j" d="M1178.59,250.78c-4.45,4.95-12.32,6.81-17.33,3.71-4.9-3.29-5.83-11.21-2.3-17.29,3.39-5.83,10.61-6.53,16.39-2.04,5.95,4.19,7.53,10.95,3.24,15.62Z"/>
    </g>
    <g>
      <path class="l" d="M1249.17,331.56s28.68,30.7-37.23,28.8c0,0-44.6-12.04-15.85-59.66,0,0,8.47-12.59,17.78-15.25,5.4-1.54,14.16-2.5,15.36,13.32,0,0,15.61-11.35,25.15,6.62,0,0,10.93,16.6-5.21,26.16Z"/>
      <path class="j" d="M1222.3,326c-6.58-10.57-15.89-17.11-22.21-13.45-6.8,4.05-8.78,17.36-2.98,28.57,6.92,10.3,19.84,13.9,27.43,9.21,7.11-4.3,5.47-14.67-2.23-24.33Z"/>
      <path class="j" d="M1241.41,335.9c-4.11.1-7.61,2.75-7.82,5.93s2.91,6.27,6.97,6.91,7.56-2.02,7.82-5.93-2.86-7-6.97-6.91Z"/>
      <path class="j" d="M1210.6,294.81c-2.09,3.54-1.68,7.92.91,9.77s6.86.83,9.54-2.28,2.28-7.49-.91-9.77-7.46-1.26-9.54,2.28Z"/>
      <path class="j" d="M1234.74,303.96c-5.24,4.12-7.61,11.85-4.85,17.05,2.96,5.11,10.8,6.56,17.1,3.44,6.04-3,7.21-10.15,3.12-16.22-3.79-6.21-10.43-8.24-15.37-4.27Z"/>
    </g>
    <g>
      <path class="l" d="M1293.12,108.36c-.85-6.25,2.74-20.34,10.32-43.47,1.4-4.27,3.81-26.37,16.07-10.08,0,0,7.02-13.45,19.45-5.82,0,0,9.72,4.65,0,15.9,0,0,19.62-2.72-1.69,18.22-8.65,8.51-23.27,29.87-39.5,29.21-2.39-.1-4.35-1.78-4.64-3.96Z"/>
      <path class="j" d="M1319.94,76.13s-16.63-11.86-20.87,24.62c-.42,3.58,3.89,6,7.17,4.02,10.73-6.49,27.18-19.03,13.7-28.64Z"/>
      <path class="j" d="M1334.79,52.12s-10.19-6.38-10.62,12.51c-.06,1.88,2.65,3,4.5,1.87,5.96-3.53,14.64-9.7,6.12-14.39Z"/>
      <path class="j" d="M1315.29,58.3c-.23,2.57-1.76,4.65-3.42,4.65s-3.18-2.08-3.39-4.65,1.32-4.65,3.42-4.65,3.62,2.08,3.39,4.65Z"/>
      <path class="j" d="M1340.78,74.98c-2.25,1.55-4.97,1.88-6.07.74s-.41-3.56,1.55-5.41,4.67-2.18,6.07-.74.7,3.87-1.55,5.41Z"/>
    </g>
    <g>
      <path class="l" d="M1327.17,137.32c2.19-5.7,11.43-16.23,27.93-32.82,3.05-3.07,15.02-20.94,17.19-1.89,0,0,11.64-8.56,17.9,3.17,0,0,5.5,8.05-7.26,13.58,0,0,16.61,5.89-9.65,14.86-10.66,3.64-31.87,15.79-44.29,8.42-1.83-1.09-2.59-3.34-1.83-5.33Z"/>
      <path class="j" d="M1362.89,121.01s-7.62-17.1-27.59,12.3c-1.96,2.88.31,6.76,3.78,6.44,11.37-1.05,29.99-4.88,23.81-18.74Z"/>
      <path class="j" d="M1385.5,106.7s-5.07-9.72-14.03,6.25c-.9,1.58.71,3.67,2.67,3.49,6.29-.52,15.9-2.16,11.36-9.73Z"/>
      <path class="j" d="M1367.4,103.82c-1.35,2.1-3.51,3.24-4.81,2.54s-1.54-3.11-.53-5.39,3.16-3.42,4.81-2.54,1.88,3.3.53,5.39Z"/>
      <path class="j" d="M1379.75,128.75c-2.47.38-4.75-.48-5.09-1.91s1.31-3.22,3.68-3.98,4.66.1,5.09,1.91-1.22,3.6-3.68,3.98Z"/>
    </g>
    <g>
      <path class="l" d="M1366.65,15.33s-15.27-16.29-16.59,18.73c0,0,4.82,24.08,31.09,10.51,0,0,6.98-4.05,8.71-8.9,1.01-2.81,1.82-7.42-6.52-8.62,0,0,6.57-7.88-2.63-13.57,0,0-8.42-6.38-14.06,1.84Z"/>
      <path class="j" d="M1368.66,29.77c5.37,3.86,8.52,9.03,6.35,12.26-2.39,3.47-9.52,4.05-15.26.57-5.22-4.03-6.67-11.01-3.92-14.87,2.53-3.62,7.97-2.38,12.83,2.04Z"/>
      <path class="j" d="M1364.08,19.29c-.2,2.18-1.73,3.94-3.42,3.94s-3.22-1.76-3.42-3.94,1.34-3.94,3.42-3.94,3.61,1.76,3.42,3.94Z"/>
      <path class="j" d="M1384.79,37.08c-1.95.98-4.26.61-5.15-.83s-.2-3.67,1.55-4.98,4.05-.94,5.15.83.41,4-1.55,4.98Z"/>
      <path class="j" d="M1380.78,23.95c-2.37,2.63-6.55,3.62-9.21,1.97-2.6-1.75-3.1-5.96-1.22-9.19,1.8-3.1,5.64-3.47,8.71-1.08,3.16,2.23,4,5.82,1.72,8.3Z"/>
    </g>
    <g>
      <path class="l" d="M1418.31,66.89s15.25,16.32-19.79,15.31c0,0-23.71-6.4-8.43-31.71,0,0,4.5-6.69,9.45-8.1,2.87-.82,7.53-1.33,8.17,7.08,0,0,8.3-6.03,13.37,3.52,0,0,5.81,8.82-2.77,13.91Z"/>
      <path class="j" d="M1404.02,63.94c-3.5-5.62-8.45-9.1-11.81-7.15-3.62,2.15-4.67,9.23-1.58,15.19,3.68,5.47,10.55,7.39,14.58,4.9,3.78-2.29,2.91-7.8-1.19-12.93Z"/>
      <path class="j" d="M1414.18,69.2c-2.18.05-4.05,1.46-4.16,3.15s1.55,3.33,3.71,3.67,4.02-1.07,4.16-3.15-1.52-3.72-3.71-3.67Z"/>
      <path class="j" d="M1397.8,47.36c-1.11,1.88-.89,4.21.48,5.19s3.65.44,5.07-1.21,1.21-3.98-.48-5.19-3.96-.67-5.07,1.21Z"/>
      <path class="j" d="M1410.64,52.22c-2.78,2.19-4.05,6.3-2.58,9.06,1.58,2.71,5.74,3.49,9.09,1.83,3.21-1.59,3.83-5.4,1.66-8.62-2.02-3.3-5.54-4.38-8.17-2.27Z"/>
    </g>
    <g>
      <path class="l" d="M663.2,627.71c.69-7.16,7.86-22.03,21.38-46.06,2.5-4.44,10.46-28.5,18.93-7.56,0,0,10.52-13.38,21.32-2.03,0,0,8.77,7.41-3.96,17.71,0,0,20.72,1.45-6.27,19.91-10.96,7.5-31.22,27.96-47.63,23.5-2.42-.66-4-2.98-3.76-5.48Z"/>
      <path class="j" d="M698.62,597.94s-14.03-17.02-27.46,22.65c-1.32,3.89,2.48,7.58,6.32,6.12,12.58-4.78,32.51-14.98,21.14-28.77Z"/>
      <path class="j" d="M719.78,574.59s-8.82-9.44-13.96,11.51c-.53,2.08,1.96,3.95,4.13,3.12,6.97-2.57,17.37-7.45,9.84-14.63Z"/>
      <path class="j" d="M698.32,577.01c-.88,2.81-2.96,4.78-4.66,4.4s-2.73-3.05-2.3-5.96,2.51-4.88,4.66-4.4,3.18,3.15,2.3,5.96Z"/>
      <path class="j" d="M720.2,601.42c-2.68,1.21-5.54.95-6.38-.57s.47-4.06,2.93-5.67,5.32-1.36,6.38.57-.25,4.47-2.93,5.67Z"/>
    </g>
    <g>
      <path class="l" d="M699.5,662.31c3.38-5.08,14.7-13.35,34.43-25.93,3.65-2.32,19.23-17.15,17.19,1.91,0,0,13.23-5.81,16.77,7.01,0,0,3.61,9.05-10.05,11.67,0,0,14.93,9.38-12.66,12.4-11.2,1.23-34.55,8.44-45.06-1.46-1.55-1.46-1.8-3.83-.62-5.6Z"/>
      <path class="j" d="M737.92,654.2s-3.7-18.35-29.61,5.98c-2.54,2.39-1.18,6.66,2.28,7.11,11.33,1.46,30.33,1.79,27.33-13.08Z"/>
      <path class="j" d="M763.1,645.18s-2.82-10.59-15.06,3.03c-1.23,1.35-.11,3.74,1.84,3.98,6.25.87,15.99,1.37,13.21-7.02Z"/>
      <path class="j" d="M746.07,638.41c-1.78,1.75-4.13,2.39-5.25,1.43s-.82-3.37.66-5.38,3.83-2.65,5.25-1.43,1.12,3.63-.66,5.38Z"/>
      <path class="j" d="M752.68,665.44c-2.49-.17-4.53-1.5-4.55-2.98s1.98-2.85,4.46-3.07,4.52,1.11,4.55,2.98-1.97,3.24-4.46,3.07Z"/>
    </g>
    <g>
      <path class="l" d="M786.69,549.65s-11.35-19.23-20.28,14.66c0,0-.56,24.55,28.04,17.04,0,0,7.69-2.43,10.45-6.78,1.59-2.52,3.4-6.85-4.48-9.83,0,0,8.13-6.26.4-13.82,0,0-6.82-8.07-14.12-1.27Z"/>
      <path class="j" d="M785.49,564.19c4.4,4.94,6.34,10.67,3.52,13.35-3.09,2.86-10.17,1.87-15.02-2.77-4.21-5.07-4.11-12.21-.58-15.37,3.26-2.98,8.3-.58,12.07,4.79Z"/>
      <path class="j" d="M783.31,552.96c-.67,2.08-2.54,3.47-4.2,3.1s-2.76-2.43-2.48-4.59,2.16-3.55,4.2-3.1,3.14,2.51,2.48,4.59Z"/>
      <path class="j" d="M799.64,574.84c-2.12.53-4.29-.33-4.85-1.93s.61-3.62,2.6-4.52,4.16-.04,4.85,1.93-.48,3.99-2.6,4.52Z"/>
      <path class="j" d="M798.6,561.15c-2.89,2.05-7.18,2.1-9.42-.09-2.16-2.28-1.72-6.49.81-9.24,2.44-2.63,6.26-2.15,8.74.85,2.6,2.87,2.64,6.56-.13,8.48Z"/>
    </g>
    <g>
      <path class="l" d="M825.83,611.26s11.31,19.25-22.66,10.62c0,0-21.74-11.42-1.3-32.79,0,0,5.85-5.55,11-5.84,2.98-.17,7.64.35,6.42,8.69,0,0,9.42-4.07,12.28,6.35,0,0,3.74,9.88-5.74,12.97Z"/>
      <path class="j" d="M812.54,605.25c-2.19-6.25-6.25-10.72-9.96-9.56-4,1.31-6.57,7.99-4.86,14.47,2.39,6.14,8.68,9.51,13.16,7.96,4.19-1.41,4.54-6.98,1.67-12.88Z"/>
      <path class="j" d="M821.3,612.61c-2.14-.43-4.27.54-4.75,2.17s.78,3.59,2.81,4.39,4.16-.17,4.75-2.17-.67-3.96-2.81-4.39Z"/>
      <path class="j" d="M810.09,587.71c-1.49,1.6-1.79,3.91-.66,5.17s3.46,1.23,5.22-.07,2.05-3.62.66-5.17-3.72-1.52-5.22.07Z"/>
      <path class="j" d="M821.55,595.26c-3.2,1.53-5.32,5.26-4.5,8.28.94,2.99,4.84,4.66,8.47,3.77,3.48-.85,4.92-4.43,3.5-8.05-1.24-3.66-4.45-5.49-7.48-4Z"/>
    </g>
    <g>
      <path class="l" d="M234.53,618.08c4.97-1.2,16.63.16,35.91,3.65,3.56.64,21.57.4,9.48,10.95,0,0,11.44,3.96,6.32,13.84,0,0-2.93,7.62-12.82,1.46,0,0,3.84,14.25-14.83.42-7.58-5.62-26.04-14.46-26.87-26.53-.12-1.78,1.07-3.38,2.8-3.8Z"/>
      <path class="j" d="M262.76,634.94s8.16-13.38-21.6-13.17c-2.92.02-4.51,3.43-2.64,5.67,6.13,7.34,17.62,18.35,24.24,7.5Z"/>
      <path class="j" d="M283.37,643.72s4.29-8.12-10.98-6.7c-1.52.13-2.19,2.24-1.13,3.5,3.35,4.09,9.05,9.93,12.11,3.2Z"/>
      <path class="j" d="M276.75,629.87c-2.09.07-3.9-.88-4.04-2.11s1.41-2.54,3.47-2.93,3.86.55,4.04,2.11-1.38,2.87-3.47,2.93Z"/>
      <path class="j" d="M265.45,650.25c-1.44-1.52-1.93-3.5-1.1-4.42s2.84-.63,4.49.65,2.15,3.26,1.1,4.42-3.06.87-4.49-.65Z"/>
    </g>
    <g>
      <path class="l" d="M219.73,651.51c4.2,1.09,12.38,6.77,25.42,17.09,2.41,1.91,15.99,8.93,2.71,11.99,0,0,6.98,7.53-.8,12.89,0,0-5.24,4.53-10.18-4.03,0,0-2.82,12.21-11.27-5.62-3.43-7.24-13.71-21.24-9.5-30.6.62-1.38,2.15-2.1,3.62-1.72Z"/>
      <path class="j" d="M234.12,675.43s11.46-6.75-10.9-18.5c-2.19-1.15-4.75.76-4.24,3.19,1.66,7.95,5.85,20.79,15.15,15.31Z"/>
      <path class="j" d="M246.04,690.24s6.46-4.36-5.54-9.41c-1.19-.51-2.54.8-2.25,2.17.87,4.4,2.8,11.06,7.79,7.24Z"/>
      <path class="j" d="M246.62,677.23c-1.59-.79-2.57-2.22-2.18-3.19s2.07-1.34,3.77-.81,2.67,1.96,2.18,3.19-2.18,1.6-3.77.81Z"/>
      <path class="j" d="M230.01,687.96c-.47-1.71-.04-3.39.94-3.75s2.38.66,3.1,2.28.31,3.3-.94,3.75-2.64-.57-3.1-2.28Z"/>
    </g>
    <g>
      <path class="l" d="M326.69,677.86s10.28-12.1-14.56-10.21c0,0-16.62,5.34-4.92,22.8,0,0,3.42,4.6,6.98,5.44,2.06.48,5.39.69,5.56-5.3,0,0,6.09,4.01,9.37-2.95,0,0,3.83-6.46-2.43-9.78Z"/>
      <path class="j" d="M316.64,680.44c-2.3,4.11-5.69,6.74-8.15,5.47-2.64-1.41-3.62-6.4-1.63-10.73,2.43-4.01,7.24-5.6,10.19-3.96,2.76,1.5,2.32,5.44-.41,9.22Z"/>
      <path class="j" d="M323.68,676.36c-1.55.04-2.92-.9-3.06-2.1s.99-2.42,2.51-2.73,2.89.63,3.06,2.1-.96,2.69-2.51,2.73Z"/>
      <path class="j" d="M312.78,692.42c-.85-1.3-.77-2.96.17-3.7s2.57-.44,3.64.69.99,2.79-.17,3.7-2.79.61-3.64-.69Z"/>
      <path class="j" d="M321.73,688.53c-2.05-1.46-3.08-4.34-2.13-6.35,1.03-1.98,3.96-2.67,6.39-1.6,2.33,1.02,2.9,3.7,1.47,6.07-1.32,2.41-3.79,3.3-5.73,1.88Z"/>
    </g>
    <g>
      <path class="l" d="M136.51,485.96c2.9,1.44,8,6.86,15.92,16.42,1.46,1.77,10.3,9,.12,9.18,0,0,3.93,6.58-2.58,9.29,0,0-4.53,2.5-6.81-4.52,0,0-3.95,8.48-7.36-5.85-1.38-5.82-6.72-17.64-2.2-23.82.67-.91,1.9-1.2,2.91-.7Z"/>
      <path class="j" d="M143.32,505.66s9.42-3.16-5.1-15.2c-1.42-1.18-3.59-.18-3.59,1.67-.02,6.06,1.05,16.09,8.69,13.53Z"/>
      <path class="j" d="M149.73,518.32s5.39-2.18-2.59-7.73c-.79-.56-1.98.19-1.98,1.23-.04,3.35.33,8.51,4.56,6.5Z"/>
      <path class="j" d="M152.17,508.91c-1.04-.82-1.53-2.02-1.1-2.67s1.72-.66,2.88,0,1.65,1.84,1.1,2.67-1.84.83-2.88,0Z"/>
      <path class="j" d="M138.37,514.17c-.08-1.32.49-2.48,1.27-2.59s1.63.85,1.91,2.15-.29,2.46-1.27,2.59-1.84-.82-1.91-2.15Z"/>
    </g>
    <g>
      <path class="l" d="M116.1,495.64c1.59,2.24,3.24,8.33,5.35,18.66.39,1.91,4.11,10.85-3.58,6.92,0,0,.31,6.5-5.65,5.92,0,0-4.39.06-3.29-6.11,0,0-6.35,4.77-3.17-7.32,1.29-4.91,2.02-15.89,7.88-18.71.86-.42,1.9-.14,2.46.64Z"/>
      <path class="j" d="M113.32,513.11s8.31,1.4,2.26-13.42c-.59-1.45-2.61-1.57-3.36-.19-2.44,4.53-5.65,12.47,1.09,13.6Z"/>
      <path class="j" d="M113.05,525.15s4.91.52,1.15-6.82c-.37-.73-1.56-.65-1.97.13-1.37,2.49-3.15,6.5.82,6.69Z"/>
      <path class="j" d="M118.64,519.08c-.45-1.03-.34-2.12.24-2.44s1.55.2,2.16,1.15.5,2.04-.24,2.44-1.71-.11-2.16-1.15Z"/>
      <path class="j" d="M106.21,517.5c.47-1.02,1.36-1.66,1.99-1.43s.88,1.29.57,2.37-1.2,1.72-1.99,1.43-1.05-1.35-.57-2.37Z"/>
    </g>
    <g>
      <path class="l" d="M149.42,550.49s9.92-1.67-2.89-10.89c0,0-10.23-4.2-11.69,9.04,0,0-.22,3.63,1.17,5.49.8,1.08,2.33,2.54,4.86-.3,0,0,1.32,4.43,5.75,2.4,0,0,4.49-1.57,2.81-5.73Z"/>
      <path class="j" d="M143.5,547.64c-2.79,1.05-5.51.95-6.18-.67-.71-1.76.86-4.58,3.59-5.87,2.81-.95,5.8.24,6.56,2.24.73,1.85-1.09,3.59-3.96,4.3Z"/>
      <path class="j" d="M148.58,548.53c-.77-.62-1.05-1.63-.63-2.26s1.47-.77,2.33-.3,1.15,1.48.63,2.26-1.56.92-2.33.3Z"/>
      <path class="j" d="M136.74,551.87c.12-.98.83-1.75,1.59-1.73s1.43.84,1.48,1.82-.66,1.76-1.59,1.73-1.6-.84-1.48-1.82Z"/>
      <path class="j" d="M142.66,553.64c-.4-1.54.27-3.36,1.56-3.95,1.31-.54,3.01.32,3.75,1.83.71,1.45-.1,2.98-1.77,3.54-1.62.63-3.18.05-3.54-1.42Z"/>
    </g>
    <g>
      <path class="l" d="M117.2,557.01s-9.92,1.65-.81-11.24c0,0,8.31-7.3,14,4.74,0,0,1.39,3.36.68,5.57-.41,1.28-1.38,3.16-4.69,1.3,0,0,.19,4.62-4.65,4.14,0,0-4.76-.02-4.53-4.51Z"/>
      <path class="j" d="M121.87,552.39c2.98.09,5.52-.9,5.63-2.65.09-1.89-2.3-4.05-5.3-4.38-2.97.02-5.4,2.12-5.47,4.25-.08,1.99,2.2,3.03,5.15,2.78Z"/>
      <path class="j" d="M117.36,554.89c.53-.83.46-1.88-.15-2.35s-1.64-.25-2.3.48-.6,1.78.15,2.35,1.78.36,2.3-.48Z"/>
      <path class="j" d="M129.64,554.19c-.43-.89-1.36-1.38-2.07-1.11s-1.08,1.26-.81,2.21,1.19,1.45,2.07,1.11,1.24-1.32.81-2.21Z"/>
      <path class="j" d="M124.61,557.79c-.13-1.59-1.35-3.09-2.76-3.23-1.41-.09-2.74,1.29-2.95,2.95-.2,1.6,1.07,2.78,2.82,2.77,1.74.07,3.03-.99,2.89-2.5Z"/>
    </g>
    <g>
      <path class="l" d="M13.48,394.95c2.31-.39,7.61.62,16.33,2.85,1.61.41,9.87.89,3.98,5.33,0,0,5.11,2.19,2.44,6.55,0,0-1.59,3.39-5.92.25,0,0,1.29,6.66-6.81-.3-3.29-2.82-11.45-7.48-11.44-13.04,0-.82.6-1.51,1.41-1.65Z"/>
      <path class="j" d="M25.86,403.61s4.18-5.86-9.46-6.74c-1.34-.09-2.18,1.42-1.4,2.51,2.57,3.56,7.47,8.99,10.86,4.23Z"/>
      <path class="j" d="M35.01,408.31s2.23-3.58-4.81-3.43c-.7,0-1.08.95-.63,1.57,1.4,1.98,3.82,4.85,5.44,1.87Z"/>
      <path class="j" d="M32.43,401.75c-.96-.04-1.76-.53-1.78-1.1s.73-1.12,1.68-1.23,1.75.38,1.78,1.1-.72,1.27-1.68,1.23Z"/>
      <path class="j" d="M26.58,410.71c-.61-.74-.77-1.67-.36-2.06s1.32-.19,2.04.45.88,1.56.36,2.06-1.43.3-2.04-.45Z"/>
    </g>
    <g>
      <path class="l" d="M5.63,409.32c1.89.64,5.45,3.51,11.08,8.67,1.04.95,7.03,4.62.85,5.58,0,0,2.95,3.68-.79,5.88,0,0-2.55,1.9-4.53-2.18,0,0-1.7,5.5-4.98-2.94-1.33-3.43-5.58-10.18-3.35-14.33.33-.61,1.06-.89,1.71-.67Z"/>
      <path class="j" d="M11.44,420.75s5.47-2.72-4.39-8.83c-.97-.6-2.2.19-2.05,1.32.5,3.7,2,9.72,6.43,7.51Z"/>
      <path class="j" d="M16.41,427.93s3.1-1.79-2.23-4.49c-.53-.27-1.19.28-1.1.92.26,2.04.92,5.16,3.33,3.57Z"/>
      <path class="j" d="M17.1,421.99c-.7-.41-1.1-1.1-.89-1.53s.99-.54,1.75-.25,1.16.98.89,1.53-1.05.66-1.75.25Z"/>
      <path class="j" d="M9.14,426.36c-.16-.8.09-1.56.55-1.69s1.07.38,1.35,1.15.03,1.52-.55,1.69-1.19-.35-1.35-1.15Z"/>
    </g>
    <g>
      <path class="l" d="M48.53,427.3s5.11-5.2-6.34-5.16c0,0-7.79,1.9-3.01,10.28,0,0,1.42,2.22,3.02,2.72.93.29,2.45.49,2.72-2.24,0,0,2.66,2.04,4.39-1.04,0,0,1.97-2.83-.79-4.56Z"/>
      <path class="j" d="M43.84,428.15c-1.19,1.81-2.83,2.9-3.91,2.24-1.16-.73-1.45-3.05-.39-4.97,1.24-1.76,3.5-2.33,4.8-1.48,1.22.78.89,2.57-.49,4.21Z"/>
      <path class="j" d="M47.2,426.52c-.71-.03-1.31-.51-1.33-1.06s.53-1.08,1.24-1.17,1.3.38,1.33,1.06-.53,1.2-1.24,1.17Z"/>
      <path class="j" d="M41.68,433.51c-.35-.62-.26-1.38.2-1.69s1.19-.12,1.65.44.36,1.31-.2,1.69-1.3.19-1.65-.44Z"/>
      <path class="j" d="M45.91,432.03c-.89-.74-1.27-2.09-.77-2.98.54-.87,1.9-1.09,2.98-.52,1.04.55,1.21,1.79.47,2.83-.68,1.06-1.84,1.39-2.68.67Z"/>
    </g>
    <g>
      <path class="l" d="M32.41,444.85s-5.12,5.19-5.26-6.25c0,0,1.77-7.82,10.23-3.18,0,0,2.24,1.38,2.77,2.97.31.92.54,2.44-2.2,2.76,0,0,2.08,2.62-.97,4.41,0,0-2.8,2.02-4.57-.71Z"/>
      <path class="j" d="M33.18,440.15c1.79-1.22,2.85-2.88,2.17-3.95-.75-1.15-3.07-1.4-4.98-.31-1.74,1.27-2.27,3.54-1.4,4.82.8,1.2,2.58.84,4.2-.56Z"/>
      <path class="j" d="M31.6,443.54c-.05-.71-.53-1.3-1.08-1.31s-1.07.55-1.15,1.26.4,1.3,1.08,1.31,1.19-.55,1.15-1.26Z"/>
      <path class="j" d="M38.5,437.9c-.63-.34-1.38-.23-1.69.23s-.1,1.2.46,1.64,1.31.34,1.69-.23.16-1.3-.46-1.64Z"/>
      <path class="j" d="M37.09,442.15c-.75-.88-2.11-1.23-2.99-.72-.86.55-1.06,1.92-.47,2.99.56,1.03,1.81,1.18,2.84.42,1.05-.7,1.35-1.87.63-2.7Z"/>
    </g>
    <text class="f" transform="translate(78.96 85.85)"><tspan x="0" y="0">探索兔兔小宇宙</tspan></text>
    <g>
      <path class="n" d="M377.28,433.62h0c31.29-2.68,56.66,19.66,56.66,49.9v50.43c0,26.58-22.3,50.03-49.8,52.38l-13.72,1.17c-27.51,2.35-49.8-17.28-49.8-43.86v-50.43c0-30.24,25.37-56.92,56.66-59.6Z"/>
      <ellipse class="n" cx="350.34" cy="365.06" rx="106.76" ry="84.02" transform="translate(-78.44 96.44) rotate(-14.11)"/>
      <path class="n" d="M286.2,218.31l2.16,4.86,26.98,74.63c2.83,10.19-1.28,21.53-8.84,25.24h0c-8.32,4.13-19.17-1.46-24.67-12.37l-44-72.98,4.49-1.82"/>
      <path class="n" d="M210.13,291.21l-2.43-3.51c-8.42-12.17-8.97-30.03-.73-39.25l49.07-43.63c8.01-5.65,18.67-4,23.48,3.29l7.13,10.87c3.02,4.63,1.32,11.95-3.65,16.53l-48.81,57.06c-6.31,9.43-16.91,9.04-24.07-1.35Z"/>
      <path class="n" d="M330.61,301.37h0c-10.16,1.17-20.35-6.16-22.56-16.38l-17.58-114.93c-.92-10.27,11.56-19.74,27.69-21.15h0c16.02-1.4,28.43,5.85,27.9,16.18l1.24,115.56c.75,10.28-6.63,19.55-16.69,20.72Z"/>
      <ellipse class="k" cx="361.7" cy="363.35" rx="77.32" ry="61.23" transform="translate(-117.53 181.18) rotate(-24.32)"/>
      <path class="n" d="M399.93,447.09l73.61,55.36c6.3,4.74,16.23,3.66,22.17-2.42l2.63-2.69c5.94-6.08,5.64-14.85-.66-19.59l-51.1-38.43c-12.43-9.35-32-7.21-43.71,4.77l-2.94,3Z"/>
      <path class="n" d="M353.92,465.22l-68.22,61.88c-5.84,5.3-15.83,5.13-22.3-.37l-2.87-2.44c-6.47-5.51-6.98-14.27-1.14-19.57l47.36-42.96c11.52-10.45,31.2-10.12,43.97.74l3.2,2.72Z"/>
      <rect class="n" x="334.91" y="567.11" width="31.82" height="111.03" rx="9.79" ry="9.79"/>
      <path class="n" d="M341.68,653.54h33.06c4.04,0,7.33,3.28,7.33,7.33v21.28h-25.87c-11.9,0-21.56-9.66-21.56-21.56h0c0-3.89,3.16-7.05,7.05-7.05Z" transform="translate(716.69 1335.68) rotate(180)"/>
      <rect class="n" x="408.9" y="551.11" width="31.82" height="64.03" rx="9.79" ry="9.79" transform="translate(1111.18 805.4) rotate(144.02)"/>
      <rect class="n" x="420.9" y="590.11" width="31.82" height="73.03" rx="9.79" ry="9.79" transform="translate(873.63 1253.26) rotate(180)"/>
      <path class="n" d="M428.11,644.54h45.79c4.04,0,7.33,3.28,7.33,7.33v18.72c0,1.41-1.15,2.56-2.56,2.56h-36.05c-11.9,0-21.56-9.66-21.56-21.56h0c0-3.89,3.16-7.05,7.05-7.05Z" transform="translate(902.28 1317.68) rotate(-180)"/>
      <path d="M331.38,315.52c3.81-.86,7.35-3.62,7.81-7.72.21-1.87-.26-3.82-1.37-5.34s-3.11-2.74-5.01-2-2.48,2.97-1.98,4.76c.49,1.76,1.65,4.05,3.69,4.21.87.07,1.71-.17,2.54-.41.98-.28,1.95-.58,2.84-1.09,1.9-1.08,2.94-2.82,3.19-4.97.58-4.83-.84-10.09-3.16-14.31-.92-1.68-3.67-.46-2.73,1.24,1.42,2.58,2.37,5.34,2.77,8.26.32,2.37.86,5.98-1.71,7.27-.55.27-1.12.48-1.71.66-.43.13-1.28.5-1.73.39-.55-.14-1.26-2.03-1.18-2.65.15-1.18,1.29-.15,1.7.36.65.8.93,1.88.9,2.91-.1,2.9-2.68,4.89-5.32,5.49-1.88.43-1.42,3.39.46,2.96h0Z"/>
      <g>
        <circle cx="337.57" cy="379.38" r="10.73"/>
        <circle cx="388.07" cy="356.56" r="10.73"/>
      </g>
      <g>
        <path class="e" d="M613.2,400.54c-52.4-131.49,11.94-281.09,143.43-333.49,131.49-52.4,281.09,11.94,333.49,143.43,52.4,131.49-11.94,281.09-143.43,333.49-131.49,52.4-281.09-11.94-333.49-143.43ZM1047.86,227.32c-43.12-108.19-166.2-161.12-274.39-118.01-108.19,43.12-161.12,166.2-118.01,274.39,43.12,108.19,166.2,161.12,274.39,118.01,108.19-43.12,161.12-166.2,118.01-274.39Z"/>
        <path class="d" d="M453.53,308.04h49.68v346.78c0,2.29-1.86,4.15-4.15,4.15h-41.38c-2.29,0-4.15-1.86-4.15-4.15v-346.78h0Z" transform="translate(750.43 -139.87) rotate(68.27)"/>
      </g>
      <rect class="p" x="249.97" y="492.05" width="248.24" height="68" rx="17.72" ry="17.72" transform="translate(-168.17 175.87) rotate(-21.73)"/>
      <path class="n" d="M339.71,555.06h0c7.5-6.81,5.45-17.65-4.64-24.43l-45.96-31.8c-6.26-4.45-14.91-4.43-19.28.12l-9.94,10.6c-4.45,4.86-2.87,12.41,3.51,16.77l44.9,29.86c9.95,6.4,23.97,5.8,31.42-1.13Z"/>
      <path class="n" d="M472.3,488.24h0c7.06-5.39,16.67-6.87,21.61-3.43l23.13,14.71c3.23,1.89,2.19,6.23-2.38,9.74l-10.58,8.14c-4.82,3.72-11.36,5.08-14.54,3l-21.8-15.56c-4.69-3.66-2.58-11.15,4.56-16.6Z"/>
    </g>
    <rect class="i" x="302.73" y="364.17" width="56.1" height="35.86" transform="translate(-135.6 187.4) rotate(-26.46)"/>
    <rect class="i" x="368" y="331.69" width="56.1" height="35.86" transform="translate(-114.29 213.08) rotate(-26.46)"/>
    <path class="g" d="M355.8,373.06c.43-.79,4.83-8.6,12.72-9.05,2.28-.13,4.24.39,5.7.98"/>
    <g>
      <path class="m" d="M446.16,251.38h0c-9.25-3.54-14.44-19.9-11.6-36.56h0c2.84-16.65,17.7-25.35,33.17-19.43h0c15.48,5.92,20.67,22.28,11.6,36.56h0c-9.07,14.27-23.92,22.97-33.17,19.43Z"/>
      <g>
        <rect class="o" x="432.59" y="243.85" width="31" height="8.57" rx="4.28" ry="4.28" transform="translate(118.2 -143.69) rotate(20.93)"/>
        <rect class="o" x="430" y="250.63" width="31" height="8.57" rx="4.28" ry="4.28" transform="translate(120.44 -142.32) rotate(20.93)"/>
        <rect class="o" x="427.17" y="258.01" width="31" height="8.57" rx="4.28" ry="4.28" transform="translate(122.9 -140.82) rotate(20.93)"/>
        <rect class="o" x="434.98" y="262.69" width="10.33" height="8.57" rx="4.28" ry="4.28" transform="translate(124.4 -139.61) rotate(20.93)"/>
      </g>
      <path class="h" d="M444.15,242.05l8.09-21.16s8.12-6.16,10.62,4.06l-8.09,21.16"/>
    </g>
  </g>
</svg>