<?xml version="1.0" encoding="UTF-8"?>
<svg id="b" data-name="圖層 2" xmlns="http://www.w3.org/2000/svg" viewBox="0 0 665.73 495.54">
  <defs>
    <style>
      .d, .e {
        fill: #4d4d70;
      }

      .f {
        fill: #fff;
      }

      .g {
        fill: #f9e8e8;
      }

      .h {
        fill: #f9f9f9;
      }

      .i {
        fill: #9db3f8;
      }

      .j {
        fill: #ddf3fb;
      }

      .k {
        fill: none;
        stroke-width: 2px;
      }

      .k, .e {
        stroke: #4d4d70;
        stroke-miterlimit: 10;
      }
    </style>
  </defs>
  <g id="c" data-name="圖層 48">
    <path class="i" d="M166.81,321.82h5.95c33.83,0,66.25,61,62.25,89-3.25,22.74-25.1,64-54.83,64h-20.78c-29.73,0-53.83-24.1-53.83-53.83v-37.92c0-33.83,27.42-61.25,61.25-61.25Z"/>
    <ellipse class="i" cx="164.09" cy="242.28" rx="119.44" ry="94" transform="translate(-37.36 30.04) rotate(-9.4)"/>
    <path class="i" d="M102.5,72.8l2.45,5.61,25.19,84.62c1.7,11.34-5,23.71-14.22,27.61h0c-9.94,4.41-20.65-2.39-24.83-15.18l-42.2-87.42,4.85-1.45"/>
    <path class="i" d="M4.76,144.19l-1.78-4.32c-6.19-15.02-2.46-34.89,8.72-43.47l63.8-37.68c10.06-4.39,21.42-.12,25.12,8.97l5.49,13.49c2.32,5.72-1.21,13.25-7.78,17.09l-67.57,51.93c-9.24,9.13-20.75,6.75-26-6Z"/>
    <path class="i" d="M179.63,172.07h0c-11.3.42-21.34-8.76-22.47-20.51l-14.93-132.4c-1.53-11.86,11.78-20.38,29.78-19.02h0c18.04,1.37,32.62,11.76,32.52,23.18l-3.41,127.52c-.5,11.32-10.15,20.81-21.49,21.23Z"/>
    <ellipse class="g" cx="166.34" cy="254.58" rx="86.5" ry="68.5" transform="translate(-39.33 30.58) rotate(-9.4)"/>
    <path class="i" d="M180.6,357.85l114.41-14.79c9.8-1.27,17.75-10,17.76-19.51v-4.22c.01-9.51-7.92-16.19-17.72-14.93l-79.42,10.27c-19.32,2.5-35,19.72-35.01,38.48v4.7Z"/>
    <path class="i" d="M346.82,299.38h0c2.47,9.74-2.53,20.96-10.96,24.98l-36.52,17.6c-4.74,2.31-10.14-.49-12.13-6.22l-4.73-13.07c-2.21-5.87.12-12.61,5.29-15.1l38.13-18.14c8.86-4.18,18.32.24,20.91,9.93Z"/>
    <path class="i" d="M145.55,329.7l-53.56,129.86c-4.59,11.12-15.77,18.17-24.98,15.75l-4.08-1.07c-9.21-2.42-12.96-13.4-8.37-24.53l37.18-90.15c9.04-21.93,31.1-35.84,49.25-31.06l4.55,1.2Z"/>
    <rect class="i" x="250.17" y="368.51" width="33.51" height="144.32" rx="9.79" ry="9.79" transform="translate(-204.2 649.18) rotate(-82.67)"/>
    <path class="i" d="M353.24,462.92l4.07-31.62c.45-3.53-2.04-6.76-5.57-7.21l-4.68-.6c-10.8-1.39-20.68,6.24-22.07,17.04l-3.23,25.1,23.98,3.09c3.67.47,7.03-2.12,7.5-5.79Z"/>
    <path class="i" d="M301.81,454.55h35.39c3.7,0,6.7,3,6.7,6.7v24.18h-24.1c-13.49,0-24.43-10.95-24.43-24.43h0c0-3.56,2.89-6.44,6.44-6.44Z" transform="translate(839.28 239.7) rotate(100.32)"/>
    <path d="M147.52,193.97c4.2.15,8.59-1.81,10.26-5.87.76-1.85.9-4.02.21-5.91s-2.28-3.84-4.49-3.77-3.51,2.14-3.62,4.12c-.11,2.09.57,5.04,2.78,5.79,1.76.59,4.31.34,6.08-.12,2.14-.56,3.7-1.99,4.58-4.01,2.22-5.14,2.14-11.43.82-16.78-.46-1.87-3.36-1.08-2.89.8,1.05,4.25,1.06,8.69-.06,12.93-.46,1.73-1.05,3.45-2.89,4.07-.81.27-1.67.33-2.51.35-.5.02-1.84.22-2.24-.11-.75-.62-1.16-4.66.5-3.89,1.35.63,1.54,2.98,1.33,4.21-.64,3.69-4.44,5.31-7.84,5.19-1.93-.07-1.93,2.93,0,3h0Z"/>
    <g>
      <circle cx="135.64" cy="264.96" r="12"/>
      <circle cx="196.8" cy="254.84" r="12"/>
    </g>
    <path class="i" d="M28.71,460.09h0c.95-9.14,8.22-16.81,16.19-17.11l35.96-1.4c4.85-.19,7.55,4.34,6.04,10.12l-3.4,13.22c-1.5,5.96-6.39,10.85-10.95,10.93l-32.34.55c-7.23.12-12.4-7.18-11.5-16.3Z"/>
    <path class="i" d="M331.16,469.69l-2.7,15.14c-1.05,5.87-6.89,9.91-13.05,9.03l-158.86-22.85c-6.16-.89-10.31-6.36-9.26-12.23l2.7-15.14c1.05-5.87,6.89-9.91,13.05-9.03l158.86,22.85c6.16.89,10.31,6.36,9.26,12.23Z"/>
    <path class="h" d="M200.26,432.07c13.72,2.96,27.32,6.44,40.77,10.43,13.44,3.99,26.76,8.4,40.12,12.65,7.63,2.43,15.27,4.86,22.9,7.29,1.84.59,2.63-2.31.8-2.89-13.54-4.31-27.07-8.62-40.61-12.93-13.3-4.23-26.59-8.42-40.1-11.94-7.66-2-15.36-3.83-23.09-5.5-1.88-.41-2.69,2.48-.8,2.89h0Z"/>
    <path class="h" d="M306.93,461.31c2.61-1.08,5.11-2.36,7.45-3.95s4.28-3.61,6.76-4.9c3.98-2.08,12.26-3.6,14.07,2.12.58,1.83,3.48,1.05,2.89-.8-2.07-6.53-9.84-6.98-15.38-5.2-3.07.99-5.38,2.77-7.88,4.74-2.64,2.09-5.6,3.81-8.71,5.1-1.76.73-.99,3.63.8,2.89h0Z"/>
    <path class="j" d="M351.73,225.99s32-56,77-53,60,21,64,31c0,0,26,51-39,73,0,0-42.21,21.64-104.6-5.68l-12.4-5.32c-6-28,13-40,13-40h2Z"/>
    <g>
      <g>
        <path class="d" d="M340.75,275.24c-2.03-.61-.38-6.53-1.7-8.48-1.1-1.63-7.34-1.31-7.89-3.64-.46-1.97,5.21-4.87,5.18-7.19-.03-2.07-5.84-4.67-5.5-6.91.31-2.08,6.63-2.91,7.27-5.06s-4.18-6.31-3.3-8.22c.95-2.07,7.24-1.04,8.39-2.76,1.3-1.92-1.85-7.46-.38-8.85,1.73-1.65,6.78,2.05,8.59,1.29,2.17-.91,4.04-6.77,6.07-6.16s.38,6.53,1.7,8.48c1.1,1.63,7.34,1.31,7.89,3.64.46,1.97-5.21,4.87-5.18,7.19.03,2.07,5.84,4.67,5.5,6.91-.31,2.08-6.63,2.91-7.27,5.06s4.18,6.31,3.3,8.22c-.95,2.07-7.24,1.04-8.39,2.76-1.3,1.92,1.85,7.46.38,8.85-1.73,1.65-6.78-2.05-8.59-1.29-2.17.91-4.04,6.77-6.07,6.16ZM354.44,229.45c-1.67-.5-3.76-5.96-5.54-5.22-1.49.63.24,6.59-1.19,7.95-1.21,1.15-6.92-1.32-7.99.27-.95,1.41,3.38,5.91,2.6,7.61-.72,1.57-6.96,1.14-7.49,2.91s4.92,4.83,4.66,6.54c-.28,1.85-6.37,3.24-6.35,4.94.02,1.91,6.15,2.99,6.53,4.61.45,1.92-4.27,5.95-3.37,7.29,1.08,1.6,5.82-1.82,7.49-1.32s3.76,5.96,5.54,5.22c1.49-.63-.24-6.59,1.19-7.95,1.21-1.15,6.92,1.32,7.99-.27.95-1.41-3.38-5.91-2.6-7.61.72-1.57,6.96-1.14,7.49-2.91s-4.92-4.83-4.66-6.54c.28-1.85,6.37-3.24,6.35-4.94-.02-1.91-6.15-2.99-6.53-4.61-.45-1.92,4.27-5.95,3.37-7.29-1.08-1.6-5.82,1.82-7.49,1.32Z"/>
        <path class="k" d="M340.75,275.24c-2.03-.61-.38-6.53-1.7-8.48-1.1-1.63-7.34-1.31-7.89-3.64-.46-1.97,5.21-4.87,5.18-7.19-.03-2.07-5.84-4.67-5.5-6.91.31-2.08,6.63-2.91,7.27-5.06s-4.18-6.31-3.3-8.22c.95-2.07,7.24-1.04,8.39-2.76,1.3-1.92-1.85-7.46-.38-8.85,1.73-1.65,6.78,2.05,8.59,1.29,2.17-.91,4.04-6.77,6.07-6.16s.38,6.53,1.7,8.48c1.1,1.63,7.34,1.31,7.89,3.64.46,1.97-5.21,4.87-5.18,7.19.03,2.07,5.84,4.67,5.5,6.91-.31,2.08-6.63,2.91-7.27,5.06s4.18,6.31,3.3,8.22c-.95,2.07-7.24,1.04-8.39,2.76-1.3,1.92,1.85,7.46.38,8.85-1.73,1.65-6.78-2.05-8.59-1.29-2.17.91-4.04,6.77-6.07,6.16ZM354.44,229.45c-1.67-.5-3.76-5.96-5.54-5.22-1.49.63.24,6.59-1.19,7.95-1.21,1.15-6.92-1.32-7.99.27-.95,1.41,3.38,5.91,2.6,7.61-.72,1.57-6.96,1.14-7.49,2.91s4.92,4.83,4.66,6.54c-.28,1.85-6.37,3.24-6.35,4.94.02,1.91,6.15,2.99,6.53,4.61.45,1.92-4.27,5.95-3.37,7.29,1.08,1.6,5.82-1.82,7.49-1.32s3.76,5.96,5.54,5.22c1.49-.63-.24-6.59,1.19-7.95,1.21-1.15,6.92,1.32,7.99-.27.95-1.41-3.38-5.91-2.6-7.61.72-1.57,6.96-1.14,7.49-2.91s-4.92-4.83-4.66-6.54c.28-1.85,6.37-3.24,6.35-4.94-.02-1.91-6.15-2.99-6.53-4.61-.45-1.92,4.27-5.95,3.37-7.29-1.08-1.6-5.82,1.82-7.49,1.32Z"/>
      </g>
      <path class="e" d="M334.51,272.05h3.45v34.12c0,.95-.77,1.72-1.72,1.72h0c-.95,0-1.72-.77-1.72-1.72v-34.12h0Z" transform="translate(97.16 -84.17) rotate(16.65)"/>
    </g>
    <path class="j" d="M525.73,272.99c.45-11.23,11.91-28,40.95-18.5,0,0,19.05,8.5,17.05,16.5,0,0,7,19-32,17,0,0-26.51-2.36-26-15Z"/>
    <path class="j" d="M548.74,180.83c.9-24.68,23.82-61.56,81.92-40.68,0,0,38.1,18.69,34.09,36.28,0,0,14,41.78-64.01,37.38,0,0-53.02-5.19-52.01-32.98Z"/>
    <path class="j" d="M462.74,201.81c6.43,0,6.45-10,0-10s-6.45,10,0,10h0Z"/>
    <path class="f" d="M464.1,201.54c6.43,0,6.45-10,0-10s-6.45,10,0,10h0Z"/>
    <path class="f" d="M469.97,215.73c3.06,12.66,6.09,24.97-2.74,36.16-3.94,5,3.09,12.12,7.07,7.07,4.84-6.14,8.02-12.98,8.88-20.8.94-8.55-1.59-16.86-3.57-25.09-1.51-6.25-11.16-3.61-9.64,2.66h0Z"/>
    <path class="f" d="M574.08,266.61c1.93,0,1.93-3,0-3s-1.93,3,0,3h0Z"/>
    <path class="f" d="M575.19,272.81c.05.17.09.34.12.51.02.09.03.17.04.26-.02-.18-.02-.18,0,0,.02.31.04.61.05.92,0,.35,0,.71,0,1.06,0,.17,0,.35-.02.52,0,.09-.01.17-.02.26.02-.16.02-.19,0-.08-.04.12-.04.31-.12.41.09-.2.09-.22.02-.07-.03.06-.07.12-.1.18-.14.23-.3.44-.46.64-.4.53-.72,1.02-.97,1.64-.3.73.32,1.68,1.05,1.85.87.2,1.53-.27,1.85-1.05-.04.09-.12.24-.02.07.04-.06.07-.12.1-.18.07-.12.15-.24.23-.35.17-.23.34-.45.51-.68.46-.62.76-1.3.86-2.06.2-1.5.17-3.19-.24-4.65-.21-.76-1.07-1.3-1.85-1.05s-1.27,1.03-1.05,1.85h0Z"/>
    <path class="f" d="M644.32,169.98c.63,4.31-.38,8.65-2.49,12.41-3.14,5.62,5.49,10.67,8.63,5.05,3.52-6.29,4.54-13.03,3.49-20.12-.39-2.67-3.78-4.16-6.15-3.49-2.86.8-3.89,3.46-3.49,6.15h0Z"/>
  </g>
</svg>