<svg width="695" height="430" viewBox="0 0 695 430" fill="none" xmlns="http://www.w3.org/2000/svg">
<g clip-path="url(#clip0_345_377)">
<path d="M583.647 247.61C608.316 247.61 628.35 267.812 628.35 292.688V334.212C628.35 356.078 610.746 373.829 589.062 373.829H578.239C556.555 373.829 538.951 356.078 538.951 334.212V292.688C538.951 267.812 558.985 247.61 583.654 247.61H583.647Z" fill="#9DB3F8"/>
<path d="M585.858 252.026C634.003 252.026 673.032 221.052 673.032 182.844C673.032 144.636 634.003 113.663 585.858 113.663C537.714 113.663 498.685 144.636 498.685 182.844C498.685 221.052 537.714 252.026 585.858 252.026Z" fill="#9DB3F8"/>
<path d="M564.284 52.7758L565.029 57.0886L571.539 122.097C571.743 130.804 566.233 139.032 559.511 140.474C552.103 142.101 544.622 135.462 542.44 125.645L522.128 58.5311L526.047 57.9864" fill="#9DB3F8"/>
<path d="M489.533 95.7124L488.314 92.4226C484.066 81.015 487.19 66.6414 495.547 60.9376L543.089 35.944C550.555 33.0369 558.664 36.5033 561.029 43.2816L564.51 53.3939C565.977 57.6993 563.175 63.1971 558.328 65.8613L508.319 101.622C501.451 107.885 493.131 105.449 489.533 95.7124Z" fill="#9DB3F8"/>
<path d="M605.411 133.725C597.127 132.621 590.522 124.724 590.807 116.114L599.769 20.805C601.083 12.4149 612.848 7.35875 625.905 9.47835C638.875 11.5759 647.253 19.8556 644.779 27.9955L622.76 120.522C621.307 128.883 613.615 134.807 605.418 133.718L605.411 133.725Z" fill="#9DB3F8"/>
<path d="M586.019 242.458C620.886 242.458 649.151 219.887 649.151 192.044C649.151 164.201 620.886 141.63 586.019 141.63C551.152 141.63 522.887 164.201 522.887 192.044C522.887 219.887 551.152 242.458 586.019 242.458Z" fill="#F9E8E8"/>
<path d="M600.017 250.87L641.896 313.862C645.479 319.257 653.428 321.104 659.639 317.991L662.39 316.608C668.601 313.494 670.732 306.591 667.141 301.196L638.064 257.465C630.992 246.83 615.329 243.18 603.082 249.325L600.01 250.863L600.017 250.87Z" fill="#9DB3F8"/>
<path d="M694.934 298.768C694.226 306.429 688.395 313.553 681.972 314.657L653.596 319.485C649.837 320.118 646.618 317.012 646.385 312.552L645.823 302.344C645.56 297.745 648.749 293.41 652.975 292.659L683.534 287.198C690.497 285.94 695.628 291.121 694.942 298.775L694.934 298.768Z" fill="#9DB3F8"/>
<path d="M567.407 250.87L525.529 313.862C521.945 319.257 513.997 321.104 507.786 317.991L505.034 316.608C498.823 313.494 496.692 306.591 500.283 301.196L529.36 257.465C536.433 246.83 552.095 243.18 564.342 249.325L567.415 250.863L567.407 250.87Z" fill="#9DB3F8"/>
<path d="M491.934 344.751C498.874 347.511 507.005 345.127 510.238 339.349L525.711 312.95C527.915 309.336 526.083 305.141 521.58 303.61L511.136 300.151C506.363 298.613 500.743 300.357 498.634 304.015L484.467 329.649C481.497 335.301 484.905 342.028 491.941 344.751H491.934Z" fill="#9DB3F8"/>
<path d="M569.459 346.23H557.766C553.82 346.23 550.621 349.456 550.621 353.436V422.926C550.621 426.906 553.82 430.131 557.766 430.131H569.459C573.405 430.131 576.604 426.906 576.604 422.926V353.436C576.604 349.456 573.405 346.23 569.459 346.23Z" fill="#9DB3F8"/>
<path d="M542.673 406.58H574.699V424.096C574.699 427.423 572.02 430.131 568.714 430.131H530.82C527.645 430.131 525.069 427.533 525.069 424.332C525.069 414.536 532.959 406.58 542.673 406.58Z" fill="#9DB3F8"/>
<path d="M601.849 430.132H613.541C617.488 430.132 620.687 426.906 620.687 422.926V353.436C620.687 349.456 617.488 346.231 613.541 346.231H601.849C597.903 346.231 594.704 349.456 594.704 353.436V422.926C594.704 426.906 597.903 430.132 601.849 430.132Z" fill="#9DB3F8"/>
<path d="M639.013 430.131H601.12C597.821 430.131 595.135 427.43 595.135 424.097V406.58H627.161C636.875 406.58 644.765 414.536 644.765 424.332C644.765 427.533 642.188 430.131 639.013 430.131Z" fill="#9DB3F8"/>
<path d="M580.224 145.891C583.289 146.524 586.792 145.67 588.478 142.807C589.244 141.505 589.544 139.922 589.237 138.436C588.931 136.949 587.902 135.396 586.311 135.33C584.719 135.264 583.588 136.647 583.362 138.112C583.136 139.576 583.216 141.608 584.632 142.388C585.851 143.065 587.719 143.197 589.077 143.065C590.806 142.896 592.12 141.968 593.011 140.482C595.054 137.067 595.762 132.673 595.456 128.743C595.346 127.337 593.156 127.322 593.266 128.743C593.456 131.172 593.229 133.578 592.543 135.919C591.967 137.876 591.127 140.791 588.704 140.886C588.201 140.909 587.697 140.864 587.194 140.798C586.799 140.747 586.099 140.739 585.756 140.504C585.464 140.298 585.515 139.775 585.493 139.444C585.464 138.951 585.42 138.362 585.69 137.921C586.281 136.949 586.916 138.193 587.07 138.804C587.288 139.665 587.135 140.599 586.748 141.387C585.668 143.58 583.019 144.22 580.8 143.764C579.428 143.477 578.837 145.611 580.216 145.891H580.224Z" fill="black"/>
<path d="M346.154 246.773C370.822 246.773 390.857 266.975 390.857 291.851V333.375C390.857 355.241 373.253 372.992 351.569 372.992H340.745C319.062 372.992 301.458 355.241 301.458 333.375V291.851C301.458 266.975 321.492 246.773 346.161 246.773H346.154Z" fill="#F09A9A"/>
<path d="M348.372 251.189C396.517 251.189 435.545 220.215 435.545 182.007C435.545 143.799 396.517 112.826 348.372 112.826C300.228 112.826 261.199 143.799 261.199 182.007C261.199 220.215 300.228 251.189 348.372 251.189Z" fill="#F09A9A"/>
<path d="M362.035 46.7867L361.458 51.0922L357.422 115.873C357.546 124.535 363.371 132.807 370.151 134.36C377.625 136.119 384.85 129.599 386.66 119.788L404.417 52.5715L400.476 52.0195" fill="#F09A9A"/>
<path d="M435.451 71.1475L436.626 68.4612C440.727 59.5486 437.443 50.9082 429.021 48.5531L381.164 30.1391C373.647 26.5549 365.597 31.0885 363.356 40.6488L360.057 55.9423C358.67 62.8752 361.568 70.0951 366.443 71.8908L416.803 84.8808C423.722 85.7566 431.984 79.3978 435.451 71.1475Z" fill="#F09A9A"/>
<path d="M318.616 138.783C326.9 137.716 333.534 130.165 333.279 121.893L324.637 27.8723C323.353 19.3791 311.602 12.5125 298.545 12.564C285.576 12.6376 277.168 19.806 279.613 28.5494L301.311 125.345C302.735 133.867 310.405 139.873 318.609 138.783H318.616Z" fill="#F09A9A"/>
<path d="M362.531 250.033L404.41 313.025C407.994 318.42 415.942 320.267 422.153 317.154L424.904 315.77C431.115 312.657 433.246 305.754 429.656 300.359L400.578 256.628C393.506 245.993 377.844 242.342 365.597 248.488L362.524 250.026L362.531 250.033Z" fill="#F09A9A"/>
<path d="M434.268 343.472C427.284 346.188 419.547 343.708 416.84 338.012L403.746 312.819C401.863 309.478 403.972 305.342 408.497 303.561L418.985 299.424C423.766 297.533 429.137 298.843 430.918 302.368L442.757 327.899C445.202 333.721 441.348 340.72 434.276 343.472H434.268Z" fill="#F09A9A"/>
<path d="M329.922 250.033L288.043 313.025C284.459 318.42 276.511 320.267 270.3 317.154L267.549 315.77C261.338 312.657 259.206 305.754 262.797 300.359L291.875 256.628C298.947 245.993 314.609 242.342 326.856 248.488L329.929 250.026L329.922 250.033Z" fill="#F09A9A"/>
<path d="M254.448 343.914C261.389 346.674 269.519 344.289 272.752 338.512L288.225 312.113C290.429 308.499 288.597 304.304 284.094 302.773L273.65 299.314C268.877 297.776 263.257 299.52 261.148 303.178L246.981 328.812C244.011 334.464 247.419 341.191 254.455 343.914H254.448Z" fill="#F09A9A"/>
<path d="M331.972 345.393H320.28C316.334 345.393 313.135 348.619 313.135 352.598V422.089C313.135 426.068 316.334 429.294 320.28 429.294H331.972C335.918 429.294 339.117 426.068 339.117 422.089V352.598C339.117 348.619 335.918 345.393 331.972 345.393Z" fill="#F09A9A"/>
<path d="M305.187 405.743H337.213V423.259C337.213 426.586 334.534 429.294 331.228 429.294H293.334C290.159 429.294 287.583 426.696 287.583 423.495C287.583 413.699 295.473 405.743 305.187 405.743Z" fill="#F09A9A"/>
<path d="M364.356 429.294H376.048C379.994 429.294 383.193 426.068 383.193 422.089V352.598C383.193 348.619 379.994 345.393 376.048 345.393H364.356C360.41 345.393 357.211 348.619 357.211 352.598V422.089C357.211 426.068 360.41 429.294 364.356 429.294Z" fill="#F09A9A"/>
<path d="M401.527 429.294H363.633C360.334 429.294 357.649 426.593 357.649 423.259V405.743H389.674C399.389 405.743 407.278 413.699 407.278 423.495C407.278 426.696 404.702 429.294 401.527 429.294Z" fill="#F09A9A"/>
<path d="M359.502 349.213C359.502 349.544 358.554 349.824 358.532 350.148C358.51 350.472 359.393 350.913 359.342 351.23C359.291 351.546 358.313 351.679 358.232 351.988C358.152 352.297 358.955 352.886 358.853 353.187C358.751 353.489 357.758 353.452 357.634 353.754C357.51 354.056 358.203 354.755 358.05 355.042C357.897 355.329 356.926 355.123 356.751 355.395C356.576 355.668 357.145 356.477 356.948 356.735C356.751 356.992 355.831 356.632 355.612 356.867C355.393 357.103 355.824 358.001 355.59 358.221C355.357 358.442 354.503 357.934 354.247 358.133C353.992 358.332 354.277 359.289 354.007 359.465C353.737 359.642 352.985 359.001 352.7 359.156C352.415 359.311 352.54 360.297 352.248 360.429C351.956 360.562 351.313 359.804 351.007 359.907C350.7 360.01 350.664 361.003 350.35 361.084C350.036 361.165 349.533 360.312 349.211 360.363C348.89 360.415 348.693 361.393 348.365 361.415C348.036 361.438 347.686 360.518 347.365 360.518C347.044 360.518 346.679 361.445 346.365 361.415C346.051 361.386 345.84 360.415 345.518 360.363C345.197 360.312 344.694 361.165 344.38 361.084C344.066 361.003 344.022 360.01 343.723 359.907C343.424 359.804 342.781 360.562 342.482 360.429C342.183 360.297 342.307 359.311 342.022 359.156C341.738 359.001 340.986 359.642 340.716 359.465C340.446 359.289 340.731 358.332 340.475 358.133C340.22 357.934 339.373 358.442 339.132 358.221C338.891 358.001 339.329 357.103 339.11 356.867C338.891 356.632 337.972 356.992 337.775 356.735C337.578 356.477 338.147 355.668 337.972 355.395C337.797 355.123 336.826 355.329 336.673 355.042C336.519 354.755 337.213 354.056 337.089 353.754C336.965 353.452 335.972 353.496 335.87 353.187C335.768 352.878 336.57 352.304 336.49 351.988C336.41 351.671 335.432 351.553 335.381 351.23C335.33 350.906 336.213 350.472 336.191 350.148C336.169 349.824 335.22 349.544 335.22 349.213C335.22 348.882 336.169 348.602 336.191 348.278C336.213 347.955 335.33 347.513 335.381 347.196C335.432 346.88 336.41 346.748 336.49 346.438C336.57 346.129 335.768 345.541 335.87 345.239C335.972 344.937 336.965 344.974 337.089 344.672C337.213 344.37 336.519 343.671 336.673 343.384C336.826 343.097 337.797 343.303 337.972 343.031C338.147 342.759 337.578 341.949 337.775 341.691C337.972 341.434 338.891 341.794 339.11 341.559C339.329 341.323 338.899 340.425 339.132 340.205C339.366 339.984 340.22 340.492 340.475 340.293C340.731 340.094 340.446 339.138 340.716 338.961C340.986 338.784 341.738 339.425 342.022 339.27C342.307 339.115 342.183 338.129 342.475 337.997C342.767 337.864 343.409 338.622 343.716 338.519C344.022 338.416 344.059 337.423 344.373 337.342C344.686 337.261 345.19 338.115 345.511 338.063C345.832 338.011 346.029 337.033 346.358 337.011C346.686 336.988 347.036 337.908 347.358 337.908C347.679 337.908 348.044 336.981 348.358 337.011C348.671 337.04 348.883 338.011 349.204 338.063C349.525 338.115 350.029 337.261 350.343 337.342C350.657 337.423 350.7 338.416 351 338.519C351.299 338.622 351.941 337.864 352.24 337.997C352.54 338.129 352.415 339.115 352.7 339.27C352.985 339.425 353.737 338.784 354.007 338.961C354.277 339.138 353.992 340.094 354.247 340.293C354.503 340.492 355.349 339.984 355.59 340.205C355.831 340.425 355.393 341.323 355.612 341.559C355.831 341.794 356.751 341.434 356.948 341.691C357.145 341.949 356.576 342.759 356.751 343.031C356.926 343.303 357.897 343.097 358.05 343.384C358.203 343.671 357.51 344.37 357.634 344.672C357.758 344.974 358.751 344.93 358.853 345.239C358.955 345.548 358.152 346.122 358.232 346.438C358.313 346.755 359.291 346.873 359.342 347.196C359.393 347.52 358.51 347.955 358.532 348.278C358.554 348.602 359.502 348.882 359.502 349.213Z" fill="#CA6969"/>
<path d="M109.025 373.691H98.2015C76.5176 373.691 58.9136 355.939 58.9136 334.073L58.9136 292.55C58.9136 267.674 78.948 247.471 103.617 247.471C128.286 247.471 148.32 267.674 148.32 292.55V334.073C148.32 355.939 130.716 373.691 109.032 373.691H109.025Z" fill="#FDD646"/>
<path d="M101.405 251.894C149.55 251.894 188.579 220.921 188.579 182.713C188.579 144.505 149.55 113.531 101.405 113.531C53.2608 113.531 14.2319 144.505 14.2319 182.713C14.2319 220.921 53.2608 251.894 101.405 251.894Z" fill="#FDD646"/>
<path d="M117.141 52.6442L116.557 56.9496L112.404 121.73C112.514 130.392 118.323 138.665 125.104 140.218C132.57 141.977 139.81 135.456 141.642 125.645L158.443 61.6672C159.034 59.8788 157.757 58.1787 155.582 57.8769" fill="#FDD646"/>
<path d="M192.761 72.9939L193.797 70.6903C197.388 63.0141 193.622 55.2937 185.126 52.9018L136.613 34.1271C128.957 30.4693 121.089 33.921 119.199 42.2007L116.411 55.382C115.236 61.336 118.396 67.8715 123.388 69.8145L174.704 84.2248C181.718 85.2773 189.71 80.0666 192.761 73.0012V72.9939Z" fill="#FDD646"/>
<path d="M81.8525 133.594C90.1363 132.527 96.7707 124.976 96.5152 116.703L87.8738 22.6827C86.5893 14.1895 74.8387 7.32292 61.7817 7.37443C48.8122 7.44803 40.4043 14.6164 42.8493 23.3598L64.5478 120.155C65.971 128.678 73.6417 134.683 81.8452 133.594H81.8525Z" fill="#FDD646"/>
<path d="M87.239 250.732L45.3602 313.724C41.7767 319.118 33.8286 320.966 27.6176 317.852L24.866 316.469C18.655 313.356 16.5238 306.452 20.1147 301.057L49.192 257.326C56.2642 246.691 71.9268 243.041 84.1737 249.186L87.2463 250.724L87.239 250.732Z" fill="#FDD646"/>
<path d="M6.503 340.631C12.714 344.399 20.8883 343.317 24.939 338.136L44.2946 314.349C47.0462 311.081 46.1485 306.614 42.2292 304.391L33.0914 299.372C28.8948 297.135 23.2093 298.055 20.465 301.381L1.96333 324.682C-1.93407 329.797 0.182494 336.907 6.503 340.631Z" fill="#FDD646"/>
<path d="M119.856 250.732L161.735 313.724C165.318 319.118 173.266 320.966 179.477 317.852L182.229 316.469C188.44 313.356 190.571 306.452 186.98 301.057L157.903 257.326C150.831 246.691 135.168 243.041 122.921 249.186L119.849 250.724L119.856 250.732Z" fill="#FDD646"/>
<path d="M199.366 342.059C192.834 345.959 184.791 344.907 181.215 339.784L163.983 317.227C161.516 314.246 162.793 309.889 166.902 307.46L176.463 301.838C180.85 299.269 186.455 299.696 188.907 302.816L205.329 325.47C208.759 330.651 206.008 338.114 199.366 342.059Z" fill="#FDD646"/>
<path d="M121.455 429.993H133.147C137.093 429.993 140.292 426.767 140.292 422.788V353.297C140.292 349.318 137.093 346.092 133.147 346.092H121.455C117.508 346.092 114.309 349.318 114.309 353.297L114.309 422.788C114.309 426.767 117.508 429.993 121.455 429.993Z" fill="#FDD646"/>
<path d="M160.078 429.993H122.184C118.885 429.993 116.199 427.292 116.199 423.958V406.442H148.225C157.939 406.442 165.829 414.397 165.829 424.193C165.829 427.395 163.253 429.993 160.078 429.993Z" fill="#FDD646"/>
<path d="M89.0635 346.099H77.3713C73.4251 346.099 70.2261 349.325 70.2261 353.304V422.795C70.2261 426.774 73.4251 430 77.3713 430H89.0635C93.0097 430 96.2088 426.774 96.2088 422.795V353.304C96.2088 349.325 93.0097 346.099 89.0635 346.099Z" fill="#FDD646"/>
<path d="M63.7451 406.449H95.7709V423.965C95.7709 427.292 93.0924 430 89.7862 430H51.8923C48.7175 430 46.1411 427.402 46.1411 424.201C46.1411 414.405 54.0308 406.449 63.7451 406.449Z" fill="#FDD646"/>
<path d="M114.856 343.118C114.856 343.449 113.908 343.729 113.886 344.053C113.864 344.377 114.747 344.818 114.696 345.135C114.645 345.451 113.667 345.584 113.586 345.893C113.506 346.202 114.309 346.791 114.207 347.093C114.105 347.394 113.112 347.358 112.988 347.659C112.864 347.961 113.557 348.66 113.404 348.947C113.251 349.234 112.28 349.028 112.105 349.3C111.93 349.573 112.499 350.382 112.302 350.64C112.105 350.898 111.185 350.537 110.966 350.772C110.747 351.008 111.178 351.906 110.944 352.127C110.711 352.347 109.857 351.84 109.601 352.038C109.346 352.237 109.631 353.194 109.361 353.37C109.091 353.547 108.339 352.907 108.054 353.061C107.769 353.216 107.894 354.202 107.602 354.335C107.31 354.467 106.667 353.709 106.361 353.812C106.054 353.915 106.018 354.909 105.704 354.99C105.39 355.07 104.887 354.217 104.565 354.268C104.244 354.32 104.047 355.299 103.719 355.321C103.39 355.343 103.04 354.423 102.719 354.423C102.398 354.423 102.033 355.35 101.719 355.321C101.405 355.291 101.194 354.32 100.872 354.268C100.551 354.217 100.048 355.07 99.7338 354.99C99.42 354.909 99.3762 353.915 99.077 353.812C98.7777 353.709 98.1355 354.467 97.8362 354.335C97.537 354.202 97.6611 353.216 97.3764 353.061C97.0918 352.907 96.34 353.547 96.07 353.37C95.8 353.194 96.0846 352.237 95.8291 352.038C95.5737 351.84 94.7271 352.347 94.4862 352.127C94.2454 351.906 94.6833 351.008 94.4643 350.772C94.2454 350.537 93.3258 350.898 93.1287 350.64C92.9316 350.382 93.5009 349.573 93.3258 349.3C93.1506 349.028 92.1799 349.234 92.0266 348.947C91.8734 348.66 92.5667 347.961 92.4426 347.659C92.3186 347.358 91.326 347.402 91.2238 347.093C91.1216 346.783 91.9244 346.209 91.8442 345.893C91.7639 345.576 90.7859 345.459 90.7348 345.135C90.6837 344.811 91.5668 344.377 91.5449 344.053C91.523 343.729 90.5742 343.449 90.5742 343.118C90.5742 342.787 91.523 342.507 91.5449 342.184C91.5668 341.86 90.6837 341.418 90.7348 341.102C90.7859 340.785 91.7639 340.653 91.8442 340.344C91.9244 340.035 91.1216 339.446 91.2238 339.144C91.326 338.842 92.3186 338.879 92.4426 338.577C92.5667 338.276 91.8734 337.576 92.0266 337.289C92.1799 337.002 93.1506 337.208 93.3258 336.936C93.5009 336.664 92.9316 335.854 93.1287 335.597C93.3258 335.339 94.2454 335.7 94.4643 335.464C94.6833 335.229 94.2527 334.331 94.4862 334.11C94.7198 333.889 95.5737 334.397 95.8291 334.198C96.0846 334 95.8 333.043 96.07 332.866C96.34 332.69 97.0918 333.33 97.3764 333.175C97.6611 333.021 97.537 332.035 97.8289 331.902C98.1209 331.77 98.7631 332.528 99.0697 332.425C99.3762 332.322 99.4127 331.328 99.7265 331.247C100.04 331.166 100.544 332.02 100.865 331.968C101.186 331.917 101.383 330.938 101.712 330.916C102.04 330.894 102.39 331.814 102.712 331.814C103.033 331.814 103.398 330.886 103.712 330.916C104.025 330.945 104.237 331.917 104.558 331.968C104.879 332.02 105.383 331.166 105.697 331.247C106.011 331.328 106.054 332.322 106.354 332.425C106.653 332.528 107.295 331.77 107.594 331.902C107.894 332.035 107.769 333.021 108.054 333.175C108.339 333.33 109.091 332.69 109.361 332.866C109.631 333.043 109.346 334 109.601 334.198C109.857 334.397 110.703 333.889 110.944 334.11C111.185 334.331 110.747 335.229 110.966 335.464C111.185 335.7 112.105 335.339 112.302 335.597C112.499 335.854 111.93 336.664 112.105 336.936C112.28 337.208 113.251 337.002 113.404 337.289C113.557 337.576 112.864 338.276 112.988 338.577C113.112 338.879 114.105 338.835 114.207 339.144C114.309 339.453 113.506 340.027 113.586 340.344C113.667 340.66 114.645 340.778 114.696 341.102C114.747 341.426 113.864 341.86 113.886 342.184C113.908 342.507 114.856 342.787 114.856 343.118Z" fill="#E2B544"/>
<path d="M563.32 204.865C568.157 204.865 572.078 200.911 572.078 196.033C572.078 191.155 568.157 187.201 563.32 187.201C558.483 187.201 554.562 191.155 554.562 196.033C554.562 200.911 558.483 204.865 563.32 204.865Z" fill="black"/>
<path d="M608.571 204.865C613.408 204.865 617.329 200.911 617.329 196.033C617.329 191.155 613.408 187.201 608.571 187.201C603.734 187.201 599.813 191.155 599.813 196.033C599.813 200.911 603.734 204.865 608.571 204.865Z" fill="black"/>
</g>
<defs>
<clipPath id="clip0_345_377">
<rect width="695" height="430" fill="white"/>
</clipPath>
</defs>
</svg>
