<svg width="752" height="166" viewBox="0 0 752 166" fill="none" xmlns="http://www.w3.org/2000/svg">
<g clip-path="url(#clip0_543_540)">
<path d="M108.317 120.004C108.317 131.72 103.193 141.455 92.9249 149.228C84.4091 155.642 74.3296 158.849 62.6674 158.849C56.8834 158.849 50.2705 157.793 42.8286 155.68C42.0184 160.038 39.7953 162.208 36.1779 162.208C33.4461 162.208 31.5432 161.057 30.4693 158.774C29.4331 156.623 28.9244 153.02 28.9244 148.001C28.9244 137.493 30.3374 114.005 33.1635 77.4985L33.7099 69.8954C34.3881 61.6887 35.1229 56.3873 35.933 54.0101C37.1011 50.652 39.2866 48.954 42.5271 48.954C46.6155 48.954 47.8589 63.5941 46.2952 81.2906C44.5996 100.251 43.488 120.495 42.9981 142.002C50.7038 144.379 57.5805 145.568 63.6471 145.568C72.6528 145.568 80.0382 143.077 85.7656 138.078C91.2858 133.229 94.0365 127.192 94.0365 120.004C94.0365 105.93 84.3526 98.8927 64.9848 98.8927C64.3065 98.8927 63.2891 98.9116 61.9326 98.9682C60.5761 99.0248 59.5211 99.0437 58.8051 99.0437C54.6791 99.0437 52.6255 97.1571 52.6255 93.3838C52.6255 90.6482 53.7748 88.7994 56.0545 87.856C57.3921 87.2712 59.3704 86.875 61.9703 86.6486C65.1166 86.3279 67.2833 86.0449 68.4891 85.7808C72.2948 84.8375 75.3846 82.649 77.7396 79.2153C80.0947 75.7817 81.2628 71.6689 81.2628 66.858C81.2628 60.2171 78.5498 55.0666 73.1238 51.4066C67.6978 47.7466 59.9356 45.9165 49.856 45.9165C42.9605 45.9165 35.5185 47.5768 27.5302 50.8972C25.6085 51.8028 23.6491 52.6895 21.6709 53.5951C19.3912 54.5384 17.3942 55.01 15.6797 55.01C13.9652 55.01 12.4768 54.4441 11.3464 53.3309C10.216 52.2178 9.63196 50.8783 9.63196 49.3502C9.63196 46.8787 11.8363 44.3695 16.2261 41.8037C26.4375 35.842 38.6649 32.8423 52.8704 32.8423C66.0587 32.8423 76.4962 35.8231 84.2019 41.8037C91.7757 47.7277 95.5626 55.6326 95.5626 65.4996C95.5626 74.6497 92.1525 82.3849 85.3511 88.6673C92.567 90.9124 98.2002 94.8177 102.27 100.383C106.339 105.949 108.355 112.476 108.355 119.985L108.317 120.004Z" fill="#FFF4F7"/>
<path d="M36.1779 166C31.9954 166 28.7549 164.019 27.0592 160.397C25.7781 157.718 25.1564 153.661 25.1564 148.02C25.1564 137.455 26.5882 113.646 29.3954 77.2345L29.9418 69.6503C30.8273 58.8211 31.6563 54.9724 32.2403 53.1424C31.1476 53.5386 30.0548 53.9536 28.9433 54.4253C27.1534 55.2554 25.194 56.161 23.2158 57.0665C20.3144 58.2551 17.884 58.8211 15.6797 58.8211C12.9478 58.8211 10.5551 57.8589 8.70878 56.0666C6.84359 54.2366 5.86389 51.9349 5.86389 49.4069C5.86389 45.4638 8.63342 41.917 14.3232 38.5966C25.081 32.3141 38.0431 29.1257 52.8704 29.1257C66.8499 29.1257 78.1541 32.4084 86.5192 38.8607C95.035 45.5204 99.3495 54.5007 99.3495 65.5563C99.3495 73.782 96.8437 81.0454 91.9076 87.2147C97.3712 89.7993 101.874 93.4782 105.303 98.1948C109.825 104.402 112.104 111.741 112.104 120.004C112.104 132.909 106.415 143.757 95.2046 152.246C86.0482 159.151 75.102 162.642 62.6674 162.642C57.5052 162.642 51.6647 161.849 45.3155 160.264C43.5445 163.962 40.3416 166 36.1779 166ZM41.5097 52.8405C40.7373 53.048 40.0402 53.614 39.475 55.2554C39.0793 56.4062 38.2881 59.8965 37.4591 70.2163L36.9315 77.7816C34.1243 114.024 32.7113 137.644 32.7113 148.02C32.7113 153.831 33.4461 156.246 33.8794 157.17C34.2185 157.887 34.6142 158.453 36.1968 158.453C37.1765 158.453 38.5141 158.453 39.1547 155.001L39.9083 150.926L43.8836 152.058C50.9487 154.058 57.2791 155.076 62.6862 155.076C73.4441 155.076 82.8642 152.095 90.6829 146.209C100.028 139.134 104.587 130.569 104.587 120.004C104.587 113.269 102.835 107.59 99.2364 102.628C95.6379 97.6854 90.7394 94.3084 84.2584 92.2897L78.0034 90.3465L82.8077 85.9129C88.8743 80.3285 91.8134 73.6499 91.8134 65.5186C91.8134 56.7835 88.5728 50.0106 81.9033 44.7847C74.9136 39.3701 65.1543 36.6345 52.8893 36.6345C39.4185 36.6345 27.7375 39.4833 18.1478 45.0676C13.4754 47.7844 13.4189 49.3314 13.4189 49.3503C13.4189 49.7653 13.5131 50.1426 14.0029 50.6332C14.3043 50.935 14.7565 51.2369 15.6985 51.2369C16.9043 51.2369 18.4304 50.8596 20.2579 50.1049C22.0854 49.2748 24.0259 48.3692 25.9477 47.4825C34.5011 43.9168 42.4894 42.1434 49.856 42.1434C60.6515 42.1434 69.1861 44.1998 75.2339 48.2749C81.7338 52.6518 85.0308 58.9154 85.0308 66.8581C85.0308 72.4236 83.6178 77.2911 80.8483 81.3473C77.9657 85.5545 74.1223 88.2712 69.3934 89.4409C67.9427 89.7616 65.663 90.0823 62.3471 90.4031C59.4269 90.6483 58.0892 91.0822 57.5617 91.3275C56.9588 91.5728 56.3936 91.7992 56.3936 93.3839C56.3936 94.7234 56.3936 95.2705 58.8051 95.2705C59.5022 95.2705 60.5008 95.2517 61.8007 95.2139C63.2138 95.1762 64.2877 95.1385 64.9848 95.1385C92.1148 95.1385 97.8046 108.666 97.8046 120.023C97.8046 128.324 94.5829 135.342 88.2525 140.927C81.8092 146.53 73.5383 149.36 63.6471 149.36C57.2414 149.36 49.9314 148.096 41.8865 145.624L39.1547 144.794L39.2301 141.945C39.7199 120.438 40.8315 99.9305 42.546 80.9888C44.0155 64.4243 42.6402 55.4252 41.5474 52.8594L41.5097 52.8405ZM46.8039 139.229C53.04 140.964 58.6733 141.832 63.6094 141.832C71.7484 141.832 78.1918 139.681 83.2599 135.267C87.9511 131.135 90.2308 126.154 90.2308 120.042C90.2308 112.609 87.612 102.704 64.9471 102.704C64.3065 102.704 63.3268 102.723 62.008 102.76C60.595 102.798 59.5022 102.836 58.7486 102.836C53.1342 102.836 49.5546 99.9871 48.914 95.1007C47.8966 109.137 47.1807 123.909 46.8039 139.21V139.229ZM48.3299 49.7465C51.6835 57.5005 50.685 74.1782 50.0256 81.6492C49.7806 84.4036 49.5357 87.1958 49.3285 90.0069C50.1386 87.4222 51.9473 85.4979 54.6037 84.4036C56.2805 83.6867 58.5979 83.1773 61.6312 82.9132C65.2862 82.5547 66.9253 82.2717 67.6601 82.1208C70.4861 81.4228 72.7846 79.7814 74.6122 77.1024C76.5527 74.2913 77.4759 70.9332 77.4759 66.8769C77.4759 61.5189 75.3658 57.4816 70.9948 54.5573C66.2282 51.3501 59.1066 49.7087 49.8372 49.7087C49.3473 49.7087 48.8386 49.7087 48.3488 49.7465H48.3299Z" fill="#FFF4F7"/>
<path d="M192.91 145.058C191.61 146.549 190.028 147.285 188.144 147.285C185.035 147.285 182.341 147.492 180.08 140.115C179.666 138.738 177.932 138.304 176.953 139.342C169.831 146.907 161.409 146.455 151.631 146.455C133.752 146.455 124.803 132.154 124.803 103.572C124.803 88.8938 125.764 76.1214 127.685 65.2545C128.853 58.5193 131.698 55.1611 136.22 55.1611C137.84 55.1611 139.253 55.7649 140.459 56.9723C141.665 58.1797 142.268 59.5947 142.268 61.2172C142.268 62.651 141.608 68.2165 140.308 77.9137C139.008 87.6109 138.349 96.629 138.349 104.987C138.349 124.192 143.643 133.814 154.212 133.814C161.07 133.814 166.515 131.154 170.509 125.834C174.522 120.514 176.519 113.005 176.519 103.308V99.3268C176.519 84.2905 176.896 74.631 177.669 70.3673C178.743 64.2546 181.248 61.2172 185.205 61.2172C189.161 61.2172 192.326 61.5756 192.326 66.8204C192.326 67.7637 190.668 73.4425 190.292 79.3287C189.915 85.2149 189.726 90.5729 189.726 95.4215C189.726 106.873 190.574 117.419 192.289 127.098C193.984 136.776 194.192 143.568 192.892 145.04L192.91 145.058Z" fill="#FFF4F7"/>
<path d="M187.824 151.058C184.074 151.058 180.231 150.435 177.48 144.04C170.151 150.303 161.899 150.265 153.139 150.265H151.613C131.303 150.265 121.016 134.569 121.016 103.591C121.016 88.7618 122.014 75.6498 123.974 64.6131C125.952 53.1236 132.508 51.4067 136.22 51.4067C138.82 51.4067 141.213 52.4255 143.116 54.331C145.018 56.2365 146.036 58.6325 146.036 61.236C146.036 62.368 145.81 65.33 144.058 78.442C142.795 87.9316 142.136 96.8742 142.136 105.006C142.136 130.06 151.236 130.06 154.231 130.06C159.883 130.06 164.236 127.947 167.533 123.589C171.018 118.967 172.789 112.156 172.789 103.345V99.3645C172.789 83.9698 173.185 74.2725 173.995 69.7447C175.879 59.0664 181.851 57.4816 185.242 57.4816C187.937 57.4816 196.132 57.4816 196.132 66.8581C196.132 67.575 195.981 68.292 195.623 69.9145C195.134 72.1595 194.323 75.9139 194.079 79.6117C193.702 85.3658 193.513 90.705 193.513 95.4593C193.513 106.628 194.361 117.08 196.019 126.494C199.071 143.794 196.735 146.455 195.736 147.586C193.721 149.888 191.102 151.096 188.125 151.096H187.805L187.824 151.058ZM178.253 135.003C178.686 135.003 179.119 135.059 179.553 135.154C181.512 135.606 183.095 137.097 183.679 139.021C185.054 143.511 185.6 143.511 187.88 143.511H188.144C188.822 143.511 189.331 143.323 189.821 142.851C190.084 141.644 190.273 137.267 188.596 127.777C186.863 117.929 185.977 107.062 185.977 95.4404C185.977 90.5163 186.166 85.0263 186.561 79.1023C186.844 74.8385 187.729 70.7446 188.257 68.292C188.408 67.575 188.54 67.0279 188.596 66.6883C188.596 65.6696 188.37 65.3488 188.37 65.3488C188.219 65.2356 187.579 65.0093 185.242 65.0093C184.564 65.0093 182.492 65.0093 181.418 71.0464C180.702 75.0838 180.325 84.5923 180.325 99.3457V103.326C180.325 113.816 178.045 122.155 173.543 128.117C168.795 134.399 162.295 137.587 154.231 137.587C141.194 137.587 134.6 126.626 134.6 104.987C134.6 96.5158 135.259 87.2525 136.578 77.4232C138.311 64.5376 138.5 61.802 138.5 61.236C138.5 60.7832 138.405 60.2927 137.784 59.6701C137.162 59.0475 136.653 58.9532 136.22 58.9532C135.221 58.9532 132.603 58.9532 131.397 65.9148C129.513 76.5176 128.552 89.1957 128.552 103.591C128.552 142.7 145.904 142.7 151.613 142.7H153.157C162.107 142.7 168.55 142.738 174.183 136.757C175.257 135.606 176.708 134.984 178.234 134.984L178.253 135.003Z" fill="#FFF4F7"/>
<path d="M277.24 100.421C277.24 111.099 275.487 121.721 272.021 132.267C269.873 138.814 267.217 142.097 264.051 142.097C262.356 142.097 260.905 141.568 259.699 140.512C258.494 139.455 257.891 138.191 257.891 136.701C257.891 136.305 258.965 132.192 261.112 124.419C263.26 116.646 264.334 108.892 264.334 101.214C264.334 83.7434 258.87 75.0273 247.962 75.0273C241.726 75.0273 236.62 77.3478 232.663 81.97C228.575 86.7243 226.54 93.0067 226.54 100.817C226.54 105.175 227.162 111.25 228.387 119.023C229.611 126.815 230.233 132.362 230.233 135.682C230.233 143.398 228.029 147.266 223.639 147.266C221.397 147.266 219.852 146.775 219.004 145.775C218.326 145.021 217.78 143.436 217.327 141.059C217.29 138.267 216.725 130.249 215.651 116.948C213.804 98.3647 212.9 85.1584 212.9 77.3478C212.9 63.7453 211.638 57.3685 216.875 57.3685C218.571 57.3685 226.295 55.9724 226.295 57.3685C226.295 58.3496 226.842 67.8393 226.295 70.5749C225.749 73.3105 240.049 62.7454 249.544 62.7454C258.286 62.7454 265.088 65.9904 269.948 72.4803C274.809 78.9703 277.24 88.2713 277.24 100.383V100.421Z" fill="#FFF4F7"/>
<path d="M223.639 151.058C220.267 151.058 217.742 150.115 216.141 148.266C214.991 146.964 214.2 144.964 213.616 141.776L213.541 141.134C213.503 138.455 212.938 130.437 211.864 117.269C210.036 98.7232 209.094 85.2717 209.094 77.3667C209.094 74.9519 209.057 72.7445 209.019 70.7824C208.868 63.1228 208.793 58.5006 211.562 55.6706C212.9 54.3123 214.671 53.6142 216.838 53.6142C217.233 53.6142 217.968 53.5199 218.854 53.4067C223.846 52.8407 226.748 52.6143 228.632 54.2934C229.517 55.0858 230.026 56.2177 230.026 57.3875C230.026 57.5761 230.045 58.0478 230.082 58.7081C230.177 61.2362 230.252 63.4812 230.271 65.4056C235.697 62.6888 243.101 58.9911 249.526 58.9911C259.473 58.9911 267.348 62.7643 272.944 70.2353C278.276 77.3667 280.989 87.5167 280.989 100.402C280.989 111.439 279.161 122.551 275.563 133.437C274.564 136.493 271.493 145.851 264.014 145.851C261.414 145.851 259.059 144.983 257.175 143.342C255.14 141.568 254.085 139.267 254.085 136.701C254.085 136.003 254.085 135.588 257.457 123.4C259.511 115.967 260.547 108.515 260.547 101.214C260.547 78.8006 251.391 78.8006 247.943 78.8006C242.818 78.8006 238.749 80.6306 235.508 84.4227C231.985 88.5166 230.29 93.8746 230.29 100.817C230.29 104.949 230.892 110.892 232.098 118.438C233.379 126.494 234.001 132.135 234.001 135.701C234.001 149.058 227.52 151.058 223.639 151.058ZM221.83 143.266C222.019 143.342 222.527 143.493 223.639 143.493C225.975 143.493 226.465 139.248 226.465 135.682C226.465 132.569 225.862 127.173 224.656 119.608C223.375 111.552 222.753 105.402 222.753 100.799C222.753 92.1012 225.127 84.9132 229.8 79.4797C234.472 74.0085 240.576 71.2352 247.943 71.2352C257.137 71.2352 268.083 76.4423 268.083 101.195C268.083 109.175 266.953 117.306 264.711 125.4C262.45 133.607 261.809 136.135 261.64 136.908C261.678 137.116 261.791 137.342 262.149 137.644C262.657 138.097 263.241 138.304 264.033 138.304C264.73 138.304 266.557 136.795 268.422 131.079C271.776 120.948 273.453 110.628 273.453 100.402C273.453 89.1769 271.248 80.5551 266.915 74.7632C262.77 69.2354 257.08 66.5375 249.526 66.5375C244.891 66.5375 238.127 69.9335 233.643 72.1597C228.688 74.6311 226.427 75.7631 224.072 73.9708C222.829 73.0275 222.264 71.4616 222.565 69.858C222.772 68.8015 222.791 65.6886 222.603 60.6136C221.548 60.7079 220.38 60.84 219.701 60.9154C218.345 61.0664 217.516 61.1607 216.875 61.1607C216.404 62.5945 216.48 66.8583 216.536 70.6504C216.574 72.6502 216.612 74.8953 216.612 77.3667C216.612 85.0264 217.535 98.2139 219.343 116.59C220.398 129.664 220.964 137.531 221.039 140.663C221.359 142.304 221.661 143.002 221.793 143.247L221.83 143.266Z" fill="#FFF4F7"/>
<path d="M360.137 100.421C360.137 111.099 358.385 121.721 354.918 132.267C352.77 138.814 350.114 142.097 346.949 142.097C345.253 142.097 343.802 141.568 342.597 140.512C341.391 139.455 340.788 138.191 340.788 136.701C340.788 136.305 341.862 132.192 344.01 124.419C346.157 116.646 347.231 108.892 347.231 101.214C347.231 83.7434 341.768 75.0273 330.859 75.0273C324.623 75.0273 319.517 77.3478 315.561 81.97C311.472 86.7243 309.438 93.0067 309.438 100.817C309.438 105.175 310.059 111.25 311.284 119.023C312.509 126.815 313.13 132.362 313.13 135.682C313.13 143.398 310.926 147.266 306.536 147.266C304.294 147.266 302.749 146.775 301.902 145.775C301.223 145.021 300.677 143.436 300.225 141.059C300.187 138.267 299.622 130.249 298.548 116.948C296.702 98.3647 295.797 85.1584 295.797 77.3478C295.797 63.7453 294.535 57.3685 299.773 57.3685C301.468 57.3685 309.193 55.9724 309.193 57.3685C309.193 58.3496 309.739 67.8393 309.193 70.5749C308.646 73.3105 322.946 62.7454 332.442 62.7454C341.184 62.7454 347.985 65.9904 352.846 72.4803C357.707 78.9703 360.137 88.2713 360.137 100.383V100.421Z" fill="#FFF4F7"/>
<path d="M306.536 151.058C303.164 151.058 300.639 150.115 299.038 148.266C297.889 146.964 297.097 144.964 296.513 141.776L296.438 141.134C296.4 138.455 295.835 130.437 294.761 117.269C292.934 98.7232 291.992 85.2717 291.992 77.3667C291.992 74.9519 291.954 72.7445 291.916 70.7824C291.766 63.1228 291.69 58.5006 294.46 55.6706C295.797 54.3123 297.568 53.6142 299.735 53.6142C300.131 53.6142 300.865 53.5199 301.751 53.4067C306.744 52.8407 309.645 52.6143 311.529 54.2934C312.415 55.0858 312.923 56.2177 312.923 57.3875C312.923 57.5761 312.942 58.0478 312.98 58.7081C313.074 61.2362 313.149 63.4812 313.168 65.4056C318.594 62.6888 325.998 58.9911 332.423 58.9911C342.371 58.9911 350.246 62.7643 355.841 70.2353C361.173 77.3667 363.886 87.5167 363.886 100.402C363.886 111.439 362.059 122.551 358.46 133.437C357.462 136.493 354.391 145.851 346.911 145.851C344.311 145.851 341.956 144.983 340.072 143.342C338.037 141.568 336.982 139.267 336.982 136.701C336.982 136.003 336.982 135.588 340.355 123.4C342.408 115.967 343.445 108.515 343.445 101.214C343.445 78.8006 334.288 78.8006 330.84 78.8006C325.716 78.8006 321.646 80.6306 318.406 84.4227C314.883 88.5166 313.187 93.8746 313.187 100.817C313.187 104.949 313.79 110.892 314.996 118.438C316.277 126.494 316.899 132.135 316.899 135.701C316.899 149.058 310.417 151.058 306.536 151.058ZM304.728 143.266C304.916 143.342 305.425 143.493 306.536 143.493C308.873 143.493 309.362 139.248 309.362 135.682C309.362 132.569 308.76 127.173 307.554 119.608C306.273 111.552 305.651 105.402 305.651 100.799C305.651 92.1012 308.025 84.9132 312.697 79.4797C317.37 74.0085 323.474 71.2352 330.84 71.2352C340.034 71.2352 350.981 76.4423 350.981 101.195C350.981 109.175 349.85 117.306 347.608 125.4C345.347 133.607 344.707 136.135 344.537 136.908C344.575 137.116 344.688 137.342 345.046 137.644C345.555 138.097 346.139 138.304 346.93 138.304C347.627 138.304 349.455 136.795 351.32 131.079C354.673 120.948 356.35 110.628 356.35 100.402C356.35 89.1769 354.146 80.5551 349.813 74.7632C345.668 69.2354 339.978 66.5375 332.423 66.5375C327.788 66.5375 321.025 69.9335 316.541 72.1597C311.586 74.6311 309.325 75.7631 306.97 73.9708C305.726 73.0275 305.161 71.4616 305.462 69.858C305.67 68.8015 305.689 65.6886 305.5 60.6136C304.445 60.7079 303.277 60.84 302.599 60.9154C301.242 61.0664 300.413 61.1607 299.773 61.1607C299.302 62.5945 299.377 66.8583 299.434 70.6504C299.471 72.6502 299.509 74.8953 299.509 77.3667C299.509 85.0264 300.432 98.2139 302.241 116.59C303.296 129.664 303.861 137.531 303.936 140.663C304.257 142.304 304.558 143.002 304.69 143.247L304.728 143.266Z" fill="#FFF4F7"/>
<path d="M425.833 60.5569C425.833 66.2168 423.553 75.9895 418.975 89.9127C414.755 102.742 407.181 119.023 396.254 138.738C394.049 143.191 391.845 147.624 389.603 152.077C387.681 155.529 385.383 157.265 382.745 157.265C381.182 157.265 379.75 156.586 378.469 155.246C377.187 153.907 376.547 152.416 376.547 150.794C376.547 147.87 378.525 143.002 382.482 136.191C388.774 125.192 392.957 117.891 395.01 114.288C395.915 112.703 395.783 110.741 394.709 109.269C386.777 98.3459 380.428 88.1204 375.661 78.6118C371.573 70.4805 369.538 64.9905 369.538 62.1228C369.538 58.0855 371.46 56.0668 375.322 56.0668C377.734 56.0668 380.164 58.1798 382.595 62.3869C384.799 67.1035 386.965 71.82 389.113 76.5177C392.561 83.8944 396.461 90.7994 400.851 97.2705C401.491 98.2138 402.942 98.0251 403.338 96.9686C406.201 89.1769 408.538 81.0833 410.309 72.6879C412.419 63.0284 413.493 58.1232 413.53 57.9345C414.83 54.2556 416.846 52.4067 419.597 52.4067C423.723 52.4067 425.795 55.1235 425.795 60.5569H425.833Z" fill="#FFF4F7"/>
<path d="M382.726 161.019C380.918 161.019 378.224 160.472 375.718 157.831C373.777 155.793 372.76 153.36 372.76 150.794C372.76 147.115 374.813 141.87 379.203 134.286L391.732 112.401C391.883 112.118 391.864 111.76 391.657 111.496C383.631 100.459 377.112 89.9505 372.289 80.291C366.448 68.6506 365.77 64.3491 365.77 62.104C365.77 55.9536 369.35 52.2747 375.322 52.2747C379.241 52.2747 382.689 54.9726 385.854 60.5004L386.005 60.7834C388.209 65.4999 390.394 70.2353 392.542 74.9519C395.18 80.5928 398.138 86.0452 401.378 91.1768C403.47 84.9509 405.241 78.4798 406.635 71.8955C409.687 57.8968 409.856 57.1799 409.894 56.9913L409.988 56.6705C412.456 49.6712 417.072 48.6335 419.616 48.6335C421.952 48.6335 429.582 49.5014 429.582 60.557C429.582 66.6696 427.284 76.6687 422.536 91.1013C418.278 104.1 410.535 120.74 399.532 140.568C397.422 144.87 395.199 149.322 392.938 153.775C389.584 159.793 385.534 161.038 382.708 161.038L382.726 161.019ZM375.341 59.8212C373.777 59.8212 373.325 59.9155 373.325 62.104C373.325 63.1228 373.89 66.6319 379.053 76.9139C383.687 86.1961 389.98 96.3461 397.78 107.062C399.72 109.741 399.928 113.326 398.289 116.174L385.76 138.059C380.861 146.511 380.334 149.775 380.334 150.794C380.334 151.228 380.428 151.813 381.219 152.643C382.029 153.492 382.538 153.492 382.764 153.492C383.932 153.492 385.138 152.397 386.325 150.247C388.492 145.945 390.696 141.512 392.9 137.078C403.752 117.514 411.307 101.308 415.433 88.7619C419.861 75.2914 422.103 65.8018 422.103 60.5758C422.103 56.1989 420.746 56.1989 419.672 56.1989C419.277 56.1989 418.259 56.1989 417.223 59.0288C417.016 59.9344 415.961 64.7641 414.058 73.518C412.249 82.0267 409.856 90.3655 406.936 98.2893C406.258 100.119 404.638 101.402 402.697 101.629C400.738 101.855 398.873 101.006 397.799 99.4024C393.334 92.7993 389.283 85.649 385.779 78.1402C383.65 73.4614 381.483 68.8015 379.316 64.1415C376.848 59.8966 375.398 59.8401 375.398 59.8401L375.341 59.8212Z" fill="#FFF4F7"/>
<path d="M579.89 140.776C579.89 144.417 576.819 148.304 570.677 152.435C560.409 159.378 547.278 162.849 531.282 162.849C514.062 162.849 500.742 158.51 491.303 149.851C481.864 141.172 477.154 128.947 477.154 113.156C477.154 97.365 481.921 85.5736 491.473 76.0085C501.778 65.7264 515.532 60.5759 532.695 60.5759C547.315 60.5759 559.279 63.7643 568.605 70.1411C572.109 72.4994 573.843 74.7067 573.843 76.7254C573.843 78.2347 573.145 79.5553 571.751 80.725C570.357 81.8947 568.774 82.4607 566.985 82.4607C565.817 82.4607 564.159 81.8004 562.011 80.4986C552.327 74.6878 542.473 71.7824 532.432 71.7824C519.922 71.7824 509.955 75.4802 502.513 82.8757C495.071 90.2713 491.36 100.327 491.36 113.043C491.36 138.644 504.68 151.435 531.301 151.435C546.505 151.435 557.338 148.36 563.838 142.21C565.327 140.587 566.796 138.965 568.285 137.305C569.717 135.871 571.356 135.173 573.202 135.173C575.048 135.173 576.725 135.701 578.006 136.776C579.287 137.852 579.928 139.191 579.928 140.795L579.89 140.776Z" fill="#FFF4F7"/>
<path d="M531.263 166C513.026 166 498.632 161.283 488.496 151.964C478.454 142.738 473.367 129.664 473.367 113.137C473.367 96.6102 478.473 84.0642 488.571 73.9519C499.593 62.9718 514.42 57.3875 532.676 57.3875C548.107 57.3875 560.993 60.84 570.96 67.6695C575.406 70.6881 577.592 73.6312 577.592 76.7064C577.592 79.027 576.499 81.1966 574.408 82.9322C572.316 84.6868 569.754 85.5924 566.966 85.5924C564.931 85.5924 562.651 84.7811 559.769 83.0077C550.801 77.6309 541.588 74.8953 532.394 74.8953C520.958 74.8953 512.103 78.1591 505.358 84.8566C498.538 91.6296 495.09 101.1 495.09 113.005C495.09 136.72 506.922 148.247 531.263 148.247C545.186 148.247 555.172 145.53 560.899 140.153C562.35 138.587 563.782 136.984 565.233 135.38L565.364 135.248C568.077 132.55 571.092 131.984 573.145 131.984C576.047 131.984 578.647 132.852 580.625 134.512C582.603 136.173 583.639 138.323 583.639 140.776C583.639 145.474 580.173 150.077 573.014 154.888C562.124 162.265 548.069 166 531.245 166H531.263ZM532.676 63.7265C516.53 63.7265 503.983 68.4053 494.336 78.027C485.425 86.9696 480.903 98.7798 480.903 113.156C480.903 127.532 485.331 139.701 494.073 147.738C502.852 155.793 515.004 159.718 531.263 159.718C546.317 159.718 558.77 156.454 568.303 150.001C573.409 146.568 576.122 143.379 576.122 140.795C576.122 140.021 575.877 139.474 575.312 139.003C574.747 138.531 574.106 138.323 573.164 138.323C572.863 138.323 572.185 138.323 571.205 139.286C569.735 140.927 568.285 142.53 566.815 144.134L566.646 144.304C559.43 151.133 547.523 154.605 531.282 154.605C511.349 154.605 487.573 147.398 487.573 113.062C487.573 99.6288 491.623 88.7996 499.612 80.857C507.77 72.7634 518.81 68.6506 532.413 68.6506C543.208 68.6506 553.909 71.7823 564.196 77.9704C566.25 79.2345 567.041 79.3477 567.079 79.3477C567.493 79.3477 568.209 79.2533 569.076 78.5176C569.943 77.7818 570.056 77.1969 570.056 76.7441C570.056 76.3857 569.773 75.0273 566.212 72.6125C557.602 66.7262 546.336 63.7454 532.676 63.7454V63.7265Z" fill="#FFF4F7"/>
<path d="M638.559 117.476C638.559 126.834 637.202 136.625 634.471 146.851C633.114 151.982 631.079 154.548 628.385 154.548C625.691 154.548 624.24 152.982 624.24 149.832C624.24 149.115 617.269 151.058 613.539 151.058C606.945 151.058 601.801 149.19 598.109 145.474C594.397 141.757 592.551 136.531 592.551 129.833C592.551 123.136 594.548 117.646 598.542 113.665C602.536 109.684 607.849 107.685 614.462 107.685C619.097 107.685 623.148 108.93 626.614 111.42C627.594 112.118 628.932 111.307 628.781 110.118C627.5 98.8552 622.582 93.2331 614.048 93.2331C611.975 93.2331 609.733 93.8557 607.359 95.1008C604.985 96.346 603.441 96.9686 602.725 96.9686C601.557 96.9686 600.52 96.4969 599.597 95.5348C598.674 94.5726 598.222 93.4783 598.222 92.252C598.222 90.1956 599.71 88.309 602.668 86.5545C605.833 84.6678 609.639 83.7434 614.029 83.7434C630.382 83.7434 638.54 94.9876 638.54 117.476H638.559ZM628.159 129.513C628.159 120.834 624.09 116.495 615.932 116.495C606.983 116.495 602.517 120.797 602.517 129.418C602.517 138.04 606.945 142.436 615.819 142.436C619.681 142.436 622.695 141.304 624.881 139.021C627.066 136.738 628.159 133.588 628.159 129.513Z" fill="#FFF4F7"/>
<path d="M628.366 157.397C624.994 157.397 622.677 155.737 621.772 152.813C621.395 152.869 621 152.945 620.661 153.001C618.287 153.435 615.611 153.907 613.52 153.907C606.172 153.907 600.294 151.737 596.055 147.473C591.816 143.21 589.668 137.267 589.668 129.815C589.668 122.363 591.967 116.137 596.507 111.609C601.029 107.1 607.077 104.798 614.443 104.798C618.475 104.798 622.149 105.647 625.427 107.345C623.411 97.3271 618.042 96.0819 614.029 96.0819C612.427 96.0819 610.619 96.6102 608.678 97.629C605.212 99.459 603.78 99.8363 602.706 99.8363C600.765 99.8363 598.975 99.0439 597.525 97.5158C596.093 96.0253 595.339 94.2142 595.339 92.2332C595.339 89.1015 597.318 86.347 601.217 84.0642C604.816 81.9323 609.13 80.8569 614.029 80.8569C626.52 80.8569 641.423 87.2148 641.423 117.457C641.423 127.022 640.01 137.154 637.221 147.568C635.488 154.077 632.511 157.378 628.366 157.378V157.397ZM623.788 146.775C624.73 146.775 625.39 146.983 626.03 147.53L627.066 148.398L627.104 149.813C627.104 151.662 627.5 151.662 628.385 151.662C629.516 151.662 630.797 149.53 631.701 146.096C634.358 136.173 635.695 126.532 635.695 117.457C635.695 96.6857 628.611 86.6111 614.048 86.6111C610.185 86.6111 606.851 87.4224 604.138 89.026C602.197 90.158 601.086 91.3277 601.086 92.2521C601.086 92.5917 601.161 93.0067 601.67 93.535C602.103 93.9878 602.423 94.0821 602.612 94.0821C602.838 94.0255 603.723 93.7425 606.022 92.5351C608.791 91.0824 611.485 90.3278 614.029 90.3278C621.037 90.3278 629.779 93.7048 631.607 109.76C631.795 111.439 630.985 113.08 629.534 113.948C628.103 114.797 626.275 114.722 624.919 113.741C621.923 111.59 618.494 110.533 614.443 110.533C608.565 110.533 604.006 112.213 600.539 115.665C597.073 119.118 595.396 123.74 595.396 129.796C595.396 135.852 596.941 140.21 600.106 143.398C603.271 146.587 607.661 148.134 613.501 148.134C615.065 148.134 617.59 147.681 619.624 147.322C621.508 146.983 622.79 146.756 623.769 146.756L623.788 146.775ZM615.819 145.304C605.381 145.304 599.635 139.663 599.635 129.418C599.635 119.174 605.419 113.627 615.913 113.627C625.653 113.627 631.023 119.268 631.023 129.513C631.023 134.324 629.647 138.191 626.953 141.021C624.221 143.87 620.472 145.304 615.819 145.304ZM615.932 119.363C608.546 119.363 605.381 122.363 605.381 129.4C605.381 136.437 608.509 139.55 615.819 139.55C618.89 139.55 621.169 138.719 622.808 137.022C624.466 135.286 625.276 132.833 625.276 129.513C625.276 122.4 622.469 119.363 615.913 119.363H615.932Z" fill="#FFF4F7"/>
<path d="M690.86 97.4213C690.86 98.7231 690.464 99.8173 689.691 100.704C688.919 101.591 687.148 103.911 683.248 101.685C681.515 100.685 680.196 99.8928 678.896 99.8928C675.655 99.8928 673.376 101.062 671.379 103.911C669.382 106.76 668.006 109.439 668.006 114.288V121.004C668.006 128.494 667.215 134.437 665.651 138.833C664.182 142.964 662.298 145.04 659.962 145.04C656.853 145.04 655.308 143.493 655.308 140.417C655.308 139.795 655.779 137.531 656.74 133.626C657.701 129.72 658.172 126.022 658.172 122.589C658.172 113.024 656.815 105.364 654.083 99.6287C654.008 99.4589 653.085 97.7232 651.276 94.4593C650.353 92.7802 649.901 91.4596 649.901 90.4597C649.901 89.3655 650.428 88.3467 651.483 87.3845C652.538 86.4223 653.688 85.9507 654.912 85.9507C658.134 85.9507 660.866 89.4787 663.108 96.5157C663.428 97.4968 664.747 97.742 665.331 96.8742C668.798 91.6483 673.489 89.0259 679.442 89.0259C682.852 89.0259 685.622 89.8182 687.732 91.403C689.842 92.9878 690.897 95.0064 690.897 97.4213H690.86Z" fill="#FFF4F7"/>
<path d="M659.943 147.907C655.233 147.907 652.425 145.115 652.425 140.417C652.425 139.776 652.538 138.663 653.933 132.946C654.837 129.268 655.289 125.796 655.289 122.589C655.289 113.495 654.008 106.175 651.465 100.855L651.427 100.78C651.314 100.553 650.824 99.6099 648.714 95.8178C647.527 93.6671 646.981 91.9503 646.981 90.4221C646.981 89.0826 647.414 87.1016 649.505 85.215C651.107 83.7812 652.896 83.0454 654.856 83.0454C660.225 83.0454 663.24 88.7241 664.785 92.7238C668.572 88.3468 673.47 86.1206 679.367 86.1206C683.399 86.1206 686.771 87.1205 689.39 89.0826C692.216 91.2145 693.705 94.0821 693.705 97.4026C693.705 99.3835 693.045 101.176 691.802 102.591C688.278 106.647 684.416 105.666 681.779 104.157L681.496 103.987C680.479 103.402 679.311 102.742 678.858 102.742C676.522 102.742 675.128 103.496 673.677 105.553C671.793 108.232 670.832 110.326 670.832 114.269V120.985C670.832 128.871 670.003 135.022 668.308 139.795C666.405 145.172 663.579 147.907 659.924 147.907H659.943ZM656.683 98.4402C659.566 104.534 661.035 112.665 661.035 122.589C661.035 126.249 660.527 130.192 659.528 134.324C658.341 139.21 658.191 140.285 658.172 140.512C658.172 141.927 658.435 142.172 659.962 142.172C660.659 142.172 661.827 141.04 662.938 137.889C664.389 133.814 665.124 128.136 665.124 121.004V114.288C665.124 108.873 666.612 105.666 669.024 102.251C671.548 98.6855 674.676 97.0064 678.896 97.0064C680.874 97.0064 682.589 97.9874 684.379 99.0062L684.661 99.176C686.357 100.157 686.715 99.742 687.431 98.9307L687.544 98.7987C687.751 98.5534 687.996 98.1761 687.996 97.4214C687.996 95.8933 687.374 94.7424 685.98 93.7048C684.379 92.4974 682.174 91.8936 679.405 91.8936C674.45 91.8936 670.606 94.0444 667.686 98.4591C666.819 99.7797 665.312 100.459 663.73 100.232C662.128 100.006 660.828 98.9119 660.338 97.3837C658.322 91.0635 656.193 88.8185 654.875 88.8185C654.554 88.8185 654.065 88.8939 653.367 89.5165C653.179 89.6863 652.727 90.1391 652.727 90.4598C652.727 90.5353 652.765 91.2522 653.744 93.0633C656.137 97.4214 656.533 98.1761 656.664 98.4402H656.683Z" fill="#FFF4F7"/>
<path d="M748.812 104.76C748.812 108.307 747.588 110.948 745.12 112.646C744.027 113.401 740.56 114.363 734.72 115.571C726.976 117.174 720.363 117.986 714.919 117.986C712.695 117.986 710.077 117.854 707.025 117.571C706.422 117.514 705.894 117.986 705.913 118.589C706.196 130.72 711.094 136.795 720.59 136.795C723.284 136.795 725.733 136.022 727.918 134.493C729.011 133.739 730.971 131.909 733.797 129.003C734.814 127.947 735.888 127.419 737.018 127.419C738.45 127.419 739.694 127.966 740.73 129.041C741.766 130.117 742.294 131.437 742.294 133.022C742.294 134.324 741.804 135.512 740.805 136.606C734.927 143.04 728.05 146.247 720.175 146.247C703.859 146.247 695.702 136.795 695.702 117.91C695.702 108.175 698.302 99.7608 703.483 92.686C709.38 84.649 716.69 80.6494 725.394 80.6494C732.176 80.6494 737.772 82.9133 742.181 87.4601C746.589 92.0068 748.775 97.7799 748.775 104.779L748.812 104.76ZM737.47 105.647C738.13 105.496 738.601 104.874 738.544 104.194C738.205 99.9872 736.981 96.6291 734.908 94.101C732.647 91.3277 729.803 89.9504 726.392 89.9504C721.965 89.9504 718.046 91.5352 714.674 94.7236C711.377 97.761 708.871 102.006 707.175 107.458C707.025 107.911 707.345 108.42 707.835 108.458C709.983 108.666 712.262 108.779 714.636 108.779C720.985 108.779 728.597 107.741 737.489 105.666L737.47 105.647Z" fill="#FFF4F7"/>
<path d="M720.194 149.096C707.722 149.096 692.857 143.681 692.857 117.872C692.857 107.553 695.664 98.4968 701.184 90.9503C707.627 82.1775 715.785 77.7251 725.413 77.7251C732.986 77.7251 739.317 80.3098 744.253 85.4225C749.17 90.4975 751.657 97.0063 751.657 104.741C751.657 110.382 748.982 113.439 746.74 114.986C745.685 115.722 743.499 116.684 735.285 118.363C727.391 120.004 720.533 120.834 714.9 120.834C713.148 120.834 711.113 120.759 708.871 120.589C709.775 132.475 715.917 133.909 720.571 133.909C722.681 133.909 724.527 133.324 726.242 132.116C726.788 131.739 728.201 130.588 731.724 126.966C733.288 125.343 735.078 124.513 736.999 124.513C739.204 124.513 741.201 125.381 742.765 127.004C744.31 128.607 745.138 130.664 745.138 132.984C745.138 135.003 744.385 136.871 742.915 138.493C736.491 145.511 728.842 149.077 720.156 149.077L720.194 149.096ZM725.413 83.4793C717.613 83.4793 711.188 87.045 705.819 94.3462C701.033 100.874 698.603 108.798 698.603 117.853C698.603 135.229 705.461 143.323 720.194 143.323C727.297 143.323 733.363 140.474 738.714 134.625C739.373 133.909 739.449 133.343 739.449 132.984C739.449 132.154 739.223 131.55 738.695 131.003C738.186 130.494 737.697 130.267 737.037 130.267C736.642 130.267 736.189 130.664 735.869 130.984C731.875 135.078 730.349 136.286 729.539 136.833C726.901 138.701 723.887 139.644 720.59 139.644C712.809 139.644 703.445 136.003 703.049 118.646C703.03 117.552 703.464 116.495 704.274 115.74C705.084 114.986 706.196 114.608 707.288 114.703C710.227 114.967 712.79 115.099 714.919 115.099C720.156 115.099 726.618 114.307 734.155 112.741C741.785 111.175 743.292 110.401 743.518 110.25C744.554 109.533 745.949 108.156 745.949 104.723C745.949 98.4402 744.046 93.4218 740.165 89.4033C736.284 85.4036 731.479 83.4604 725.432 83.4604L725.413 83.4793ZM714.617 111.628C712.149 111.628 709.775 111.514 707.533 111.307C706.441 111.194 705.461 110.609 704.858 109.684C704.255 108.76 704.085 107.628 704.425 106.571C706.271 100.685 709.059 95.9687 712.714 92.5916C716.614 88.9316 721.211 87.0639 726.374 87.0639C730.669 87.0639 734.286 88.8184 737.113 92.2709C739.562 95.2518 740.994 99.1948 741.389 103.968C741.559 106.043 740.146 107.968 738.111 108.439C729.049 110.552 721.136 111.628 714.598 111.628H714.617ZM710.774 105.779C712.017 105.836 713.298 105.873 714.598 105.873C720.401 105.873 727.429 104.949 735.53 103.138C735.115 100.157 734.155 97.7232 732.666 95.9121C730.933 93.7991 728.936 92.818 726.355 92.818C722.643 92.818 719.44 94.1198 716.595 96.7988C714.184 99.025 712.224 102.044 710.755 105.779H710.774Z" fill="#FFF4F7"/>
<path d="M564.705 81.385C564.705 81.385 538.536 33.5404 585.995 6.65614C588.594 5.18458 591.91 5.75056 593.851 8.0145C600.332 15.561 608.509 36.5968 564.705 81.385Z" fill="#FFF4F7"/>
<path d="M571.016 81.8001C571.016 81.8001 567.003 27.39 621.32 22.6169C624.297 22.3528 627.066 24.2394 627.914 27.107C630.703 36.6722 629.421 59.1984 571.035 81.8001H571.016Z" fill="#FFF4F7"/>
<path d="M527.721 115.891C532.924 115.891 537.142 110.823 537.142 104.572C537.142 98.32 532.924 93.252 527.721 93.252C522.519 93.252 518.301 98.32 518.301 104.572C518.301 110.823 522.519 115.891 527.721 115.891Z" fill="#FFF4F7"/>
</g>
<g clip-path="url(#clip1_543_540)">
<path d="M102.472 114.159C102.472 125.875 97.3478 135.61 87.0798 143.383C78.564 149.797 68.4845 153.004 56.8223 153.004C51.0383 153.004 44.4254 151.948 36.9835 149.835C36.1733 154.193 33.9502 156.363 30.3328 156.363C27.601 156.363 25.6981 155.212 24.6242 152.929C23.588 150.778 23.0793 147.175 23.0793 142.156C23.0793 131.648 24.4924 108.16 27.3184 71.6535L27.8648 64.0505C28.543 55.8437 29.2778 50.5423 30.0879 48.1652C31.256 44.807 33.4415 43.109 36.682 43.109C40.7704 43.109 42.0138 57.7492 40.4501 75.4456C38.7545 94.4061 37.6429 114.65 37.153 136.157C44.8587 138.534 51.7354 139.723 57.802 139.723C66.8077 139.723 74.1931 137.232 79.9205 132.233C85.4407 127.384 88.1914 121.347 88.1914 114.159C88.1914 100.085 78.5075 93.0478 59.1397 93.0478C58.4614 93.0478 57.444 93.0666 56.0875 93.1232C54.731 93.1798 53.676 93.1987 52.9601 93.1987C48.834 93.1987 46.7804 91.3121 46.7804 87.5389C46.7804 84.8033 47.9297 82.9544 50.2094 82.0111C51.547 81.4262 53.5253 81.03 56.1252 80.8036C59.2716 80.4829 61.4382 80.1999 62.644 79.9358C66.4497 78.9925 69.5395 76.804 71.8946 73.3704C74.2496 69.9367 75.4177 65.8239 75.4177 61.013C75.4177 54.3721 72.7047 49.2217 67.2787 45.5616C61.8527 41.9016 54.0905 40.0716 44.0109 40.0716C37.1154 40.0716 29.6734 41.7318 21.6852 45.0522C19.7634 45.9578 17.804 46.8445 15.8258 47.7501C13.5461 48.6934 11.5491 49.1651 9.8346 49.1651C8.12013 49.1651 6.63175 48.5991 5.50133 47.486C4.37091 46.3729 3.78687 45.0334 3.78687 43.5052C3.78687 41.0337 5.99118 38.5245 10.381 35.9587C20.5924 29.997 32.8198 26.9973 47.0254 26.9973C60.2136 26.9973 70.6511 29.9782 78.3568 35.9587C85.9306 41.8827 89.7175 49.7877 89.7175 59.6547C89.7175 68.8048 86.3074 76.5399 79.506 82.8223C86.7219 85.0674 92.3551 88.9727 96.4246 94.5382C100.494 100.104 102.51 106.631 102.51 114.14L102.472 114.159Z" fill="#F63C6A"/>
<path d="M30.3328 160.155C26.1503 160.155 22.9098 158.174 21.2141 154.552C19.933 151.873 19.3113 147.816 19.3113 142.175C19.3113 131.61 20.7431 107.801 23.5503 71.3895L24.0967 63.8053C24.9822 52.9761 25.8112 49.1274 26.3952 47.2974C25.3025 47.6936 24.2097 48.1086 23.0982 48.5803C21.3083 49.4104 19.3489 50.316 17.3707 51.2216C14.4693 52.4101 12.0389 52.9761 9.83459 52.9761C7.10275 52.9761 4.71003 52.0139 2.86368 50.2217C0.998494 48.3916 0.0187988 46.09 0.0187988 43.5619C0.0187988 39.6189 2.78832 36.072 8.47809 32.7516C19.2359 26.4691 32.198 23.2808 47.0253 23.2808C61.0049 23.2808 72.309 26.5635 80.6741 33.0157C89.1899 39.6755 93.5044 48.6558 93.5044 59.7113C93.5044 67.937 90.9986 75.2005 86.0625 81.3697C91.5261 83.9544 96.029 87.6333 99.4579 92.3498C103.98 98.5568 106.259 105.896 106.259 114.159C106.259 127.064 100.569 137.912 89.3595 146.401C80.2031 153.306 69.2569 156.797 56.8223 156.797C51.6601 156.797 45.8196 156.004 39.4704 154.42C37.6994 158.117 34.4966 160.155 30.3328 160.155ZM35.6646 46.9955C34.8922 47.2031 34.1951 47.7691 33.6299 49.4104C33.2342 50.5612 32.443 54.0515 31.614 64.3713L31.0865 71.9366C28.2792 108.179 26.8662 131.799 26.8662 142.175C26.8662 147.986 27.601 150.401 28.0343 151.325C28.3735 152.042 28.7691 152.608 30.3517 152.608C31.3314 152.608 32.669 152.608 33.3096 149.156L34.0632 145.081L38.0385 146.213C45.1036 148.213 51.434 149.231 56.8411 149.231C67.599 149.231 77.0191 146.25 84.8378 140.364C94.1826 133.289 98.742 124.724 98.742 114.159C98.742 107.424 96.9898 101.745 93.3913 96.7834C89.7928 91.8404 84.8944 88.4634 78.4133 86.4447L72.1583 84.5015L76.9626 80.0679C83.0292 74.4835 85.9683 67.8049 85.9683 59.6736C85.9683 50.9386 82.7277 44.1656 76.0583 38.9397C69.0685 33.5251 59.3092 30.7895 47.0442 30.7895C33.5734 30.7895 21.8924 33.6383 12.3027 39.2227C7.63028 41.9394 7.57376 43.4864 7.57376 43.5053C7.57376 43.9204 7.66796 44.2977 8.15781 44.7882C8.45925 45.0901 8.91142 45.3919 9.85344 45.3919C11.0592 45.3919 12.5853 45.0146 14.4128 44.2599C16.2403 43.4298 18.1808 42.5243 20.1026 41.6375C28.6561 38.0718 36.6443 36.2984 44.0109 36.2984C54.8064 36.2984 63.3411 38.3548 69.3888 42.4299C75.8887 46.8069 79.1857 53.0704 79.1857 61.0131C79.1857 66.5786 77.7727 71.4461 75.0032 75.5023C72.1206 79.7095 68.2772 82.4262 63.5483 83.5959C62.0976 83.9166 59.8179 84.2374 56.502 84.5581C53.5818 84.8033 52.2441 85.2373 51.7166 85.4825C51.1137 85.7278 50.5485 85.9542 50.5485 87.5389C50.5485 88.8784 50.5485 89.4256 52.96 89.4256C53.6571 89.4256 54.6557 89.4067 55.9557 89.369C57.3687 89.3312 58.4426 89.2935 59.1397 89.2935C86.2697 89.2935 91.9595 102.821 91.9595 114.178C91.9595 122.479 88.7378 129.497 82.4074 135.082C75.9641 140.685 67.6932 143.515 57.802 143.515C51.3963 143.515 44.0863 142.251 36.0415 139.779L33.3096 138.949L33.385 136.1C33.8748 114.593 34.9864 94.0855 36.7009 75.1439C38.1704 58.5794 36.7951 49.5802 35.7023 47.0144L35.6646 46.9955ZM40.9588 133.384C47.1949 135.119 52.8282 135.987 57.7643 135.987C65.9033 135.987 72.3467 133.837 77.4148 129.422C82.106 125.29 84.3857 120.309 84.3857 114.197C84.3857 106.764 81.7669 96.8588 59.102 96.8588C58.4614 96.8588 57.4817 96.8777 56.1629 96.9154C54.7499 96.9532 53.6571 96.9909 52.9035 96.9909C47.2891 96.9909 43.7095 94.1421 43.0689 89.2558C42.0515 103.292 41.3356 118.064 40.9588 133.365V133.384ZM42.4848 43.9015C45.8384 51.6555 44.8399 68.3332 44.1805 75.8042C43.9355 78.5586 43.6906 81.3508 43.4834 84.1619C44.2935 81.5772 46.1022 79.6529 48.7587 78.5586C50.4354 77.8417 52.7528 77.3323 55.7861 77.0682C59.4411 76.7098 61.0802 76.4268 61.815 76.2758C64.641 75.5778 66.9396 73.9364 68.7671 71.2574C70.7076 68.4464 71.6308 65.0882 71.6308 61.032C71.6308 55.674 69.5207 51.6366 65.1497 48.7124C60.3831 45.5051 53.2615 43.8638 43.9921 43.8638C43.5022 43.8638 42.9935 43.8638 42.5037 43.9015H42.4848Z" fill="#F63C6A"/>
<path d="M187.065 139.213C185.765 140.704 184.183 141.44 182.299 141.44C179.19 141.44 176.496 141.647 174.235 134.271C173.821 132.893 172.087 132.459 171.108 133.497C163.986 141.062 155.564 140.61 145.786 140.61C127.907 140.61 118.958 126.309 118.958 97.7268C118.958 83.0489 119.918 70.2765 121.84 59.4096C123.008 52.6743 125.853 49.3162 130.375 49.3162C131.995 49.3162 133.408 49.9199 134.614 51.1273C135.82 52.3348 136.423 53.7497 136.423 55.3722C136.423 56.806 135.763 62.3716 134.463 72.0688C133.163 81.766 132.504 90.784 132.504 99.1417C132.504 118.347 137.798 127.969 148.367 127.969C155.225 127.969 160.67 125.309 164.664 119.989C168.677 114.669 170.674 107.16 170.674 97.4626V93.4819C170.674 78.4455 171.051 68.7861 171.824 64.5223C172.897 58.4097 175.403 55.3722 179.36 55.3722C183.316 55.3722 186.481 55.7307 186.481 60.9755C186.481 61.9188 184.823 67.5975 184.447 73.4837C184.07 79.37 183.881 84.728 183.881 89.5766C183.881 101.028 184.729 111.575 186.444 121.253C188.139 130.931 188.346 137.723 187.046 139.195L187.065 139.213Z" fill="#F63C6A"/>
<path d="M181.978 145.213C178.229 145.213 174.386 144.59 171.635 138.195C164.306 144.458 156.054 144.421 147.293 144.421H145.767C125.458 144.421 115.171 128.724 115.171 97.7456C115.171 82.9168 116.169 69.8048 118.129 58.7681C120.107 47.2786 126.663 45.5618 130.375 45.5618C132.975 45.5618 135.368 46.5805 137.27 48.486C139.173 50.3915 140.191 52.7875 140.191 55.391C140.191 56.523 139.965 59.485 138.212 72.597C136.95 82.0867 136.291 91.0292 136.291 99.1606C136.291 124.215 145.391 124.215 148.386 124.215C154.038 124.215 158.39 122.102 161.687 117.744C165.173 113.122 166.944 106.311 166.944 97.5003V93.5196C166.944 78.1248 167.34 68.4276 168.15 63.8997C170.034 53.2214 176.006 51.6367 179.397 51.6367C182.092 51.6367 190.287 51.6367 190.287 61.0132C190.287 61.7301 190.136 62.447 189.778 64.0695C189.289 66.3146 188.478 70.0689 188.233 73.7667C187.857 79.5209 187.668 84.86 187.668 89.6143C187.668 100.783 188.516 111.235 190.174 120.649C193.226 137.949 190.89 140.61 189.891 141.742C187.875 144.043 185.257 145.251 182.28 145.251H181.96L181.978 145.213ZM172.408 129.158C172.841 129.158 173.274 129.214 173.708 129.309C175.667 129.761 177.25 131.252 177.834 133.176C179.209 137.666 179.755 137.666 182.035 137.666H182.299C182.977 137.666 183.486 137.478 183.976 137.006C184.239 135.799 184.428 131.422 182.751 121.932C181.018 112.084 180.132 101.217 180.132 89.5954C180.132 84.6713 180.321 79.1813 180.716 73.2573C180.999 68.9936 181.884 64.8996 182.412 62.447C182.563 61.7301 182.694 61.183 182.751 60.8434C182.751 59.8246 182.525 59.5039 182.525 59.5039C182.374 59.3907 181.734 59.1643 179.397 59.1643C178.719 59.1643 176.647 59.1643 175.573 65.2015C174.857 69.2388 174.48 78.7474 174.48 93.5007V97.4815C174.48 107.971 172.2 116.31 167.698 122.272C162.95 128.554 156.45 131.742 148.386 131.742C135.349 131.742 128.755 120.781 128.755 99.1417C128.755 90.6708 129.414 81.4075 130.733 71.5782C132.466 58.6926 132.655 55.957 132.655 55.391C132.655 54.9383 132.56 54.4477 131.939 53.8252C131.317 53.2026 130.808 53.1082 130.375 53.1082C129.376 53.1082 126.758 53.1082 125.552 60.0699C123.668 70.6726 122.707 83.3507 122.707 97.7456C122.707 136.855 140.059 136.855 145.767 136.855H147.312C156.261 136.855 162.705 136.893 168.338 130.912C169.412 129.761 170.863 129.139 172.389 129.139L172.408 129.158Z" fill="#F63C6A"/>
<path d="M271.395 94.5762C271.395 105.254 269.642 115.876 266.176 126.422C264.028 132.969 261.372 136.252 258.206 136.252C256.511 136.252 255.06 135.723 253.854 134.667C252.648 133.61 252.046 132.346 252.046 130.856C252.046 130.46 253.119 126.347 255.267 118.574C257.415 110.801 258.489 103.047 258.489 95.3685C258.489 77.8985 253.025 69.1823 242.117 69.1823C235.881 69.1823 230.775 71.5028 226.818 76.125C222.73 80.8793 220.695 87.1618 220.695 94.9724C220.695 99.3304 221.317 105.405 222.542 113.178C223.766 120.97 224.388 126.517 224.388 129.837C224.388 137.553 222.184 141.421 217.794 141.421C215.552 141.421 214.007 140.93 213.159 139.93C212.481 139.176 211.935 137.591 211.482 135.214C211.445 132.422 210.879 124.404 209.806 111.103C207.959 92.5198 207.055 79.3134 207.055 71.5028C207.055 57.9003 205.793 51.5236 211.03 51.5236C212.726 51.5236 220.45 50.1275 220.45 51.5236C220.45 52.5046 220.997 61.9943 220.45 64.7299C219.904 67.4655 234.204 56.9004 243.699 56.9004C252.441 56.9004 259.243 60.1454 264.103 66.6354C268.964 73.1253 271.395 82.4264 271.395 94.5384V94.5762Z" fill="#F63C6A"/>
<path d="M217.794 145.213C214.421 145.213 211.897 144.27 210.295 142.421C209.146 141.119 208.355 139.119 207.771 135.931L207.695 135.289C207.658 132.61 207.093 124.592 206.019 111.424C204.191 92.8783 203.249 79.4267 203.249 71.5218C203.249 69.1069 203.211 66.8995 203.174 64.9375C203.023 57.2778 202.948 52.6556 205.717 49.8257C207.055 48.4673 208.826 47.7692 210.993 47.7692C211.388 47.7692 212.123 47.6749 213.008 47.5617C218.001 46.9957 220.903 46.7693 222.787 48.4484C223.672 49.2408 224.181 50.3728 224.181 51.5425C224.181 51.7311 224.2 52.2028 224.237 52.8631C224.331 55.3912 224.407 57.6363 224.426 59.5606C229.852 56.8439 237.256 53.1461 243.68 53.1461C253.628 53.1461 261.503 56.9193 267.099 64.3903C272.431 71.5218 275.144 81.6718 275.144 94.5574C275.144 105.594 273.316 116.706 269.718 127.592C268.719 130.648 265.648 140.006 258.169 140.006C255.569 140.006 253.214 139.138 251.33 137.497C249.295 135.723 248.24 133.422 248.24 130.856C248.24 130.158 248.24 129.743 251.612 117.555C253.666 110.122 254.702 102.67 254.702 95.3686C254.702 72.9556 245.546 72.9556 242.098 72.9556C236.973 72.9556 232.904 74.7856 229.663 78.5777C226.14 82.6717 224.444 88.0297 224.444 94.9724C224.444 99.1041 225.047 105.047 226.253 112.593C227.534 120.649 228.156 126.29 228.156 129.856C228.156 143.213 221.675 145.213 217.794 145.213ZM215.985 137.421C216.174 137.497 216.682 137.648 217.794 137.648C220.13 137.648 220.62 133.403 220.62 129.837C220.62 126.724 220.017 121.328 218.811 113.763C217.53 105.707 216.908 99.5569 216.908 94.9535C216.908 86.2562 219.282 79.0682 223.955 73.6348C228.627 68.1636 234.731 65.3903 242.098 65.3903C251.292 65.3903 262.238 70.5973 262.238 95.3497C262.238 103.33 261.108 111.461 258.866 119.555C256.605 127.762 255.964 130.29 255.795 131.063C255.832 131.271 255.945 131.497 256.303 131.799C256.812 132.252 257.396 132.459 258.187 132.459C258.885 132.459 260.712 130.95 262.577 125.234C265.931 115.103 267.608 104.783 267.608 94.5574C267.608 83.332 265.403 74.7101 261.07 68.9182C256.925 63.3904 251.235 60.6926 243.68 60.6926C239.046 60.6926 232.282 64.0885 227.798 66.3147C222.843 68.7862 220.582 69.9181 218.227 68.1258C216.984 67.1825 216.419 65.6166 216.72 64.013C216.927 62.9565 216.946 59.8436 216.758 54.7686C215.703 54.8629 214.534 54.995 213.856 55.0705C212.5 55.2214 211.671 55.3157 211.03 55.3157C210.559 56.7495 210.635 61.0133 210.691 64.8054C210.729 66.8052 210.766 69.0503 210.766 71.5218C210.766 79.1814 211.69 92.3689 213.498 110.745C214.553 123.819 215.119 131.686 215.194 134.818C215.514 136.459 215.816 137.157 215.948 137.402L215.985 137.421Z" fill="#F63C6A"/>
<path d="M354.292 94.5762C354.292 105.254 352.54 115.876 349.073 126.422C346.925 132.969 344.269 136.252 341.104 136.252C339.408 136.252 337.957 135.723 336.752 134.667C335.546 133.61 334.943 132.346 334.943 130.856C334.943 130.46 336.017 126.347 338.165 118.574C340.312 110.801 341.386 103.047 341.386 95.3685C341.386 77.8985 335.923 69.1823 325.014 69.1823C318.778 69.1823 313.672 71.5028 309.716 76.125C305.627 80.8793 303.593 87.1618 303.593 94.9724C303.593 99.3304 304.214 105.405 305.439 113.178C306.664 120.97 307.285 126.517 307.285 129.837C307.285 137.553 305.081 141.421 300.691 141.421C298.449 141.421 296.904 140.93 296.057 139.93C295.378 139.176 294.832 137.591 294.38 135.214C294.342 132.422 293.777 124.404 292.703 111.103C290.857 92.5198 289.952 79.3134 289.952 71.5028C289.952 57.9003 288.69 51.5236 293.928 51.5236C295.623 51.5236 303.348 50.1275 303.348 51.5236C303.348 52.5046 303.894 61.9943 303.348 64.7299C302.801 67.4655 317.101 56.9004 326.597 56.9004C335.339 56.9004 342.14 60.1454 347.001 66.6354C351.861 73.1253 354.292 82.4264 354.292 94.5384V94.5762Z" fill="#F63C6A"/>
<path d="M300.691 145.213C297.319 145.213 294.794 144.27 293.193 142.421C292.044 141.119 291.252 139.119 290.668 135.931L290.593 135.289C290.555 132.61 289.99 124.592 288.916 111.424C287.089 92.8783 286.147 79.4267 286.147 71.5218C286.147 69.1069 286.109 66.8995 286.071 64.9375C285.92 57.2778 285.845 52.6556 288.615 49.8257C289.952 48.4673 291.723 47.7692 293.89 47.7692C294.286 47.7692 295.02 47.6749 295.906 47.5617C300.899 46.9957 303.8 46.7693 305.684 48.4484C306.569 49.2408 307.078 50.3728 307.078 51.5425C307.078 51.7311 307.097 52.2028 307.135 52.8631C307.229 55.3912 307.304 57.6363 307.323 59.5606C312.749 56.8439 320.153 53.1461 326.578 53.1461C336.526 53.1461 344.401 56.9193 349.996 64.3903C355.328 71.5218 358.041 81.6718 358.041 94.5574C358.041 105.594 356.214 116.706 352.615 127.592C351.617 130.648 348.546 140.006 341.066 140.006C338.466 140.006 336.111 139.138 334.227 137.497C332.192 135.723 331.137 133.422 331.137 130.856C331.137 130.158 331.137 129.743 334.51 117.555C336.563 110.122 337.599 102.67 337.599 95.3686C337.599 72.9556 328.443 72.9556 324.995 72.9556C319.871 72.9556 315.801 74.7856 312.561 78.5777C309.038 82.6717 307.342 88.0297 307.342 94.9724C307.342 99.1041 307.945 105.047 309.151 112.593C310.432 120.649 311.053 126.29 311.053 129.856C311.053 143.213 304.572 145.213 300.691 145.213ZM298.883 137.421C299.071 137.497 299.58 137.648 300.691 137.648C303.027 137.648 303.517 133.403 303.517 129.837C303.517 126.724 302.914 121.328 301.709 113.763C300.428 105.707 299.806 99.5569 299.806 94.9535C299.806 86.2562 302.18 79.0682 306.852 73.6348C311.524 68.1636 317.629 65.3903 324.995 65.3903C334.189 65.3903 345.136 70.5973 345.136 95.3497C345.136 103.33 344.005 111.461 341.763 119.555C339.502 127.762 338.862 130.29 338.692 131.063C338.73 131.271 338.843 131.497 339.201 131.799C339.71 132.252 340.294 132.459 341.085 132.459C341.782 132.459 343.609 130.95 345.475 125.234C348.828 115.103 350.505 104.783 350.505 94.5574C350.505 83.332 348.301 74.7101 343.967 68.9182C339.823 63.3904 334.133 60.6926 326.578 60.6926C321.943 60.6926 315.179 64.0885 310.695 66.3147C305.74 68.7862 303.48 69.9181 301.125 68.1258C299.881 67.1825 299.316 65.6166 299.617 64.013C299.825 62.9565 299.843 59.8436 299.655 54.7686C298.6 54.8629 297.432 54.995 296.754 55.0705C295.397 55.2214 294.568 55.3157 293.928 55.3157C293.457 56.7495 293.532 61.0133 293.588 64.8054C293.626 66.8052 293.664 69.0503 293.664 71.5218C293.664 79.1814 294.587 92.3689 296.396 110.745C297.451 123.819 298.016 131.686 298.091 134.818C298.412 136.459 298.713 137.157 298.845 137.402L298.883 137.421Z" fill="#F63C6A"/>
<path d="M419.988 54.712C419.988 60.3718 417.708 70.1445 413.13 84.0677C408.91 96.8967 401.336 113.178 390.409 132.893C388.204 137.346 386 141.779 383.758 146.232C381.836 149.684 379.538 151.42 376.9 151.42C375.336 151.42 373.905 150.741 372.623 149.401C371.342 148.062 370.702 146.571 370.702 144.949C370.702 142.025 372.68 137.157 376.636 130.346C382.929 119.347 387.112 112.046 389.165 108.443C390.07 106.858 389.938 104.896 388.864 103.424C380.932 92.5009 374.583 82.2754 369.816 72.7669C365.728 64.6356 363.693 59.1455 363.693 56.2778C363.693 52.2405 365.615 50.2218 369.477 50.2218C371.889 50.2218 374.319 52.3348 376.749 56.542C378.954 61.2585 381.12 65.9751 383.268 70.6727C386.716 78.0494 390.616 84.9544 395.006 91.4255C395.646 92.3688 397.097 92.1802 397.493 91.1237C400.356 83.3319 402.693 75.2383 404.464 66.8429C406.574 57.1834 407.648 52.2782 407.685 52.0896C408.985 48.4107 411.001 46.5618 413.752 46.5618C417.878 46.5618 419.95 49.2785 419.95 54.712H419.988Z" fill="#F63C6A"/>
<path d="M376.881 155.174C375.073 155.174 372.379 154.627 369.873 151.986C367.932 149.948 366.915 147.515 366.915 144.949C366.915 141.27 368.968 136.025 373.358 128.441L385.887 106.556C386.038 106.273 386.019 105.915 385.812 105.651C377.786 94.6139 371.267 84.1055 366.444 74.446C360.603 62.8056 359.925 58.5041 359.925 56.259C359.925 50.1086 363.505 46.4297 369.477 46.4297C373.396 46.4297 376.844 49.1276 380.009 54.6554L380.16 54.9384C382.364 59.6549 384.549 64.3903 386.697 69.1069C389.335 74.7479 392.293 80.2002 395.533 85.3318C397.625 79.106 399.395 72.6349 400.79 66.0506C403.842 52.0519 404.011 51.335 404.049 51.1463L404.143 50.8256C406.611 43.8262 411.227 42.7886 413.771 42.7886C416.107 42.7886 423.737 43.6564 423.737 54.712C423.737 60.8246 421.439 70.8237 416.691 85.2563C412.433 98.2551 404.69 114.895 393.687 134.723C391.577 139.025 389.354 143.477 387.093 147.93C383.739 153.948 379.689 155.193 376.862 155.193L376.881 155.174ZM369.496 53.9762C367.932 53.9762 367.48 54.0705 367.48 56.259C367.48 57.2778 368.045 60.7869 373.207 71.069C377.842 80.3511 384.135 90.5011 391.935 101.217C393.875 103.896 394.083 107.481 392.443 110.329L379.915 132.214C375.016 140.666 374.489 143.93 374.489 144.949C374.489 145.383 374.583 145.968 375.374 146.798C376.184 147.647 376.693 147.647 376.919 147.647C378.087 147.647 379.293 146.553 380.48 144.402C382.646 140.1 384.851 135.667 387.055 131.233C397.907 111.669 405.462 95.4629 409.588 82.9169C414.016 69.4465 416.258 59.9568 416.258 54.7309C416.258 50.3539 414.901 50.3539 413.827 50.3539C413.432 50.3539 412.414 50.3539 411.378 53.1838C411.171 54.0894 410.116 58.9191 408.213 67.6731C406.404 76.1817 404.011 84.5205 401.091 92.4443C400.413 94.2744 398.793 95.5573 396.852 95.7837C394.893 96.01 393.027 95.1611 391.954 93.5574C387.488 86.9543 383.438 79.804 379.933 72.2953C377.805 67.6165 375.638 62.9565 373.471 58.2966C371.003 54.0517 369.552 53.9951 369.552 53.9951L369.496 53.9762Z" fill="#F63C6A"/>
<path d="M574.045 134.931C574.045 138.572 570.974 142.459 564.832 146.59C554.564 153.533 541.433 157.004 525.437 157.004C508.217 157.004 494.897 152.665 485.458 144.006C476.019 135.327 471.309 123.102 471.309 107.311C471.309 91.52 476.076 79.7286 485.628 70.1635C495.933 59.8814 509.687 54.731 526.85 54.731C541.47 54.731 553.434 57.9193 562.76 64.2961C566.264 66.6544 567.997 68.8617 567.997 70.8804C567.997 72.3897 567.3 73.7103 565.906 74.88C564.512 76.0497 562.929 76.6157 561.14 76.6157C559.971 76.6157 558.314 75.9554 556.166 74.6536C546.482 68.8429 536.628 65.9375 526.586 65.9375C514.076 65.9375 504.11 69.6352 496.668 77.0308C489.226 84.4263 485.515 94.482 485.515 107.198C485.515 132.799 498.835 145.59 525.456 145.59C540.66 145.59 551.493 142.515 557.993 136.365C559.482 134.742 560.951 133.12 562.44 131.46C563.871 130.026 565.511 129.328 567.357 129.328C569.203 129.328 570.88 129.856 572.161 130.931C573.442 132.007 574.083 133.346 574.083 134.95L574.045 134.931Z" fill="#F63C6A"/>
<path d="M525.418 160.155C507.181 160.155 492.787 155.438 482.651 146.119C472.609 136.893 467.522 123.819 467.522 107.292C467.522 90.7652 472.628 78.2192 482.726 68.107C493.748 57.1269 508.575 51.5425 526.831 51.5425C542.262 51.5425 555.148 54.995 565.115 61.8245C569.561 64.8431 571.747 67.7863 571.747 70.8614C571.747 73.182 570.654 75.3516 568.563 77.0873C566.471 78.8418 563.909 79.7474 561.121 79.7474C559.086 79.7474 556.806 78.9362 553.924 77.1627C544.956 71.7859 535.743 69.0503 526.549 69.0503C515.113 69.0503 506.258 72.3141 499.513 79.0116C492.693 85.7846 489.245 95.2554 489.245 107.16C489.245 130.875 501.077 142.402 525.418 142.402C539.341 142.402 549.327 139.685 555.054 134.308C556.505 132.742 557.937 131.139 559.387 129.535L559.519 129.403C562.232 126.705 565.247 126.139 567.3 126.139C570.202 126.139 572.802 127.007 574.78 128.667C576.758 130.328 577.794 132.478 577.794 134.931C577.794 139.629 574.328 144.232 567.168 149.043C556.279 156.42 542.224 160.155 525.4 160.155H525.418ZM526.831 57.8815C510.685 57.8815 498.138 62.5603 488.491 72.1821C479.58 81.1246 475.058 92.9349 475.058 107.311C475.058 121.687 479.486 133.856 488.228 141.893C497.007 149.948 509.159 153.873 525.418 153.873C540.472 153.873 552.925 150.609 562.458 144.157C567.564 140.723 570.277 137.534 570.277 134.95C570.277 134.176 570.032 133.629 569.467 133.158C568.902 132.686 568.261 132.478 567.319 132.478C567.018 132.478 566.339 132.478 565.36 133.441C563.89 135.082 562.44 136.686 560.97 138.289L560.8 138.459C553.585 145.288 541.678 148.76 525.437 148.76C505.504 148.76 481.728 141.553 481.728 107.217C481.728 93.7838 485.778 82.9547 493.767 75.012C501.924 66.9184 512.965 62.8056 526.568 62.8056C537.363 62.8056 548.064 65.9374 558.351 72.1255C560.405 73.3895 561.196 73.5027 561.234 73.5027C561.648 73.5027 562.364 73.4084 563.231 72.6726C564.098 71.9368 564.211 71.352 564.211 70.8992C564.211 70.5407 563.928 69.1824 560.367 66.7675C551.757 60.8812 540.491 57.9004 526.831 57.9004V57.8815Z" fill="#F63C6A"/>
<path d="M632.714 111.631C632.714 120.989 631.357 130.78 628.625 141.006C627.269 146.137 625.234 148.703 622.54 148.703C619.846 148.703 618.395 147.137 618.395 143.987C618.395 143.27 611.424 145.213 607.694 145.213C601.1 145.213 595.956 143.345 592.264 139.629C588.552 135.912 586.706 130.686 586.706 123.988C586.706 117.291 588.703 111.801 592.697 107.82C596.691 103.839 602.004 101.84 608.617 101.84C613.252 101.84 617.302 103.085 620.769 105.575C621.749 106.273 623.086 105.462 622.936 104.273C621.655 93.0102 616.737 87.3881 608.203 87.3881C606.13 87.3881 603.888 88.0107 601.514 89.2559C599.14 90.501 597.595 91.1236 596.88 91.1236C595.711 91.1236 594.675 90.652 593.752 89.6898C592.829 88.7276 592.377 87.6334 592.377 86.4071C592.377 84.3507 593.865 82.464 596.823 80.7095C599.988 78.8229 603.794 77.8984 608.184 77.8984C624.537 77.8984 632.695 89.1427 632.695 111.631H632.714ZM622.314 123.668C622.314 114.989 618.244 110.65 610.087 110.65C601.137 110.65 596.672 114.952 596.672 123.573C596.672 132.195 601.1 136.591 609.974 136.591C613.836 136.591 616.85 135.459 619.036 133.176C621.221 130.893 622.314 127.743 622.314 123.668Z" fill="#F63C6A"/>
<path d="M622.521 151.552C619.149 151.552 616.831 149.892 615.927 146.968C615.55 147.024 615.155 147.1 614.816 147.156C612.442 147.59 609.766 148.062 607.675 148.062C600.327 148.062 594.449 145.892 590.21 141.628C585.971 137.365 583.823 131.422 583.823 123.97C583.823 116.518 586.122 110.292 590.662 105.764C595.184 101.255 601.232 98.9531 608.598 98.9531C612.63 98.9531 616.304 99.8021 619.582 101.5C617.566 91.4821 612.197 90.237 608.184 90.237C606.582 90.237 604.774 90.7652 602.833 91.784C599.366 93.614 597.935 93.9913 596.861 93.9913C594.92 93.9913 593.13 93.199 591.68 91.6708C590.248 90.1804 589.494 88.3692 589.494 86.3883C589.494 83.2565 591.472 80.502 595.372 78.2192C598.971 76.0873 603.285 75.012 608.184 75.012C620.675 75.012 635.578 81.3699 635.578 111.612C635.578 121.177 634.165 131.309 631.376 141.723C629.643 148.232 626.666 151.533 622.521 151.533V151.552ZM617.943 140.93C618.885 140.93 619.544 141.138 620.185 141.685L621.221 142.553L621.259 143.968C621.259 145.817 621.655 145.817 622.54 145.817C623.67 145.817 624.952 143.685 625.856 140.251C628.512 130.328 629.85 120.687 629.85 111.612C629.85 90.8407 622.766 80.7662 608.203 80.7662C604.34 80.7662 601.006 81.5774 598.293 83.181C596.352 84.313 595.24 85.4827 595.24 86.4071C595.24 86.7467 595.316 87.1618 595.825 87.69C596.258 88.1428 596.578 88.2372 596.767 88.2372C596.993 88.1806 597.878 87.8976 600.177 86.6901C602.946 85.2374 605.64 84.4828 608.184 84.4828C615.192 84.4828 623.934 87.8598 625.762 103.915C625.95 105.594 625.14 107.235 623.689 108.103C622.257 108.952 620.43 108.877 619.073 107.896C616.078 105.745 612.649 104.688 608.598 104.688C602.72 104.688 598.161 106.368 594.694 109.82C591.227 113.273 589.551 117.895 589.551 123.951C589.551 130.007 591.096 134.365 594.261 137.553C597.426 140.742 601.816 142.289 607.656 142.289C609.22 142.289 611.745 141.836 613.779 141.477C615.663 141.138 616.945 140.912 617.924 140.912L617.943 140.93ZM609.974 139.459C599.536 139.459 593.79 133.818 593.79 123.573C593.79 113.329 599.574 107.783 610.068 107.783C619.808 107.783 625.178 113.423 625.178 123.668C625.178 128.479 623.802 132.346 621.108 135.176C618.376 138.025 614.627 139.459 609.974 139.459ZM610.087 113.518C602.701 113.518 599.536 116.518 599.536 123.555C599.536 130.592 602.664 133.705 609.974 133.705C613.045 133.705 615.324 132.875 616.963 131.177C618.621 129.441 619.431 126.988 619.431 123.668C619.431 116.555 616.624 113.518 610.068 113.518H610.087Z" fill="#F63C6A"/>
<path d="M685.014 91.5763C685.014 92.8781 684.619 93.9723 683.846 94.8591C683.074 95.7458 681.303 98.0663 677.403 95.8401C675.67 94.8402 674.351 94.0478 673.051 94.0478C669.81 94.0478 667.531 95.2175 665.534 98.0663C663.537 100.915 662.161 103.594 662.161 108.443V115.159C662.161 122.649 661.37 128.592 659.806 132.988C658.337 137.119 656.453 139.195 654.116 139.195C651.008 139.195 649.463 137.648 649.463 134.572C649.463 133.95 649.934 131.686 650.895 127.781C651.856 123.875 652.327 120.177 652.327 116.744C652.327 107.179 650.97 99.519 648.238 93.7837C648.163 93.6139 647.24 91.8782 645.431 88.6144C644.508 86.9353 644.056 85.6146 644.056 84.6147C644.056 83.5205 644.583 82.5017 645.638 81.5395C646.693 80.5774 647.843 80.1057 649.067 80.1057C652.289 80.1057 655.021 83.6337 657.263 90.6708C657.583 91.6518 658.902 91.8971 659.486 91.0292C662.953 85.8033 667.644 83.1809 673.597 83.1809C677.007 83.1809 679.777 83.9733 681.887 85.558C683.997 87.1428 685.052 89.1615 685.052 91.5763H685.014Z" fill="#F63C6A"/>
<path d="M654.098 142.062C649.387 142.062 646.58 139.27 646.58 134.572C646.58 133.931 646.693 132.818 648.088 127.101C648.992 123.423 649.444 119.951 649.444 116.744C649.444 107.65 648.163 100.33 645.619 95.0101L645.582 94.9346C645.469 94.7082 644.979 93.7649 642.869 89.9728C641.682 87.8221 641.135 86.1053 641.135 84.5771C641.135 83.2376 641.569 81.2567 643.66 79.3701C645.262 77.9362 647.051 77.2004 649.011 77.2004C654.38 77.2004 657.395 82.8792 658.94 86.8788C662.726 82.5018 667.625 80.2756 673.522 80.2756C677.554 80.2756 680.926 81.2755 683.545 83.2376C686.371 85.3695 687.859 88.2372 687.859 91.5576C687.859 93.5385 687.2 95.3308 685.957 96.7458C682.433 100.802 678.571 99.821 675.933 98.3117L675.651 98.1419C674.634 97.557 673.465 96.8967 673.013 96.8967C670.677 96.8967 669.283 97.6514 667.832 99.7078C665.948 102.387 664.987 104.481 664.987 108.424V115.14C664.987 123.026 664.158 129.177 662.463 133.95C660.56 139.327 657.734 142.062 654.079 142.062H654.098ZM650.838 92.5952C653.721 98.689 655.19 106.82 655.19 116.744C655.19 120.404 654.682 124.347 653.683 128.479C652.496 133.365 652.345 134.44 652.327 134.667C652.327 136.082 652.59 136.327 654.116 136.327C654.814 136.327 655.982 135.195 657.093 132.044C658.544 127.969 659.279 122.291 659.279 115.159V108.443C659.279 103.028 660.767 99.821 663.179 96.4062C665.703 92.8405 668.831 91.1614 673.051 91.1614C675.029 91.1614 676.744 92.1425 678.533 93.1612L678.816 93.331C680.512 94.3121 680.87 93.897 681.586 93.0858L681.699 92.9537C681.906 92.7084 682.151 92.3311 682.151 91.5765C682.151 90.0483 681.529 88.8975 680.135 87.8598C678.533 86.6524 676.329 86.0487 673.56 86.0487C668.605 86.0487 664.761 88.1994 661.841 92.6141C660.974 93.9347 659.467 94.6139 657.884 94.3875C656.283 94.1611 654.983 93.0669 654.493 91.5387C652.477 85.2186 650.348 82.9735 649.03 82.9735C648.709 82.9735 648.219 83.049 647.522 83.6715C647.334 83.8413 646.882 84.2941 646.882 84.6148C646.882 84.6903 646.919 85.4072 647.899 87.2184C650.292 91.5765 650.687 92.3311 650.819 92.5952H650.838Z" fill="#F63C6A"/>
<path d="M742.967 98.9154C742.967 102.462 741.743 105.104 739.275 106.801C738.182 107.556 734.715 108.518 728.875 109.726C721.131 111.329 714.518 112.141 709.074 112.141C706.85 112.141 704.232 112.009 701.18 111.726C700.577 111.669 700.049 112.141 700.068 112.744C700.35 124.875 705.249 130.95 714.744 130.95C717.439 130.95 719.888 130.177 722.073 128.648C723.166 127.894 725.126 126.064 727.952 123.158C728.969 122.102 730.043 121.574 731.173 121.574C732.605 121.574 733.849 122.121 734.885 123.196C735.921 124.272 736.449 125.592 736.449 127.177C736.449 128.479 735.959 129.667 734.96 130.762C729.082 137.195 722.205 140.402 714.33 140.402C698.014 140.402 689.856 130.95 689.856 112.065C689.856 102.33 692.456 93.9159 697.638 86.8411C703.535 78.8041 710.845 74.8044 719.549 74.8044C726.331 74.8044 731.927 77.0684 736.335 81.6151C740.744 86.1619 742.93 91.9349 742.93 98.9343L742.967 98.9154ZM731.625 99.8021C732.285 99.6512 732.756 99.0286 732.699 98.3494C732.36 94.1423 731.136 90.7841 729.063 88.256C726.802 85.4827 723.957 84.1055 720.547 84.1055C716.12 84.1055 712.201 85.6902 708.829 88.8786C705.532 91.9161 703.026 96.1609 701.33 101.613C701.179 102.066 701.5 102.575 701.99 102.613C704.137 102.821 706.417 102.934 708.791 102.934C715.14 102.934 722.752 101.896 731.644 99.821L731.625 99.8021Z" fill="#F63C6A"/>
<path d="M714.349 143.251C701.877 143.251 687.012 137.836 687.012 112.027C687.012 101.708 689.819 92.6518 695.339 85.1053C701.782 76.3325 709.94 71.8801 719.568 71.8801C727.141 71.8801 733.472 74.4648 738.408 79.5775C743.325 84.6525 745.812 91.1614 745.812 98.8965C745.812 104.537 743.137 107.594 740.895 109.141C739.84 109.877 737.654 110.839 729.44 112.518C721.546 114.159 714.688 114.989 709.055 114.989C707.303 114.989 705.268 114.914 703.026 114.744C703.93 126.63 710.072 128.064 714.726 128.064C716.836 128.064 718.682 127.479 720.397 126.271C720.943 125.894 722.356 124.743 725.879 121.121C727.443 119.498 729.233 118.668 731.154 118.668C733.359 118.668 735.356 119.536 736.92 121.159C738.464 122.762 739.293 124.819 739.293 127.139C739.293 129.158 738.54 131.026 737.07 132.648C730.646 139.666 722.997 143.232 714.311 143.232L714.349 143.251ZM719.568 77.6343C711.768 77.6343 705.343 81.2 699.974 88.5012C695.188 95.0289 692.758 102.953 692.758 112.008C692.758 129.384 699.616 137.478 714.349 137.478C721.452 137.478 727.518 134.629 732.869 128.781C733.528 128.064 733.604 127.498 733.604 127.139C733.604 126.309 733.378 125.705 732.85 125.158C732.341 124.649 731.851 124.422 731.192 124.422C730.796 124.422 730.344 124.819 730.024 125.139C726.03 129.233 724.504 130.441 723.694 130.988C721.056 132.856 718.042 133.799 714.744 133.799C706.963 133.799 697.6 130.158 697.204 112.801C697.185 111.707 697.619 110.65 698.429 109.895C699.239 109.141 700.35 108.763 701.443 108.858C704.382 109.122 706.945 109.254 709.074 109.254C714.311 109.254 720.773 108.462 728.31 106.896C735.94 105.33 737.447 104.556 737.673 104.405C738.709 103.688 740.103 102.311 740.103 98.8776C740.103 92.5952 738.201 87.5768 734.32 83.5583C730.438 79.5587 725.634 77.6154 719.586 77.6154L719.568 77.6343ZM708.772 105.783C706.304 105.783 703.93 105.669 701.688 105.462C700.595 105.349 699.616 104.764 699.013 103.839C698.41 102.915 698.24 101.783 698.58 100.727C700.426 94.8403 703.214 90.1237 706.869 86.7467C710.769 83.0866 715.366 81.2189 720.528 81.2189C724.824 81.2189 728.441 82.9734 731.267 86.4259C733.717 89.4068 735.149 93.3498 735.544 98.123C735.714 100.198 734.301 102.123 732.266 102.594C723.204 104.707 715.291 105.783 708.753 105.783H708.772ZM704.929 99.9341C706.172 99.9907 707.453 100.028 708.753 100.028C714.556 100.028 721.583 99.104 729.685 97.2929C729.27 94.312 728.309 91.8783 726.821 90.0671C725.088 87.9541 723.091 86.9731 720.51 86.9731C716.798 86.9731 713.595 88.2748 710.75 90.9538C708.339 93.18 706.379 96.1986 704.91 99.9341H704.929Z" fill="#F63C6A"/>
<path d="M558.86 75.5401C558.86 75.5401 532.691 27.6955 580.149 0.81117C582.749 -0.660391 586.065 -0.0944065 588.006 2.16953C594.487 9.716 602.664 30.7518 558.86 75.5401Z" fill="#F63C6A"/>
<path d="M565.171 75.9551C565.171 75.9551 561.158 21.5451 615.475 16.7719C618.452 16.5078 621.221 18.3944 622.069 21.2621C624.857 30.8272 623.576 53.3534 565.19 75.9551H565.171Z" fill="#F63C6A"/>
<path d="M521.876 110.046C527.079 110.046 531.297 104.978 531.297 98.7267C531.297 92.475 527.079 87.407 521.876 87.407C516.674 87.407 512.456 92.475 512.456 98.7267C512.456 104.978 516.674 110.046 521.876 110.046Z" fill="#F63C6A"/>
</g>
<defs>
<clipPath id="clip0_543_540">
<rect width="745.831" height="160.155" fill="white" transform="translate(5.84509 5.84497)"/>
</clipPath>
<clipPath id="clip1_543_540">
<rect width="745.831" height="160.155" fill="white"/>
</clipPath>
</defs>
</svg>
