<svg width="396" height="85" viewBox="0 0 396 85" fill="none" xmlns="http://www.w3.org/2000/svg">
<g clip-path="url(#clip0_517_373)">
<path d="M54.3898 60.51C54.3898 66.72 51.6698 71.88 46.2198 76C41.6998 79.4 36.3498 81.1 30.1598 81.1C27.0898 81.1 23.5798 80.54 19.6298 79.42C19.1998 81.73 18.0198 82.88 16.0998 82.88C14.6498 82.88 13.6398 82.27 13.0698 81.06C12.5198 79.92 12.2498 78.01 12.2498 75.35C12.2498 69.78 12.9998 57.33 14.4998 37.98L14.7898 33.95C15.1498 29.6 15.5398 26.79 15.9698 25.53C16.5898 23.75 17.7498 22.85 19.4698 22.85C21.6398 22.85 22.2998 30.61 21.4698 39.99C20.5698 50.04 19.9798 60.77 19.7198 72.17C23.8098 73.43 27.4598 74.06 30.6798 74.06C35.4598 74.06 39.3798 72.74 42.4198 70.09C45.3498 67.52 46.8098 64.32 46.8098 60.51C46.8098 53.05 41.6698 49.32 31.3898 49.32C31.0298 49.32 30.4898 49.33 29.7698 49.36C29.0498 49.39 28.4898 49.4 28.1098 49.4C25.9198 49.4 24.8298 48.4 24.8298 46.4C24.8298 44.95 25.4398 43.97 26.6498 43.47C27.3598 43.16 28.4098 42.95 29.7898 42.83C31.4598 42.66 32.6098 42.51 33.2498 42.37C35.2698 41.87 36.9098 40.71 38.1598 38.89C39.4098 37.07 40.0298 34.89 40.0298 32.34C40.0298 28.82 38.5898 26.09 35.7098 24.15C32.8298 22.21 28.7098 21.24 23.3598 21.24C19.6998 21.24 15.7498 22.12 11.5098 23.88C10.4898 24.36 9.44977 24.83 8.39977 25.31C7.18976 25.81 6.12977 26.06 5.21977 26.06C4.30977 26.06 3.51977 25.76 2.91977 25.17C2.31977 24.58 2.00977 23.87 2.00977 23.06C2.00977 21.75 3.17977 20.42 5.50977 19.06C10.9298 15.9 17.4198 14.31 24.9598 14.31C31.9598 14.31 37.4998 15.89 41.5898 19.06C45.6098 22.2 47.6198 26.39 47.6198 31.62C47.6198 36.47 45.8098 40.57 42.1998 43.9C46.0298 45.09 49.0198 47.16 51.1798 50.11C53.3398 53.06 54.4098 56.52 54.4098 60.5L54.3898 60.51Z" fill="#DF4A6F"/>
<path d="M16.0998 84.89C13.8798 84.89 12.1598 83.84 11.2598 81.92C10.5798 80.5 10.2498 78.35 10.2498 75.36C10.2498 69.76 11.0098 57.14 12.4998 37.84L12.7898 33.82C13.2598 28.08 13.6998 26.04 14.0098 25.07C13.4298 25.28 12.8498 25.5 12.2598 25.75C11.3098 26.19 10.2698 26.67 9.21977 27.15C7.67977 27.78 6.38977 28.08 5.21977 28.08C3.76977 28.08 2.49977 27.57 1.51977 26.62C0.529766 25.65 0.00976562 24.43 0.00976562 23.09C0.00976562 21 1.47977 19.12 4.49977 17.36C10.2098 14.03 17.0898 12.34 24.9598 12.34C32.3798 12.34 38.3798 14.08 42.8198 17.5C47.3398 21.03 49.6298 25.79 49.6298 31.65C49.6298 36.01 48.2998 39.86 45.6798 43.13C48.5798 44.5 50.9698 46.45 52.7898 48.95C55.1898 52.24 56.3998 56.13 56.3998 60.51C56.3998 67.35 53.3798 73.1 47.4298 77.6C42.5698 81.26 36.7598 83.11 30.1598 83.11C27.4198 83.11 24.3198 82.69 20.9498 81.85C20.0098 83.81 18.3098 84.89 16.0998 84.89ZM18.9298 24.91C18.5198 25.02 18.1498 25.32 17.8498 26.19C17.6398 26.8 17.2198 28.65 16.7798 34.12L16.4998 38.13C15.0098 57.34 14.2598 69.86 14.2598 75.36C14.2598 78.44 14.6498 79.72 14.8798 80.21C15.0598 80.59 15.2698 80.89 16.1098 80.89C16.6298 80.89 17.3398 80.89 17.6798 79.06L18.0798 76.9L20.1898 77.5C23.9398 78.56 27.2998 79.1 30.1698 79.1C35.8798 79.1 40.8798 77.52 45.0298 74.4C49.9898 70.65 52.4098 66.11 52.4098 60.51C52.4098 56.94 51.4798 53.93 49.5698 51.3C47.6598 48.68 45.0598 46.89 41.6198 45.82L38.2998 44.79L40.8498 42.44C44.0698 39.48 45.6298 35.94 45.6298 31.63C45.6298 27 43.9098 23.41 40.3698 20.64C36.6598 17.77 31.4798 16.32 24.9698 16.32C17.8198 16.32 11.6198 17.83 6.52977 20.79C4.04977 22.23 4.01977 23.05 4.01977 23.06C4.01977 23.28 4.06977 23.48 4.32977 23.74C4.48977 23.9 4.72977 24.06 5.22977 24.06C5.86977 24.06 6.67977 23.86 7.64977 23.46C8.61977 23.02 9.64977 22.54 10.6698 22.07C15.2098 20.18 19.4498 19.24 23.3598 19.24C29.0898 19.24 33.6198 20.33 36.8298 22.49C40.2798 24.81 42.0298 28.13 42.0298 32.34C42.0298 35.29 41.2798 37.87 39.8098 40.02C38.2798 42.25 36.2398 43.69 33.7298 44.31C32.9598 44.48 31.7498 44.65 29.9898 44.82C28.4398 44.95 27.7298 45.18 27.4498 45.31C27.1298 45.44 26.8298 45.56 26.8298 46.4C26.8298 47.11 26.8298 47.4 28.1098 47.4C28.4798 47.4 29.0098 47.39 29.6998 47.37C30.4498 47.35 31.0198 47.33 31.3898 47.33C45.7898 47.33 48.8098 54.5 48.8098 60.52C48.8098 64.92 47.0998 68.64 43.7398 71.6C40.3198 74.57 35.9298 76.07 30.6798 76.07C27.2798 76.07 23.3998 75.4 19.1298 74.09L17.6798 73.65L17.7198 72.14C17.9798 60.74 18.5698 49.87 19.4798 39.83C20.2598 31.05 19.5298 26.28 18.9498 24.92L18.9298 24.91ZM21.7398 70.7C25.0498 71.62 28.0398 72.08 30.6598 72.08C34.9798 72.08 38.3998 70.94 41.0898 68.6C43.5798 66.41 44.7898 63.77 44.7898 60.53C44.7898 56.59 43.3998 51.34 31.3698 51.34C31.0298 51.34 30.5098 51.35 29.8098 51.37C29.0598 51.39 28.4798 51.41 28.0798 51.41C25.0998 51.41 23.1998 49.9 22.8598 47.31C22.3198 54.75 21.9398 62.58 21.7398 70.69V70.7ZM22.5498 23.27C24.3298 27.38 23.7998 36.22 23.4498 40.18C23.3198 41.64 23.1898 43.12 23.0798 44.61C23.5098 43.24 24.4698 42.22 25.8798 41.64C26.7698 41.26 27.9998 40.99 29.6098 40.85C31.5498 40.66 32.4198 40.51 32.8098 40.43C34.3098 40.06 35.5298 39.19 36.4998 37.77C37.5298 36.28 38.0198 34.5 38.0198 32.35C38.0198 29.51 36.8998 27.37 34.5798 25.82C32.0498 24.12 28.2698 23.25 23.3498 23.25C23.0898 23.25 22.8198 23.25 22.5598 23.27H22.5498Z" fill="#DF4A6F"/>
<path d="M99.2896 73.79C98.5997 74.58 97.7597 74.97 96.7597 74.97C95.1097 74.97 93.6797 75.08 92.4797 71.17C92.2597 70.44 91.3396 70.21 90.8196 70.76C87.0396 74.77 82.5696 74.53 77.3796 74.53C67.8896 74.53 63.1396 66.95 63.1396 51.8C63.1396 44.02 63.6496 37.25 64.6696 31.49C65.2896 27.92 66.7996 26.14 69.1996 26.14C70.0596 26.14 70.8096 26.46 71.4496 27.1C72.0896 27.74 72.4097 28.49 72.4097 29.35C72.4097 30.11 72.0597 33.06 71.3697 38.2C70.6797 43.34 70.3297 48.12 70.3297 52.55C70.3297 62.73 73.1396 67.83 78.7496 67.83C82.3896 67.83 85.2797 66.42 87.3997 63.6C89.5297 60.78 90.5896 56.8 90.5896 51.66V49.55C90.5896 41.58 90.7896 36.46 91.1996 34.2C91.7696 30.96 93.0996 29.35 95.1996 29.35C97.2996 29.35 98.9797 29.54 98.9797 32.32C98.9797 32.82 98.0997 35.83 97.8997 38.95C97.6996 42.07 97.5996 44.91 97.5996 47.48C97.5996 53.55 98.0496 59.14 98.9596 64.27C99.8596 69.4 99.9696 73 99.2796 73.78L99.2896 73.79Z" fill="#DF4A6F"/>
<path d="M96.5899 76.97C94.5999 76.97 92.5599 76.64 91.0999 73.25C87.2099 76.57 82.8299 76.55 78.1799 76.55H77.3699C66.5899 76.55 61.1299 68.23 61.1299 51.81C61.1299 43.95 61.6599 37 62.6999 31.15C63.7499 25.06 67.2299 24.15 69.1999 24.15C70.5799 24.15 71.8499 24.69 72.8599 25.7C73.8699 26.71 74.4099 27.98 74.4099 29.36C74.4099 29.96 74.2899 31.53 73.3599 38.48C72.6899 43.51 72.3399 48.25 72.3399 52.56C72.3399 65.84 77.1699 65.84 78.7599 65.84C81.7599 65.84 84.0699 64.72 85.8199 62.41C87.6699 59.96 88.6099 56.35 88.6099 51.68V49.57C88.6099 41.41 88.8199 36.27 89.2499 33.87C90.2499 28.21 93.4199 27.37 95.2199 27.37C96.6499 27.37 101 27.37 101 32.34C101 32.72 100.92 33.1 100.73 33.96C100.47 35.15 100.04 37.14 99.9099 39.1C99.7099 42.15 99.6099 44.98 99.6099 47.5C99.6099 53.42 100.06 58.96 100.94 63.95C102.56 73.12 101.32 74.53 100.79 75.13C99.7199 76.35 98.3299 76.99 96.7499 76.99H96.5799L96.5899 76.97ZM91.5099 68.46C91.7399 68.46 91.9699 68.49 92.1999 68.54C93.2399 68.78 94.0799 69.57 94.3899 70.59C95.1199 72.97 95.4099 72.97 96.6199 72.97H96.7599C97.1199 72.97 97.3899 72.87 97.6499 72.62C97.7899 71.98 97.8899 69.66 96.9999 64.63C96.0799 59.41 95.6099 53.65 95.6099 47.49C95.6099 44.88 95.7099 41.97 95.9199 38.83C96.0699 36.57 96.5399 34.4 96.8199 33.1C96.8999 32.72 96.9699 32.43 96.9999 32.25C96.9999 31.71 96.8799 31.54 96.8799 31.54C96.7999 31.48 96.4599 31.36 95.2199 31.36C94.8599 31.36 93.7599 31.36 93.1899 34.56C92.8099 36.7 92.6099 41.74 92.6099 49.56V51.67C92.6099 57.23 91.3999 61.65 89.0099 64.81C86.4899 68.14 83.0399 69.83 78.7599 69.83C71.8399 69.83 68.3399 64.02 68.3399 52.55C68.3399 48.06 68.6899 43.15 69.3899 37.94C70.3099 31.11 70.4099 29.66 70.4099 29.36C70.4099 29.12 70.3599 28.86 70.0299 28.53C69.6999 28.2 69.4299 28.15 69.1999 28.15C68.6699 28.15 67.2799 28.15 66.6399 31.84C65.6399 37.46 65.1299 44.18 65.1299 51.81C65.1299 72.54 74.3399 72.54 77.3699 72.54H78.1899C82.9399 72.54 86.3599 72.56 89.3499 69.39C89.9199 68.78 90.6899 68.45 91.4999 68.45L91.5099 68.46Z" fill="#DF4A6F"/>
<path d="M144.05 50.13C144.05 55.79 143.12 61.42 141.28 67.01C140.14 70.48 138.73 72.22 137.05 72.22C136.15 72.22 135.38 71.94 134.74 71.38C134.1 70.82 133.78 70.15 133.78 69.36C133.78 69.15 134.35 66.97 135.49 62.85C136.63 58.73 137.2 54.62 137.2 50.55C137.2 41.29 134.3 36.67 128.51 36.67C125.2 36.67 122.49 37.9 120.39 40.35C118.22 42.87 117.14 46.2 117.14 50.34C117.14 52.65 117.47 55.87 118.12 59.99C118.77 64.12 119.1 67.06 119.1 68.82C119.1 72.91 117.93 74.96 115.6 74.96C114.41 74.96 113.59 74.7 113.14 74.17C112.78 73.77 112.49 72.93 112.25 71.67C112.23 70.19 111.93 65.94 111.36 58.89C110.38 49.04 109.9 42.04 109.9 37.9C109.9 30.69 109.23 27.31 112.01 27.31C112.91 27.31 117.01 26.57 117.01 27.31C117.01 27.83 117.3 32.86 117.01 34.31C116.72 35.76 124.31 30.16 129.35 30.16C133.99 30.16 137.6 31.88 140.18 35.32C142.76 38.76 144.05 43.69 144.05 50.11V50.13Z" fill="#DF4A6F"/>
<path d="M115.6 76.97C113.81 76.97 112.47 76.47 111.62 75.49C111.01 74.8 110.59 73.74 110.28 72.05L110.24 71.71C110.22 70.29 109.92 66.04 109.35 59.06C108.38 49.23 107.88 42.1 107.88 37.91C107.88 36.63 107.86 35.46 107.84 34.42C107.76 30.36 107.72 27.91 109.19 26.41C109.9 25.69 110.84 25.32 111.99 25.32C112.2 25.32 112.59 25.27 113.06 25.21C115.71 24.91 117.25 24.79 118.25 25.68C118.72 26.1 118.99 26.7 118.99 27.32C118.99 27.42 119 27.67 119.02 28.02C119.07 29.36 119.11 30.55 119.12 31.57C122 30.13 125.93 28.17 129.34 28.17C134.62 28.17 138.8 30.17 141.77 34.13C144.6 37.91 146.04 43.29 146.04 50.12C146.04 55.97 145.07 61.86 143.16 67.63C142.63 69.25 141 74.21 137.03 74.21C135.65 74.21 134.4 73.75 133.4 72.88C132.32 71.94 131.76 70.72 131.76 69.36C131.76 68.99 131.76 68.77 133.55 62.31C134.64 58.37 135.19 54.42 135.19 50.55C135.19 38.67 130.33 38.67 128.5 38.67C125.78 38.67 123.62 39.64 121.9 41.65C120.03 43.82 119.13 46.66 119.13 50.34C119.13 52.53 119.45 55.68 120.09 59.68C120.77 63.95 121.1 66.94 121.1 68.83C121.1 75.91 117.66 76.97 115.6 76.97ZM114.64 72.84C114.74 72.88 115.01 72.96 115.6 72.96C116.84 72.96 117.1 70.71 117.1 68.82C117.1 67.17 116.78 64.31 116.14 60.3C115.46 56.03 115.13 52.77 115.13 50.33C115.13 45.72 116.39 41.91 118.87 39.03C121.35 36.13 124.59 34.66 128.5 34.66C133.38 34.66 139.19 37.42 139.19 50.54C139.19 54.77 138.59 59.08 137.4 63.37C136.2 67.72 135.86 69.06 135.77 69.47C135.79 69.58 135.85 69.7 136.04 69.86C136.31 70.1 136.62 70.21 137.04 70.21C137.41 70.21 138.38 69.41 139.37 66.38C141.15 61.01 142.04 55.54 142.04 50.12C142.04 44.17 140.87 39.6 138.57 36.53C136.37 33.6 133.35 32.17 129.34 32.17C126.88 32.17 123.29 33.97 120.91 35.15C118.28 36.46 117.08 37.06 115.83 36.11C115.17 35.61 114.87 34.78 115.03 33.93C115.14 33.37 115.15 31.72 115.05 29.03C114.49 29.08 113.87 29.15 113.51 29.19C112.79 29.27 112.35 29.32 112.01 29.32C111.76 30.08 111.8 32.34 111.83 34.35C111.85 35.41 111.87 36.6 111.87 37.91C111.87 41.97 112.36 48.96 113.32 58.7C113.88 65.63 114.18 69.8 114.22 71.46C114.39 72.33 114.55 72.7 114.62 72.83L114.64 72.84Z" fill="#DF4A6F"/>
<path d="M188.05 50.13C188.05 55.79 187.12 61.42 185.28 67.01C184.14 70.48 182.73 72.22 181.05 72.22C180.15 72.22 179.38 71.94 178.74 71.38C178.1 70.82 177.78 70.15 177.78 69.36C177.78 69.15 178.35 66.97 179.49 62.85C180.63 58.73 181.2 54.62 181.2 50.55C181.2 41.29 178.3 36.67 172.51 36.67C169.2 36.67 166.49 37.9 164.39 40.35C162.22 42.87 161.14 46.2 161.14 50.34C161.14 52.65 161.47 55.87 162.12 59.99C162.77 64.12 163.1 67.06 163.1 68.82C163.1 72.91 161.93 74.96 159.6 74.96C158.41 74.96 157.59 74.7 157.14 74.17C156.78 73.77 156.49 72.93 156.25 71.67C156.23 70.19 155.93 65.94 155.36 58.89C154.38 49.04 153.9 42.04 153.9 37.9C153.9 30.69 153.23 27.31 156.01 27.31C156.91 27.31 161.01 26.57 161.01 27.31C161.01 27.83 161.3 32.86 161.01 34.31C160.72 35.76 168.31 30.16 173.35 30.16C177.99 30.16 181.6 31.88 184.18 35.32C186.76 38.76 188.05 43.69 188.05 50.11V50.13Z" fill="#DF4A6F"/>
<path d="M159.6 76.97C157.81 76.97 156.47 76.47 155.62 75.49C155.01 74.8 154.59 73.74 154.28 72.05L154.24 71.71C154.22 70.29 153.92 66.04 153.35 59.06C152.38 49.23 151.88 42.1 151.88 37.91C151.88 36.63 151.86 35.46 151.84 34.42C151.76 30.36 151.72 27.91 153.19 26.41C153.9 25.69 154.84 25.32 155.99 25.32C156.2 25.32 156.59 25.27 157.06 25.21C159.71 24.91 161.25 24.79 162.25 25.68C162.72 26.1 162.99 26.7 162.99 27.32C162.99 27.42 163 27.67 163.02 28.02C163.07 29.36 163.11 30.55 163.12 31.57C166 30.13 169.93 28.17 173.34 28.17C178.62 28.17 182.8 30.17 185.77 34.13C188.6 37.91 190.04 43.29 190.04 50.12C190.04 55.97 189.07 61.86 187.16 67.63C186.63 69.25 185 74.21 181.03 74.21C179.65 74.21 178.4 73.75 177.4 72.88C176.32 71.94 175.76 70.72 175.76 69.36C175.76 68.99 175.76 68.77 177.55 62.31C178.64 58.37 179.19 54.42 179.19 50.55C179.19 38.67 174.33 38.67 172.5 38.67C169.78 38.67 167.62 39.64 165.9 41.65C164.03 43.82 163.13 46.66 163.13 50.34C163.13 52.53 163.45 55.68 164.09 59.68C164.77 63.95 165.1 66.94 165.1 68.83C165.1 75.91 161.66 76.97 159.6 76.97ZM158.64 72.84C158.74 72.88 159.01 72.96 159.6 72.96C160.84 72.96 161.1 70.71 161.1 68.82C161.1 67.17 160.78 64.31 160.14 60.3C159.46 56.03 159.13 52.77 159.13 50.33C159.13 45.72 160.39 41.91 162.87 39.03C165.35 36.13 168.59 34.66 172.5 34.66C177.38 34.66 183.19 37.42 183.19 50.54C183.19 54.77 182.59 59.08 181.4 63.37C180.2 67.72 179.86 69.06 179.77 69.47C179.79 69.58 179.85 69.7 180.04 69.86C180.31 70.1 180.62 70.21 181.04 70.21C181.41 70.21 182.38 69.41 183.37 66.38C185.15 61.01 186.04 55.54 186.04 50.12C186.04 44.17 184.87 39.6 182.57 36.53C180.37 33.6 177.35 32.17 173.34 32.17C170.88 32.17 167.29 33.97 164.91 35.15C162.28 36.46 161.08 37.06 159.83 36.11C159.17 35.61 158.87 34.78 159.03 33.93C159.14 33.37 159.15 31.72 159.05 29.03C158.49 29.08 157.87 29.15 157.51 29.19C156.79 29.27 156.35 29.32 156.01 29.32C155.76 30.08 155.8 32.34 155.83 34.35C155.85 35.41 155.87 36.6 155.87 37.91C155.87 41.97 156.36 48.96 157.32 58.7C157.88 65.63 158.18 69.8 158.22 71.46C158.39 72.33 158.55 72.7 158.62 72.83L158.64 72.84Z" fill="#DF4A6F"/>
<path d="M222.92 29C222.92 32 221.71 37.18 219.28 44.56C217.04 51.36 213.02 59.99 207.22 70.44C206.05 72.8 204.88 75.15 203.69 77.51C202.67 79.34 201.45 80.26 200.05 80.26C199.22 80.26 198.46 79.9 197.78 79.19C197.1 78.48 196.76 77.69 196.76 76.83C196.76 75.28 197.81 72.7 199.91 69.09C203.25 63.26 205.47 59.39 206.56 57.48C207.04 56.64 206.97 55.6 206.4 54.82C202.19 49.03 198.82 43.61 196.29 38.57C194.12 34.26 193.04 31.35 193.04 29.83C193.04 27.69 194.06 26.62 196.11 26.62C197.39 26.62 198.68 27.74 199.97 29.97C201.14 32.47 202.29 34.97 203.43 37.46C205.26 41.37 207.33 45.03 209.66 48.46C210 48.96 210.77 48.86 210.98 48.3C212.5 44.17 213.74 39.88 214.68 35.43C215.8 30.31 216.37 27.71 216.39 27.61C217.08 25.66 218.15 24.68 219.61 24.68C221.8 24.68 222.9 26.12 222.9 29H222.92Z" fill="#DF4A6F"/>
<path d="M200.04 82.25C199.08 82.25 197.65 81.96 196.32 80.56C195.29 79.48 194.75 78.19 194.75 76.83C194.75 74.88 195.84 72.1 198.17 68.08L204.82 56.48C204.9 56.33 204.89 56.14 204.78 56C200.52 50.15 197.06 44.58 194.5 39.46C191.4 33.29 191.04 31.01 191.04 29.82C191.04 26.56 192.94 24.61 196.11 24.61C198.19 24.61 200.02 26.04 201.7 28.97L201.78 29.12C202.95 31.62 204.11 34.13 205.25 36.63C206.65 39.62 208.22 42.51 209.94 45.23C211.05 41.93 211.99 38.5 212.73 35.01C214.35 27.59 214.44 27.21 214.46 27.11L214.51 26.94C215.82 23.23 218.27 22.68 219.62 22.68C220.86 22.68 224.91 23.14 224.91 29C224.91 32.24 223.69 37.54 221.17 45.19C218.91 52.08 214.8 60.9 208.96 71.41C207.84 73.69 206.66 76.05 205.46 78.41C203.68 81.6 201.53 82.26 200.03 82.26L200.04 82.25ZM196.12 28.61C195.29 28.61 195.05 28.66 195.05 29.82C195.05 30.36 195.35 32.22 198.09 37.67C200.55 42.59 203.89 47.97 208.03 53.65C209.06 55.07 209.17 56.97 208.3 58.48L201.65 70.08C199.05 74.56 198.77 76.29 198.77 76.83C198.77 77.06 198.82 77.37 199.24 77.81C199.67 78.26 199.94 78.26 200.06 78.26C200.68 78.26 201.32 77.68 201.95 76.54C203.1 74.26 204.27 71.91 205.44 69.56C211.2 59.19 215.21 50.6 217.4 43.95C219.75 36.81 220.94 31.78 220.94 29.01C220.94 26.69 220.22 26.69 219.65 26.69C219.44 26.69 218.9 26.69 218.35 28.19C218.24 28.67 217.68 31.23 216.67 35.87C215.71 40.38 214.44 44.8 212.89 49C212.53 49.97 211.67 50.65 210.64 50.77C209.6 50.89 208.61 50.44 208.04 49.59C205.67 46.09 203.52 42.3 201.66 38.32C200.53 35.84 199.38 33.37 198.23 30.9C196.92 28.65 196.15 28.62 196.15 28.62L196.12 28.61Z" fill="#DF4A6F"/>
<path d="M304.69 71.52C304.69 73.45 303.06 75.51 299.8 77.7C294.35 81.38 287.38 83.22 278.89 83.22C269.75 83.22 262.68 80.92 257.67 76.33C252.66 71.73 250.16 65.25 250.16 56.88C250.16 48.51 252.69 42.26 257.76 37.19C263.23 31.74 270.53 29.01 279.64 29.01C287.4 29.01 293.75 30.7 298.7 34.08C300.56 35.33 301.48 36.5 301.48 37.57C301.48 38.37 301.11 39.07 300.37 39.69C299.63 40.31 298.79 40.61 297.84 40.61C297.22 40.61 296.34 40.26 295.2 39.57C290.06 36.49 284.83 34.95 279.5 34.95C272.86 34.95 267.57 36.91 263.62 40.83C259.67 44.75 257.7 50.08 257.7 56.82C257.7 70.39 264.77 77.17 278.9 77.17C286.97 77.17 292.72 75.54 296.17 72.28C296.96 71.42 297.74 70.56 298.53 69.68C299.29 68.92 300.16 68.55 301.14 68.55C302.12 68.55 303.01 68.83 303.69 69.4C304.37 69.97 304.71 70.68 304.71 71.53L304.69 71.52Z" fill="#DF4A6F"/>
<path d="M278.88 84.89C269.2 84.89 261.56 82.39 256.18 77.45C250.85 72.56 248.15 65.63 248.15 56.87C248.15 48.11 250.86 41.46 256.22 36.1C262.07 30.28 269.94 27.32 279.63 27.32C287.82 27.32 294.66 29.15 299.95 32.77C302.31 34.37 303.47 35.93 303.47 37.56C303.47 38.79 302.89 39.94 301.78 40.86C300.67 41.79 299.31 42.27 297.83 42.27C296.75 42.27 295.54 41.84 294.01 40.9C289.25 38.05 284.36 36.6 279.48 36.6C273.41 36.6 268.71 38.33 265.13 41.88C261.51 45.47 259.68 50.49 259.68 56.8C259.68 69.37 265.96 75.48 278.88 75.48C286.27 75.48 291.57 74.04 294.61 71.19C295.38 70.36 296.14 69.51 296.91 68.66L296.98 68.59C298.42 67.16 300.02 66.86 301.11 66.86C302.65 66.86 304.03 67.32 305.08 68.2C306.13 69.08 306.68 70.22 306.68 71.52C306.68 74.01 304.84 76.45 301.04 79C295.26 82.91 287.8 84.89 278.87 84.89H278.88ZM279.63 30.68C271.06 30.68 264.4 33.16 259.28 38.26C254.55 43 252.15 49.26 252.15 56.88C252.15 64.5 254.5 70.95 259.14 75.21C263.8 79.48 270.25 81.56 278.88 81.56C286.87 81.56 293.48 79.83 298.54 76.41C301.25 74.59 302.69 72.9 302.69 71.53C302.69 71.12 302.56 70.83 302.26 70.58C301.96 70.33 301.62 70.22 301.12 70.22C300.96 70.22 300.6 70.22 300.08 70.73C299.3 71.6 298.53 72.45 297.75 73.3L297.66 73.39C293.83 77.01 287.51 78.85 278.89 78.85C268.31 78.85 255.69 75.03 255.69 56.83C255.69 49.71 257.84 43.97 262.08 39.76C266.41 35.47 272.27 33.29 279.49 33.29C285.22 33.29 290.9 34.95 296.36 38.23C297.45 38.9 297.87 38.96 297.89 38.96C298.11 38.96 298.49 38.91 298.95 38.52C299.41 38.13 299.47 37.82 299.47 37.58C299.47 37.39 299.32 36.67 297.43 35.39C292.86 32.27 286.88 30.69 279.63 30.69V30.68Z" fill="#DF4A6F"/>
<path d="M335.83 59.17C335.83 64.13 335.11 69.32 333.66 74.74C332.94 77.46 331.86 78.82 330.43 78.82C329 78.82 328.23 77.99 328.23 76.32C328.23 75.94 324.53 76.97 322.55 76.97C319.05 76.97 316.32 75.98 314.36 74.01C312.39 72.04 311.41 69.27 311.41 65.72C311.41 62.17 312.47 59.26 314.59 57.15C316.71 55.04 319.53 53.98 323.04 53.98C325.5 53.98 327.65 54.64 329.49 55.96C330.01 56.33 330.72 55.9 330.64 55.27C329.96 49.3 327.35 46.32 322.82 46.32C321.72 46.32 320.53 46.65 319.27 47.31C318.01 47.97 317.19 48.3 316.81 48.3C316.19 48.3 315.64 48.05 315.15 47.54C314.66 47.03 314.42 46.45 314.42 45.8C314.42 44.71 315.21 43.71 316.78 42.78C318.46 41.78 320.48 41.29 322.81 41.29C331.49 41.29 335.82 47.25 335.82 59.17H335.83ZM330.31 65.55C330.31 60.95 328.15 58.65 323.82 58.65C319.07 58.65 316.7 60.93 316.7 65.5C316.7 70.07 319.05 72.4 323.76 72.4C325.81 72.4 327.41 71.8 328.57 70.59C329.73 69.38 330.31 67.71 330.31 65.55Z" fill="#DF4A6F"/>
<path d="M330.42 80.33C328.63 80.33 327.4 79.45 326.92 77.9C326.72 77.93 326.51 77.97 326.33 78C325.07 78.23 323.65 78.48 322.54 78.48C318.64 78.48 315.52 77.33 313.27 75.07C311.02 72.81 309.88 69.66 309.88 65.71C309.88 61.76 311.1 58.46 313.51 56.06C315.91 53.67 319.12 52.45 323.03 52.45C325.17 52.45 327.12 52.9 328.86 53.8C327.79 48.49 324.94 47.83 322.81 47.83C321.96 47.83 321 48.11 319.97 48.65C318.13 49.62 317.37 49.82 316.8 49.82C315.77 49.82 314.82 49.4 314.05 48.59C313.29 47.8 312.89 46.84 312.89 45.79C312.89 44.13 313.94 42.67 316.01 41.46C317.92 40.33 320.21 39.76 322.81 39.76C329.44 39.76 337.35 43.13 337.35 59.16C337.35 64.23 336.6 69.6 335.12 75.12C334.2 78.57 332.62 80.32 330.42 80.32V80.33ZM327.99 74.7C328.49 74.7 328.84 74.81 329.18 75.1L329.73 75.56L329.75 76.31C329.75 77.29 329.96 77.29 330.43 77.29C331.03 77.29 331.71 76.16 332.19 74.34C333.6 69.08 334.31 63.97 334.31 59.16C334.31 48.15 330.55 42.81 322.82 42.81C320.77 42.81 319 43.24 317.56 44.09C316.53 44.69 315.94 45.31 315.94 45.8C315.94 45.98 315.98 46.2 316.25 46.48C316.48 46.72 316.65 46.77 316.75 46.77C316.87 46.74 317.34 46.59 318.56 45.95C320.03 45.18 321.46 44.78 322.81 44.78C326.53 44.78 331.17 46.57 332.14 55.08C332.24 55.97 331.81 56.84 331.04 57.3C330.28 57.75 329.31 57.71 328.59 57.19C327 56.05 325.18 55.49 323.03 55.49C319.91 55.49 317.49 56.38 315.65 58.21C313.81 60.04 312.92 62.49 312.92 65.7C312.92 68.91 313.74 71.22 315.42 72.91C317.1 74.6 319.43 75.42 322.53 75.42C323.36 75.42 324.7 75.18 325.78 74.99C326.78 74.81 327.46 74.69 327.98 74.69L327.99 74.7ZM323.76 73.92C318.22 73.92 315.17 70.93 315.17 65.5C315.17 60.07 318.24 57.13 323.81 57.13C328.98 57.13 331.83 60.12 331.83 65.55C331.83 68.1 331.1 70.15 329.67 71.65C328.22 73.16 326.23 73.92 323.76 73.92ZM323.82 60.17C319.9 60.17 318.22 61.76 318.22 65.49C318.22 69.22 319.88 70.87 323.76 70.87C325.39 70.87 326.6 70.43 327.47 69.53C328.35 68.61 328.78 67.31 328.78 65.55C328.78 61.78 327.29 60.17 323.81 60.17H323.82Z" fill="#DF4A6F"/>
<path d="M363.59 48.54C363.59 49.23 363.38 49.81 362.97 50.28C362.56 50.75 361.62 51.98 359.55 50.8C358.63 50.27 357.93 49.85 357.24 49.85C355.52 49.85 354.31 50.47 353.25 51.98C352.19 53.49 351.46 54.91 351.46 57.48V61.04C351.46 65.01 351.04 68.16 350.21 70.49C349.43 72.68 348.43 73.78 347.19 73.78C345.54 73.78 344.72 72.96 344.72 71.33C344.72 71 344.97 69.8 345.48 67.73C345.99 65.66 346.24 63.7 346.24 61.88C346.24 56.81 345.52 52.75 344.07 49.71C344.03 49.62 343.54 48.7 342.58 46.97C342.09 46.08 341.85 45.38 341.85 44.85C341.85 44.27 342.13 43.73 342.69 43.22C343.25 42.71 343.86 42.46 344.51 42.46C346.22 42.46 347.67 44.33 348.86 48.06C349.03 48.58 349.73 48.71 350.04 48.25C351.88 45.48 354.37 44.09 357.53 44.09C359.34 44.09 360.81 44.51 361.93 45.35C363.05 46.19 363.61 47.26 363.61 48.54H363.59Z" fill="#DF4A6F"/>
<path d="M347.18 75.3C344.68 75.3 343.19 73.82 343.19 71.33C343.19 70.99 343.25 70.4 343.99 67.37C344.47 65.42 344.71 63.58 344.71 61.88C344.71 57.06 344.03 53.18 342.68 50.36L342.66 50.32C342.6 50.2 342.34 49.7 341.22 47.69C340.59 46.55 340.3 45.64 340.3 44.83C340.3 44.12 340.53 43.07 341.64 42.07C342.49 41.31 343.44 40.92 344.48 40.92C347.33 40.92 348.93 43.93 349.75 46.05C351.76 43.73 354.36 42.55 357.49 42.55C359.63 42.55 361.42 43.08 362.81 44.12C364.31 45.25 365.1 46.77 365.1 48.53C365.1 49.58 364.75 50.53 364.09 51.28C362.22 53.43 360.17 52.91 358.77 52.11L358.62 52.02C358.08 51.71 357.46 51.36 357.22 51.36C355.98 51.36 355.24 51.76 354.47 52.85C353.47 54.27 352.96 55.38 352.96 57.47V61.03C352.96 65.21 352.52 68.47 351.62 71C350.61 73.85 349.11 75.3 347.17 75.3H347.18ZM345.45 49.08C346.98 52.31 347.76 56.62 347.76 61.88C347.76 63.82 347.49 65.91 346.96 68.1C346.33 70.69 346.25 71.26 346.24 71.38C346.24 72.13 346.38 72.26 347.19 72.26C347.56 72.26 348.18 71.66 348.77 69.99C349.54 67.83 349.93 64.82 349.93 61.04V57.48C349.93 54.61 350.72 52.91 352 51.1C353.34 49.21 355 48.32 357.24 48.32C358.29 48.32 359.2 48.84 360.15 49.38L360.3 49.47C361.2 49.99 361.39 49.77 361.77 49.34L361.83 49.27C361.94 49.14 362.07 48.94 362.07 48.54C362.07 47.73 361.74 47.12 361 46.57C360.15 45.93 358.98 45.61 357.51 45.61C354.88 45.61 352.84 46.75 351.29 49.09C350.83 49.79 350.03 50.15 349.19 50.03C348.34 49.91 347.65 49.33 347.39 48.52C346.32 45.17 345.19 43.98 344.49 43.98C344.32 43.98 344.06 44.02 343.69 44.35C343.59 44.44 343.35 44.68 343.35 44.85C343.35 44.89 343.37 45.27 343.89 46.23C345.16 48.54 345.37 48.94 345.44 49.08H345.45Z" fill="#DF4A6F"/>
<path d="M394.35 52.43C394.35 54.31 393.7 55.71 392.39 56.61C391.81 57.01 389.97 57.52 386.87 58.16C382.76 59.01 379.25 59.44 376.36 59.44C375.18 59.44 373.79 59.37 372.17 59.22C371.85 59.19 371.57 59.44 371.58 59.76C371.73 66.19 374.33 69.41 379.37 69.41C380.8 69.41 382.1 69 383.26 68.19C383.84 67.79 384.88 66.82 386.38 65.28C386.92 64.72 387.49 64.44 388.09 64.44C388.85 64.44 389.51 64.73 390.06 65.3C390.61 65.87 390.89 66.57 390.89 67.41C390.89 68.1 390.63 68.73 390.1 69.31C386.98 72.72 383.33 74.42 379.15 74.42C370.49 74.42 366.16 69.41 366.16 59.4C366.16 54.24 367.54 49.78 370.29 46.03C373.42 41.77 377.3 39.65 381.92 39.65C385.52 39.65 388.49 40.85 390.83 43.26C393.17 45.67 394.33 48.73 394.33 52.44L394.35 52.43ZM388.33 52.9C388.68 52.82 388.93 52.49 388.9 52.13C388.72 49.9 388.07 48.12 386.97 46.78C385.77 45.31 384.26 44.58 382.45 44.58C380.1 44.58 378.02 45.42 376.23 47.11C374.48 48.72 373.15 50.97 372.25 53.86C372.17 54.1 372.34 54.37 372.6 54.39C373.74 54.5 374.95 54.56 376.21 54.56C379.58 54.56 383.62 54.01 388.34 52.91L388.33 52.9Z" fill="#DF4A6F"/>
<path d="M379.16 75.93C372.54 75.93 364.65 73.06 364.65 59.38C364.65 53.91 366.14 49.11 369.07 45.11C372.49 40.46 376.82 38.1 381.93 38.1C385.95 38.1 389.31 39.47 391.93 42.18C394.54 44.87 395.86 48.32 395.86 52.42C395.86 55.41 394.44 57.03 393.25 57.85C392.69 58.24 391.53 58.75 387.17 59.64C382.98 60.51 379.34 60.95 376.35 60.95C375.42 60.95 374.34 60.91 373.15 60.82C373.63 67.12 376.89 67.88 379.36 67.88C380.48 67.88 381.46 67.57 382.37 66.93C382.66 66.73 383.41 66.12 385.28 64.2C386.11 63.34 387.06 62.9 388.08 62.9C389.25 62.9 390.31 63.36 391.14 64.22C391.96 65.07 392.4 66.16 392.4 67.39C392.4 68.46 392 69.45 391.22 70.31C387.81 74.03 383.75 75.92 379.14 75.92L379.16 75.93ZM381.93 41.15C377.79 41.15 374.38 43.04 371.53 46.91C368.99 50.37 367.7 54.57 367.7 59.37C367.7 68.58 371.34 72.87 379.16 72.87C382.93 72.87 386.15 71.36 388.99 68.26C389.34 67.88 389.38 67.58 389.38 67.39C389.38 66.95 389.26 66.63 388.98 66.34C388.71 66.07 388.45 65.95 388.1 65.95C387.89 65.95 387.65 66.16 387.48 66.33C385.36 68.5 384.55 69.14 384.12 69.43C382.72 70.42 381.12 70.92 379.37 70.92C375.24 70.92 370.27 68.99 370.06 59.79C370.05 59.21 370.28 58.65 370.71 58.25C371.14 57.85 371.73 57.65 372.31 57.7C373.87 57.84 375.23 57.91 376.36 57.91C379.14 57.91 382.57 57.49 386.57 56.66C390.62 55.83 391.42 55.42 391.54 55.34C392.09 54.96 392.83 54.23 392.83 52.41C392.83 49.08 391.82 46.42 389.76 44.29C387.7 42.17 385.15 41.14 381.94 41.14L381.93 41.15ZM376.2 56.07C374.89 56.07 373.63 56.01 372.44 55.9C371.86 55.84 371.34 55.53 371.02 55.04C370.7 54.55 370.61 53.95 370.79 53.39C371.77 50.27 373.25 47.77 375.19 45.98C377.26 44.04 379.7 43.05 382.44 43.05C384.72 43.05 386.64 43.98 388.14 45.81C389.44 47.39 390.2 49.48 390.41 52.01C390.5 53.11 389.75 54.13 388.67 54.38C383.86 55.5 379.66 56.07 376.19 56.07H376.2ZM374.16 52.97C374.82 53 375.5 53.02 376.19 53.02C379.27 53.02 383 52.53 387.3 51.57C387.08 49.99 386.57 48.7 385.78 47.74C384.86 46.62 383.8 46.1 382.43 46.1C380.46 46.1 378.76 46.79 377.25 48.21C375.97 49.39 374.93 50.99 374.15 52.97H374.16Z" fill="#DF4A6F"/>
<path d="M296.63 40.04C296.63 40.04 282.74 14.68 307.93 0.42998C309.31 -0.35002 311.07 -0.0500205 312.1 1.14998C315.54 5.14998 319.88 16.3 296.63 40.04Z" fill="#DF4A6F"/>
<path d="M299.98 40.26C299.98 40.26 297.85 11.42 326.68 8.89C328.26 8.75 329.73 9.75 330.18 11.27C331.66 16.34 330.98 28.28 299.99 40.26H299.98Z" fill="#DF4A6F"/>
<path d="M277 58.33C279.761 58.33 282 55.6437 282 52.33C282 49.0163 279.761 46.33 277 46.33C274.239 46.33 272 49.0163 272 52.33C272 55.6437 274.239 58.33 277 58.33Z" fill="#DF4A6F"/>
</g>
<defs>
<clipPath id="clip0_517_373">
<rect width="395.87" height="84.89" fill="white"/>
</clipPath>
</defs>
</svg>
