<?xml version="1.0" encoding="UTF-8"?>
<svg id="b" data-name="圖層 2" xmlns="http://www.w3.org/2000/svg" viewBox="0 0 437.89 405">
  <defs>
    <style>
      .d {
        fill: #f9e8e8;
      }

      .e {
        fill: #9db3f8;
      }

      .f {
        fill: #f7931e;
      }

      .g {
        fill: #86d89d;
      }
    </style>
  </defs>
  <g id="c" data-name="三">
    <circle class="g" cx="202.5" cy="202.5" r="202.5"/>
    <ellipse class="e" cx="191.16" cy="236.42" rx="97.92" ry="124.42" transform="translate(-100.89 320.94) rotate(-67.18)"/>
    <path class="e" d="M238.33,54.9l-2.43,6.04-28.08,90.94c-2.55,12.15-11.81,19.6-21.19,16.64h0c-10.96-3.34-20.1-17.15-19.75-30.84l12.14-93.91,5.84,1.06"/>
    <path class="e" d="M129.6,41.34l-.05-5.42c-.12-18.34,11.32-31.01,25.38-28.63l73.86,9.68c10.78.99,17.36,9.84,14.81,19.96l-3.83,15.95c-1.65,7.14-8.3,13.57-14.92,14.27l-74.44,4.05c-11.22.03-20.59-13.44-20.8-29.86Z"/>
    <path class="e" d="M244.14,183.49l-1.64-.89c-11.07-5.94-17.2-19.05-12.93-29.2l82.32-116.81c9.64-9.59,30.04-12.18,44.8-5.85l2.19.95c14.28,6.28,16.69,19,6.15,28.5l-92.98,115.71c-5.17,10.06-17.33,13.5-27.92,7.6Z"/>
    <ellipse class="d" cx="186.32" cy="248.51" rx="71.36" ry="90.11" transform="translate(-115 323.88) rotate(-67.18)"/>
    <path class="e" d="M165.96,347.94l74.75,36.66c6.4,3.14,14.56,1.21,18.22-4.31l1.62-2.45c3.66-5.52,1.44-12.54-4.96-15.68l-51.89-25.45c-12.62-6.19-28.71-2.39-35.93,8.49l-1.81,2.73Z"/>
    <path class="e" d="M234.52,336.15h0c7.48-2.23,15.33.47,17.43,6.09l8.71,25.63c1.08,3.5-1.47,7.31-5.67,8.49l-9.52,2.66c-4.26,1.18-8.73-.74-10.04-4.26l-9.94-24.76c-2.39-5.47,1.6-11.64,9.02-13.84Z"/>
    <path class="e" d="M160.18,321.99l-59.94,39.44c-5.13,3.38-12.8,2.05-17.12-2.96l-1.92-2.22c-4.32-5.01-3.66-11.82,1.47-15.2l41.61-27.38c10.12-6.66,25.23-4.04,33.75,5.84l2.14,2.48Z"/>
    <path class="e" d="M59.39,375.93h0c5.11,5,12.98,5.95,17.78,2.05l22.78-17.97c3.22-2.47,3.44-6.98.42-10.04l-7.11-6.94c-3.29-3.1-8.74-3.51-12.08-.95l-22.72,17.86c-4.83,3.91-4.33,11.03.92,15.98Z"/>
    <path d="M204.24,185.16c3.8,2.59,9.04,3.13,12.75.07,1.6-1.32,2.72-3.23,2.99-5.29s-.33-4.54-2.47-5.31-4.22.58-5.22,2.41c-1.05,1.93-1.87,4.52-.15,6.28,1.53,1.56,4.12,2.87,6.26,3.22,2.48.4,4.56-.69,6.39-2.27,4.07-3.51,7.02-8.23,8.71-13.31.61-1.84-2.29-2.62-2.89-.8-1.27,3.85-3.38,7.39-6.19,10.32-1.29,1.35-2.97,3.19-4.99,3.17-1.02-.01-2-.48-2.88-.96-.61-.33-2.06-.91-2.37-1.6-.35-.78.98-4.21,2.3-3.67.77.31.62,1.84.49,2.45-.16.77-.52,1.52-1,2.14-2.55,3.3-7.12,2.65-10.21.55-1.6-1.09-3.1,1.51-1.51,2.59h0Z"/>
    <g>
      <circle cx="215.24" cy="267.61" r="20.31"/>
      <path d="M133.83,234.79c3.6,3.04,7.15,6.08,10.66,9.12.39.34.77.68,1.16,1.01.19.17.38.33.57.5.08.07.16.15.23.23.34.32-.23-.37-.07-.1.05.09.11.18.17.27.16.22-.11-.27-.11-.27.14.38-.02-.12-.02-.21.01-.62.11-.43.03-.23.02-.04.34-.68.1-.25-.16.29-.18,0,.17-.2-.07.04-.14.15-.19.2-.37.36-.11,0,.09-.05-.18.05-.5.34-.67.44-.2.12-.41.22-.62.33-.36.19.56-.25.14-.07-.15.06-.3.13-.45.2-.33.15-.67.3-1,.46-1.14.52-2.28,1.05-3.41,1.57-2.57,1.2-5.11,2.4-7.61,3.6-.7.34-1.27.72-1.67,1.44-.34.62-.5,1.48-.32,2.12.36,1.27,1.8,2.33,3.23,1.64,2.44-1.17,4.91-2.33,7.41-3.5,1.28-.59,2.57-1.18,3.86-1.77,1.26-.57,2.62-1.08,3.77-1.91,1.57-1.12,2.75-2.57,2.93-4.39.15-1.57-.74-2.87-1.83-3.84-1.9-1.68-3.88-3.29-5.84-4.94-2.26-1.88-4.54-3.77-6.83-5.65-1.13-.92-3.06-.88-4.06.33-.97,1.18-1.02,2.93.16,3.92h0Z"/>
    </g>
    <g>
      <path d="M230.68,304.51c-21.01,8.57-45.07-1.56-53.64-22.57-8.57-21.01,1.56-45.07,22.57-53.64,21.01-8.57,45.07,1.56,53.64,22.57,8.57,21.01-1.56,45.07-22.57,53.64ZM202.36,235.06c-17.29,7.05-25.62,26.85-18.57,44.13,7.05,17.29,26.85,25.62,44.13,18.57s25.62-26.85,18.57-44.13-26.85-25.62-44.13-18.57Z"/>
      <path d="M235.3,298.85h13.02v50c0,3.45-2.8,6.25-6.25,6.25h-.52c-3.45,0-6.25-2.8-6.25-6.25v-50h0Z" transform="translate(-105.56 115.51) rotate(-22.18)"/>
    </g>
    <path class="e" d="M175.66,325.16h0c-21.71-9.13-46.72,1.06-55.85,22.77l-13.74,32.67c24.82,13.47,52.77,21.89,82.48,23.91l9.89-23.5c9.13-21.71-1.06-46.72-22.77-55.85Z"/>
    <path class="f" d="M432.26,172.63c1.14-.07,3.52-1.83,5.5-.99,1.83,1.34-16.16,5.52-17.52,5.97-8.81,2.95-22.65,7.44-26.5,16.5-6.89,16.2,6.98,33.83,10.01,49.52-6.76-8.5-17.77-33.17-29.61-33.96-13.08-.88-24.32,19.16-31.37,27.96,8.77-24.94,12.68-43.99-22.01-33.01,5.34-7.1,14.96-12.21,14.05-22.49-.65-7.28-11.41-16.67-17.04-21.01,6.08.44,10.82,2.47,17.26,1.27,19.63-3.67,15.19-31.44,14.69-45.23-.04-1.11-.63-3.8,1.03-3.53,1.98,8.35,6.23,36.53,15.76,38.72,13.01,2.99,21.08-12.46,29.25-19.73-3.75,10.3-13.89,24.57-4.03,34.54,1.72,1.74,8.35,5.46,10.54,5.46,9.72,0,20.44.62,30,0Z"/>
  </g>
</svg>